<svg xmlns="http://www.w3.org/2000/svg" viewBox="0 0 2500 2500" width="20" height="20">
    <path d="M1250 0C559.7 0 0 559.7 0 1250s559.7 1250 1250 1250 1250-559.6 1250-1250C2500 559.7 1940.4 0 1250 0zm0 2475C573.5 2475 25 1926.5 25 1250S573.5 25 1250 25s1225 548.5 1225 1225-548.5 1225-1225 1225z"/>
    <path d="M340.7 868.8l31-74.7 50.3 21L365 952l-228.3-94.9 26-62.3 178 74zm76.5-373.7l30.5 27.8 49.9-54.6 40.2 36.7-49.9 54.7 71.6 65.4-45.5 49.8-182.5-166.7 100.5-110 40.2 36.6-55 60.3zm1558.3-184.5l48.4 45.5-52.3 132.3 131.2-57.9 48.9 46-131.3 220.1-48.3-47.1 73.3-129-.5-.4-142.9 60.8-19.6-18.4 54.2-144.4-.5-.5-122.2 82-49.4-45.5 211-143.5zm315.9 506l-38.2 15.8 29.2 70.3-50.3 20.8-29.2-70.2-39.3 16.3 30.7 74.1-50.2 20.8-56.6-136.4 228.3-94.7 56.6 136.4-50.3 20.8zM318.9 1175.9l.9-72-248.3 94.8-.9 73.7 246 102.8.9-71.6-42.8-18.4 1.1-92.9 43.1-16.4zm-93.3 90.1l-78.3-28.8v-.7l79-26.6-.7 56.1zM737.8 187.7l-65.3 34.2 26.3 265.3 63.4-33.2-4.1-46.3 82.3-43.2 34.9 30.3 63.7-33.4-201.2-173.7zm14 167.7L740 272.8l.6-.3 60.9 56.9-49.7 26zm457.1-138.8c36.2-9.1 53.8-40.1 51.1-74.1-4.1-52.6-44.8-72.8-95.9-68.7l-100.5 8 19.6 246.3 67.3-5.3-7.5-94.7h.7l71 89.7 83.7-6.7-89.5-94.5zm-62.8-30.2l-6.5.5-4.9-61.5 6.5-.4c21.9-1.8 47 .2 49.1 27 2.1 26.8-22.3 32.7-44.2 34.4zm471.1-66.8c-71.1-22.9-152.8 5.9-175.7 77.1-24.5 76.2 15.5 148.3 94.8 173.8s154-9.7 178.5-85.9c22.9-71.1-26.5-142.1-97.6-165zm30.7 143.9c-.2.7-.4 1.4-.7 2-12.7 38-53.9 58.4-91.8 45.7-.7-.2-1.4-.4-2-.7-37.9-12.9-58.1-54.1-45.2-92 10.5-32.5 51.5-52 89.9-39.6 38.3 12.3 60.2 52.1 49.8 84.6zm793 947.3c-2.6-74.7-57.4-141.6-132-139.1-80 2.8-134.2 65-131.4 148.2 2.9 83.3 61.4 141.6 141.3 138.8 74.7-2.7 124.7-73.3 122.1-147.9zm-124.9 77.6c-.7 0-1.5.1-2.2.1-40 .9-73.1-30.8-74-70.8 0-.7-.1-1.4-.1-2.1-.7-40 31.2-73 71.3-73.7 34.1-1.2 66.4 30.7 67.7 71 1.4 40.3-28.6 74.3-62.7 75.5z"/>
    <path d="M1250 349.5c-497.3 0-900.5 403.2-900.5 900.5s403.2 900.5 900.5 900.5 900.5-403.1 900.5-900.5-403.2-900.5-900.5-900.5zm-274.5 67.1c85.2-28.1 174.3-42.8 264-43.8v722H975.3l.2-678.2zM709.1 559.4l.4 535.5-323.2-.1c38.4-216.7 156.4-404.9 322.8-535.4zm-329.4 801.4h329.7l.1 580.2c-182.1-142.3-300.7-350.8-329.8-580.2zm859.8 766.4c-89.8-1-179-15.8-264.3-44l.1-722.4h264.2v766.4zm21 0h-1.7 1.7V372.9c478.8 4.8 866.7 395.7 866.7 877.2 0 480.9-386.8 871.4-866.7 877.1z"/>
    <path d="M1507 742.7h319v-33.2h-319v33.2zm0-60.9h319v-25.4h-319v25.4zm25.5-39.8zm66.4 0zm66.4 0zm66.5 0c14.7 0 26.7-11.9 26.7-26.7 0-14.7-11.9-26.7-26.7-26.7-14.7 0-26.7 11.9-26.7 26.7.1 14.7 12 26.7 26.7 26.7zm66.5 0zm-182.8 1298.5c-36.4 0-65.9-27.2-65.9-63.6 0-36.3 29.4-68 65.9-68h128.4c13.9 0 25.1-11.2 25.1-25.1.1-13.9-11.1-25.3-25.1-25.5h-206c-66.6 0-120.6-54-120.6-120.7 0-66.6 54-117.9 120.6-117.9l252.5-.2c15.6 0 28.2-8.2 28.2-23.7.1-15.7-12.5-28.6-28.2-28.8h-254.7c-100.4 2.2-183.5-77.3-185.7-177.7-2.2-100.4 77.3-183.5 177.7-185.7 2.7-.1 5.4-.1 8.1 0l244.8.2c19 0 34.4-16.5 34.4-35.6s-15.4-33.4-34.4-33.4l-275.8.1c13.3-57.6 51-66.5 84.2-66.4h128.5c14.7 0 26.6-11.9 26.7-26.6v-.1c0-14.7-11.9-24.4-26.7-24.4H1589c-55.3 0-81.9-48.7-84.2-75.3h132.9c11.1-35.5 33.2-53.2 57.6-53.2H1837c48.7 0 68.6-31 73.1-44.3 33.2 15.5 152.8 110.8 152.8 270.3s-141.7 241.4-230.4 242.1h-296.8c-15.6 0-28.2 12.6-28.2 28.2s12.6 28.2 28.2 28.2l279.1-.2c88.2 0 159.8 74.4 159.8 162.6 0 88.2-71.5 157.6-159.8 157.6l-265.9-.3c-14.7 0-26.6 11.9-26.6 26.6 0 14.7 11.9 26.6 26.6 26.6l201.6.2c47.6 0 86.1 38.6 86.1 86.2 0 47.7-38.6 85.6-86.1 85.6l-121.9.4c-11.2 0-20.3 9.2-20.3 20.4s9.1 20.3 20.3 20.3h93.6c32.7.1 69.2 48.3-1.1 74.9.6-13.8-1.7-33.8-31-33.8-29.2.1-74.6 0-74.6 0z"/>
    <path d="M1527.5 943.2c-52.1 24.4-64.8 97.4-62.1 122.9l-73 50.4c-9.7 10.5-26 11.2-36.5 1.5s-11.2-26-1.5-36.5l1.5-1.5 47.1-32.7c23.2-15.5 18.8-41 15.5-62-3.3-21-25.4-11.1-32.1-3.3-9.9 9.9-23.6 16.1-38.7 16.1-30.3 0-54.8-23.5-54.8-53.8 0-30.3 24.6-54.8 54.9-54.8 14.5 0 28.5 5.8 38.7 16 6.7 7.8 28.9 17.8 32.1-3.3 3.3-21 7.7-46.5-15.5-62l-47.1-32.7c-10.1-10.1-10.1-26.5 0-36.5 10.1-10.1 26.5-10.1 36.5 0l73 50.4c-4.5 21 9.9 97.5 62 121.8z"/>
</svg>
