<svg xmlns="http://www.w3.org/2000/svg" viewBox="0 0 619.9 619.9" width="20" height="20">
    <path d="M613.5 343.8v9c-1.9.2-3.4.4-5 .4-158.3 0-316.6.1-474.9-.3-31-.1-61.9-3.1-91.9-11.9-9-2.7-18-6.3-26-11.2-16.7-10.1-16.6-24.4-.5-35.6 9.7-6.7 20.8-10.4 32.1-13.5 23.1-6.3 46.7-9.2 70.4-11.2 38.4-3.3 76.9-1.7 115.4-1.9 1.3 0 2.6.1 3.9.9-9.5.4-19.1.9-28.6 1.3-22.6 1-45.3 1.6-67.9 3.3-21.1 1.6-42.1 4.8-62.1 11.9-5.5 1.9-10.8 4.5-15.8 7.4-3.1 1.8-6 4.4-8.2 7.2-5.7 7.1-5.5 15.7 1.7 21.3 5.6 4.4 12.3 8 19.1 10.5 15.4 5.7 31.7 7.6 48 9.2 30.2 3 60.5 3 90.9 3 130.5-.1 261 0 391.5 0 2.2.2 4.6.2 7.9.2z"/>
    <path d="M181.4 300.2v33.2h-14.7v-45.9h27c3.9 8.3 8 16.8 12.6 26.4 4.7-9.4 8.9-17.9 13.1-26.5h27v45.7h-17.6v-33.4c-.3-.1-.6-.1-.9-.2-5.6 11.3-11.2 22.5-16.8 33.9h-12.3c-5.4-11-10.8-22.2-16.3-33.4-.3.1-.7.2-1.1.2zm144.4 28.9c-10.1 6-20.8 6.4-31.6 3.8-12.2-3-18.9-11.7-18.4-23.3.3-7.6 3.7-13.6 10.2-17.4 13.4-7.8 27.3-7.6 41.2-1.4 4.7 2.1 8.4 5.8 9.3 12-5.6.5-10.6 1-15.4 1.4-6.7-8-13.2-10.2-20.1-7-5.2 2.4-7.8 8.6-6.9 16.4.8 6.1 4.8 10.1 11.1 11 6.8 1 11.8-1 14.2-6.3-4.4-.3-8.5-.6-13.1-1v-8.4h30v24.3c-2.6.2-4.8.3-7.1.5-1-1.5-2-2.7-3.4-4.6zm-185.9-4.7h-22.6c-1.6 2.8-3.1 5.7-4.9 8.9H96.8c8.1-15.8 15.7-30.8 23.5-46h20.4c7.5 15.1 15 30 22.9 45.9h-18.9c-1.4-2.7-3-5.5-4.8-8.8zm-4.4-9.8c-2.3-4.8-4.3-8.9-6.3-13.1-.4.1-.8.1-1.2.2-2 4.1-3.9 8.1-6.2 12.9h13.7zm436.8-4.6c-1.2-1.2-2.2-3.3-3.5-3.6-5-1.1-10.1-1.4-13.1 3.3h-14.2l-.9-1.2c1.4-1.8 2.4-4.1 4.2-5.3 2.3-1.6 5-2.7 7.7-3.3 9-2.1 18.2-2.2 27.2 0 7.2 1.8 9.2 4.7 9.3 12.1v21.3h-14.5c-.7-1-1.4-2.1-2.1-3.3-.4.1-1 0-1.3.3-6.7 4.5-14.2 4.5-21.7 3.3-6.6-1.1-10.4-4.7-10.5-9-.1-4.1 3.2-8.3 9.3-9.8 6.1-1.5 12.4-2 18.7-3 1.5-.2 2.9-.3 4.4-.5.3-.3.7-.8 1-1.3zm-15.8 13.4c2.6 4 6.6 5 11.2 2.9 3.5-1.6 4.5-3.9 3.3-7.8-6.9-1.1-11.6.5-14.5 4.9zm-177.2-2.1c3.9.2 7.7.4 11.6.7.4 0 .9.4 1.6.7-1.4 4.4-4.6 7-8.4 8.6-11.1 4.6-22.4 4.6-33.4-.7-5.6-2.7-9.3-7.1-9.4-13.6-.1-6.7 3.3-11.5 9.1-14.4 11.5-5.7 23.1-5.7 34.6 0 6 3 8.4 7.9 8.1 15.6h-33.3c-1.3 4.1.5 5.8 3 7.1 5.6 2.7 10.7 1.5 16.5-4zm-2.6-9.8c-2.1-5.1-4.5-6.3-10.6-5.5-3.2.4-6 1.3-6.3 5.5h16.9zm112.4 9.7c4.4.3 8.6.6 13.7.9-.8 1.6-1.2 2.9-2 3.7-1.6 1.7-3.3 3.3-5.3 4.5-9.9 6.2-28.8 5.2-38.1-1.8-8.1-6.2-8.5-17.1-.7-23.7 9.8-8.3 30.8-8.6 40.8-.5 4.1 3.4 6.1 7.7 5.4 14h-33.2c-1.6 3.8.2 5.5 2.7 6.9 5.7 2.8 11.3 1.6 16.7-4zm-2.4-9.7c-2.1-5.1-4.6-6.2-10.7-5.5-3.2.4-6.1 1.2-6.3 5.5h17zM399 299.3h14.2c.4 1 .9 2.2 1.5 3.5.4-.1 1-.1 1.3-.4 7.2-5.2 15.1-4.6 23-2.4 4 1.1 6.8 4 7 8.3.3 8.1.1 16.3.1 25h-16.3v-9.9c0-3 .1-6 0-9-.1-5.3-1.6-7.1-6.1-7.3-5.1-.2-8 2.1-8.3 7.1-.2 4.1-.1 8.3-.1 12.5v6.5h-16.2c-.1-11.3-.1-22.2-.1-33.9zm214.3 34h-16v-45.7h16v45.7zm-90.2-33.9c.5 1.2 1 2.2 1.5 3.3 3.9-3.2 7.9-5.2 13.3-3.7v9c-.5.4-.8.7-1.1.7-10.8 2-11.9 3.4-12 14.5v10H509v-33.8h14.1z"/>
</svg>
