<svg xmlns="http://www.w3.org/2000/svg" viewBox="0 0 1024 1024" width="20" height="20">
    <path d="M1008.94 414.374c-3.5-5.8-9.8-6.2-12.6-6.4h-403.1c-11.4 0-20.6 3.5-27.5 10.3-4.9 4.9-8.2 11.2-10 18.9-.1.3-.6 1.8-4 1.8h-79.7c-3.4 0-3.9-1.6-4-1.8-1.7-7.7-5.1-14-10-18.9-6.8-6.8-16.1-10.3-27.4-10.3h-403c-2.6.1-9 .5-12.5 6.4-1.7 2.8-2.9 7.6.7 14.3l7.4 12.3c3 4.9 6.5 6.7 13.7 7.2.1 0 3.5.3 5.8 4.4l7.5 13.2c1.6 3 5.3 10.1 18.1 11.9.2 0 3.9.4 6 4.3l9.3 16.3c2.7 5.2 6.5 7.2 13.4 9.3l168.6 49.5c5.7 1.7 8.1 8.2 8.1 8.2 4 10.4 9.2 19 35.6 26.9l137.9 37.6c1.7.6 17.5 5.4 29.4-6.1l32.4-30.9s1.3-1.3 3.1-1.3 3.2 1.4 3.2 1.4c.1.1 32.3 30.8 32.3 30.8 11.9 11.5 27.7 6.7 29.5 6.1-.1 0 137.8-37.6 137.9-37.6 26.3-7.9 31.7-16.7 35.5-26.9.2-.4 2.4-6.5 8.1-8.2 0 0 25.5-7.5 168.6-49.5 6.9-2.1 10.7-4.1 13.4-9.3l9.2-16.2c2.1-4 5.7-4.4 5.9-4.5 12.9-1.7 16.6-8.8 18.2-11.9l7.5-13.2c2.3-4.1 5.7-4.4 5.9-4.4 7.2-.5 10.7-2.3 13.7-7.2l7.4-12.3c1.6-2.9 2.3-5.6 2.3-8.2-.2-2.1-.7-4.2-1.8-6m-445.8 24.5c1.4-6.2 4.1-11.3 8-15.2 5.4-5.4 12.8-8.1 22.1-8.1h185.2c-6.4 4.8-9.7 10.8-9.9 11.2-2.2 4-4.8 8.7-8 14h-198.1c.4-.8.7-1.9.7-1.9m-250.8 63.8l-.1-.1v-56h399.4v56.1h-399.3zm-5.9-48.5l-32.8 2.2c-2.3-3.4-4.5-6.7-6.5-9.8h39.3v7.6zm0 6.1v8l-21.9 2.9c-2.4-3.1-4.6-6.1-6.8-9l28.7-1.9zm0 13.8v9.2l-10.2 2.1c-2.6-3-5.1-6-7.5-8.9l17.7-2.4zm0 15.2v7.3c-2-2.1-3.9-4.1-5.7-6.2 2.3-.4 4.2-.8 5.7-1.1m73.8 19.2h36.1l-50.4 36.1c-8.7-5.3-17.3-11.1-25.5-17.4 18.9-8.9 36.4-17.1 39.8-18.7m-45 14.6c-.5-.4-12-10-16.8-14.6h48l-31.2 14.6zm91.1-14.6h19.4l-49.7 51.8c-8.4-3.7-16.6-7.9-24.6-12.5 23.8-17 48.7-34.8 54.9-39.3m27.5 0h16.5l-38.3 64.8c-10.3-2.9-20.4-6.4-30.2-10.5 20.8-21.8 45.9-48 52-54.3m23.2 0h13.9l-20.2 72.8c-11.2-1.5-22.2-3.6-32.9-6.4 14.7-24.8 34.3-58 39.2-66.4m69.9 0l39.2 66.3c-10.7 2.8-21.7 4.9-32.9 6.4l-20.2-72.7h13.9zm6.8 0h16.5l52 54.3c-9.8 4.1-19.9 7.6-30.3 10.5l-38.2-64.8zm24.5 0h19.4l54.9 39.3c-8 4.6-16.2 8.8-24.6 12.5-18.1-18.8-39.9-41.6-49.7-51.8m29.4 0h36.1l39.8 18.6c-8.3 6.4-16.8 12.2-25.5 17.4-19.2-13.7-39.5-28.2-50.4-36m49.9 0h48c-4.9 4.9-16.5 14.3-16.8 14.6-11.7-5.4-23.1-10.8-31.2-14.6m60-19.2l5.8 1.2c-1.9 2.1-3.8 4.1-5.8 6.2v-7.4zm0-5.9v-9.2l17.8 2.4c-2.4 3-4.9 5.9-7.5 8.9-4.6-1-8.2-1.7-10.3-2.1m0-15.1v-8l28.7 1.9c-2.1 2.9-4.4 6-6.8 9l-21.9-2.9zm0-14.1v-7.7h39.4c-2 3.1-4.2 6.4-6.5 9.8l-32.9-2.1zm-286.8-38.6c9.3 0 16.8 2.7 22.1 8.1 3.9 3.9 6.6 9 8 15.2 0 0 .3 1.1.6 1.8h-198c-3-5-8-14-8-14-.2-.4-3.6-6.4-9.9-11.2h185.2zm-393.3 25.1c-5.1-.4-6.2-1-7.8-3.6 0 0-6.7-11.1-7.2-12-1.1-2.1-1.5-3.6-1.4-4.6.1-2.7 2-4.8 6.9-4.9h200.9c13.6 0 21.6 14 21.6 14 1.8 3.3 3.9 7.1 6.3 11.2H37.44zm27.2 28.5c-5.1-1.8-6.8-4.8-7.8-6.8-3.1-5.3-7.2-13.3-9.3-15.8h212.7c2 3.3 4.3 6.7 6.7 10.3l-186.6 12.4c-2.9.3-11.4 1-15.7-.1m34.5 26.9c-6.8.9-8.9-1.3-9.3-1.9l-8.9-15.7c-.6-1.2-1.3-2.1-2.1-3 1.2-.1 192.1-12.8 192.1-12.8 2.2 3.1 4.5 6.2 6.9 9.5l-178.7 23.9zm43.3 17.2c-18.5-5.5-33.6-9.9-40-11.8l179.6-24.1c2.5 3.1 5 6.2 7.7 9.4l-122.8 25.2c-4.7 1-17.7 3-24.5 1.3m60.9 17.8c-13.7-4-28.2-8.3-41.8-12.3 3.6-.5 6.2-1 6.5-1.1 0 0 89-18.3 126.1-25.9 3.6 4.1 7.5 8.2 11.6 12.4l-82.3 25.4c-.3.1-11.5 3.8-20.1 1.5m64.2 18.9c-1.8-.5-21.3-6.2-46.5-13.7 2.4-.6 4-1.1 4.2-1.1-.1 0 69.1-21.3 85.2-26.3 5.9 5.7 12.2 11.4 19 17l-44.5 20.8c-3 1.5-11.6 4.9-17.4 3.3m35.6 32.3c-17.4-6.6-20-13.1-22.5-19.5-.2-.6-1.5-3.9-4.3-7.2 5.9-1.1 10.8-3.6 11.1-3.7l47-22c8.5 6.7 17.3 12.8 26.3 18.4l-41.6 29.8c-.1.1-8.7 6.5-16 4.2m50 14.2l-36.9-10.1c3.7-1.6 6.2-3.5 6.4-3.6 0 0 20.6-14.7 43.6-31.2 8.3 4.9 16.8 9.3 25.5 13.2l-24.2 25.2c-2.1 2.3-8.9 7.8-14.4 6.5m51.1 13.9l-39.7-10.8c4.1-2.3 7-5.3 7.2-5.5 0 0 11.3-11.8 25.7-26.8 10.2 4.4 20.7 8.1 31.5 11.2l-13.1 22.2c-1.6 2.9-7 10.5-11.6 9.7m58.3.8c0 .1-1.6 7.2-6.6 10.2-2.2 1.4-4.9 1.7-7.9 1l-34.7-9.5c4.2-3.4 7.1-8.4 7.6-9.3 0 0 5.9-9.9 13.9-23.5 11.2 3 22.7 5.3 34.4 6.9l-6.7 24.2zm8.8 7.2c-2.7 2.6-5.6 4-8.5 4.8 3.8-4.3 5.2-9.8 5.4-10.6l6.9-24.7c8.6 1 17.4 1.7 26.3 2-7.2 6.6-30.1 28.5-30.1 28.5m5.3-36.4l20.4-73.5h12v75.5c-11-.1-21.8-.7-32.4-2m38.3 2v-75.5h12.1l20.4 73.5c-10.7 1.3-21.5 1.9-32.5 2m32.7 29.6s-18.7-17.8-25-23.9c8.9-.3 17.7-1 26.3-2l6.9 24.8c.2.9 1.6 6.3 5.4 10.6-5.3-1.5-6.9-3-13.6-9.5m28.4 8.8c-3.1.7-5.7.4-8-1-4.8-2.9-6.4-9.7-6.5-10.1l-6.7-24.2c11.7-1.6 23.2-3.9 34.4-6.9l13.9 23.6c.5.9 3.3 5.8 7.5 9.2l-34.6 9.4zm43.7-12c-4.6.7-10-6.8-11.5-9.6l-13.2-22.3c10.8-3.1 21.3-6.8 31.5-11.2l25.7 26.8c.2.2 3.1 3.2 7.2 5.5l-39.7 10.8zm57.7-15.7l-6.6 1.8c-5.5 1.3-12.3-4.2-14.4-6.4 0 0-10.6-11-24.2-25.2 8.7-3.9 17.2-8.4 25.5-13.2l43.7 31.2c.2.1 2.7 2 6.3 3.6-9.7 2.6-30.3 8.2-30.3 8.2m65.9-31.9c-2.5 6.4-5.1 12.9-22.6 19.5-7.2 2.2-15.8-4.2-15.9-4.2 0 0-19.5-14-41.7-29.8 9-5.6 17.8-11.7 26.3-18.3l47.1 22c.3.1 5.1 2.6 11 3.7-2.7 3.2-4 6.5-4.2 7.1m13.2-12.8c-5.8 1.6-14.4-1.8-17.3-3.2 0 0-22-10.3-44.6-20.9 6.8-5.5 13.1-11.2 19-17l85.3 26.3c.2.1 1.7.6 4.1 1.1l-46.5 13.7zm64.2-18.9c-8.6 2.3-19.9-1.4-20-1.5h-.1l-82.2-25.4c4.1-4.1 7.9-8.3 11.6-12.4l126 25.9c.3.1 2.9.6 6.5 1.1l-41.8 12.3zm60.9-17.8c-6.7 1.8-19.9-.2-24.5-1.2 0 0-84.1-17.3-122.8-25.2 2.7-3.2 5.3-6.3 7.7-9.4l179.5 24.1-39.9 11.7zm61.5-34.7c0-.1-7.3 12.9-8.9 15.6-.4.5-2.5 2.8-9.3 1.9l-178.7-24c2.4-3.2 4.8-6.4 6.9-9.5l189.9 12.6c.3 0 1.1.1 2.2.2-.8.9-1.5 2-2.1 3.2m31.7-29.7l-7.6 13.4c-1.1 2-2.7 5.1-7.8 6.8-4.3 1.1-12.8.4-15.7 0l-186.5-12.4c2.4-3.6 4.7-7 6.7-10.3h212.7c-.8.9-1.3 1.7-1.8 2.5m26.8-23.8c-.1.2-7.2 12-7.2 12-1.4 2.2-2.2 3.2-7.8 3.6h-219.3c2.5-4.1 4.6-7.9 6.3-11.2.1-.1 7.8-14 21.6-14h200.9c2.1.1 4.8.3 6.3 2.7.2.3.6 1 .6 2.2 0 1.1-.3 2.6-1.4 4.7"/>
    <path d="M336.94 455.674l-17 38h4.8v-.4c1.4-4.6 3.1-9 4.8-13.3 0 0 .3-.5.4-.7h13.3c1.8 4.1 3.6 8.5 5.5 14v.4h6.3l-16.3-38h-1.8zm33.3 0c-7.5 0-12.2 3.9-12.2 10.3 0 6.6 4.9 8.6 9.2 10.3 3.9 1.5 7.8 2.9 7.8 7.4 0 4.2-3.4 7.8-7.4 7.8-3.6 0-6.1-1.7-8.5-5.5h-1.1l-1.1 5.2h.4c2 2.2 6.4 3.3 8.9 3.3 8 0 13.7-5.2 13.7-12.6 0-6.1-4.7-8.2-9.2-10-4-1.6-7.8-2.9-7.8-7.4 0-3.4 2.9-5.9 6.6-5.9 3 0 5.2 1.6 6.3 4.4h1.1l1.5-4.8c-2.3-1.9-5.8-2.5-8.2-2.5zm59.1 0c-11.9 0-20.3 7.7-20.3 19.2 0 11.6 8.3 19.6 20.3 19.6 12.5 0 20.7-8.3 20.7-20.3 0-13-10.4-18.5-20.7-18.5zm142.5 0l-17 38h4.4v-.4c1.4-4.7 3.4-9 5.2-13.3 0 0 .3-.5.4-.7h12.9c1.8 4.1 3.7 8.7 5.5 14l.4.4h6.3l-16.6-38h-1.5zm-189.8.7v3.7h.4c3.2-.4 6.4-.4 11.4-.4v34h5.2v-34c3.8 0 7.7 0 11.1.4h.4v-3.7h-28.5zm73.9 0v37.3h3.7v-28.8c.2.2 23.3 25.5 23.3 25.5l3 3.3h1.8v-37.3h-3.7v27.7c-.2-.2-25.5-27.7-25.5-27.7h-2.6zm58.3 0v.4c-.5 5.5-3.8 27.9-5.2 36.6v.4h4.4v-.4c0-5.3.9-13.1 1.8-21.4 0 0 .6-3.7.7-5.2.6 1.2 7.7 14.4 10.3 19.9l3 6.3h1.1c3.1-7.2 7.6-15.4 13.7-26.2.8 6.4 2 19.2 2.6 26.6v.4h5.9v-.4c-1.3-9.1-2.8-20.9-4.4-36.6v-.4h-1.9l-8.9 16.3s-5.8 10.5-6.3 11.4c-5.6-9.3-10.5-19.2-14.8-27.7h-2zm79.1 0v37.3h5.2v-18.1h1.5c.2.2 4.4 5.2 4.4 5.2l6.3 8.1 3.3 4.8h7s-14.1-17.7-14.8-18.5c6.8-1.4 11.1-5.1 11.1-10.3 0-5.7-4.3-8.5-12.6-8.5h-11.4zm26.9 0v3.7h.4c3.2-.4 6.4-.4 11.4-.4v34h5.2v-34c3.8 0 7.7 0 11.1.4h.4v-3.7h-28.5zm32.9 0v37.3h5.2v-37.3h-5.2zm12.9 0v37.3h3.7v-28.8c.2.2 23.3 25.5 23.3 25.5l3 3.3h1.8v-37.3h-3.7v27.7c-.2-.2-25.5-27.7-25.5-27.7h-2.6zm-236.4 1.5c4.3 0 8.6 2 11.1 5.2 2.8 3.5 3.3 7 3.3 11.4v.7c0 3.6-1.4 9-4.8 12.6-2.6 2.8-6 4.1-10 4.1-8.7 0-14.4-6.4-14.4-16.3.1-10.9 5.7-17.7 14.8-17.7zm168.8 1.1c2.2-.1 5.9-.3 7.8 0 3.7.6 5.5 2.6 5.5 6.3 0 3.8-2.5 6.5-6.6 7.4-2.3.5-5.3.4-6.6.4v-14.1zm-261.8 4.8c.5 1.2 5.2 11.7 5.5 12.6h-10.7c.4-.9 4.6-11.3 5.2-12.6zm234.9 0c.5 1.2 4.8 11.7 5.2 12.6h-10.7c.3-.9 4.9-11.3 5.5-12.6z"/>
</svg>
