<svg xmlns="http://www.w3.org/2000/svg" viewBox="0 0 1024 1024" width="20" height="20">
    <path d="M442.9 508.6h-20.1c-6.4 4.7-32.3 23.1-56.9 40.8 8.3 4.8 16.8 9.1 25.5 13l51.5-53.8zm-30.5 0H375c-3.5 1.7-21.7 10.2-41.3 19.4 8.5 6.5 17.4 12.6 26.5 18l52.2-37.4zm-84.1 15.2l32.4-15.1h-49.8c5 4.7 16.9 14.7 17.4 15.1zm286.8-60c0-3.8-1.9-5.9-5.7-6.5-2-.3-5.8-.1-8.1 0h.1v14.6c1.3 0 4.5.1 6.8-.4 4.3-.9 6.9-3.7 6.9-7.7z"/>
    <path d="M718.7 444.4H304.5v58.1l.1.1h414.2v-58.2zm-376.4 48.9v-.4c-2-5.7-3.8-10.3-5.7-14.5h-13.8c-.1.2-.4.7-.4.7-1.8 4.5-3.5 9-5 13.8v.4h-5l17.6-39.4h1.9l16.9 39.4h-6.5zm18.2.8c-2.6 0-7.2-1.1-9.2-3.4h-.4l1.1-5.4h1.1c2.5 3.9 5.1 5.7 8.8 5.7 4.1 0 7.7-3.7 7.7-8.1 0-4.7-4-6.1-8.1-7.7-4.5-1.8-9.5-3.8-9.5-10.7 0-6.6 4.9-10.7 12.7-10.7 2.5 0 6.1.6 8.5 2.6l-1.6 5h-1.1c-1.1-2.9-3.4-4.6-6.5-4.6-3.8 0-6.8 2.6-6.8 6.1 0 4.7 3.9 6 8.1 7.7 4.7 1.9 9.5 4 9.5 10.4-.1 7.7-6 13.1-14.3 13.1zm34-.8h-5.4V458c-5.2 0-8.5 0-11.8.4h-.4v-3.8h29.5v3.8h-.4c-3.5-.4-7.6-.4-11.5-.4v35.3zm31.4.8c-12.4 0-21.1-8.3-21.1-20.3 0-11.9 8.7-19.9 21.1-19.9 10.7 0 21.5 5.7 21.5 19.2 0 12.4-8.5 21-21.5 21zm60.6-.8h-1.9l-3.1-3.4s-24-26.2-24.2-26.5v29.9h-3.8v-38.7h2.7s26.2 28.5 26.5 28.7v-28.7h3.8v38.7zm67.2.1h-6.1v-.4c-.6-7.7-1.9-21-2.7-27.6-6.3 11.2-11 19.7-14.2 27.2h-1.1l-3.1-6.5c-2.7-5.7-10.1-19.4-10.7-20.6-.1 1.6-.7 5.4-.7 5.4-.9 8.6-1.9 16.7-1.9 22.2v.4h-4.6v-.5c1.5-9 4.9-32.3 5.4-38v-.4h2.1c4.5 8.8 9.5 19.1 15.4 28.7.5-.9 6.5-11.8 6.5-11.8l9.2-16.9h2v.4c1.7 16.3 3.2 28.5 4.6 38v.4zm32.3-.1l-.4-.4c-1.9-5.5-3.8-10.3-5.7-14.5h-13.4c-.1.2-.4.7-.4.7-1.9 4.5-3.9 8.9-5.4 13.8v.4h-4.6l17.6-39.4h1.6l17.2 39.4H586zm31.9 0h-.4l-3.4-5-6.5-8.4s-4.4-5.2-4.6-5.4h-1.6v18.8H596v-38.7h11.8c8.6 0 13.1 2.9 13.1 8.8 0 5.4-4.5 9.2-11.5 10.7.7.8 15.4 19.2 15.4 19.2h-6.9zm35.6-34.9h-.4c-3.5-.4-7.6-.4-11.5-.4v35.3h-5.4V458c-5.2 0-8.5 0-11.8.4h-.4v-3.8h29.5v3.8zm10 34.9h-5.4v-38.7h5.4v38.7zm40.9 0h-1.9l-3.1-3.4s-24-26.2-24.2-26.5v29.9h-3.8v-38.7h2.7s26.2 28.5 26.5 28.7v-28.7h3.8v38.7z"/>
    <path d="M567.7 475.3h11.1c-.4-.9-4.9-11.8-5.4-13.1-.6 1.4-5.4 12.2-5.7 13.1zM298.4 473l-18.4 2.5c2.5 3 5.1 6.1 7.8 9.2l10.6-2.2V473zm127.8-16.9c-9.4 0-15.2 7.1-15.4 18.4 0 10.3 5.9 16.9 14.9 16.9 4.1 0 7.7-1.3 10.4-4.3 3.5-3.7 5-9.3 5-13.1v-.7c0-4.6-.5-8.2-3.4-11.8-2.5-3.3-7-5.4-11.5-5.4zm-180.7-32.3s5.2 9.3 8.3 14.5h205.4c-.3-.7-.6-1.9-.6-1.9-1.5-6.4-4.3-11.7-8.3-15.8-5.5-5.6-13.3-8.4-22.9-8.4v-.1H235.3c6.5 5 10 11.3 10.2 11.7zm52.9 64.9c-1.6.3-3.5.7-5.9 1.1 1.9 2.2 3.8 4.3 5.9 6.4v-7.5zm0-30.1l-29.8 2c2.3 3 4.6 6.1 7.1 9.3l22.7-3v-8.3zm191.4 50h-14.4c-5.1 8.7-25.4 43.2-40.7 68.9 11.1 2.9 22.5 5.1 34.1 6.6l21-75.5zm-21.3 0h-17.1c-6.3 6.5-32.4 33.7-53.9 56.3 10.2 4.3 20.6 7.9 31.3 10.9l39.7-67.2zm256.4-12.2c2.1-2.2 4-4.3 6-6.4l-6-1.2v7.6zm-400.5-21.1h11.1c-.3-.9-5.2-11.8-5.7-13.1-.7 1.4-5 12.2-5.4 13.1zm430.2-14.7l-29.8-2v8.3l22.7 3c2.6-3.1 5-6.3 7.1-9.3zm-11.3 14.9l-18.5-2.5v9.5c2.2.4 5.9 1.1 10.7 2.2 2.7-3 5.3-6 7.8-9.2zm34.5-51.6c.2-.4 3.6-6.6 10.3-11.6H595.9c-9.6 0-17.3 2.8-22.9 8.4-4 4-6.8 9.3-8.3 15.8 0 0-.3 1.1-.7 2h205.5c3.3-5.6 6-10.5 8.3-14.6zm-12.1 20.4h-40.9v8l34.1 2.2c2.5-3.5 4.8-7 6.8-10.2zM626 565l-53.9-56.3H555l39.6 67.2c10.8-3.1 21.2-6.7 31.4-10.9zm86.4-56.4h-49.8c8.4 3.9 20.2 9.5 32.4 15.1.3-.2 12.3-10 17.4-15.1zm-22.8 19.3l-41.3-19.3h-37.4c11.3 8.1 32.4 23.1 52.3 37.3 9-5.3 17.8-11.3 26.4-18zm-156.1-19.3l21 75.4c11.6-1.6 23-3.7 34.1-6.6l-40.7-68.8h-14.4zm123.9 40.8l-56.9-40.8h-20.1c10.2 10.6 32.8 34.2 51.6 53.7 8.6-3.8 17.1-8.1 25.4-12.9zm63.4-40.4c-6.1 6-12.7 11.9-19.7 17.6 23.4 11 46.3 21.7 46.3 21.7 3 1.5 11.9 5 17.9 3.3l48.2-14.2c-2.5-.5-4-1-4.3-1.1L720.8 509zm-114.6 98.5L591.8 583c-11.6 3.1-23.5 5.5-35.7 7.2l6.9 25.1c.1.4 1.8 7.5 6.7 10.5 2.4 1.5 5.1 1.8 8.3 1l36-9.8c-4.4-3.5-7.3-8.6-7.8-9.5zm50.9-10.1l-26.7-27.8c-10.6 4.6-21.5 8.4-32.7 11.6l13.7 23.1c1.6 2.9 7.2 10.7 11.9 10l41.2-11.2c-4.2-2.4-7.2-5.5-7.4-5.7zM550 590.8c-8.9 1-18 1.8-27.3 2.1 6.5 6.3 25.9 24.8 25.9 24.8 6.9 6.7 8.6 8.3 14.1 9.9-3.9-4.5-5.4-10.1-5.6-11l-7.1-25.8zm-75-5.9c11 1.3 22.2 2 33.6 2.1v-78.3h-12.4L475 584.9zm-8.7 31.7c-.2.8-1.7 6.5-5.6 11 3-.8 6-2.3 8.8-5 0 0 23.8-22.7 31.2-29.6-9.2-.3-18.4-1-27.3-2.1l-7.1 25.7zm196.5-63.2c-8.6 5-17.4 9.6-26.5 13.7 14.1 14.7 25.1 26.1 25.1 26.1 2.2 2.3 9.2 8 14.9 6.6l6.8-1.9s21.4-5.8 31.4-8.5c-3.7-1.7-6.3-3.6-6.5-3.7l-45.2-32.3zm-135.5-44.8h-12.6v78.3c11.4-.1 22.6-.7 33.7-2.1l-21.1-76.2zm-95.7 74.3c-8.3 14.1-14.4 24.4-14.4 24.4-.5.9-3.5 6.1-7.9 9.6l36 9.9c3.1.7 5.9.4 8.2-1 5.2-3.1 6.8-10.5 6.8-10.6l6.9-25.1c-12-1.7-24-4.1-35.6-7.2zM298.4 444.4h-40.8c2.1 3.2 4.4 6.6 6.7 10.2l34-2.3v-7.9zm722-29.4c-1.6-2.5-4.4-2.7-6.5-2.8H805.5c-14.3 0-22.3 14.4-22.4 14.5-1.8 3.4-3.9 7.4-6.5 11.6H1004c5.8-.4 6.6-1.5 8.1-3.7 0 0 7.4-12.2 7.5-12.4 1.1-2.2 1.5-3.7 1.5-4.9-.1-1.3-.5-2-.7-2.3zm-258.6 46c-2.2 3.2-4.7 6.5-7.2 9.9L940 495.8c7.1.9 9.2-1.5 9.6-2 1.7-2.8 9.2-16.3 9.2-16.2.6-1.2 1.3-2.4 2.2-3.3-1.1-.1-2-.2-2.3-.2L761.8 461zm-66.1 69.9c-8.8 6.8-17.9 13.2-27.3 19 23 16.4 43.3 30.9 43.3 30.9.1 0 9 6.6 16.5 4.4 18.2-6.8 20.8-13.6 23.4-20.2.2-.6 1.6-4 4.4-7.4-6.1-1.1-11.1-3.7-11.4-3.8l-48.9-22.9zm46.6-44.7c40.1 8.2 127.4 26.1 127.4 26.1 4.8 1 18.5 3.1 25.4 1.2l41.4-12.1-186.2-25c-2.5 3.3-5.2 6.5-8 9.8zm-4.5 5.1c-3.8 4.3-7.8 8.6-12 12.9l85.3 26.3h.1c.1.1 11.8 3.9 20.7 1.6l43.4-12.8c-3.7-.5-6.4-1-6.7-1.1l-130.8-26.9zm28.2-36.4l193.4 12.9c3 .4 11.8 1.1 16.3 0 5.3-1.8 6.9-5 8.1-7.1l7.9-13.9c.5-.8 1-1.7 1.9-2.6H773c-2.1 3.4-4.5 7-7 10.7zm-411.2 95c-9.3-5.8-18.5-12.1-27.3-19.1l-48.8 22.8c-.3.1-5.4 2.7-11.5 3.8 2.9 3.4 4.3 6.8 4.5 7.5 2.6 6.6 5.3 13.4 23.3 20.2 7.6 2.4 16.5-4.3 16.6-4.4l43.2-30.8zm7 43.3l25.1-26.1c-9-4-17.8-8.6-26.5-13.7-23.9 17.1-45.2 32.4-45.2 32.4-.2.1-2.8 2.1-6.6 3.7l38.3 10.5c5.7 1.3 12.7-4.4 14.9-6.8zm-64.1-89c-4.3-4.4-8.3-8.6-12-12.9-38.5 7.9-130.8 26.9-130.8 26.9-.3.1-3 .6-6.7 1.1 14.1 4.1 29.1 8.6 43.4 12.8 8.9 2.4 20.5-1.5 20.8-1.6l85.3-26.3zm127.8 77c-11.2-3.2-22.1-7.1-32.7-11.6-14.9 15.6-26.7 27.8-26.7 27.8-.2.2-3.2 3.3-7.5 5.7l41.2 11.2c4.8.8 10.4-7.1 12-10.1l13.7-23zm-103.2-54.5c-7.1-5.8-13.6-11.7-19.7-17.6-16.7 5.2-88.5 27.3-88.4 27.3-.2 0-1.9.5-4.4 1.1 26.1 7.8 46.4 13.7 48.2 14.2 6 1.7 14.9-1.9 18-3.4l46.3-21.6zm-41.2-40.6c-2.8-3.3-5.4-6.5-8-9.8l-186.3 25c6.6 2 22.3 6.5 41.5 12.2 7.1 1.8 20.5-.3 25.4-1.3l127.4-26.1zm-23.6-31c-2.5-3.7-4.9-7.3-6.9-10.7H29.9c2.2 2.6 6.4 10.9 9.6 16.4 1 2.1 2.8 5.2 8.1 7.1 4.5 1.1 13.3.4 16.3.1l193.6-12.9zm-10.6-16.7c-2.5-4.3-4.7-8.2-6.5-11.6 0 0-8.3-14.5-22.4-14.5H9.6c-5.1.1-7.1 2.3-7.2 5.1-.1 1 .3 2.6 1.5 4.8.5.9 7.5 12.4 7.5 12.4 1.7 2.7 2.8 3.3 8.1 3.7v.1h227.4zm14.7 22.7s-198 13.2-199.3 13.3c.8.9 1.6 1.9 2.2 3.1l9.2 16.3c.4.6 2.6 2.9 9.6 2L268.8 471c-2.5-3.4-4.9-6.7-7.2-9.9z"/>
</svg>
