<svg version="1.1" id="Layer_1" xmlns="http://www.w3.org/2000/svg" x="0" y="0" viewBox="0 0 357.7 357.7" xml:space="preserve" width="20" height="20">
    <g id="Layer_1_1_">
        <path class="st0" d="M135.2 155.4c.4-4.7 6.3-10 5.5-14.8-.7-3.8-5.4-7-10.1-7.7-2.7-.4-11.6-1.1-13.6-1.2-2.4-.1-8.8-.2-10.9-.2-2 0-7.3-.1-8.9-.1-1.6 0-3.5-.1-6.1-.5-2.6-.4-4.4-1-6.9-1.7-2.5-.8-4.5-1.4-6.5-1.8-2-.4-4.5-.8-6.2-1-1.7-.2-5.2-.4-7.7-.5h-11c-2 0-8.4.3-10 .3h-4.2c-.8 0-.6.4-1 .5-.4.1-2.3 0-3.4 0s-1.9 0-2.3-.1H31s-.1.4.3.5c.4.1 1.3.2 1.7.2.3 0 2.9.2 3.8.3.9 0 2.5 0 3.5.1s2.8.1 4 .1h7.6c1.7.1 5 .1 6.6.1 1.6.1 5.4.2 8.4.6 3 .4 5.4.7 8.4 1.4 2.9.7 6.3 1.8 7.9 2.3 1.7.5 4 1.1 5.1 1.4 1.2.3 2.3.3 2.6.6.3.2.3.5.1.9-.2.4-.3.5-.5.9-.1.4-.3.6-.3.6h-1.1s.2-.2.2-.4-.6-.6-1.3-.7c-.7-.1-3.7-.4-4.5-.5-.8-.1-3.8-.4-5.4-.4h-9.6c-1.6.1-7.6-.1-9.1 0s-6.8 0-8.2 0H37.7c-1.6 0-7-.2-8-.1-1 0-4-.1-5.5-.1s-6.6-.2-7.9-.2c-1.4 0-3.1-.1-3.6-.3-.5-.2-3.4-1.7-4.6-2.2l-4-2c-.6-.3-1.2-.7-1.4-.8-.2-.1-1 .7-1.2 1-.2.3-.6 0-.6 0s2.8-3.1 3.4-3.8c.6-.7 1.3-1.6 1.6-1.7.3-.1 1.5-.1 2.3 0 .7.1 5.5.5 6.4.6.9.1 4.9.2 6 .3 1.1 0 6.1.1 7.8.1 1.7 0 7 .2 8.5.1 1.6-.1 6-.5 7.3-.6 1.4-.1 5.6-.4 7.6-.4 2-.1 6.1 0 7.4-.1 1.3-.1 6.5-.1 8.2-.1 1.8 0 6.8.2 8.5.3 1.7 0 9 .4 10.9.5 1.9.1 11.4.4 13.5.5 2.1.1 5.2.2 6.9.1 1.7-.1 9.6-.5 12-.5 2.4-.1 8.8-.2 11.3-.1 2.6.1 8.8.7 10.9.9 2.1.3 4.2.8 4.7.8.6 0 1.5.1 1.9.4.3.3.6 1 1.3 1.4.6.4 1.5.5 1.8.9.3.4.3 1.3.5 1.6.2.4.9 1.5 1 2.3.1.8 0 2.2-.5 3-.5.9-1.4 1.9-2.3 2.9-.9 1-2.4 2-3.6 3.1-1.3 1.1-3.4 2.7-4.5 4.2s-1.8 2.5-2 4c-.2 1.5-.1 2.4-.2 2.7-.1.3-.3.9-.7 1.3-.4.4-1.9 2.2-2.5 2.9-.6.7-1.5 2.1-1.7 2.5-.2.4-.4.7-.4.7l-.4-.6s.8-.9.9-1.2c.4-.6.3-1.7.5-3.5"/>
        <path class="st0" d="M11.4 137.7l.2-.9H15c.8 0 5.5.2 7.2.2 1.7 0 6.8.2 8.1.1 1.2-.1 8.2.1 9.7.1s8.8 0 10.3.1c1.5 0 9.8.1 11.1.1h19.8c1.6 0 5.5.1 6.4 0 .9 0 1.6-.1 1.7-.2.2 0 .7-.3 1.1-.1.3.2.5.5.6.7.2.2.5.4.6.6.2.1.5.3.8.6.2.3.2.3.6.6.4.3.4.4.3.6-.1.2-.7.8-.9 1.2-.2.4-.3.7-.4.8-.1.1-.9.2-.9.2s.5-.3.4-.6c-.1-.3-.6-1-1.7-1.1-1.1-.1-3.8.2-5.1.3-1.2.1-9.3.8-10.8 1-1.4.1-12.7.9-14.6 1.1-1.9.2-10.8.7-12.5.8-1.7.1-8.4.5-10.4.6-2.1.1-6.8.3-8.6.4-1.8.1-5.4.2-6.1.1-.7 0-1.6-.4-2-.6-.5-.2-3.3-1.5-4.2-1.9-.8-.4-2.2-.9-2.5-1.3-.3-.3-.1-.9-.1-1.3s0-.9-.5-1.3c-.4-.4-1-.9-1-.9m9 11.1v-.8s1.2 0 1.8-.1c.6-.1 3.2-.1 4.8-.2 1.7-.1 8.3-.4 10.3-.5 2.1-.1 11.5-.6 13.3-.8 1.8-.1 14.1-1 15.9-1.1 1.7-.2 12-1 13.6-1.1 1.6-.1 7-.7 8.9-.8 1.9-.2 2.2-.4 2.5-.4.3 0 .5-.2.8.2.3.4.9 1.1 1.3 1.3.4.3 1.6 1 1.6 1.4 0 .4-.3.9-.5 1.2-.2.4-.2 1.1-.2 1.1l-1.2.2s.1-.3.1-.5-.2-.7-.7-.9c-.5-.2-1.4-.4-2.2-.2-.8.2-4.7.8-6.2 1.1-1.6.3-10.6 1.8-12.8 2.1-2.2.4-10.9 1.7-12.9 2-2.1.3-10.1 1.3-12.9 1.6-2.8.3-6.2.6-8.1.7-1.9.1-3.8.3-5.2.1-1.4-.2-4.4-1.1-5.7-1.4-1.3-.3-3.3-.9-3.6-1.2-.3-.3-.5-.7-.6-1.1-.1-.4-.7-1.3-1.1-1.4-.3-.1-1-.5-1-.5m11.3 9s.5.1 1.1 0c.6-.1 1-.3 1.7-.4.7 0 2.6-.1 3.7-.2 1.1 0 4.3-.4 5.4-.5 1.1-.1 6.5-.6 8.2-.9 1.7-.2 11.2-1.6 12.8-1.8 1.6-.2 9.5-1.4 11.7-1.8 2.2-.4 9.4-1.7 11.3-2 1.9-.4 4.1-.7 4.9-.9.8-.2 1.4-.6 1.9-.4.5.1.9.5 1.5.8.6.3 1.5.6 2 .7.5.2.9.4 1 .6.1.2 0 .9-.2 1.2-.2.4-.3.6-.4 1-.1.4-.1.7-.1.7l-1.1.4s.2-.5 0-.8c-.2-.3-.8-.7-1.1-.7-.3 0-.8.1-1.4.3-.5.2-7.4 2.2-8.5 2.6l-8.2 2.3c-1 .3-7.5 1.9-9.3 2.3-1.8.4-8.6 1.8-10.3 2.1-1.7.3-8.1 1.1-9.7 1.2-1.6.1-1.9.2-3.2.1-1.3-.1-3.8-.4-5.3-.6-1.6-.2-3.2-.6-3.8-.7-.6-.1-1.1-.2-1.4-.9-.3-.7-.2-1.2-.7-1.7-.4-.5-1-1-1.3-1.1-.4-.2-.9-.2-1-.3-.3-.2-.2-.6-.2-.6m13.7 9.3s4.6-.5 5.7-.6c1-.2 8.2-1.2 9.9-1.5 1.7-.4 9.1-2 10.4-2.3 1.3-.3 9.4-2.4 11-2.8 1.6-.4 7-2 8.5-2.4 1.5-.5 5.8-1.8 6.2-2 .5-.2 1-.6 1.5-.5.5.1 1.9.5 2.4.6.5.2 1.8.4 2.1.6.2.2.3.4.3.8v2.4c0 .2.5.6.5.6l-1.2.5c-.3.1-.8.3-.8.3s.1-.5.1-.7c-.1-.2-.8-.6-1-.6-.2-.1-.4 0-1 .2-.5.2-1.9.8-2.6 1.1-.7.3-4.8 1.9-6 2.4-1.2.5-6.2 2.4-7.8 2.9-1.6.6-8.8 3-10.1 3.4-1.3.4-6 1.7-7.2 2-1.1.3-1.7.5-2.6.6-.9 0-4.5-.3-6-.5s-5.6-.8-6.2-1c-.6-.2-.9-.4-1.3-.8-.3-.4-.6-.7-1.2-1-.6-.3-1.2-.6-1.7-.8-.5-.2-.7-.3-1-.4-.3-.1-.6-.2-.8-.3-.1 0-.1-.2-.1-.2m19.2 8s1.5-.4 1.9-.6c.4-.2 2.9-.9 3.6-1.1.8-.2 3.5-.9 4.6-1.3 1.1-.4 6.5-2.2 7.6-2.6 1-.4 7.4-2.8 8.7-3.2 1.3-.5 8.3-3.4 9.4-3.8 1-.4 2-.8 2.4-1.1.4-.2 1.5-.8 2-.9.5-.1 1.6-.3 2.1-.3s.8 0 1 .2c.2.2.3.5.3.9s.1 1.3.5 1.7c.4.3 1.1.6 1.8.8.7.2 1.4.3 1.7.3h.4s-1.4.9-1.8 1l-1.9.9s-.1-.4-.3-.5c-.2-.1-.9-.1-1.4 0-.6 0-1.1.3-1.6.6s-5.4 2.9-6.4 3.4-8.5 4.4-9.5 4.9-5.8 2.8-6.6 3.2c-.8.4-1.3.7-2 .7-.7.1-2.4.1-3.9.1s-4.5-.1-5.4-.1c-.9 0-2.2-.1-3-.4-.7-.3-.8-.7-1.2-1.2-.4-.5-1.3-1-1.7-1.1-.4-.1-1-.2-1.2-.1-.1.2-.1-.4-.1-.4m17.4 6.2s5.8-2.9 6.7-3.3c.9-.4 9.6-4.8 10.7-5.5 1.1-.6 7.5-4.1 8.9-4.9 1.4-.8 3.3-1.8 3.6-2 .3-.2.5-.5.9-.6.4-.1.6-.2.6-.2s.5.7.8 1.1c.3.4 1 1.1 1.8 1.2.8.1 1.1.1 1.6.1s1.3-.2 1.3-.2-2.1 2-2.5 2.3c-.4.3-5 4.1-5.9 4.9-.9.8-4.3 3.4-5.1 4.1-.8.6-3.2 2.4-3.7 2.7-.5.3-1.9.8-2.7 1-.8.2-4.7 1-6.1 1.3-1.4.3-4.4.8-5 .8-.6 0-1.4 0-1.9-.5s-.8-1.3-1.5-1.7c-.7-.3-1.1-.5-1.6-.5-.8.2-.9-.1-.9-.1m17 3.4s3.2-2.3 3.9-2.9c.7-.6 3.5-2.8 4.3-3.4.8-.6 4.1-3.3 5.2-4.2 1-.8 4.1-3.4 4.9-4.2.8-.7 2.4-2.2 2.4-2.2s.1.6.4.8c.3.2.7.7 1.3 1 .7.3 1.6.3 2.2.3.7 0 1.3-.1 1.6-.1.3 0 .7.1.7.6 0 .4.1.7.1.9 0 .2.1.4.1.4l-4.7 5.2c-.9 1-3.6 3.9-4.4 4.7-.8.9-3 3.2-3.2 3.4-.3.2-1 0-1.5-.2-.6-.4-1.1-.1-1.8.1s-2 .6-2.8.8c-.7.2-2.8.6-3.3.6s-1.1 0-1.5-.4c-.3-.4-1.1-1.1-1.5-1.3-.4-.2-.8-.3-1-.2-.5.2-1.3.6-1.4.3m15.4 1s3.1-3.2 3.7-3.9c.7-.7 4.4-4.7 5.2-5.6.8-.9 2.1-2.5 2.5-2.9.3-.4.6-.7.7-.7.2 0 1 0 1.7-.2.7-.1 1.7-.4 2-.3.3.1.3.3.3.5s.1 2.4.1 3.1c0 .7 0 2.3-.1 2.8-.2.6-1.8 3.8-2.2 4.7-.4.9-1.5 2.9-1.6 3.3-.2.4-.2.5-.4.6-.1.1-.4-.3-.8-.8-.6-.7-1.1-.6-1.7-.4-.6.2-3.9 1-4.5 1.1-.6.1-1.6.4-2.1.3-.5-.1-.8-.5-1-.9-.3-.4-.6-.7-.9-.7-.6.1-.9 0-.9 0m14.9-2.3s.8-1.8.9-2.1c.2-.3.4-.9.4-.9s.2.9.4 1.4c.2.4.6.9.8 1.4.1.4.9 2.3 1 2.6.1.3.4.8.3 1.1-.1.3 0 .5.1.8.1.3.2.5 0 .6-.3.1-.8.5-1 .6-.2.1-.6.1-.9-.3-.2-.2-.8-.3-1.3-.7-.5-.4-.5-.7-.4-1.1 0-.4.3-1.9.1-2.3-.1-.4-.4-1.1-.4-1.1m-15.5 6.2s.9 1.2 1.6 1.2c.6 0 .8-.2 1.1-.3.3-.1.8-.1 1 0 .2.1.6.5.5.9 0 .4.2 1.2.5 1.8.3.7 1.6 3.4 2.4 4.6.8 1.3 3 4.4 3.9 5.6 1 1.1 4.1 4.6 4.9 5.3.8.7 4.9 4.2 6.4 5.2s5 3.3 7.1 4.3c2.1 1.1 4.8 2.3 5.5 2.6.7.3 1.1.3 1.3.5.1.2.4.4.4.4l-.8 1.3-.7 1.1-.6-.3s.4-.4.3-.7c-.2-.3-.3-.6-.8-.9-.5-.3-2.6-1.1-3.5-1.6-.9-.4-4.9-2.6-6.4-3.5-1.4-.9-4.9-3.3-6.6-4.7-1.7-1.3-5.3-4.9-6.4-6.2-1.2-1.3-3.7-4.6-4.5-5.8-.8-1.2-2.9-5.1-3.4-6.1s-.7-1.7-1.1-2.1c-.4-.4-.6-.5-.7-.5-.2 0-.6-.1-.6-.1s-.1-.3-.4-1c-.2-.4-.4-1-.4-1"/>
        <path class="st0" d="M118.2 190.4s.9 0 1.6-.3c.7-.3 2.6-.8 3.3-1 .8-.2 1.7-.6 2-.7.4-.1.7-.2.9-.2.2 0 .4.2.6.5.3.4.6 1.1.9 1.4.4.3.9.8 1.6.7.7-.1 1.4-.2 2-.4.6-.3 1.7-1 1.9-1.1.2-.1.6-.4.7-.3.1.1.3.4.5.4s.4.3.5.5c.1.2 1.7 2.5 2.6 3.6.9 1 2.1 2.4 3 3.3.9.8 3.4 3 4.4 3.7 1 .7 3.9 2.7 5.2 3.3 1.3.7 2.9 1.5 4.2 2.1 1.3.5 2.6 1.1 3 1.2.4.2.5.4.7.6.3.2.4.5.3.7-.1.3-1.5 2.4-2 3.4-.6 1.1-1.7 2.8-2.1 3.5-.4.8-1.6 2.6-1.9 3.2-.3.6-1.2 2-1.3 2.2 0 .1-.3.1-.4 0-.1-.1.3-.5.3-1s-.3-1.2-.6-1.5c-.3-.3-1.1-.7-1.6-.9-.5-.2-2.7-1.3-3.8-1.9-1.1-.6-3.4-1.9-4.9-2.9-1.5-1-3.5-2.3-4.7-3.3-1.3-1-3.1-2.6-4.2-3.7s-3-3.2-4.2-4.7c-1.2-1.5-2.7-3.6-3.5-5-.8-1.5-1.7-3.3-1.9-3.6-.3-.3-.7-.8-1.3-1-.6-.2-.9-.3-1.2-.3-.3 0-.7 0-.8-.2.2-.2.2-.3.2-.3m-25.9-56h12.1c.4 0 1 .2 1.2.2l.4.1s.2.5 0 .6c-.2.2-.3.7-.5 1-.1.3 0 .6-.2.7-.2.1-1 .2-1 .2s.1-.4-.1-.5c-.2-.1-.8-.4-1.3-.3-.5 0-2.9.3-3.7.3-.8.1-2.9.4-3.4.4-.4.1-.9 0-1.2-.1-.3-.1-1.5-.6-1.8-.9-.3-.3-.5-.4-.6-.4l-.5-.1.2-.6.4-.6m1.4 6.8s.5-.7.6-.8c.2-.1 1.3-.5 1.8-.6.5-.1 2.6-.6 3.6-.9 1-.2 2.8-.6 3.7-.8.9-.2 1.7-.5 1.9-.5.3 0 .7.1 1 .3.3.2.8.6 1.1.8.3.2.6.6.5.8-.1.2-.2.4-.4.6-.2.2-.1.3-.2.5s-.1.6-.1.6-.8.2-.9.3c-.1 0-.3.1-.3.1s.2-.5.1-.6c-.2-.1-.7-.5-1.3-.6-.6 0-2.2.4-2.7.6-.5.2-2.5.7-3.3.9-.8.2-1.5.6-2.1.5-.6-.1-1.1-.3-1.7-.6-.5-.3-.7-.4-.8-.5-.1.1-.5-.1-.5-.1m2.1 5.4s0-.4.3-.6c.2-.2.8-.3 1.1-.5.3-.2 1.2-.5 2.2-.8 1-.4 2.9-.9 3.6-1.1.8-.2 2.5-.8 2.9-.9.4-.2 1-.5 1.4-.5.4 0 1.2.2 1.7.4s.9.4 1 .7c.1.3-.1.8-.3 1-.2.3-.2.5-.3.7-.1.2-.1.6-.1.6s-.3.2-.6.3l-.5.1s0-.4-.2-.6c-.2-.3-.9-.5-1.3-.4-.4.1-2.1.8-2.7 1.1-.6.3-2.4 1.1-3.1 1.4-.6.3-1 .5-1.7.4-.6-.1-1.2-.2-1.7-.4s-1.1-.6-1.4-.6c.1-.3-.3-.3-.3-.3m4 4.4l2.2-1c.7-.4 3.5-1.6 4.4-2 .9-.4 2.3-1.1 2.6-1.2.3-.1.6-.4 1-.4s1.2.2 1.6.3c.5.1 1.1.2 1.2.5.2.3.2.9.2 1-.1.2-.3.8-.2 1 0 .2.1.8.1.8l-.7.4c-.3.2-.8.4-.8.4s-.1-.4-.4-.6c-.3-.3-.8-.4-1.2-.3-.3.1-1.9 1-2.6 1.4-.6.4-2.2 1.4-2.4 1.5-.3.2-.5.5-1.2.4-.8-.1-1.1-.2-1.5-.4-.4-.2-1.2-.7-1.4-.9-.2-.2-1-.4-1-.6 0-.3.1-.3.1-.3m4 5.3s2.2-1.4 3.1-2c.9-.6 3.2-1.9 4.1-2.4.9-.5 1.8-1.1 2.2-1.2.5-.1 1.6 0 2.2 0 .6 0 1 0 1 .3.1.3 0 .6-.1.8v1l-4.4 3.5c-.7.6-2.4 2.1-2.5 2.1-.1 0-.7-.4-1.4-.7-.7-.3-1.1-.3-1.4-.4-.3-.1-.7-.3-1.1-.5-.4-.2-.6-.3-.9-.3-.3 0-.9.2-.9.2l.1-.4zm5.3 3.8s1.1-1 1.9-1.7c.8-.7 3.1-2.5 3.7-3.1.6-.5 2.2-1.7 2.4-1.9.2-.2.5-.2.8-.2.3 0 1-.2 1.3-.2.3 0 .8 0 .9.4.1.4.3 1.2.2 1.5 0 .3 0 .7.1.8.1.2.2.3.2.3l-.7.7c-.4.4-1.8 1.7-2.3 2.2-.6.6-1.8 1.7-2.2 2.2-.4.5-1.1 1.1-1.1 1.1s-.2-.7-.6-1c-.4-.3-1.3-.5-1.9-.5-.6 0-1.3-.6-1.6-.6-.3-.1-.6.1-.6.1s-.4.2-.5-.1m5.6 3.3l3-3c.6-.6 2.5-2.4 3-2.9s.8-.9 1.3-1.1c.5-.2 1.1-.5 1.4-.4.3.1.5.5.6.9.1.4.5 1 1.2 1.2.7.2 1.1.3 1.5.3.3 0 .5-.1.5-.1l-1.1 1.1c-.4.4-1.5 1.5-2.2 2.1-.7.6-2.4 2.3-2.9 2.8s-1.2 1-1.2 1 0-.5-.4-.8c-.5-.5-1.1-.4-1.7-.4-.6 0-.9-.1-1.3-.4-.3-.3-.6-.6-.8-.6-.2 0-.6.2-.7.2.3.1-.2.1-.2.1m6 2.7s1.7-1.6 2.5-2.4c.8-.8 2.4-2.3 3.1-3l1.9-1.9s.3.4.8.4c.6.1 1.2.2 1.6.2.4 0 1.2 0 1.4-.2.2-.2.5-.3.5-.3s-.4.5-.8 1.1c-.4.6-1.7 2.3-2.3 3.3-.7 1-2.2 3.3-2.5 3.7-.3.4-.8 1.4-1 1.6l-.4.6s.1-.5-.4-1.2c-.4-.7-.6-.7-1-.8-.4-.1-.5.1-1-.2-.5-.3-.8-.8-1.1-.9-.3-.1-.3-.1-.6 0-.5.1-.7 0-.7 0m12.3-6l.4.6c.2.3.5.5.4.7 0 .2-1 2-1.2 2.5-.2.5-.9 2.7-1 3.3-.2.6-.4 1.6-.6 2.1-.2.5-.4.7-.4.9l-.1.6s-.4.3-.6.3l-.6.2v-.5c0-.2-.3-.6-.5-.9-.2-.4-.4-.8-.2-1.5s.5-1.5.8-2.1c.3-.6.4-1.2.8-2.1.4-.9.7-1.7 1.2-2.4s.7-1.1.9-1.4c.4-.2.7-.3.7-.3m-25.8-25.4s2-.1 3.4-.1c1.5 0 3.3 0 4.3.2 1 .1 2.6.2 3.2.2.6 0 1.5-.1 3-.1 1.5.1 4.1.1 5.9.4 1.8.3 3.4.6 4.8 1.1 1.4.5 4.1 1.6 4.9 2.6.8 1 1.4 1.8 1.3 3.1-.1 1.3-.6 2.6-1 3.4-.4.8-1.4 2.5-1.6 2.8-.2.3-1.7 1.7-2.3 2.4-.6.7-2.6 2.8-3.4 3.8-.8.9-1.4 1.7-1.7 2-.4.4-.6.7-.6.7h-.3s.3-.4.2-.8c-.1-.4-.4-1.1-.8-1.3-.4-.2-.5-.3-.7-.2-.3.1-.5.2-.6.2-.2 0-.3.1-.3.1s.9-1 1.3-1.4c.4-.4 1.5-1.5 1.9-1.8.4-.4.7-.6.9-.6.2 0 .8.2 1.2 0 .4-.2 1.2-1 1.3-1.6 0-.6-.2-1.1-.6-1.4-.4-.3-.9-.5-1.3-.5s-.8.1-1.2.3c-.2.1-.5.2-.5.2s0-.3.1-.7c.1-.4-.2-.9-.4-1.2-.2-.4-.7-.6-1.2-.7-.6-.1-.8.1-1-.1-.2-.2-.1-.5-.2-.9-.2-.4-.5-1-1-1.2-.5-.2-1-.3-1.2-.3-.3 0-.3-.2-.3-.5 0-.4-.1-1.3-.4-1.6-.3-.2-.8-.7-1.2-.7-.4-.1-.6-.1-.6-.3s.2-.6.2-1-.1-1-.6-1.4c-.5-.3-1-.5-1.2-.8-.2-.3-.6-.7-.7-.7h-.8c-.3 0-1 .2-1.6.3-.5.1-.8.2-1.1.1-.3-.1-.9-.3-1.3-.3s-1.4.1-2.1.1c-.7.1-1.3.2-1.9.1-.5 0-.9-.2-1.4-.4l-.8-.4c-.3-.2-.4-.3-.4-.3s0-.2.1-.4.3-.4.3-.4"/>
        <path class="st0" d="M108.5 139.4s1.4-.6 2.4-.9c1-.3 2.9-.8 3.7-1 .8-.2 1.5-.4 1.8-.3.3.1.7.1 1 .1h.5s.2.2.1.3c-.1.1-.1.2-.4.5-.3.3-.5.6-.8.8-.3.1-1.1.3-2 .5-.9.2-2.2.7-2.7.8-.5.1-.6.3-1.4.1-.8-.1-1-.2-1.3-.3-.3-.1-.4 0-.5.1-.2.1-.3 0-.3 0v-.4c-.2-.1-.1-.3-.1-.3m2.4 3.6s1.4-.7 2.5-1.2c1.2-.5 3.5-1.3 4-1.5.5-.1 1-.3 1.3-.1.3.2.5.3.4.6-.1.2-.5.8-.7.9-.3.2-1.9 1-2.5 1.3-.6.3-2 1-2.4 1-.4 0-.8-.1-1.3-.2-.4-.1-.6-.2-.8-.2h-.6s.1-.1.1-.3v-.3m2.6 3.9l2-1.2c.5-.3 2.2-1.1 2.9-1.5.7-.4 1.5-.7 1.9-.7.4 0 .8.2.8.4s0 .6-.2 1c-.2.3-.3.6-.9 1.1-.6.6-1.1.9-1.5 1.2-.4.3-1 .8-1.3.9-.3 0-.8-.2-1-.3-.3 0-1-.4-1.2-.5-.2-.1-.5-.2-.7-.2-.2 0-.9.2-.9.2l.1-.4zm4.1 3.3s.9-.8 1.6-1.4c.6-.5 1.8-1.3 2.4-1.7.6-.4 1-.7 1.2-.7.2 0 .4 0 .5.2.1.1.5.1.6.4.1.3 0 .6.1.7.1.2.4.1.4.3.1.1 0 .5 0 .5s-1.3 1-1.7 1.4c-.5.4-1.2 1.1-1.4 1.2-.2.1-.8-.3-1.3-.5-.4-.2-1.3-.5-1.7-.5-.5.1-.7.1-.7.1m3.6 2.4s1.1-1 1.6-1.5 1.1-1 1.5-1.4c.4-.4 1.3-1 1.3-1s.4 0 .3.3c-.1.2.2.3.4.3s.6-.1.7 0c.1 0 .3.1.3.4s0 .5.1.6c.1 0 .4 0 .4.1s.1.3.1.3l-2 2-1.7 1.7c-.1.1-.2.3-.2.3s-.2-.6-.7-1c-.5-.5-.7-.6-1.2-.7-.5-.4-.9-.4-.9-.4m8.3 3.6s.8-1 1.6-1.8l1.8-1.9c.3-.3.5-.6.5-.6s-.5 1.1-.6 1.7c-.1.5-.2 1.5-.2 1.9 0 .4-.2.9-.3 1.4-.1.5-.1 1-.1 1l-.6.3c-.3.1-.6.3-.6.3s0-.8-.4-1.2c-.3-.4-.4-.5-.7-.7-.3-.2-.7-.2-.7-.2l.3-.2zm18.7-29.8s1.4-.5 2.4-.9c.9-.4 5.6-2 7-2.4 1.8-.5 5.9-1.4 8.3-1.8 2.5-.4 7.4-.9 12.2-.9 4.1 0 7.9.3 9.9.6 2 .2 6 .9 7.6 1.4 1.6.4 4.4 1.1 5.9 1.6s3.9 1.3 4.8 1.7c.9.4 1.5.5 1.7.7.1.1.2.4.7.6.5.2 1.2.5 1.2.5l-.6.4c-.4.2-.9.4-1.3.6l-.8.4s0-.5-.2-.7c-.2-.2-1.4-.8-2.6-1.2-1.1-.4-2.9-1-4.6-1.5-1.7-.5-4.7-1.3-6.7-1.7-2-.4-4.2-.7-6.1-.9-2-.2-6.5-.6-8.8-.5-2.3 0-6.8.3-9.1.6-2.2.3-5.9.8-8 1.4-2.1.5-5 1.2-6.1 1.6-1.1.4-2.5.9-2.9 1-.4 0-1.4-.1-1.7-.1h-.8c-.2 0-.7.3-.9.2-.1-.5-.5-.7-.5-.7"/>
        <path class="st0" d="M218.1 155.6s-.5-.6-.8-.9c-.3-.3-.4-1.7-.7-2.5-.3-.8-1.5-2.4-2.2-3.1-.7-.7-2-2.1-4.7-3.8-2.5-1.6-5.1-3-7.9-4.1-2.8-1.1-4.7-1.8-8.1-2.6-3.3-.7-7.7-1.5-12.4-1.7-4.7-.2-8.8.2-11.5.6-2.7.4-6.6 1.1-10.2 2.3-3.6 1.2-4.5 1.6-5.6 2.2-1.1.5-3.8 1.9-4.8 2.6-1 .7-2.6 1.8-3.5 2.4-1 .6-1.2 1.1-1.7 1-.8-.2-1.1-1-1.1-1s.7-.9 1.4-1.6c.7-.7 2.3-2.1 3.3-2.9 1-.8 3-2.5 3.3-2.9.3-.3 1.2-1.4 1.2-1.4s.3.6.8.5c.5-.2 1.3-.8 1.8-1.5.5-.8 1.3-2.6 1.1-4-.2-1.5-.4-2.6-.8-2.8-.4-.3-1.1-.8-1.6-.8-.5-.1-.7 0-.9-.1-.3-.1-.6-.4-.6-.4s1.2-.5 1.8-.7c.5-.2 2.9-1.1 4.5-1.5 1.6-.4 3.3-.9 5.4-1.3 2-.4 5-.9 7.4-1.1 2.4-.2 5.5-.5 7.3-.4 1.8 0 6.1.3 7.8.5 1.7.2 5.1.6 7.1 1.1 2 .5 5.8 1.4 7.4 2 1.7.6 3.6 1.2 3.9 1.4.2.2.4.4.7.6.3.1.6.3.6.3s-.8.9-1.4 1.9c-1.6 2.8.3 6.3 2.9 8.2 3.4 2.5 9.5 6.3 10.6 12 .3 1.1.2 3.5.2 3.5"/>
        <path class="st0" d="M220.4 152.6c-.2-2-1.4-4-2.3-5.3-.9-1.3-1.5-2.7-2.5-4.4-1-1.7-3.9-3.4-5.7-4.7-1.4-1-3.2-3.2-3.2-4.9 0-.8-.4-2.1-1.4-1.5.2-.4.6-.8 1.1-1.2.9-.8 2.6-1.9 4.3-2.4 1.6-.6 5.5-1.6 7-2 1.6-.4 6-1.1 7.9-1.3 1.8-.1 5-.3 6.6-.3 1.7 0 4.8.2 7.2.4 2.5.3 5.9.8 8.2.9 2.2.1 6.1.2 7.8.2 1.7-.1 4.8-.2 6.5-.2 1.7 0 7.8-.2 9.9-.4 2-.1 7.6-.5 9.6-.6 2.1-.1 8.4-.2 10.2-.2 1.8 0 9.6.4 11.6.5 2 .1 6.9.4 8.7.5 1.8.1 4.4.2 5.9.3 1.5.1 6 0 6.9 0 1 0 4.4 0 6.2-.1 1.9-.1 6.8-.5 8.6-.6 1.8-.2 6.5-.6 7.9-.7 1.5-.1 3-.3 3.6-.2.6.1 1.4.6 1.6.8.2.2 1.1 1.2 1.7 1.9.6.7 1.3 1.5 1.4 1.7.1.3.5.8.4 1-.1.2-.2.6-.4.7-.2.1-1.3.6-1.3.6s-.1-.5-.4-.6c-.4-.2-1-.4-1.4-.2-.5.2-1.9.8-2.8 1.2-.9.4-2.3 1-3 1.1-.7.1-3.3.2-5 .2-1.7 0-6.8.1-9 .1-2.2.1-9.6.1-11.2.2-1.6 0-8.4.1-10.5.1-2.2 0-8.2.1-10.2.1s-10.7.1-12.6.1c-1.9 0-7.3 0-8.8.1-1.5 0-3.4.1-5.3.2s-4.5.4-5.3.5c-.8 0-1.8-.1-2.1-.2-.4-.1-.4-.2-.6-.2-.2 0-.9-.1-.9-.1l-.1-.3s.8-.2 1.5-.3c.7-.2 1.3-.5 2.5-.7 1.2-.3 4.3-.8 5.8-1.1 1.5-.3 8.4-1.5 10.4-1.7 2-.3 7.2-.8 9-1 1.8-.1 7-.5 8.8-.6 1.8-.1 5.9-.3 6.9-.3s4.5.1 5.9.2c1.4.1 2.1.1 2.1.1l.3-.9s-1.5-.1-2.7-.2c-1.2-.1-4.4-.1-5.5-.1-1.1 0-4.9 0-6.4.1-1.4.1-3.5-.2-5.2-.2-2-.1-6.6 0-8.5.1-1.9.1-7.2.7-8.9.9-1.7.2-7.5 1-10.1 1.5-2.7.5-6.8 1.3-8.7 1.7-1.9.4-4.4.9-6.6 1.1-2.2.2-6.7.3-8.3.3-1.6 0-6.5-.1-8.9-.1-2.4 0-6.5 0-8.9.3-2.4.3-4.4.7-5.6 1.2-1.2.4-2.5.9-3.3 1.5-.8.6-1.2 1.3-1.2 1.5 0 .2.1.4.1.4l.6.2s-.6.5-1 .8c-.4.3-.7 1-.9 1.6-.1.6-.3 2.1-.4 2.7 0 .6-.1.9.1 1.4.2.5 1.2 2.2 1.6 3 .4.7 1.4 2.4 1.7 2.9.3.5.8 1.2 1.2 1.8.4.6 1 2 1.1 2.4.1.5.1 1.1.1 1.8v3.3c0 .5-.1 1-.2 1.1-.1.1-.4.4-.4.7 0 .3-.2.9-.3 1.2-.1.3-.3 1-.3 1s-.4-.8-.4-.9c0-.1.2-.8.1-1.7-.1-1.6-1.6-4.7-1.9-7.8"/>
        <path class="st0" d="M219.5 138.9s.4-.6 1.5-1.4c.9-.6 2.4-1.3 3.3-1.6.9-.3 4.3-1 5.8-1.2 1.5-.1 5.6-.2 7-.2 1.4 0 3.9.1 4.8 0h6.2c.5 0 1.6-.1 1.9 0 .3.1.9.2.9.4.1.2.1.4 0 .7-.2.3-.1.6-.1.7v.2l-.4.2c-.2.1-1 .6-1 .6s0-.2-.2-.5-.6-.6-1-.7c-.4-.1-1.7-.2-2.2-.2-.6 0-1.9-.1-2.4-.1s-.8-.1-1-.1c-.3 0-.5 0-.7.2-.2.2-.3.3-.4.3h-.5c-.1 0-.3.1.1.5.5.5 1.2.5 1.8.6.6.1 1.5.3 2.2.4.7.1 1.6.3 2.1.4.6.1 1.1.1 1.3.2.2 0 .6.2.5.4 0 .2-.1.4-.2.6-.1.2-.1.5 0 .7 0 .2 0 .3-.2.4-.2.1-.8.3-.9.4-.1.1-.4 0-.4 0s.1-.4 0-.5c-.1-.1-.3-.3-.8-.5s-1.8-.5-2.4-.6c-.6-.1-1.7-.4-2.3-.5-.7-.1-1.1-.3-1.3-.2l-.4.4c-.1 0-.3-.1-.5 0-.1.1-.3.3-.2.4.1.2.6.4 1 .6.5.2 2 .6 2.6.8.7.2 1.8.7 2.4.8.6.1 1.3.3 1.4.7.1.3.1.7-.1.9-.2.2-.3.5-.3.6-.1.1-.1.5-.1.5s-.6.4-.7.4l-.6.2s.2-.3 0-.7c-.2-.4-.7-.7-1.3-1-.7-.3-2-.8-2.5-1-.5-.2-2.2-.8-2.5-1-.4-.1-.8-.3-1.2-.2-.4.1-.5.3-.4.5.1.2.4.3.4.5s0 .4-.1.4-.1.1-.1.1.9.6 1.5.9c.6.3 2 1.1 2.4 1.3.4.2 1.6.8 1.9 1 .3.2.9.5.8.8-.1.3-.2.7-.3.9-.1.2.1.3-.2.4l-1.2.4s0-.2-.1-.4c-.1-.1-.2-.4-.7-.7-.5-.3-2.3-1.4-2.8-1.6-.5-.2-1.6-.8-1.9-1.1-.3-.2-.9-.8-1.1-.9-.2-.1-.7-.4-1 0-.2.2-.4.7-.2.9l.5.5s-.3.2-.3.4c.1.1.9.7 1.5 1.1.6.4 2.2 1.5 2.6 1.8.4.3 1.3.8 1.6 1.1.3.3.4.5.1.7-.2.2-.3.5-.3.5v.7s-.1.1-.5.2c-.3.1-.8.1-.8.1s-.1-.2-.1-.4-.2-.4-.5-.7c-.4-.4-1.7-1.2-2.3-1.7-.6-.4-1.8-1.2-2.1-1.5-.3-.3-.8-1-1.1-1.3-.3-.2-.7-.5-1-.4-.3.1-.7.4-.7.7 0 .3-.1.5.1.7.2.2.5.3.5.4 0 .1-.3.2-.3.4.1.2 1.1 1 1.6 1.4.5.4 2.1 1.7 2.5 2.1.4.4 1.2 1.1 1.3 1.4.1.3.1.9-.1 1.1-.1.2-.5.3-.8.3-.3.1-.8.1-.8.1s.2-.4.1-.5c-.1-.2-.8-.6-1.3-1s-2.1-1.8-2.7-2.3c-.6-.5-1.2-1.1-1.4-1.6-.2-.4-.6-1-1.1-1-.5 0-1 .1-1.3.5-.3.4-.3.8-.1 1 .2.2.6.4.5.5l-.5.3s.5.3 1.1.8c.7.6 1.9 1.6 2.4 2 .5.4 1.4 1.3 1.6 1.5.2.2.4.6.4.9 0 .3-.1.8-.2.9-.1.2 0 .3-.2.4-.3.1-.7.1-.9.1-.2 0-.3-.1-.3-.1s.4-.3.4-.5c0-.1-.6-.7-.9-1-.4-.3-2.1-1.8-2.7-2.4-.6-.6-1.5-1.5-1.8-2.1-.2-.6-.2-1.3-.5-1.7-.3-.5-1.1-1-1.4-1.5-.3-.5-1.4-2.2-1.9-3.2s-1-1.8-1.2-2.7c-.1-.9 0-1.4-.2-1.7-.2-.3-.5-.7-.7-.7-.1.1-.7 0-.7 0m4.1 12.7s1.4 1.6 1.8 1.9c.4.3 1.1.8 1.3.9.2.1 1.1 1 1.3 1.3.2.3.8.8.8 1.1 0 .3-.3 1.2-.5 1.4-.2.2-.5.5-.8.5-.2 0-.7-.1-.7-.1s.6-.1.6-.4c0-.2-.1-.4-.5-.8s-.6-.6-1-1.1l-.8-1.2-.3.1h-.3s-.1-1-.2-1.5-.3-1-.4-1.2c-.2-.3-.3-.9-.3-.9m-.2 11.6s.4-.8.4-1.2c0-.3.2-.9.3-1.1l.1-.4s.7.9.9 1.1c.2.3.9.8 1.1 1.2.3.4 1.4 1.8 1.9 2.5s1.9 2.5 2.1 2.9c.3.4 1 1.5 1 1.8 0 .3-.1.7-.2 1-.2.3-.3.6-.5.7-.2 0-.9.1-.9.1s.2-.3.2-.5-.3-.7-.8-1c-.5-.3-1.4-.7-1.6-1-.2-.2-.8-1.9-1.1-2.5-.4-.7-1-1.9-1.4-2.4-.4-.5-.6-1.1-.8-1.1-.2 0-.1.1-.3.1l-.4-.2m1.2-3.8s.9.3 1.5.3h1.1c.1-.1.4-.5.9-.6.5-.1 1 0 1.6.3.5.4 3.1 2.9 3.4 3.3.4.4 2 2 2.6 2.4.5.5 1.3 1.3 1.5 1.6.2.3.2.6.1.8-.1.2-.3.3-.4.5-.1.2-.1.7-.3.9-.1.2-.3.3-.7.3h-.7s.4-.2.4-.5-.1-.6-.5-.8c-.4-.2-.7-.4-1.3-.7-.5-.3-1-.7-1.3-1.1-.4-.4-1.3-1.6-1.7-2.1-.4-.5-1.5-1.8-2-2.3-.5-.5-1-.9-1.6-1-.6-.1-.8-.2-.9-.2-.1 0-.4.4-.3.5l-.5-.5c-.3-.2-.9-1.1-.9-1.1m4.9-1.2s.1-.2.1-.4c0-.3.1-.6.2-.6s.8.3 1.2.3c.4 0 .5-.1.5-.1s.2-.4.8-.5c.5-.1.7-.1.9-.1.2 0 .4-.1 1 .2.6.2 2.1 1.5 2.7 2 .6.5 3 2.3 3.6 2.9.7.5 1.4 1 1.6 1.2.2.2.9.8.7 1.1-.2.3-.5.6-.6.9-.1.3-.1.7-.1.9-.1.2-.4.3-.6.2h-.7s.3-.2.4-.4c.1-.2-.1-.4-.4-.6-.3-.2-.7-.5-1.3-.8-.5-.3-1.3-.9-2-1.5-.7-.5-2.4-2.1-2.8-2.5-.4-.4-1.6-1.4-1.9-1.5-.3-.1-1.2-.3-1.5-.4-.3-.1-.8-.2-.8-.2s-.2.3-.3.3h-.2l-.2-.2c-.2 0-.3-.2-.3-.2"/>
        <path class="st0" d="M233.7 155.6v-.5s.3-.1.8-.1c.4 0 .8 0 1.3-.2s.5-.1.8-.3c.3-.2.5-.3.8-.5.3-.2.3-.5.5-.5s.8-.1 1 0c.2.1 1.5 1.2 2.2 1.6.8.5 3.1 1.9 3.9 2.4.9.5 2.2 1.2 2.6 1.6.4.4.7.6.7.9 0 .4-.3.6-.5.9-.2.3-.1.5-.2.8-.1.2-.2.5-.2.5l-1.1.2s.3-.3.2-.5c0-.3-.2-.6-.7-.8-.5-.3-1.1-.3-1.6-.5s-1.4-.8-1.9-1.2c-.5-.4-1.9-1.4-2.5-1.9-.6-.4-1.6-1.2-2-1.4-.5-.2-1.3-.4-1.8-.4h-1.2c-.1 0-.3.5-.5.4-.2-.2-.3-.2-.5-.4-.1 0-.1-.1-.1-.1m6.4-3.5s.7-.1.8-.4c.1-.3.1-1 .1-1.3.1-.3 0-.5.2-.5.1 0 .5.2.8.2.3 0 .7 0 1.3.3.5.3 2.8 1.5 4 2 1.2.5 3.6 1.8 4.3 2 .7.3 2 .7 2.1 1.1.2.3.3.7.1 1-.2.3-.4.5-.3.7.1.2.3.5.1.6-.2.1-.6.2-.9.3-.3.1-.6.1-.6.1s.3-.2.2-.5c-.1-.3-.3-.7-.8-.8-.5-.1-1.1-.2-1.6-.3-.5-.1-.9-.3-1.7-.8-.7-.4-2.2-1.3-3-1.7-.8-.4-2.2-1.2-2.8-1.5-.5-.3-.7-.5-.9-.6-.3-.1-.6-.1-.8 0 0 .2-.6.1-.6.1m4.3-4.1s.1-.4.2-.9 0-.7.1-.7c.2-.1.4.1.7 0 .3 0 .7 0 .9.1.2.1 1.4.6 1.9.8.6.2 3.5 1.3 4.4 1.6 1 .4 2.7 1 3.5 1.3.8.3 1.3.4 1.6.6.3.3.5.6.5 1.1 0 .5.1.7-.1.9-.2.3-.3.3-.3.5 0 .1.2.4 0 .6-.1.2-.3.2-.8.3-.5.1-.7.1-.7.1s.4-.4 0-.7c-.4-.3-.5-.5-1.3-.8-.8-.3-2.1-.8-2.7-1.1-.6-.2-3.1-1.4-3.8-1.6-.7-.3-2.2-.8-2.7-1.1-.5-.3-.7-.4-.9-.6 0-.4-.5-.4-.5-.4m3.2-4.3s0-1.2.1-1.3c.2-.1.7.1.9.1.2 0 .9 0 1.5.1.6.2 3.8 1 5.1 1.2 1.3.3 3 .7 4.1.9 1.1.2 1.8.2 2 .6.2.4.2 1.2.2 1.6 0 .4.1 1.4 0 1.5-.1.1-.6.4-1 .5-.4.1-.5.2-.5.2s.2-.5-.1-.8c-.2-.3-1.2-.7-1.9-.9-.7-.2-2.6-.8-3.6-1.1-1-.3-2.8-.9-3.4-1-.6-.2-1.3-.3-1.7-.6-.4-.3-.8-.7-1-.8-.3-.1-.7-.2-.7-.2m2.3-4.6v-.5s.6-.6.7-.6c.2 0 .6-.1 1.2 0s3.4.4 4.4.6c1.1.2 3.9.6 4.7.7.8.1 2.1 0 2.5.1.7.2.6.8.6 1.2 0 .4.1 1.1.1 1.3 0 .2-.4.5-.8.8-.4.3-.8.5-1 .7-.2.1.1-.5-.2-.8-.2-.2-.6-.4-1.2-.5-.6-.1-1.7-.4-2.3-.5-.6-.1-3-.6-3.9-.8-.9-.2-2-.3-2.7-.6-.6-.3-1-.8-1.4-1-.3 0-.7-.1-.7-.1m1.9-3.3s-.2-.5-.2-.6v-.3s1 .1 1.8-.1c.7-.1 2.8-.5 4.2-.7 1.3-.2 3.9-.7 4.7-.8.8-.1 1.9-.3 2.2-.2.4.2.6.5.7.9.1.4.3 1.1.4 1.5.1.3.4.8.3 1 0 .2-.5.7-.8 1-.3.3-1.1 1-1.1 1s.1-.6-.1-.9c-.2-.4-.7-.8-1.3-1-.6-.2-3-.4-3.8-.3h-3.9c-1 0-1.9-.2-2.3-.4-.4-.2-.3-.1-.5-.2-.1-.1-.3.1-.3.1m13.7 2.7s1-1.1 1.2-1.4c.3-.3.5-.7.7-.7.2 0 .8 0 1.2-.1.5-.2 4-.2 4.9-.2h8.6c1.4 0 10.4-.1 11.8-.1h9.6c1.7-.1 9.7 0 11.6-.1 1.9-.1 11.9-.1 13.5-.2 1.7 0 9.4-.2 10.8-.2 1.4 0 4.2-.1 5-.1.9-.1 1.7-.2 2-.1.3.1.4.4.5.6.1.2.6 1.8.8 2.4.2.7.4 1.6.4 2 0 .4.2 1 .1 1.1-.1.1-1 .6-1.2.7-.2 0-.4.1-.4.1s.2-.3.1-.6c-.1-.2-.7-.6-1-.7-.3-.1-.8 0-1.5.3s-2.6.8-3.7 1c-1.1.2-1.6.4-3.4.4h-8c-1.8-.1-7.3-.2-9.9-.4-2.6-.1-9-.5-11.2-.6-2.2-.1-9.1-.5-10.7-.6-1.6-.1-9.6-.6-11.3-.7-1.7-.1-10-.6-11.3-.8-1.4-.1-4.3-.3-5.1-.4-.9 0-2.1-.2-2.6-.3-.5-.1-.5-.3-.8-.4-.2.1-.7.1-.7.1m-3.4 6.4s1.2-.7 1.7-1.1c.5-.4 1.1-.8 1.2-1.1.1-.4.1-.6.1-.6s3.6.1 4.4.2c.8.1 4.8.3 5.8.4 1 .1 7.4.5 9.4.7 2 .1 10.9.7 12.7.8l10.7.6c1.8.1 8.6.4 10.8.5 2.2.1 10 .3 11.3.3 1.3 0 5.7.1 6.4 0 .8 0 1.7-.1 2.2-.1.5 0 1.1 0 1.1.6 0 .5-.1 2.8-.3 3.5-.2.7-.7 2-1.1 2.3-.4.3-1 .6-1 .6s.2-.5.1-.8c-.2-.3-.7-.7-1.1-.7-.4 0-2.7.6-3.8.7-1.1.1-3 .3-4.4.3-1.4 0-4.6-.2-6.3-.3-1.6-.1-6.1-.5-8.3-.7-2.2-.2-8.3-.9-11.1-1.2-2.8-.3-8.5-1-10.4-1.3-2-.3-8.5-1.1-10.2-1.4-1.7-.3-6.4-.9-7.6-1.1-1.3-.2-5.3-.8-6.4-.9-1.2-.1-1.9-.3-2.4-.3h-3.2c-.1.1-.3.1-.3.1m-3 5.7s1-.3 1.5-.6 1.4-.5 1.7-.9c.3-.4.3-.5.3-.8 0-.3-.1-.5-.1-.5s1.7.1 2.3.2c.7.1 3.9.5 4.8.7 1 .1 5.9.9 7.2 1.1 1.3.2 10.3 1.4 12.1 1.7 1.8.2 9.5 1.2 10.9 1.4 1.4.2 10.1 1.1 11.4 1.2 1.4.1 6.2.6 7.9.7 1.7.1 5.3.3 6.8.4 1.6 0 2.7 0 3.1.1.4.1.7.4.6.7-.1.3-.4 2.7-.6 3.2-.2.5-.4 1.4-.6 1.8-.2.3-.4.7-.8.9-.4.2-.5.3-.5.3s.3-.5.1-.8c-.2-.3-.7-.8-1-.9-.3 0-1.6.2-2.4.3-.8.1-2.4.3-3.4.4-1 .1-2.4.2-3 .2-.7 0-1.9-.2-3-.3-1.1-.2-5.1-.7-6.6-.9-1.4-.2-6.1-1-8.1-1.4-2-.4-8.9-1.8-10.3-2.1-1.4-.3-6.5-1.4-7.8-1.7-1.3-.3-7-1.6-8.3-2-1.3-.3-4.9-1.2-5.9-1.4-1-.2-3-.7-3.5-.8-.5-.1-1.1-.3-1.6-.1-.5.1-1.4.4-1.7.5-.3.1-.4.2-.8.1-.5-.4-.7-.7-.7-.7"/>
        <path class="st0" d="M254.7 155.5s.9-.1 1.4-.2c.4-.1 1.5-.3 2-.5s.7-.2.7-.5-.1-.9 0-1.2l.2-.6 1.5.3c.4 0 1.9.3 2.5.5.6.2 7.6 1.9 8.7 2.2 1.1.3 9.1 2.2 10.5 2.5 1.4.3 7.9 1.7 9.3 2 1.5.3 11.1 2.1 12.7 2.3 1.6.3 7.1 1.1 8.4 1.3 1.3.1 3.2.3 3.6.4.4.1.7.3.7.7-.1.6-.6 1.9-.9 2.5-.3.6-.8 1.7-1.3 2.3-.5.6-.9 1.1-1.3 1.3-.4.2-.5.3-.5.3s.3-.5.2-.8c-.1-.3-.5-.7-1-.8-.5-.1-1.5 0-2.4 0-1 0-3.9-.1-6.5-.5-2.5-.4-6.5-1-9.1-1.6-2.6-.6-6.4-1.5-9.1-2.3-2.7-.8-7.1-2-9.9-3-2.8-.9-6.3-2.1-7.9-2.7-1.6-.6-6.1-2.2-6.8-2.4-.7-.3-1.2-.4-1.7-.4s-1.2.1-1.8 0c-.6-.1-1.2-.3-1.5-.4-.3-.1-.5-.2-.7-.4-.1-.1 0-.3 0-.3m-5.3 4.5s1.7-.4 2.6-.7c.7-.3 1.7-.7 2.5-.6.8.1 2.6.7 3.6 1 1 .4 4.5 1.6 5.5 2 .9.4 9.1 3.1 10.4 3.5 1.3.4 8.3 2.5 9.8 2.9 1.5.4 8.3 2.1 9.9 2.5 1.6.3 4.3.8 5.1 1 .8.1 1.6.4 1.6.7.1.4 0 1-.1 1.3-.1.3-.4 1.3-.6 1.9-.2.6-.5 1.4-.9 1.8-.3.4-1.1.5-1.1.5s.4-.3.3-.6c-.1-.4-.2-.6-.5-.8-.3-.2-.5-.4-.9-.4s-1.6.1-2.4.1c-.9.1-3.9.1-5 .1-1.2 0-2.3.1-3.2 0-.9-.1-1.9-.3-3.3-.7-1.4-.4-4.7-1.6-6.2-2.2-1.5-.6-5.9-2.5-7.1-3.1-1.2-.5-5.6-2.7-7-3.4-1.4-.7-3.5-1.8-4.6-2.4-1.1-.6-3.5-1.9-4.2-2.2-.6-.3-1.3-.5-1.9-.6-.5-.1-1.3-.4-1.5-.5-.2-.1-.8-.3-.8-.3v-.8zm-5.6 3.9s1.8-.4 2.3-.6c.5-.2 1.5-.4 1.8-.3.4.1 1.7.7 2.5 1.1.8.4 4.3 2.3 5.4 2.9 1.1.6 5.7 3 6.8 3.5 1 .5 4.4 2.2 5.7 2.7 1.2.5 5.5 2.4 6.7 2.9 1.1.5 2.9 1.1 3.9 1.5 1 .4 2.3.7 2.9.9.6.2 1.7.5 1.8.7.1.3.1.7-.1 1.1-.2.4-.7 1.8-.9 2.2-.2.4-.6 1.3-.9 1.6-.3.3-.5.5-.7.5h-.2s.4-.5.4-.6c0-.2-.2-.8-.5-1-.3-.2-.7-.4-1-.4-.3 0-1.4 0-2.4-.1s-2.6-.3-3.8-.6c-1.2-.3-2-.4-3-.8s-3.2-1.6-4.3-2.2c-1.2-.7-4.8-2.9-5.9-3.7-1.1-.7-6.3-4.5-7.1-5-.8-.6-2.7-1.9-3.4-2.5-.8-.6-1.9-1.5-2.3-1.7-.4-.2-1.7-.7-2.2-.8-.4-.2-.9-.3-1-.6-.6-.3-.5-.7-.5-.7m-5.6 3.3s1 .1 1.4 0c.4-.1 1.3-.4 1.6-.4.3 0 .8-.1 1.3.1s1.8 1 2.5 1.5 3.4 2.7 4.3 3.3c.9.6 5 3.6 5.9 4.2.8.6 4.6 3.1 5.7 3.7 1 .6 2.9 1.8 3.8 2.3.9.5 1.9 1 2.2 1.3.3.3.6.6.4 1.2-.3.6-1.1 1.9-1.3 2.2-.2.3-.8.9-1 1.1-.3.2-.4.3-.4.3s.4-.5.4-.8c-.1-.3-.3-.8-.8-1.1-.5-.3-1.5-.4-2.3-.6-.8-.2-3.6-.9-4.7-1.2-1.1-.3-2-.6-2.7-1.1-.7-.5-2.5-2.2-3.4-3-.9-.8-2.7-2.5-3.8-3.5-1-.9-3.2-3-3.9-3.7-.8-.7-2.9-2.6-3.2-3l-1.5-1.5c-.3-.3-.5-.2-.6-.5-.2-.2-.1-.6 0-.7 0 .1.1-.1.1-.1m-6.4 4.3l.2-.8c.1-.3.1-.4.1-.4h1.6c.7-.1 1.1-.3 1.7-.2.6.1.9.2 1.2.8.3.6 1.2 1.6 1.9 2.2.6.6 3.7 3.5 4.7 4.4.9.9 3.9 3.7 5 4.7 1 .9 2.5 2.2 2.9 2.6l1.5 1.5c.2.3.1.8-.1 1.1-.2.4-.7 1.2-1.1 1.5-.4.3-1.1.9-1.1.9s.3-.6.2-.8c-.1-.3-.6-.8-1-.9-.4-.1-2.2-.6-2.9-.8-.8-.2-2.4-.9-2.9-1.3s-2.5-2.8-2.9-3.3c-.5-.6-2.2-2.9-2.8-3.6-.6-.8-2-2.7-2.7-3.6-.7-.9-1.9-2.5-2.2-2.8-.3-.3-.4-.5-.6-.7-.6-.4-.7-.5-.7-.5m-6.2.8s1.1.2 1.8.2c.6 0 1.2-.1 1.5 0 .3.1.6 0 .9.4.3.3.4.9.6 1.3.1.3 2.2 3.2 2.5 3.7.3.5 1.8 2.4 2.4 3.2.6.8 2.4 3.1 2.9 3.7.5.7 1.5 1.7 1.8 2.1.3.4.9 1.3 1 1.5.1.2-.1.5-.3.7-.2.2-.5.6-.8.9-.3.3-.8.6-.9.7-.1 0 .1-.4.1-.6 0-.2-.1-.5-.5-.8-.5-.4-1.3-.7-1.9-.9-.6-.2-1.8-.6-2.6-.9-.8-.3-1.2-.6-1.5-.9-.4-.5-1.3-2-1.7-2.9-.5-.9-1.9-3.5-2.3-4.3-.4-.7-.5-1.2-.6-1.6-.1-.4-.1-2-.2-2.4-.2-.4-.6-1.1-.9-1.4-.3-.2-.4-.3-.5-.3-.1-.1-.6-.2-.6-.2v-.7c-.2-.3-.2-.5-.2-.5m-.4 8.4s.7 1.2 1 1.6c.3.4.9 1.3 1.3 1.9.3.7 1.4 2.3 1.6 2.9.3.6.6 1.1.6 1.7-.1.6-.5 1.3-.7 1.6-.2.3-.2.6-.5.9-.4.3-.9.4-.9.4s.4-.4.4-.7c0-.3-.3-.8-.4-1-.2-.2-.6-.6-1-.9-.5-.2-1.4-.7-1.5-1-.1-.3-.1-.6.1-1.1.3-.7.3-1.5.1-2.1-.1-.6-.2-.8-.3-1-.1-.2-.3-.3-.3-.3s.4-1.3.4-1.6l.1-1.3z"/>
        <path class="st0" d="M198 207.8s1.7-.6 2.5-1 2.3-1 3.3-1.5 3.8-2 4.9-2.7c1.2-.7 2.7-1.8 3.9-2.8 1.2-1 3.2-2.8 4-3.6.8-.8 2.7-3 3.2-3.8.6-.8 1.5-2.3 1.5-2.3l2.1 1.1c.9.5 1.9.9 2.6 1 .7.1 1.1.2 1.8.1s.9-.2 1.3-.6c.4-.4.8-1.1.9-1.5.2-.4.4-.9.4-.9s.8.4 1.3.6l2.5.9c.7.2 1.6.4 2 .7.4.3.5.5.5.8 0 .3-.3 1-.6 1.5s-1.2 2.6-1.6 3.2c-.4.7-1.9 3.2-2.7 4.3-.8 1.1-3.3 4.3-4.3 5.2-.9.9-2.1 2.1-2.8 2.4-.7.4-1.8.6-2.5 1l-3.9 2.4c-1 .6-2.5 1.5-3.5 2l-4.4 2.2c-.8.4-1.9.8-2.4 1.1-.5.2-.9.4-1.3.4s-.7-.3-.9-.6c-.2-.3-1.4-2.5-1.9-3.3-.5-.8-2.2-3.8-2.5-4.4-.4-.6-.5-.8-1.3-1.1-.5-.2-.7-.3-.9-.3-.3 0-.4 0-.8-.1-.2-.1-.4-.4-.4-.4m-5.8 1.7l2.1-.6c.7-.2 1.5-.5 1.9-.6.5-.1.7-.1.9.1.3.3.5.7.6 1.1.1.4 1.6 2.8 2 3.7.5.8 1.8 3.2 2.2 3.9.4.7 1.9 3.1 2.2 3.6.3.5.7 1.2.9 1.6.3.4.7 1.3.8 1.7.2.4.3.7.2 1-.1.3-1 1.8-1.1 2.2-.2.4-1 1.8-1 1.8s-.1-1.2-.3-1.7c-.2-.6-.4-.9-.8-1.2-.4-.3-1.2-.5-1.5-.7-.3-.2-.6-.4-1-1.2-.4-.8-1.4-3.5-1.8-4.4-.4-1-1.7-4.2-2.1-5.3-.4-1.1-1.1-2.9-1.5-3.3-.3-.4-1.2-1.1-1.5-1.1-.3 0-.7-.1-.8-.1-.1 0-.4.1-.4.1v-.6z"/>
        <path class="st0" d="M237.9 192s.6.1.9-.1c.3-.2 1-.7 1.5-1.2s1-1.1 1.2-1.4c.2-.3.3-.4.3-.4s.3.1.3.3-.5 1.9-.7 2.3c-.2.4-.7 1.9-1 2.6-.4.8-1.5 3-1.9 3.7-.4.7-2.3 3.7-3 4.7-.8 1-3.1 3.9-3.8 4.7-.7.8-3.5 3.5-4.2 4.2-.7.7-5.7 4-6.7 4.5-1 .6-4.2 2.4-4.9 2.9-.7.4-3 1.5-3.7 1.9-.8.4-2.8 1.3-3.2 1.4-.5.1-1 0-1.5 0-.4-.1-.6-.1-.8-.1-.2 0-.7.1-.7.1l-.2-.4s1.9-.7 2.8-1.2c.9-.5 5-2.4 6.1-3 1.1-.7 3.5-2 4.8-2.8 1.2-.8 4.2-3 5.2-3.9 1.1-.9 4.1-3.9 4.7-4.6.5-.7 3-2.9 3.5-3.5.6-.6 1.6-1.5 2.3-2.5.7-1.1 2.4-3.7 2.7-4.5.3-.8.7-1.4.6-1.7-.1-.3-.1-.6-.2-.7-.1 0-.7-.2-.7-.2l.2-.7c0-.3.1-.4.1-.4m-51.2 18.5s.6 0 1.1-.2c.5-.2 1.8-.7 2.3-.7.5-.1 1.3-.1 1.4.2.1.2.3.7.5 1.3.2.6 1.7 4.5 2.1 5.5.4 1 2 5.1 2.3 5.9.3.8 1.1 2.7 1.2 3.1.1.4.5 1.4.4 1.7-.1.3-.7 1.3-1 1.8-.4.5-1.6 2.2-1.6 2.2s-.1-.7.1-.9c.1-.2.3-.6.2-.9-.1-.2-.4-.9-.7-1.3-.4-.3-1.1-.6-1.5-.9-.4-.4-.6-.5-.8-1.6-.3-1.1-1-4.1-1.2-5-.2-.9-1.2-5.1-1.4-6-.2-.8-.4-2-.8-2.4-.3-.4-1-1-1.3-1.1-.3-.1-.6 0-.7 0h-.3l-.3-.7zm-5.3.5s1-.1 1.4-.2c.4-.1 1.4-.3 2-.3.6 0 1.2.2 1.3.5.1.4.3 1.5.3 2 .1.5 1.2 5.2 1.3 5.9.1.7 1.4 5.7 1.5 6.5.1.7.6 2.5.5 2.9v.9c-.1.1-.8 1.1-1.2 1.5-.4.4-1.7 2.1-1.7 2.1s-.1-.5.1-.7c.2-.2.6-.6.5-.9-.1-.4-.4-1.1-.7-1.4-.3-.3-1.1-.7-1.4-1-.3-.4-.5-.6-.6-1.5-.1-.8-.4-5.3-.5-6.7-.1-1.5-.4-5.5-.5-6.1-.1-.6-.2-1.2-.6-1.6-.4-.4-.8-.6-1.1-.7-.3-.1-.5-.1-.5-.1l-.1-1.1zm-5.5.1s1 0 1.2-.1c.2-.1 1.2-.2 1.9-.2s1.5.2 1.5.6c0 .4.1 1.6.1 2.4 0 .8.3 4.7.4 5.4 0 .6.4 5 .4 6.1.1 1.1.2 3.1.2 3.5v.9l-1.6 1.6c-.4.3-1.8 1.5-1.8 1.5s.2-.6.4-.8c.2-.3.4-.7.2-.9-.2-.3-1.2-1.4-1.5-1.6-.3-.2-.8-.8-.8-1.3-.1-.5.2-4.1.4-5.6.1-1.5.4-4.8.5-6 .1-1.2.2-2.5 0-3s-.6-1.1-.9-1.2c-.3-.1-.8-.2-.8-.2l.2-1.1zm-5.5-.4h1.1c.4 0 .7-.1 1.3-.1.6 0 1 0 1.5.1.4.2.8.4.7 1.1-.1.7-.2 3.2-.3 4-.1.7-.5 5.9-.5 6.3s-.2 2.7-.2 3.5c0 .6-.3 2-.3 2.5-.1.5-.3 1.4-.3 1.5 0 .1-.1.3-.1.3s-.9.8-1.3.9c-.3.2-.3-.2-.5-.4s-.5-.2-1-.5c-.5-.2-1.2-.9-1.6-1.5-.3-.5-.4-1-.2-1.9.2-.8.9-3.8 1.2-4.8.2-1 .9-3.9 1.1-5 .2-1 .6-2.6.6-3.2 0-.6-.2-1.1-.5-1.4-.3-.3-.4-.3-.6-.4-.2-.1-.4-.1-.4-.1l.3-.9zm-5.5-.9s.7.1 1.1.1c.4 0 1-.1 1.7.1s1.5.3 1.6.6c.1.3.3.6.1 1.3-.2.7-1.4 5.6-1.6 6.5-.2.8-1.1 4.8-1.3 5.5-.2.7-.7 2.9-.8 3.4-.2.5-.5 1.5-.5 1.6 0 .1-.8.5-1 .6l-.4.2s.3-.4.2-.7c-.1-.3-.4-.5-.8-.5s-.8.3-1.1.2c-.3-.1-.8-.3-1.1-1.1-.4-.8-.4-1-.3-1.6.1-.6 1.7-4.4 2-5.3.3-.9 1.8-4.6 2.1-5.5.4-.9.8-2.1.8-2.4 0-.4-.3-.9-.5-1.1-.2-.2-.4-.3-.5-.3-.1 0-.2-.1-.2-.1l.5-1.5zm-5.5-1.5s.5.2 1.1.2c.5 0 1.1 0 1.7.2.6.2 1.4.7 1.6 1 .1.3-.2 1-.5 1.8-.4.8-2 5.2-2.4 6.1-.4.9-2.1 5.2-2.3 5.8-.2.6-1 2.4-1.2 2.8-.2.5-.4.9-.4.9l-.9.3s.3-.4.1-.6c-.1-.2-.6-.7-.9-.7-.3 0-.7.1-1 .2-.4.2-.9.2-1.1-.2-.2-.3-.7-1.3-.7-1.5-.1-.2-.2-.6 0-1 .2-.5 1.9-3.5 2.3-4.1.4-.6 2.3-3.8 2.7-4.6.4-.8 1.5-2.6 1.7-3 .2-.4.3-.7.2-1-.2-.3-.2-.5-.3-.5-.2-.1-.5-.1-.5-.1l.8-2z"/>
        <path class="st0" d="M178 140c-26.6 0-46.7 16.4-46.7 35s20.1 35 46.7 35 46.8-16.4 46.8-35c-.1-18.6-20.2-35-46.8-35zm0 68.6c-26.9 0-45.2-16.8-45.2-33.5s18.3-33.5 45.2-33.5 45.2 16.8 45.2 33.5-18.3 33.5-45.2 33.5z"/>
        <path class="st0" d="M177.9 152.5c6.4.1 10.8 2.7 10.8 9.8 0 7.4-4.5 9.8-10.8 9.9-6 0-10.8-2.2-10.8-9.9 0-6.8 4.9-9.7 10.8-9.8m18.2 20.7c6.4-3.6 7.7-7.3 7.2-11.6-.9-7.8-11.6-13.4-25.7-13.2-17 .2-27.3 8.7-27.3 11s3.4 2.8 3.4 4v23.4c0 1.5-3.2 3.1-3.2 4.7 0 1.7 11 9.8 29.1 9.7 15.9-.1 25.1-6.8 25.2-14.8.1-4.4-2.4-10.2-8.7-13.2zm-17 24h-.4c-5.6 0-11.9-1.6-11.9-10.5 0-9 6.2-10.8 12.1-10.9 5.6.1 11.6 2.1 11.6 10.9 0 7.8-5.5 10.5-11.4 10.5"/>
    </g>
</svg>
