<svg xmlns="http://www.w3.org/2000/svg" viewBox="0 0 445 445" width="20" height="20">
    <path d="M221.9 423.5c-111 0-201-90-201-201s90-201 201-201 201 90 201 201-90 201-201 201m0-412.6C105 10.9 10.3 105.6 10.3 222.5c0 116.9 94.7 211.6 211.6 211.6 116.9 0 211.6-94.7 211.6-211.6S338.7 10.9 221.9 10.9m0 414.3c27.4 0 53.9-5.4 78.9-15.9 24.1-10.2 45.8-24.8 64.4-43.4 18.6-18.6 33.2-40.3 43.4-64.4 10.6-25 15.9-51.5 15.9-78.9 0-27.4-5.4-53.9-15.9-78.9-10.2-24.1-24.8-45.8-43.4-64.4-18.6-18.6-40.3-33.2-64.4-43.4-25-10.6-51.5-15.9-78.9-15.9-27.4 0-53.9 5.4-78.9 15.9-24.1 10.2-45.8 24.8-64.4 43.4-18.6 18.6-33.2 40.3-43.4 64.4-10.6 25-15.9 51.5-15.9 78.9 0 27.4 5.4 53.9 15.9 78.9 10.2 24.1 24.8 45.8 43.4 64.4 18.6 18.6 40.3 33.2 64.4 43.4 25 10.5 51.5 15.9 78.9 15.9m0-412.6c28.3 0 55.8 5.5 81.7 16.5 25 10.6 47.5 25.7 66.7 45 19.3 19.3 34.4 41.7 45 66.7 10.9 25.9 16.5 53.4 16.5 81.7 0 28.3-5.5 55.8-16.5 81.7-10.6 25-25.7 47.4-45 66.7-19.3 19.3-41.7 34.4-66.7 45-25.9 10.9-53.4 16.5-81.7 16.5s-55.8-5.5-81.7-16.5c-25-10.6-47.5-25.7-66.7-45s-34.4-41.7-45-66.7C17.6 278.3 12 250.8 12 222.5s5.6-55.8 16.5-81.7c10.6-25 25.7-47.4 45-66.7 19.3-19.3 41.7-34.4 66.7-45 25.8-11 53.3-16.5 81.7-16.5"/>
    <path d="M97.2 93.2c-2.6-2.2-6.7-2.3-8.5-.1l-15.6 18.6 9.6 8.1 15.4-18.4c2-2.4 2-5.8-.9-8.2m18.9 21.5c2.2-2.6 1.8-6.6-1.3-9.2-2.8-2.3-6.9-1.7-8.7.5l-16.4 19.5 10.2 8.5 16.2-19.3z"/>
    <path d="M221.9 21.5c-111 0-201 90-201 201s90 201 201 201 201-90 201-201-90-201-201-201m-30.8 7.4h16l14.5 37.9L236 28.9h16V82h-10.6V44.9l-14 37.1h-11.6l-14-37.1V82h-10.6l-.1-53.1zm-134 87.4L83 85.4c5.4-6.4 12.9-11.5 20-5.5 2.2 1.9 3.1 2.5 5.8 7.3.6 1.7 1.1 4.9-.1 7.9 6.2-3.8 12.8-2.6 17.1 1.6 6.6 6.4 5.6 13.8-.6 21.2l-27.3 32.6-40.8-34.2zm164.8 241c-74.4 0-134.8-60.3-134.8-134.8 0-74.4 60.3-134.8 134.8-134.8 74.4 0 134.8 60.3 134.8 134.8-.1 74.4-60.4 134.8-134.8 134.8m124.6-208.7l-9.1-11 17.4-26.2-.1-.1-29 12.4-9.2-10.9 30.3-40.1 7.7 9.3-19 25.5L365 94.4l8.3 10-18.2 26.5 28.5-14 7.7 9.3-44.8 22.4z"/>
    <path d="M95.1 222.5h126.7V95.8c-69.9 0-126.7 56.7-126.7 126.7m126.8 0v126.7c70 0 126.7-56.7 126.7-126.7H221.9z"/>
</svg>
