<svg xmlns="http://www.w3.org/2000/svg" viewBox="0 0 2500 2500" width="20" height="20">
    <path d="M1921.9 1875.1c150.3 0 240.2-107.5 240.2-240.2s-89.9-240.2-240.2-240.2h-487.3v480.4h487.3zm0-837.3c132.3 0 212.8-95.2 212.8-212.7 0-117.5-80.5-212.8-212.8-212.8h-487.3v425.5h487.3zM748.3 1394.6v119H446.4V918.8h301.9v119h288.3V612.2H310.4v151H8.5v-453h1913.4c299.4 0 542.2 242.7 542.2 542.2.2 131.5-47.6 258.5-134.4 357.3 100.1 102.6 161.8 243 161.8 397.7 0 314.6-255 569.6-569.6 569.6H8.5v-453h302v151h726.2v-480.4H748.3z"/>
</svg>
