<svg xmlns="http://www.w3.org/2000/svg" viewBox="0 0 71.9 71.9" width="20" height="20">
    <path d="M35.9.8C16.5.8.8 16.5.8 36S16.5 71.2 36 71.2 71.1 55.4 71.1 36C71.1 16.5 55.3.8 35.9.8zm0 66.6C18.6 67.4 4.5 53.3 4.5 36s14-31.5 31.4-31.5 31.4 14.1 31.4 31.4c.1 17.4-14 31.5-31.4 31.5zm-13.4-4.2zm13.7-4.9zm13.7-4.8h-.1z"/>
    <path d="M41.7 19.9H28v4.8H14.3v17.6c0 10.1 7.8 20.3 8.1 20.9.4-.6 5.8-7.7 7.6-16 1.6 3.9 3.6 7.7 6.1 11.2.4-.6 5.8-7.7 7.6-16 1.6 3.9 3.7 7.7 6.1 11.2.4-.7 8.1-10.8 8.1-20.9V15H41.7v4.9zM28 42.5c0 7.7-5.2 14.7-5.5 15.3-.3-.5-5.6-7.6-5.6-15.3V27.3H28v15.2zm13.7-4.8c0 7.7-5.2 14.7-5.5 15.3-.3-.5-5.6-7.6-5.6-15.3V22.4h11.1v15.3zm2.6-20.1h11.1v15.3c0 7.7-5.2 14.7-5.6 15.3-.3-.5-5.6-7.5-5.6-15.3l.1-15.3z"/>
    <path d="M54.8 30.4V18.1h-10l9.8 17.4c.1-.8.2-2.4.2-5.1zm-1.5 9.9l-8.5-14.9v7.8c0 4.9 2.6 10.4 5 14 1.5-2.2 2.6-4.5 3.5-6.9zm-12.2-5.1V23h-10l9.8 17.4c.1-.9.2-2.5.2-5.2zm-1.4 9.9l-8.5-14.9V38c0 4.9 2.6 10.4 5 14 1.4-2.2 2.5-4.5 3.5-6.9zm-12.2-5V27.8h-10l9.8 17.4c.1-.8.2-2.4.2-5.1zM26 50l-8.5-15v7.8c0 4.9 2.6 10.4 5 14 1.4-2.1 2.6-4.4 3.5-6.8z"/>
</svg>
