<svg xmlns="http://www.w3.org/2000/svg" viewBox="0 0 66.7 66.7" width="20" height="20">
    <path d="M37.7 58.7c-.7.3-.7-.2-.3-.4 2.2-1 4-2.8 5.1-4.9-1.8 1.1-3.1.9-4.5 1.8s-2 2.7-3.6 3.8c1.8 1.8 3.2 2.3 4.2 2.3.8.1 1.6 0 2.4-.2 2-.4 3.7-1.4 5.3-1.7-3.5-1.2-6.7-1.4-8.6-.7zm-7.7 3c-2.2.6-5.3 1.8-8.4 1.8.2.3.5.6.8.9.2.1.3.1.5.1 3.4-.7 6-2.1 8.9-2.9-.6 0-1.3 0-1.8.1z"/>
    <path d="M47.7 56.5c-1.8.1-3.5.6-5.1 1.2 2-.2 4.6 2.1 7.6.1.4-.3 1.8-.9 2.5-1.3-1.2 0-2.9-.3-5 0zm-6.6.7c3.2-.8 5.9-3.1 7.2-6.2-1.6 1.1-2.5.8-4.4 2.6-.7.7-1.5 2.7-2.8 3.6zm-14-55.1c-3.6-.4-5.4.9-6.8 2.5.8 0 1.6 0 2.3-.1 1.7-.4 3.3-1.3 4.5-2.4zm-8 5.2c1.4-.2 2.7-.8 3.8-1.7-2.1-.5-4.2.2-5.7 1.7.6.1 1.2.1 1.9 0zM11.7 10c1.4-1.2 2.4-2.7 3-4.4-2.5 1-4.2 3.2-4.6 5.9.1-.2 1-1 1.6-1.5zm1 .1c.6 0 1.2 0 1.9-.1 1.3-.3 2.5-.9 3.5-1.9-2-.4-4.1.4-5.4 2zm2.1.9c-3.1.1-4.3 1.1-5.6 3.2l1.8-.6c1.4-.5 2.7-1.4 3.8-2.6zm5.4-8.3c-3.1 1-4.2 2.1-5 4.5 2.8-.9 3.9-2.3 5-4.5zM8.4 19.9c-2.5 1.3-4 4-3.6 6.8.3-.4.5-.9.8-1.3 1.3-1.6 2.2-3.5 2.8-5.5zM.9 35.1c.2.7.3 1.3.4 2 .4 2.9 3.4 4.1 4.6 5.1-1-2.8-2.7-5.3-5-7.1zm12.7 15.4c-.4-.8-.7-2.4-1.4-3.8-.7-1.1-1.4-2.2-2.2-3.2-.6 3.5 1.9 5.6 3.6 7zm5.6 3.8c-.9-.9-1.6-3.1-2.4-3.9-1.5-1.6-1.9-1.5-3.2-3 .4 3.1 2.6 5.8 5.6 6.9zM2.8 41.6c.1.3.6 1.2 1 2 1 2.2 3.2 3.4 5.5 4.1-1.3-2.5-3.8-4.5-6.5-6.1zm6.7 10.9c.3.2 1 .8 1.7 1.4 2.2 1.9 5 1 7.5 1.5-3.5-2.4-7-2.5-9.2-2.9zm-3.3-4.8c.2.2.8 1.1 1.3 1.7 2 2.6 5 2.3 6.7 2.9-2.2-2.3-5-3.9-8-4.6zm2.7-4.3c.2-3.1-1.5-4.3-1.7-5.9-.7 2.6-.4 4.9 2 8-.2-.7-.3-1.4-.3-2.1zm-3.1-4.1c.1-.8.2-1.5.3-2.2.5-2.2.2-3.5 0-5.6-1.9 2.9-1.7 5.1-.3 7.8zm-3.6-4.4c.5.4 1 1.2 1.4 1.7.1-3.1-.9-6.2-2.7-8.7.4 2.2-.7 5 1.3 7zm2.1-2.6c.2-.4.5-.9.8-1.3 1.8-2.1 1.5-3.9 2.1-5.7-1.8 1.8-3.2 3.3-2.9 7zm-.3-9c1.3-2.8 1.9-5.1 1.3-8-.5 1.3-1.9 2.8-1.9 4.8.1.9.7 3.1.6 3.2zm-.8 6.6c.4-3.2 1-4.8-.5-8.4-.4 1.6-1.9 4.2-.5 6.7.3.5.7 1.1 1 1.7zm8.2-15.4c-2.6.7-4.5 2.8-5.2 5.3.1-.1 1.2-.9 1.8-1.2 1.4-1.1 2.6-2.5 3.4-4.1zm-5 2.4c1.6-2 2.6-4.5 2.8-7.1l-1.5 1.8c-.8 1-1.3 2.2-1.4 3.5-.1.6.1 1.1.1 1.8zm40-12.3C45 3 43.1 1.7 39.6 2.1c1.3 1.2 2.8 2 4.4 2.4.8.1 1.6.1 2.4.1zm-2.5.9c1 1 2.3 1.6 3.7 1.8.6.1 1.3.1 1.9 0-1.4-1.5-3.5-2.2-5.6-1.8zM55 10c.5.5 1.5 1.3 1.6 1.4-.4-2.6-2.1-4.9-4.6-5.9.7 1.8 1.7 3.3 3 4.5zm-1 .1c-1.3-1.6-3.3-2.3-5.3-2 .9 1 2.2 1.6 3.5 1.9.6.1 1.2.1 1.8.1zm-2.1.9c1.1 1.2 2.4 2.1 3.8 2.7l1.8.6c-1.2-2.2-2.5-3.2-5.6-3.3zm-.3-3.8c-.9-2.4-2-3.5-5-4.5 1.1 2.2 2.2 3.6 5 4.5zm9.6 18.3c.3.4.6.8.8 1.3.3-2.8-1.1-5.6-3.6-6.8.5 1.9 1.5 3.8 2.8 5.5zm-.4 16.6c1.2-1 4.2-2.2 4.6-5.1.1-.7.2-1.3.4-2-2.3 1.9-4 4.4-5 7.1zm-4.1 1.4c-.8 1-1.5 2.1-2.2 3.2-.7 1.3-1 2.9-1.4 3.8 1.7-1.4 4.2-3.5 3.6-7zm-3.6 3.9c-1.3 1.5-1.6 1.3-3.2 3-.8.9-1.6 3.1-2.4 3.9 3.1-1 5.2-3.7 5.6-6.9zm4.4.2c2.2-.8 4.5-2 5.5-4.1.4-.8.8-1.7 1-2-2.7 1.7-5.2 3.7-6.5 6.1zm-1.9 6.3c.7-.6 1.4-1.2 1.7-1.4-2.2.5-5.7.5-9.2 3 2.5-.6 5.3.3 7.5-1.6zm-3.1-1.6c1.7-.7 4.8-.4 6.7-2.9.5-.7 1.1-1.5 1.3-1.7-2 .6-5.4 1.6-8 4.6zm7.1-14.8c-.2 1.6-1.9 2.8-1.7 5.9 0 .7-.1 1.4-.2 2.1 2.2-3.1 2.6-5.4 1.9-8zm1-.4c.2.7.3 1.5.3 2.3 1.4-2.7 1.6-4.9-.4-7.8-.1 2-.4 3.2.1 5.5zm2.5-.5c.4-.5 1-1.2 1.4-1.7 2-2 .9-4.8 1.3-7-1.8 2.5-2.8 5.6-2.7 8.7zm-3.6-11.3c.6 1.8.3 3.6 2.1 5.7.3.4.6.9.8 1.3.3-3.7-1-5.2-2.9-7zm3.7-5.2c0-2-1.3-3.4-1.9-4.8-.6 2.9 0 5.2 1.3 8 0-.1.6-2.3.6-3.2zm.3 9.8c.3-.6.6-1.2 1-1.7 1.3-2.5-.2-5.1-.5-6.7-1.4 3.6-.9 5.2-.5 8.4zm-4.8-11.3c.6.4 1.6 1.1 1.7 1.2-.6-2.6-2.6-4.6-5.1-5.3.8 1.6 2 3 3.4 4.1zm1.8-3.5c0-1.3-.5-2.5-1.3-3.5-.5-.6-1.2-1.2-1.6-1.8.1 2.6 1.1 5.1 2.8 7.1-.1-.7.1-1.2.1-1.8zM28.8 55.5c-1.8-1.2-3.8-1.2-4.7-1.8 1.2 2 2.9 3.7 5 4.8.4.2.6.8-.1.5-2-.8-6.1-.5-8.6.8 1.7.4 3.8 1.6 6.1 1.8 2 .2 3.6-.7 6-.6 3.1.2 3.6 1.9 10.9 3.7.3.1.6 0 .8-.2.2-.2.5-.5.7-.8-6.2-.4-9.5-2.4-12.1-4.6-1.4-1.3-3-2.9-4-3.6z"/>
    <path d="M24 57.7c-1.6-.7-3.4-1.1-5.1-1.2-2.1-.2-3.7.1-4.9 0 .7.4 2.1 1.1 2.5 1.3 2.9 2 5.5-.4 7.5-.1zm1.5-.5c-1.2-1-2.1-2.9-2.8-3.6-2-1.8-2.8-1.5-4.4-2.6 1.3 3.1 4 5.4 7.2 6.2zm-2.4-32l-.2.1h-.4c-.3-.1-.6-.1-.8 0l-.4.1c-.2.1-.2 0-.2-.1s0-.1.1-.2c.1-.2.1-.4-.1-.6-.2-.1-.4 0-.5.1l-.4.3c-.1.1-.1.2.1.2s.2.2.2.4 0 .3-.1.5 0 .5.3.6h1.2c.5 0 .9-.3 1.1-.8 0-.1.2-.3.2-.4s0-.3-.1-.2zm7.6 0l-.2.1h-.3c-.3-.1-.6-.1-.9 0l-.4.1c-.2.1-.2 0-.2-.1l.1-.2c.1-.2.1-.4 0-.6-.2-.1-.4 0-.5.1l-.4.3c-.1.1-.1.2.1.2s.2.2.2.4-.1.3-.1.5c-.1.2 0 .5.3.6h1.3c.5 0 .9-.3 1.1-.8 0-.1.2-.3.2-.4s-.2-.3-.3-.2zm2.7-10.3c.6 0 1.2-.5 1.2-1.2s-.5-1.2-1.2-1.2-1.2.5-1.2 1.2.5 1.2 1.2 1.2zm-4.9.4c.6-.1 1.1-.7 1-1.3-.1-.6-.7-1.1-1.3-1-.6.1-1.1.7-1 1.3.1.7.7 1.1 1.3 1zm-5.4-1c-.6.2-1 .8-.8 1.4.2.6.8 1 1.4.8h.1c.6-.2.9-.9.7-1.5-.2-.5-.8-.9-1.4-.7zm-4.8 2c-.6.3-.8 1-.5 1.5.2.6.8.9 1.4.7.6-.2.9-.8.7-1.4 0-.1-.1-.3-.2-.4-.2-.4-.9-.7-1.4-.4zm19.9-1c.6.1 1.2-.4 1.3-1 .1-.6-.4-1.2-1-1.3-.6-.1-1.2.4-1.3 1-.1.6.3 1.2 1 1.3zm4.7 1.2c.6.2 1.3-.1 1.5-.7.2-.6-.1-1.3-.7-1.5-.6-.2-1.3.1-1.5.7-.3.6.1 1.3.7 1.5zm4.5 1.8c.6.3 1.3.1 1.6-.5.3-.6.1-1.3-.5-1.5-.6-.3-1.3-.1-1.6.4-.3.6-.1 1.3.4 1.6h.1zM35.8 36.2c.2 0 .2.2.2.4s-.1.3-.1.5c-.1.3 0 .5.3.6h1.2c.5 0 .9-.3 1.1-.8.1-.1.1-.3.2-.4.1-.2-.1-.3-.2-.2H38c-.3-.1-.6-.1-.9 0-.1.1-.2.1-.4.1-.2.1-.2 0-.2-.1l.1-.2c.1-.2.1-.4 0-.6-.2-.1-.4 0-.5.1l-.4.3c-.2.1-.1.3.1.3zm7.1 0c.2 0 .2.2.2.4s0 .3-.1.5c-.1.3 0 .5.3.6h1.2c.5 0 .9-.3 1.1-.8.1-.1.1-.3.2-.4.1-.2-.1-.3-.2-.2-.1 0-.1.1-.2.1H45c-.3-.1-.6-.1-.8 0-.1.1-.2.1-.4.1-.2.1-.2 0-.2-.1s0-.1.1-.2c.1-.2.1-.4-.1-.6-.2-.1-.4 0-.5.1l-.4.3s.1.2.2.2zm-18.5-4.1c.2 0 .2.2.2.4s-.1.3-.1.5c-.1.3 0 .5.3.6H26c.5 0 .9-.3 1.1-.8 0-.1.2-.3.2-.4.1-.2-.1-.3-.2-.2-.1 0-.1.1-.2.1h-.4c-.3-.1-.6-.1-.8 0l-.4.1c-.2 0-.2 0-.2-.1s0-.1.1-.2c.1-.2.1-.4-.1-.6-.2-.1-.4 0-.5.1-.1.1-.3.2-.4.3 0 0 .1.2.2.2zm14.6 11c.2 0 .2.2.2.4s-.1.3-.1.5c-.1.3 0 .5.3.6h1.2c.5 0 .9-.3 1.1-.8 0-.1.2-.3.2-.4s-.1-.3-.2-.2c-.1 0-.1.1-.2.1h-.3c-.3-.1-.6-.1-.9 0-.1.1-.2.1-.4.1-.2.1-.2 0-.2-.1l.1-.2c.1-.2.1-.4 0-.6-.2-.1-.4 0-.5.1l-.4.3c-.1.1-.1.3.1.2z"/>
    <path d="M25.6 13.4c-1.1-1.2-2.9-1.3-4.1-.2-.5.5-.8 1.1-.9 1.8-.5-.4-1.1-.6-1.8-.6-1.6 0-2.9 1.3-2.8 2.9 0 1.2.8 2.3 2 2.7v2.6h-5.3l5.2 5.5v13.6c0 2.3.9 4 3.8 4.3s6.1.7 7.6.9c2 .2 3 .5 4.2 2.2 1.1-1.6 2.2-2 4.2-2.2 1.5-.2 4.8-.5 7.6-.9s3.8-2 3.8-4.3V28.2l5.1-5.5h-5.3v-2.6c1.5-.4 2.4-2 2-3.6-.4-1.5-2-2.4-3.6-2-.4.1-.7.3-1 .5-.2-1.6-1.6-2.7-3.2-2.5-.7.1-1.3.4-1.8.9-.4-1.5-2-2.4-3.6-2-.7.2-1.2.6-1.6 1.2-.7-1.4-2.4-2.1-3.8-1.4-.6.3-1.1.8-1.4 1.4-.9-1.3-2.7-1.6-4-.7-.7.3-1.1.9-1.3 1.5zm-6.9 13.9l-3.3-3.5h17.7v3.5H18.7zm7.1 16.3h-6.4c-.2-.5-.4-1-.4-1.5h6.8v1.5zm0-3.8H19v-5h6.8v5zm7.3 7.3c-.9-.7-2-1.1-3.1-1.2l-3.6-.4v-5.1h6.8l-.1 6.7zm0-9h-6.7v-1.4h6.8l-.1 1.4zm0-3.8H19v-3.5h14.1v3.5zm0-4.1H19v-2.3h14.1v2.3zm.5-6.4h6.8v5h-6.8v-5zm6.8 7.3v1.5h-6.8v-1.4l6.8-.1zm4.5 13.8l-8.2.9c-1.1.1-2.2.5-3.1 1.2v-5.2h14.1c0 1.8-.6 2.9-2.8 3.1zm2.8-3.6H33.6v-2.4h14.1v2.4zm0-2.9H33.6v-3.6h14.1v3.6zm0-4H41v-5h6.8v5h-.1zm2-8.8L48.3 27H41v-1.5l8.7.1zM28 12.1c1.2-.2 2.3.6 2.5 1.8v.7l.8-.1c-.1-.2-.1-.4-.1-.7-.1-1.2.8-2.2 2-2.3s2.2.8 2.3 2v.3c0 .2 0 .4-.1.7l.8.1v-.7c.1-1.2 1.2-2 2.4-1.9s2 1.2 1.9 2.4c0 .3-.1.6-.3.8l.9.2c0-.2 0-.4.1-.6.4-1.1 1.6-1.7 2.7-1.3 1.1.4 1.7 1.6 1.3 2.7-.1.2-.2.4-.3.5l.8.3c0-.2.1-.4.2-.6.5-1.1 1.8-1.5 2.9-.9 1.1.5 1.5 1.8.9 2.9-.2.4-.5.7-.9.9l-2.7 1.5-.4-2.7c-.5-.2-1-.5-1.6-.7l-2 1.6-.8-2.6c-.5-.2-1.1-.3-1.7-.4l-1.9 2-1.2-2.5c-.6-.1-1.1-.1-1.7-.1l-1.5 2.2-1.6-2.2c-.6 0-1.1.1-1.7.1L28.8 18l-1.9-2c-.6.1-1.1.2-1.7.4l-.8 2.6-2.2-1.6c-.5.2-1 .4-1.6.7l-.3 2.7-2.7-1.5c-1-.6-1.4-1.9-.9-2.9.6-1 1.9-1.4 2.9-.9.4.2.7.5.9.9.1.2.2.4.2.6l.8-.3-.3-.6c-.2-1.2.6-2.3 1.8-2.5s2.3.6 2.5 1.8l.8-.2c-.1-.2-.2-.4-.2-.6 0-1.3.7-2.4 1.9-2.5z"/>
</svg>
