<svg width="20" height="20" viewBox="0 0 100 100" xmlns="http://www.w3.org/2000/svg">
    <path d="M96.98 90.256c.048-1.155.091-2.619.091-4.1 0-3.166-2.596-6.167-2.618-6.193-13.267-14.702-35.683-36.45-44.02-37.205-.169-.018-.433-.002-.433-.002.005 10.038.34 9.569-5.581 12.07-.61.257-20.464 8.649-39.4 25.801-2.302 2.602-2.09 5.204-2.09 5.204 0 1.574.049 2.65.101 4.418C11.765 82.761 37.682 61.482 50 61.482c12.312 0 38.25 21.293 46.98 28.774zm-.357-12.273c.137.153 3.377 3.856 3.377 8.173 0 3.36-.223 6.743-.225 6.769-.006.162-.085 1.592-.877 1.98a.935.935 0 0 1-.41.094c-.3 0-.632-.136-1-.407-.34-.301-34.16-30.161-47.488-30.161-13.326 0-47.146 29.86-47.503 30.176-.357.26-.685.393-.98.393a.913.913 0 0 1-.412-.096c-.794-.387-.872-1.817-.879-1.972A116.3 116.3 0 0 1 0 86.156c0-4.317 3.24-8.02 3.378-8.173l.002-.002C4.787 76.42 37.985 39.79 50 39.79c12.016 0 45.213 36.63 46.623 38.193zm.31-22.567c.047-1.154.091-2.615.091-4.095 0-3.163-2.593-6.162-2.616-6.188C81.155 30.446 58.76 8.72 50.433 7.965c-.17-.018-.432-.001-.432-.001.004 10.028.338 9.558-5.577 12.058-.609.256-20.443 8.64-39.361 25.776-2.3 2.599-2.086 5.198-2.086 5.198 0 1.572.048 2.647.1 4.413 8.726-7.48 34.618-28.738 46.924-28.738 12.299 0 38.21 21.272 46.932 28.745zm-.357-12.261c.137.153 3.374 3.852 3.374 8.166 0 3.357-.223 6.736-.224 6.762-.006.162-.085 1.59-.876 1.977a.934.934 0 0 1-.41.094c-.3 0-.632-.134-1-.405-.34-.303-34.125-30.133-47.44-30.133-13.313 0-47.099 29.83-47.455 30.146-.357.261-.685.393-.98.393a.927.927 0 0 1-.411-.095c-.793-.388-.87-1.815-.878-1.97-.002-.033-.226-3.412-.226-6.77 0-4.313 3.237-8.012 3.375-8.165l.002-.002C4.833 41.594 37.997 5 50 5c12.005 0 45.167 36.594 46.576 38.155z" fill-rule="evenodd"/>
</svg>
