<svg xmlns="http://www.w3.org/2000/svg" viewBox="0 0 612 612" width="20" height="20">
    <path d="M381.9 529.8c-14-161.8 92.6-292.9 209.2-308.3 71.3 144.3-61.2 282.2-209.2 308.3z"/>
    <path d="M507 125.6c17.6 11 45.4 37.5 55.1 50.4-149 79.4-194.8 224.6-190.9 355.5-6.4 1.2-13.6 1.7-19.5 2.8-11.2-188.7 71.9-324.5 155.3-408.7z"/>
    <path d="M390.4 74.9c21.3 3.8 53.1 15.1 70.6 24.3-83.2 160.9-124.7 252-118.7 436.2l-19.1 1.2c1.6-258.9 25.4-310.6 67.2-461.7zm-50-7.7c-21.4-2-45.8-2.7-71.1-.7C292 224 294.6 290.7 298.9 536.9c5.4.1 9.2.1 15.8-.2-1-244.6 4.3-310.6 25.7-469.5zm-118.9 7.7c-21.3 3.8-53 15.1-70.5 24.3 83.1 160.9 124.7 252 118.6 436.2l19.2 1.2c-1.6-258.9-25.4-310.6-67.3-461.7z"/>
    <path d="M105.1 125.6c-17.6 11-45.3 37.5-55.1 50.4 149 79.4 194.7 224.6 190.8 355.5 6.5 1.2 13.8 1.7 19.6 2.8 11.1-188.7-71.8-324.5-155.3-408.7z"/>
    <path d="M230.1 529.8C244 368 137.5 236.9 21 221.5c-71.5 144.3 61.1 282.2 209.1 308.3z"/>
</svg>
