<svg version="1.1" id="Layer_1" xmlns="http://www.w3.org/2000/svg" x="0" y="0" viewBox="0 0 400 400" xml:space="preserve" width="20" height="20">
    <path class="st0" d="M388.8 50.4c-15.6-3.9-31.3-7.3-47.3-9-15.6-1.7-31.1-4.2-46.8-4.9-23.1-1.5-46.1-3-69.2-2.8-18-.6-35.9-.2-53.9.3-24.5.1-49 2.2-73.5 3.6-28.8 3-57.7 5.2-86.1 11.4-10.8 41.7-14.4 86.6-2 128.3 13.1 40.5 40.1 74.8 70.2 104.1 33.3 32.6 72.1 59.8 114.9 78.3 1.3.4 2.7 1.5 4 .6 38.4-18 75.3-40 106.9-68.6 20.4-17.9 39.2-37.8 54.7-60.1 19.8-27.6 32.1-60.5 35.4-94.3 3-29 .2-58.6-7.3-86.9zm-19.4 148.7c-21.9 42.6-56.4 77.4-94.5 105.9-13 9.5-26.5 18.5-40.6 26.2-11.6 6.6-23.2 13.3-35.7 18.1-32.4-12.2-61.2-32.2-87.8-53.9-19.4-16.3-38-33.8-53.8-53.8-19.4-23.9-34.8-51.7-40.9-82.1-6.5-33.7-4.3-68.8 5-101.7C47.5 52 74.6 49.9 101.4 47c17.5-1.2 35-2.2 52.6-3.3 20.7-.2 41.5-1.2 62.2-.9 14.1.4 28.1.2 42.2.8 14.6.9 29.3 1.7 43.9 2.6 23.6 2.9 47.5 4.6 70.6 10.5 2.5.8 5.6.7 7.7 2.4 11.6 46.2 9.6 96.9-11.2 140z"/>
    <path class="st0" d="M179.9 57.7c-.4-4.3 4.1-7.8 8.1-8.1 14.2-.1 28.4 0 42.6 0v5.2c-9.5.1-19 .1-28.5 0-1.9.1-3.9-.1-5.6.7-1.7 2.3-.9 5.4-1.1 8 0 1.9-.3 5.2 2.3 5.4 5.4.3 10.7 0 16.1.1 1.5-.2 3.4.3 4.6-.9.9-1.3.8-3 1.2-4.5-6.3-.2-12.5-.1-18.7-.1 0-1.7.1-3.3.1-5h29.8c0 3.7.6 7.4-.4 11-1.4 3.8-5.6 5.7-9.4 5.5h-33c-3.3.2-6.5-1.6-7.9-4.6-.5-4.1-.2-8.4-.2-12.7zm66.4-8.1h17.1c0 4.7-.1 9.4 0 14.2 0 2.1.7 4.3 2.3 5.6 7.8 1.2 15.8.5 23.7.7 0 2.1.1 4.2.1 6.3-11.2-.1-22.4-.8-33.7-1-3.7-.1-8.6-1.6-9.4-5.8-.3-6.7 0-13.4-.1-20zM62.7 57.2c14.3-1.2 28.6-2.6 42.9-3.7-.2 1.8-.4 3.6-.7 5.4-10.5 1-20.9 1.6-31.4 2.5-2.3-.1-3.1 2.2-3.3 4.1 9.4-.8 18.8-1.9 28.3-2.7 0 1.8 0 3.5.1 5.3-9.2 1.1-18.4 1.7-27.6 2.7-2.7.1-2.6 3.1-2.7 5.1 11.7-1.1 23.4-2.5 35.2-3.6-.3 2.1-.6 4.2-.9 6.2-15.6 1.7-31.2 3.5-46.7 5-2.9.5-6.6-.2-7.3-3.5-.7-4.6.6-9.3 1.6-13.7 1.5-5.5 7-8.9 12.5-9.1zm236.8.4c.9-4 5.9-4.2 9.2-3.9 14.1 1.8 28.1 3.9 42.1 5.7 0 1.7.1 3.5.1 5.2-10.2-1.4-20.3-2.9-30.5-4.1-3.1-1.2-3.6 3.8-.6 3.6 8.6 1.3 17.3 2.5 25.9 3.7v4.8c-8.5-1-17-2.4-25.5-3.2-2.1-.4-2.9 3-1.4 4.1 1.6 1 3.5 1 5.3 1.3 9.9 1.3 19.8 2.9 29.7 4.2.1 1.8.1 3.6.2 5.4-16.6-2.1-33.1-4.1-49.7-6.3-2.7-.1-4.8-2.4-4.8-5.1-.2-5.1-.4-10.3 0-15.4zm-134.2-1c.2-3.8-4.3-5.8-7.6-5.6-10.1.1-20.2.6-30.3 1.5-4 .6-8.9 3-9.3 7.5-.7 5.7-1.1 11.4-1.8 17.1 3.6.1 7.1.1 10.7.1V69c8-.5 16-.6 24-.7v7.4h14.4c-.1-6.4-.1-12.8-.1-19.1zm-14.7 6.7c-7.7.1-15.4.4-23.1.6.2-1.6.3-3.2.5-4.8 1.9-1.1 3.8-2.8 6.2-2.5 4.7 0 9.5-.4 14.2-.5 3.5.3 1.8 4.8 2.2 7.2zm17.6 20c23-.5 46-.8 69-1.3 14.4.5 28.9 1.1 43.3 1.7 13.3 1.2 26.6 2.2 39.9 3.5 17.2 2.4 34.5 4 51.4 8.1 2.8 18.2 3.2 37-.2 55.2-3.1 17.9-9.8 35-19.1 50.6-20.4 33.1-47.3 62.1-77.8 86.1-23.4 18.9-48.9 35.4-75.9 48.7-11.6-6.7-23.3-13.3-34.8-20-3.1-1.7-4.2-5.4-4.1-8.7.1-6.5 1.1-13 2.7-19.3 3.9-18.5 9.4-37 19.9-52.9 7.6-11.5 18.7-21.4 32.4-24.6 27.3-6.7 55.4-9.1 83.4-11.7 2.1-.2 4.2-.6 6.2-1.1-10.8-.1-21.5-2.1-32.2-3.1-9.4-1.2-18.9-1-28.3-2.2-1.1-1.7 1.7-2.5 2.7-3.3 10.5-6.3 22-10.3 33.3-14.8 11.6-4 23.3-7.7 35.5-9.3 5.8-.8 12.6.7 16 5.9 3.9 5.8 3 13.1 2.6 19.8 4.8-3.6 7.3-9.1 9.8-14.4 4-9.4 7.4-19.3 8.5-29.5.8-8.1-3.3-17.4-11.4-20.1-10.3-3-21-3.8-31.6-5.2-11.5-1.1-23-2-34.5-2.3-9.2-.8-16.6-7-24.9-10.4-13.8-3.2-28.1-1.9-42.1-1.9-15.6.4-31.1.7-46.7 1.1-26.6.1-53.1 2.6-79.7 3.9-14.1 1.3-28.2 3-42.3 4.5-4.1.2-8.5 1.3-12.5-.2-2.3-3.8-.5-8.4-.6-12.5.4-3 0-7.6 3.7-8.7 5.7-1.8 11.8-2.1 17.8-3.1 26.7-4 53.7-5.3 80.7-7.2 13.3-1.3 26.6-.7 39.9-1.3z"/>
    <path class="st0" d="M58 128.6c42.8-5.7 85.8-9.4 128.9-10.1 7.7.5 15.9-.8 23.2 2.7 6.6 3.4 12.7 7.6 19.1 11.3 4.1 2.4 9.5 2.4 13.5-.2 4.5-2.7 6.9-7.7 8.2-12.6 5.2 4.1 11.2 7.6 18 8 18 1.5 36.1 2.4 54.1 4.3 6.2.7 12.6 1 18.5 3.2 4.1 1.6 4.7 6.6 4.7 10.4-.3 9.3-3 18.4-7.3 26.6-1.4-3.8-3.2-7.9-6.8-10.1-6.9-4.5-15.6-4.2-23.3-2.4-18 3.9-35.5 9.7-52.8 16.1-24.7 9.1-49.3 20.8-68 39.8-6.5 6.5-12 13.8-17.4 21.2-12.4 19.8-19.2 42.4-26.2 64.5-4.4-1-8.8-3.1-11.3-7-2.6-3.9-2.6-9-1.4-13.4 2.3-8.9 5.5-17.5 7.1-26.5-4.2 7.2-7.2 15-11.7 22-2 3.1-5.9 6.1-9.7 4.1-2.8-1.5-6.9-2.5-7.6-6.1-.1-3.6 1.2-7.1 2.5-10.4 3.2-8 6.8-15.7 10.1-23.7-6.1 6.9-10.7 14.9-16.3 22.2-3 4.1-9.1 3-12.4-.1-3.7-2.9-5.1-8.5-2.7-12.7 5.5-9.6 13.1-17.8 18.8-27.3-8.8 6.5-16.5 14.4-25.2 21.1-2.1 1.7-5.2 2-7.4.2-4.1-3.3-8.8-8.9-5.5-14.3 7-9.7 17-16.5 25.3-24.9-9.1 4.6-17.2 10.8-25.8 16.3-3.2 2-8.1 3.2-11.1.2-3.1-3.1-6.4-6.5-7.5-10.9-.7-4.1 3-6.9 5.8-9.1 8.9-6.5 18.6-11.8 27.8-17.7-10.8 3-21.2 7.4-31.5 11.9-3.6 1.8-8.2 1.9-11.3-.9-4.1-3.9-6.9-9.8-5.9-15.6.4-2.6 3.1-3.9 5.2-5.1 12.2-6.2 25.4-10.2 38-15.6-13.1 1.2-26.1 3.6-39 6.5-3.8 1.1-8.5.1-10.7-3.4-3.2-5.3-3.3-11.6-4.2-17.6-.6-3.7.7-8 4.3-9.6 8.4-4.1 17.9-4 26.9-5.3z"/>
</svg>
