<svg xmlns="http://www.w3.org/2000/svg" viewBox="0 0 2500 2500" width="20" height="20">
    <path d="M1154.3 99.6l-1.9-20.4-29.1-35.3-8.9-2.6-6.2 8.9 1 10.6-9.8 8.9-1 12.3 11.5 6.2 16.1 11.5h28.3v-.1zm224.1 1883.3l-12-22.8-16.1-33.1-12.8-34.6-9.4-38.9-4.1-33.4v-32.4l3.4-38.2 4.3-19.2-5.1-16.3-10.5-8.4-21.1-15.6-14.9-10.6-2.8-20.4-7-21.8-13.2-21.4-14.2-18.2-17.8-17-22.6-17.1-25.4-19-13.5-6.5-13.4-4.1-11.3 1.9-9.8 6.5-4.3 10.6 2.9 19.2 9.8 43 17 56.7 14.2 33.9 19 43.2 13.5 25.4 20.6 37.5 24.7 41.8 19.5 26.9 16.3 21.8.7 12-2.2 9.8-9.1 3.6-27.4 1.4-48-2.9-39.6-5.1-34.8-6.2-42.3-12-21.4-9.4-14.2-6.2-16.1-2.9-18.5.7-9.8 4.3h-13.5l-31.9-5-18.2-6.2-19.9-1.4-31.7-.7-24-2.2h-22.1l-21.8 1.4-14.9 6.2-10.6 2.9-3.6 5 .7 9.9 10.1 16.3 19 26.2 11.3 4.8 17.8 12.7 20.4 11.3 22.1 7.2 31.7.7 28.3-2.9 24-5.5 20.4-6.5 8.6 4.3 4.1 8.4 7.2 2.2 17.5-.7 22.1 1.5 11.3 3.6 13.4-3.6 43.7 5.5 29.8 4.3 48.7 10.6 35.5 10.5 35.1 12 30.9 14.2 12 8.6 31.9 1.4 17-4.3 9.1-18.5 9.8-22.6-2.5-18.1zm-499.2-72.5l-2.2 5-3.8 4.6-3.1 1-6.5.2-5.8-1.7-2.6-2.2-3.8-4.8.2-4.3 2.2-3.1 7.4-2.4 8.6-1.7 6.5-.2 3.1 1.9.7 3.6-.9 4.1zm344 43.9l-2.6 3.4-8.2.5-14.2-2.4-12.5-2.2-13-.7-12.5-1-28.6-7.2-22.6-7-16.1-5.3-2.4-4.6.7-5 3.1-1.2 21.1 6.7 9.4 3.8 9.8 2.2 12 1.7 19.9 2.2 17.3 2.6 16.3 1.2 13.2 2.9 7.4 1.9 2.2 2.9v4.6zm98-14.1l-2.6 4.8-4.8 3.8-7 1.7-3.8-1.7-1.2-4.1 1.2-4.6 6.5-4.8 4.8-1.2h5.3l1.7 2.2v3.9z"/>
    <path d="M2097.2 977.4l-9.8-4.6v15.1l-7.9 8.9-14.2 21.1-7.9 5.3-22.1 26.7-8.9 14.2-10.6 23.8-11.5 1.9-10.6-6.2-6.3-28.3 1.7-32.6 7.2-30.3 17.5-28.3 35.5-53.1 21.2-43.2 2.6-30.3-3.4-9.6-6.2 6.2-10.6 26.4-16.1 26.7-23.8 19.5-27.4 26.4-40.8 47.8-7.9-.7-2.6-8.2-1-19.5 2.6-36.3 12.5-40.6 22.1-45.1 29.3-36.3 36.3-31 3.4-7.2-4.3-3.4-18.5 9.6-15.1 9.8-25.7 22.1-31.9 28.3-22.8 31L1899 894l-12.2 32.9-3.6 32.7-1.7 44.2 10.6 46.1 10.6 39.9 20.4 62.7 13.2 75.2 7.9 57.4v31l-3.4 32.6-5.3 26.7-9.9 30-37.2 46.8-38 34.6-48.7 27.4-46.8 2.6-6.2-22.8-16.8-32.9-23-31.7-15.1-18.7-20.2-27.4-43.5-41.5-44.2-36.3-19.4-15.1-61-41.3-87.6-73.5-47.8-59.3-52.3-85.7-14.2-51.4 3.6-31.9 7.2-6.2 18.5 12.5 29.3 14.2 23.8-1 27.3 12.5 29.3 17.8 15.1 12.2 19.5 13.5 20.2 2.6 4.6-8.9-5.3-1-6.2 2.6-9.8-6.2-8.7-13.2-12.5-20.4-24-22.1-23.8-8.9-13.2-2.6 2.7-7h18.5l21.4 7 31 20.4 14.2 6.2 5.3-7.2-8.9-12.2-24-21.4-37.2-19.4-44.9-17.5-8.9-7.2 8.9-6.2 20.2 9.8 37.2 6.2 39.8 15.9 21.1 10.6 37.2 5.3 26.7-3.6 14.9-7 20.4-12.5 8.9-8.6 1-6.2-8.3.7-7.9 8.2-26.4 8.7-23 3.6-19.5-2.6-18.7-14.9-16.8-19.7-20.2-14.9-30.2-6.2-29.1-9.8-12.5-7.9 1-7 11.5 1.7h25.7l25.7-1.7h26.4l14.2-2.6 11.5 9.6 18.5 4.6h15.1l7-5.3-12.2-3.6-15.1-9.8-15.9-14.9-25.7-13.5-21.1-2.6-19.4-2.6-7.2-4.3 14.2-7.9h23l17.8 5.3 17.5 8.9 28.3 12.2 28.3 1 15.1-7.2 4.3-9.6-11.5-5.3-23.8-1-20.4-7-17.7-15.1-19.5-9.8-25.7-4.3-22.1-7.9-9.6-12.5 1.7-6.2 14.2 2.9 17.8 5.3 10.6 7.9 15.1 1.7 1.7-7.9-15.8-12.5-4.6-11.3 21.3 3.4 20.2 10.6 25.7 2.9 9.9 18.5 26.4 15.9 1.4-.2 5.8-2.4 7-4.3-3.4-5.3-9.9.7-8.9-12.2-17.8-27.4-31-27.6-31.7-14.2-8.9-10.6-19.5-23-17.8-9.6-2.6-8.9 7.9-5.3 18.7 4.3 37 10.6 17.8 6.2 11.5 16.1 18.5 9.6h14.2l18.7 5.3 20.4-3.6 7.9-7-11.5-9.8-16.8-4.3-19.5-2.6-11.5-9.8-15.1-22.1-3.6-14.2-19.5-17.5-21.1-13.5-24-14.9-26.4-24.7-1.7-7.2h6l34.6 27.4 35.3 20.4 18.7 14.2 23.8 22.1 21.3 11.5 12.3 3.6 6.2-9.8-8.9-3.4-18.5-16.8-5.3-18.7-19.4-21.1-16.1-13.5-7.9-20.2-27.4-40.8-37.2-32.7-1.7-10.6 13.2 1.7 18.7 9.6 30 12.5 31 1.7 23 10.8 24.7 4.3 21.1-6.2-1.7-8.9-24-5.3-21.1-9.6-42.5-20.4-23-12.5-12.3-14.9 4.3-5.3 6.2 4.3 9.6 3.6 12.5 1h20.4l17.5-1.9 26.7-1.7 20.4 7.9 21.1 15.1 8.9 2.6 1-7.9-7.2-7.2-21.1-19.5-32.9-16.8-23.8-2.6-45.1-2.6-10.5-12.5-23-23-25.7-17.5-9.6-8.9 7.9-6.2 12.2 5.3 22.1 11.5 25 8.9 33.6 7.9h29.1l24 26.7 19.5 11.5 7-7.2-26.4-38.9-41.5-30-34.6-8.2-29.3-30.7-25.7-15.1-35.3-8.9 19.5-16.8 34.6-11.5 25.7-7.9 6-7.9-3.4-6.2-14.2-3.6-13.4-2.6-99.9 1.9-17.8-19.7-20.2-13.2-25.7-11.5-33.6-5.3h-29.1l-7.9-10.6-27.4-29.3-32.9-30-20.2 33.6-1 10.6 9.6 12.5 1 10.6-7 6.2-22.3 1.7-40.6-11.5-39.9-8.6-18.5.7-30.2 6.2 3.6 10.6 16.8-.7 7 1.2-.2 9.4-9.8 2.2-12.7-1.7-19.2 4.1-14.4 4.6-11.5.7-3.6 5 4.1 7 8.7 1.9 8.2-2.4 9.4-4.1 9.6-.5 20.4 1 15.6 4.8 18.5 4.6 27.1 12.2 2.4 5.8-2.9 4.6-12.7 4.6-7.7 3.6-13.7 9.1-20.9 11.1-25.4 18-29.5 11.8-23 15.1-20.9 9.1-19.7 4.8-17.3.5-23.8.5-9.1 2.4-5.3 11.1-4.1 12-4.6 8.2-11.5 17.3-11.1 19.2-7.4 9.4-.7 10.8.7 15.1v16.1l9.8 8.9 8.7 4.6 10.3-.7 16.8-4.6 19-5.8 25.7-10.3 10.3.5 2.4 6.5-2.4 6.2-8.7 4.6-26.2 9.8-19.7 5.8-3.8 6.5-.7 7 6.5 5.8 13.7 1.7H902l13.9-.5 15.1-3.6 21.9-11.5 14.4-2.9 12.2-2.4 9.4 3.1 13.7-.7 13.5 1.7 11.1 6.5 17.3 1.7 22.6 7 12.2 1.7 19-3.4 24.3 1.7 10.6 4.1 5.8 9.8-1.2 12.7-2.9 15.6-5.8 18-8.2 22.6-8.2 24.7-8.7 22.6-5.8 15.6-19.7 30.7-23.8 30-21.4 29.5-27.1 27.1-25 21.1-15.9 16.8-8.4 27.6-11.6 13.7-14.9 10.6-18 14.9-27.6 16.8-23.3 11.7-14.9 17-10.6 13.8-10.6 6.5-14.9 7.4-9.6-2.2-19-8.7-21.1-13.7-31-13.7-34.8-18.2-18-13.7-22.3-18-24.5-20.2-26.4-9.6-23.3-4.1-29.8 6.2-21.1 11.8-18.2 12.7-9.4 23.3-6.5 18-7.4 27.6-8.4 16.8-8.4 25.7-1.2 30.7-7.4 18-8.4 28.6-7.4 28.6-13.7 26.7-7.4 26.4-4.3 32.9-11.8 27.6-7.4 15.8-1 15.9-1 26.7v46.6l-5.3 19.2 3.1 16.8-1.2 27.6 9.6 22.1 7.4 5.3 13.7-4.3 12.7-11.5 18.2-22.1 15.9-25.4 6.2-21.1-4.1-17-5.3-21.1-6.5-25.4-6.2-26.6-3.4-20.2v-19l4.3-21.4 10.6-32.7 10.6-17 9.6-8.6 7.4-11.5 13.7-1.2 6.5-4.1 9.6-8.7 10.6-9.4 9.6-12.7 4.1-14.9 3.4-12.7 1-17 3.1-14.9 7.4-9.4 7.4-2.2 9.6 3.1 13.7 7.4 14.9 17 15.9 23.3 18 21.1 19.2 17 17 13.7 16.8 7.4 5.3 10.6-5.3 5.3-18-4.1-25.4-2.2-32.9-6.5-31.7-6.2-38.2-1.2-22.3 1.2-17 10.6-18 15.8-14.9 25.4-11.5 28.8-1.2 21.1 6.5 38.2 14.9 48.7 7.4 38.2 9.4 37.2 6.5 26.2 3.1 24.5 8.4 27.6 6.5 42.3 6.2 14.9 16.1 12.7 14.9 14.9 16.8 25.5 11.8 29.8 18 26.4 26.4 25.4L660 1543l12.7 1 10.6-3.1 6.5-14.9 7.2-12.7 4.3-18V1454l-5.3-11.8c-1 0-1-7.4-1-8.4l-2.2-7.4-8.7-12.7-15.9-15.9-29.5-12.7-10.8-3.4-1.9-18 1-11.5-20.2-23.3-12.7-29.8-10.6-42.3-8.6-39.1-14.6-30.7-5.3-37.2 8.4-22.3 14.9-8.4h11.5l17 14.9 24.5 14.9 25.4 9.4 61.5 29.8 29.8 17v15.8l27.4 15.8 35.1 11.8h73.2l-5.3 13.7-3.1 7.4 9.4 17.8 18 26.7 28.8 28.6 34.8 38.2 29.8 26.4 55.7 42.7 45.1 24.2 33.9 18 43.5 29.5 40.1 28.6 34.6 29.3 36 48.7 1.7 20.4 8.2 21.1 22.1 15.9 20.2 7.9 12.5-1.7 9.9-9.6 14.2-15.1 3.4-20.4 16.8-29.1 3.6-22.3 2.7-24.7 1.7-19.5 5.5-12.2 11.3-5.5h10.8l.7 8.2-7.9 8.6-7 18.7-5.3 11.5v14.2l-1.9 30-4.3 15.1-13.2 22.8-17.8 29.3-17.7 31.9-10.5 41.5-5.3 43.5 5.3 48.5 7 28.3 16.8 37.2 21.4 44.2 16.8 34.6 23 36.3 27.4 33.6 5.3 11.5v7.9l-3.6 9.8-9.6 15.9-15.1 21.1-31 39.9-31 33.6-28.3 31-12.2 7.2-25 9.6-14.9 14.2-7.9 16.1-17.8 22.1-20.1 22.1-24.7 25.7-15.1 26.4-8.9 26.7-5.3 22.1 1 17.8 10.6 11.3h38.9l16.8-1.7 17.6-10.5 23-10.6 3.6-8.9h7.9l12.2-5.3 11.5-10.8 6.3-42.3-3.6-8.9-1.7-8.9 6.3 1.7 6.9 1.9 7.2-5.3 11.5-7.2 12.2-15.9 15.1-21.4 7.9-19.4 1.7-15.9 9.9-7.2 14.2-7.9 11.5-7 9.6-19.4 20.4-21.3 38.1-35.3 29-19.4 29.3-16.1 6.9-7 2.7-7.2 6.2-7.9-4.3-10.5-.9-19.5-3.9-18.2-4.6-10.6-10.1-17.3-16.1-20.2-7.9-15.1-1.7-15.9v-21.3l3.6-12.2 9.6-32.9 9.8-15.9 10.6-6.2 19.4-12.2 23-19.7 31-26.4 21.1-22.1 21.3-24.7 22.1-25 15.9-28.1 13.2-24 12.5-27.4 8.9-30.3 2.7-28.1 1.7-21.4 7.2-7 7.9-1.9 7 4.6 6.2 14.9 1.7 20.4 2.9 19.4-1.9 13.2-1.7 20.4v43.5l5.3 34.3 6.2 8.9 5.3-.7 2.6-6.2-3.6-14.2v-24l7.2-20.2 3.4-29.3 3.6-20.4 4.6-9.6h5.3l4.3 4.3 4.3 16.8 3.6 16.1-1.7 25.4-5.3 34.6-16.1 33.6-14.9 31.9-8.9 27.4-1.7 16.8 1.7 19.4 6.2 18.7h11.5l6-8.2-3.4-8.9-2.6-15.9 10.5-14.2 12.3-16.8 8.2-15.8 19.4-31 15.9-28.3 7-31 6.2-40.8V1653l-7.9-28.3-15.9-22.1-1.9-10.5 7.2-3.6 8.9 4.3 11.5 14.2 14.2 25.7 6 30 3.6 39.9 8.9 27.6 1 .7 12.2 27.4 7.9 2.9 3.6-7.2-.9-4.3-6-20.4-.9-20.4.9-30 5.3-33.6v-16.8l-1.9-14.2-14.2-28.4-12.2-20.4 4.3-7.9 16.8-3.6 23-10.5 24.7-13.2 22.1-19.4 28.3-38.2 16.1-31.7 13.2-30.2 4.3-48.5 1-43.5-7-53.8-8.2-38.9-7-39.9-4.3-41.5 3.4-26.4 7.2-32.9 14.9-32.7 21.3-33.6 7.9-21.4 1.7-10.6-7.1-9.7zM894.1 337l-7 7-9.8 5.5-13.2 2.9-4.6-2.9-1.7-9.4 3.9-13.2 9.4-13 7.7-3.8 7 .7 8.4 7 3.8 6.2-3.9 13zm34.5-8.6l-2.4 1.2-4.8.2-3.8-1.9-3.1-3.6.5-4.3 3.6-5.8 2.9-1.9h3.8l3.4.7 1.2 3.6.5 6.3-1.8 5.5zm42.8 39.4l-3.6 1.7h-4.6l-2.6-1.4-1.4-3.9.5-4.8 2.6-2.9 3.4-.2 3.6 1 1.7 2.6 1.2 4.3-.8 3.6zm81.8-123.9l-5.5 1.5-6.7 1.7-7.4 6.2-16.6 10.1-22.8 6.2-14.2 3.6-13.7 1-7-.7 11.1-9.4 20.4-9.8 20.4-9.1 19.4-9.1 8.9-4.3 6.7-1 5.5 1.2 4.3 7-2.8 4.9zM435 1239.1l-7.2-1.7-3.6-7 7.2-3.6 6.3.7 1.7 6.2-4.4 5.4zm92.9-371.2l-5 18.7-6.5 21.1-11.5 17.8-6.2 1.7-2.2-4.8V913l1.2-12.7 4.6-24 10.1-17.5 5.3-6.2 7.7-2.2 2.9 4.3-.4 13.2zm51.2-70.4l-11.5 4.3-11 1.2-6.7-2.6-1.7-4.8 1.9-6.5 5.8-4.1 12-1.4 6.2-.5 4.3 1.2 3.8 3.6.2 4.1-3.3 5.5zm93.8 126.6l-2.4.2-5.8-3.6-8.1-4.6-7-5.8-6.5-6.5-2.9-3.6-.7-5.3 1.4-2.6 2.4.2 4.1.7 4.6 4.1 5.3 4.8 8.4 5 5 6 3.1 4.6.2 4.1-1.1 2.3zm-157.7 126l-4.3 6-4.3 1.7-2.9-2.4.2-8.6 7.2-12.5 2.2-3.6 3.6-1.7 3.4 2.2v7.2l-2.2 5-2.9 6.7zm30 223.1l-1.4 2.2h-1.7l-3.1-2.6-2.4-4.6-3.8-8.4-5.5-11-5.5-17.3-2.9-16.3-.5-19 2.6-18.7 1.4-2.2h2.6l2.6 2.4 2.6 11.3.2 11.5 4.6 14.6 5.5 15.6 2.4 13.7 3.4 22.3-1.1 6.5zm107.1 204.3l2.9-.7 7 1.5 3.1 3.4.7 4.1-.7 4.8-4.1 3.1-5-.9-3.6-3.4-1.5-7.4 1.2-4.5zm69.4-323.4l-7.2.5-9.4-1.4-6.5-2.9-15.1-9.4-14.9-11.1-16.8-10.1-5.8-4.3 7.7-.2 8.4 3.1 14.4 3.6 13.2 6.5 15.4 6.7 11 5 5.8 5.3 1 4.8-1.2 3.9zm79.9-207l-10.1 28.3-8.9 27.1-15.6 19.4-7.9 6-8.4 3.1-4.8-3.4-.5-6.2 6.7-7.2 7-11.5 8.9-19.4 5.3-18.5 4.8-18.2 9.4-17.5 6.3-8.9 5.3-1.5 4.8 1.9 1.5 5.8-3.8 20.7zm385.1-561.6l7.9-10.1 9.1-8.6 8.2-5.5 6-.5 4.1 2.6v7.4l-2.2 8.2-9.1 8.7-10.8 6.7-11 2.9-5.3-1.7-.7-4.3 3.8-5.8zm-32.1-186.3l7.7-2.6 5.3-2.4 6.7 2.4 2.2 4.8-5 5.8-7 2.6-8.4.5-3.1-5.8 1.6-5.3zm-66.8 62.2l-3.1-8.4 4.6-9.4 10.1-8.4 16.1-.7 11.8 2.2 9.1 6.3 4.6 10.8 3.8 11.5-.7 10.1-10.1 3.8h-10.8l-13-5.3-11.5-6.2-10.9-6.3zm39.4 123.2l-13.7 3.1h-12.3l-2.2-4.1 3.1-4.3 3.6-2.2 24-17 14.6-9.1 8.9-5.5h3.1l.5 6.5-6 4.8-2.9 9.9-7.4 11.5-13.3 6.4zM967.3 823.5l-1.7-2.6.5-6.5 4.3-4.8 15.1-6.2 31.5-9.8 31.5-3.9h19.2l15.8 3.4 14.9 7.4 11.8 11.5.7 6.5-1.4 4.6-5 1-7.7-1-11.8-3.4-11.1-3.3-13.7-1.5h-17l-14.4-.2-12.7 1.2-14.2 2.4-11.3 3.1-11 2.4-7.2.5-5.1-.8zm199.3 651.6l-16.1-10.1-27.1-18-42-28.3-17-11.5-18-14.1-19.7-18-14.4-11.3L995 1347l-11.3-11.8-7-10.8-2.6-13 .5-12 4.6-4.6 7.9.5 12.5 7.5 13.4 13 9.9 12 10.6 10.6 10.3 12.7 13 14.2 12.3 13.7 40.3 35 22.3 19.9 19.9 18 16.1 15.1 3.1 5 2.2 3.6-6.4-.5zm10.8-548.9l-5 2.9-12.2.2-8.2-1.9-4.6-6-3.8-4.8v-7.7l6-7.7 9.1-7.2 8.6-1.2 7.9 2.2 2.4 4.3 1 9.6 1.2 10.1-2.4 7.2zm24.2-395.7l-5 18.5-11.3 29.5-15.1 25-16.8 31.2-26.9 37.7-20.4 21.4-14.2 5.5-4.6-.2-.7-3.6 4.3-10.1 17.3-26.7 14.2-29.3 12.7-25.2 22.6-43.7 21.4-34.1 11-10.6 8.4-1.4 3.6 5.8-.5 10.3zm49.3-128.2l-2.6 6.5-9.4 11-13 6.2-13 5.3-13.5.2h-8.4l-2.9-3.9 3.1-5.5 7.4-3.4 13-6.3 14.9-9.1 7-5 10.6-5.1 6.7 1.7v7.4zm70.3 405.1l-4.8 1.4-6.2-.5-4.1-4.1 1-3.6 4.1-2.9 6.2-.5 5.3 4.3.2 3.6-1.7 2.3zm7.2-23.5h-7.2l-3.9-2.2v-5.3l1.7-3.6 3.8-1.2h5.1l4.8 3.1.5 3.8-4.8 5.4zm13.2-36.3l-4.9 2.4-5 .7-5.3-1.2-1.7-3.6v-4.3l4.3-3.1 5.3-1h5.1l3.1 2.6.7 4.1-1.6 3.4zm6.7-30.5l-6.5 1.9-7.2-.2-3.8-2.6-.2-2.9 1.2-4.3 5.7-2.6 6.3-.9 5.3 2.6 1.9 5-2.7 4zm15.6-42.7l-3.6 4.8-3.4 4.3-6.7 1.4h-6.7l-5.8-2.9-.5-4.6 4.1-4.3 3.1-3.6 4.6-1.7 7.4-2.2h5.8l2.6 3.1-.9 5.7zm9.6-35.8l-3.1 5-5.5 1-5.8 1.5-7.2-.2-3.1-3.6.5-5.3 2.4-3.6 4.8-3.4 7.4-1 6.7 1.4 2.9 4.1v4.1zm10.1-26.4l-7.4 3.1-5.8 1.9h-7.2l-2.9-.5-3.6-1.2-1.9-3.6.9-4.6 4.8-4.3 4.1-2.2 4.6-1.9 6.5-.2 6.3 2.2 2.6 5-1 6.3zm1-41.1l-2.6 4.3-4.6 3.8-6.7 2.4-7.9.7-6.5-.9-1.7-3.9 1-3.1 2.6-1.9 11.5-6 5.5-1.2 6.8.7 2.6 2.4v2.7zm-22.4-97.2h4.1l2.2-1.4.9-4.3.9-3.3 2-2.4 3.6-.2 4.3 1.2 3.9 2.2.5 4.6-.5 7.4-5.7 5-7.5 3.6-3.1-.5-3.1-1.2-3.1-3.9-.5-4.3 1.1-2.5zm0-30.7v-3.6l3.2-3.1 5-1.9 6-.2 3.6 1.2 1 3.1-2 3.1-3.1 3.4-5.1 1.2h-5.3l-3.3-3.2zm.3 97.2l4.3-2.6 5.1-1.2 5-.5 3.6.2 1.4 2.2v3.6l-1.7 3.8-3.4 3.8-8.4 3.6-4.1-.5-3.8-1.2-1-4.1.8-4.6 2.2-2.5zm21.6-29.5l-1.2 3.1-5.3 3.6-7.2 2.6-4-1-3.9-2.2-.7-3.9.5-4.8 2.9-2.9 4.1-2.9 6-1.2 5.1-.2 3.4 1 1.2 3.4-.9 5.4zm1.9-101.6l-.7 4.1-2.6 3.6-4.3 1.7-4.1 1-3.6.5-4.8-.5-1.2-2.9 1.2-3.8 2.9-2.6 3.2-1.7 5.3-3.6 5.5.2 3.2 4zm-7.4-35.3l2.9 1.7.5 4.1-.3 3.9-4.5 4.1-4.3 1.7-2.9-.5-2.2-1.2v-3.9l.2-4.1 3.1-3.3 2.9-1.7 4.6-.8zm-5.6-19.9l-1.2 4.3-3.2 2.4-2.9 1.7-3.9.5-3.1-1.9-.7-3.4 1.4-2.9 2.9-3.9 2.9-1.4 3.8-.2 3.2 1.9.8 2.9zm-39.3-77.6l7-.5 9.8-3.8 8.9-1.9 7.4-.5 3.8 3.6-5.3 7.9-5.3 1.4-8.8 3.1-11.5 6.5-11 5.8-12.7 5.3-4.3.5-3.6-1.2.5-5.3-1.9-5v-9.1l4.1-10.3 5.7-6.2 3.7-4.8 3.8-4.8h5.8l4 4.1-.9 10.1.8 5.1zm-4.1-95.5l2.6 1.7-.9 2.6-3.9 4.6-5.3.5-6.3-.9-3.6-1.7-2.6-3.1 3.1-2.6 4.5-1.9 7-.2 5.4 1zm-33.1-37.2l12-1.2 6.5 2.2 5.1 2.6.2 4.3-4.3 1.9-6.7.5-6.5-.5-5.1-1-4.3-3.1 3.1-5.7zm92.9 1246.8l-5.8 5.3-5.3 6-5.3 11.1-1.7 7.7-3.6 2.9-7-.9-3.4-4.1 1.2-14.6 3.8-18.3 1.9-10.1 4.6-12.7 3.4-3.8 5-1h6.7l2.9 2.7 5 7.4 1 14.2-3.4 8.2zm11.5-173.6l-30.3-15.9-15.8-15.1-26.4-26.4-24-30.3-21.1-34.3-16.8-42.5-7-29.3 3.3-16.8 9.6-2.6 9.8 4.6 6.3 17.5 5.3 25.7 9.6 26.7 25 38.9 33.6 49.5 38.9 50.3zm2.2 516.4l-6.8 18.7-3.3 9.1-6.3 14.2-4.8 16.6-1.4 4.8-1.7 3.1h-4.6l-3.6-10.8-.2-12.3 2.6-16.8 6-23 9.9-14.2 8.9-11 7.9-1 2.2 7.2-4.8 15.4zm35 251.2l-1.7.2-3.1-1.4-5.8-8.4-8.6-14.2-4.1-9.4-2.4-13v-12l.5-7.2 1.7-2.2h3.8l4.1 1.7 5.3 6.2 3.9 10.8 2.6 14.4.2 11.5.2 4.1 2.2 5.5 2.2 11.1-1 2.3zm-177.4 415.1l-3.6 7-4.3 6.5-7 4.6-6.7 1.4h-2.9l-3.1-2.4-1-5 1.2-6.3 3.6-7.2 9.8-9.8 7.4-4.6 5.3-.2 2.7 2.2.7 5-2.1 8.8zm65.8-106.1l-3.7 5-4.5 2.6-5.5 1.9-4.1-1.2-2.4-4.3.5-4.3 4.1-5.1 8.2-5 6-1 2.9 1.7.8 4.3-2.3 5.4zm146.9-146.5l-10.6 15.6-14.2 16.6-16.1 15.6-17 17.8-15.9 14.4-12.5 11.3-7 4.6-4.6-.2-2.2-3.6 1-6 19.5-21.6 27.3-29.5 33.2-33.4 6.2-6.7 9.4-6 3.4.7 2.8 3.6-2.7 6.8zm61.2-47.3l4.1-1.5 5.3.2 2.4 1.2.2 2.6-2.1 3.4-4.8 4.3-4.3 4.8h-2.9l-3.3-1.9-.8-4.1 1.4-4.1 4.8-4.9zm177.2-483.3l-1 7.9-2.4 7.4-1.5 6.7-5 2.9-4.6-1.2-2.3-4.3-1.5-15.1-10.1-13.9-.9-11.5 5.7-7.2 6-1.9 5.8.5 4.8 4.3 5.5 7 1.5 7.9v10.5zm299-274.4l-.5 11.3-4.5 24.7-6.3 21.1-7.2 18.5-10.8 20.1-12.3 17.3-18.5 21.6-21.1 20.2-10.8 2.6-5.8-2.6-.9-7.7 4.6-10.3 6.2-11.3 11.3-14.9 12.2-16.6 11.5-18 11.3-18.5 8.6-18 5.1-18.5 4.3-21.1 1-23.5.9-21.1-1.4-18.5-2.2-21.4-1.9-20.2-1.2-11.3 6.2-6.2 4.1 2.2 3.1 9.8 6.2 19.4 5.1 23.3 3.6 22.3v45.3z"/>
</svg>
