<svg xmlns="http://www.w3.org/2000/svg" viewBox="0 0 520 520.1" width="20" height="20">
    <path d="M3 271.7v-22.4c.2-1.5.5-2.9.7-4.4 1.7-12.5 2.4-25.3 5.1-37.6C33.5 92.9 131.9 9.4 248.6 3.9c63.6-3 121.2 14.5 171.6 53.6 52.9 41 85.2 94.7 96.7 160.8 1.5 8.5 2.4 17.1 3.5 25.7v33.2c-.3 1.3-.6 2.6-.8 3.9-2.9 16.3-4.5 33-8.9 48.7C476.4 450.8 361 528.6 235 515.7c-60.4-6.1-112.5-30.9-155.6-73.5-41.3-40.8-65.9-90.3-73.8-147.9-1-7.5-1.8-15.1-2.6-22.6zM257.8 33.1c-6.8 0-13.8-.1-20.6 0-2.5 0-5.1.4-7.6.6-50.3 4-95.6 21.2-136.3 50.8-18.9 13.7-34.7 30.2-42.2 52.7-4.6 13.9-7.4 28.6-9.3 43.2-6.7 51-2.4 101.3 11.7 150.7 9.8 34.8 25.2 67 46.4 96.3 17 23.3 40.4 37.4 67 46.7 59.1 20.5 119 21.6 178.8 4.4 40.4-11.6 73.5-32.6 93.5-72.5 27.1-54 43-110.1 43.5-170.7.2-23.9-1.8-47.8-5.6-71.4-5.8-35.6-22.8-64.2-53.6-83.7-50.4-32-105.8-47.4-165.7-47.1z"/>
    <path d="M81.2 189.2c.8-18.5.7-35.8 2.7-52.8 2.3-20 13.6-34.3 32.6-42.1 25.1-10.3 51.5-16 78.3-19.7 29.2-4.1 58.6-5.6 88.1-4.6 35.7 1.2 70.9 5.4 104.6 17.9 7.3 2.7 14.3 5.9 21.3 9.4 18.4 9.2 26.9 25.4 29.9 44.8 1.7 10.6 1.8 21.4 2.1 32.1 1.8 71.4-8.6 141.1-30.6 209.1-4.4 13.4-9.2 26.4-14.1 39.6-.7 1.9-2 3.6-3.5 5-14.2 12.9-31.5 19.7-49.7 24.7-33.1 9-66.9 10.6-100.9 8.5-25.4-1.5-50.5-5.3-74.5-13.9-5.7-2.1-11.4-4.6-16.9-7.3-11.1-5.4-18.8-13.6-23.7-25.4-23.6-56.1-38.6-114.4-43.1-175.2-1.4-17-1.8-34.2-2.6-50.1zm188.7 180v-98.3h29.7v98.3h21.3c.1-1.5.2-2.7.2-4V206.1c0-2-.5-4.1-1.5-6-5.6-11.7-11.5-23.3-17.2-34.9-1.2-2.7-2.8-3.6-5.8-3.5-13.6.2-27.2.1-40.7.1-5.8 0-5.8 0-5.8 5.8v201.9c6.5-.3 12.6-.3 19.8-.3zm-76.7-206.6h-61.6v207.3h21.3v-99.3h31.8v-23.3h-31.6v-61.8h40.1v-22.9zm176.2 23.2H391v-23.2h-64.9v23.2h21.6v183.4h21.8c-.1-60.9-.1-121.9-.1-183.4zm-145 184.1V162h-20.9v207.9h20.9z"/>
    <path d="M299.4 242.5h-29v-57.7c5.5 0 10.9-.1 16.4.1.9 0 2.1 1.5 2.5 2.5 3.2 7.6 6.3 15.1 9.4 22.7.3.7.6 1.5.6 2.2.1 9.9.1 20 .1 30.2z"/>
</svg>
