<svg xmlns="http://www.w3.org/2000/svg" viewBox="0 0 289.5 289.5" width="20" height="20">
    <path d="M1 148.6c1.6-7.9 5.7-12.9 10.3-15.6 8-4.7 10.1-16.8 10.9-24.1l.1-.8c-.5 4.8-.8 9.6-.8 14.8 0 10.1.8 20.9 2.5 32.9 5 35.2 22.1 73 32.1 84.5l.6.6 2.3 2.5.1.1c24.5 20 47 27.1 86 27.1h.3c39 0 61.5-7.1 85.9-27.1l.1-.1 2.3-2.4.6-.7c10.1-11.6 27.1-49.3 32.1-84.5 1.7-12 2.5-22.8 2.5-32.9 0-5.5-.2-10.8-.8-15.9l.1.1c.7 7.2 4.6 26 12.1 31.4 3.8 2.7 6.5 5.9 8.1 9.6-1.8 77.9-65.4 140.4-143.7 140.4C66.6 288.5 3.1 226.2 1 148.6z"/>
    <path d="M144.7 289.5C64.9 289.5 0 224.5 0 144.7 0 64.9 64.9 0 144.7 0c79.8 0 144.7 64.9 144.7 144.7.1 79.8-64.9 144.8-144.7 144.8zm0-287.6C66 1.9 1.9 66 1.9 144.7c0 78.8 64.1 142.8 142.8 142.8 78.7 0 142.8-64.1 142.8-142.8 0-78.7-64-142.8-142.8-142.8z"/>
    <path d="M239.6 225.6c-5 5.9-9.9 7.4-11.5 6.5-1.4-.8-1.9-6-.9-13 7.6-23.1 13.2-48.4 16.6-72.2 4.7-32.4 4.5-61.5-2.4-79.2-.9-2.3-1.9-4.1-2.7-5.2-.8-1.1-1.3-1.6-1.3-1.6-14.4-14.4-53.2-21.6-92-21.6s-77.6 7.2-92 21.6c0 0-.5.6-1.3 1.6-.8 1.1-1.8 2.8-2.7 5.2-7 17.7-7.1 46.8-2.5 79.2 3.4 23.6 9 48.8 16.5 71.9 1.1 7.2.5 12.5-.9 13.3-1.6 1-7-.8-12.2-7.4-8.9-16.7-19-43.7-22.7-69.3-1.7-11.9-2.5-22.4-2.5-32.4 0-18.4 2.9-34.1 8.8-48 4.5-10.4 12-19.2 21.7-25.3 24.2-15.2 51.7-24.1 79.5-25.8 3.3-.2 6.6-.3 9.9-.3h.3c3.3 0 6.7.1 9.9.3 27.8 1.7 55.3 10.6 79.5 25.8 9.7 6.1 17.2 14.9 21.7 25.3 6 13.9 8.8 29.7 8.8 48 0 9.9-.8 20.5-2.5 32.4-3.7 26.1-14.1 53.5-23.1 70.2zm-41 33.3c4.4-2.6 9.2-6.8 8.8-8.3-.4-1.3-8.4.6-15.1 2.2-2.9.9-5.9 1.6-8.8 2.2-11.4 2.2-24.3 3.5-37.9 3.5h-.3c-13.6 0-26.5-1.2-37.9-3.5-2.6-.5-5.3-1.2-7.9-1.9-6.9-1.7-15.8-3.9-16.2-2.5-.4 1.6 4.5 5.9 9 8.5 14.6 5.6 31.1 7.8 52.9 7.8h.3c21.8 0 38.4-2.3 53.1-8z"/>
    <path d="M76.7 55.1c-.6.2-1.1.4-1.7.6.5-.2 1.1-.4 1.7-.6zm8.9-2.8c.1 0 .2-.1.4-.1-.2 0-.3.1-.4.1zm10.6-2.5s0 .1 0 0c.4-.1.9-.2 1.3-.2-.4.1-.9.2-1.3.2zm16.4 199.8c-.4-.1-.7-.1-1.1-.2.3.1.7.1 1.1.2zm17.1-203.7c-.5 0-1.1.1-1.6.1.6-.1 1.1-.1 1.6-.1zm-12.2.9c.4 0 .8-.1 1.3-.1-.5 0-.9 0-1.3.1zm-19.7 2.7c-.1 0-.2 0-.3.1.1 0 .2 0 .3-.1zm10.6-1.7c-.5.1-1.1.2-1.6.2.5 0 1.1-.1 1.6-.2zm11.7 202.9c.3 0 .6.1.9.1-.3 0-.6-.1-.9-.1zm21 1.5h-1.6 1.6zm9.1-206.7zm1.1 206.7h-1.6 1.6zm-20.1-.4c-.4 0-.9-.1-1.3-.1.4 0 .9.1 1.3.1zm29.7-.1c-.5 0-.9.1-1.4.1.5 0 1-.1 1.4-.1zm9.8-1c-.5.1-1.1.1-1.6.2.5-.1 1-.1 1.6-.2zm-48.9.2c-.2 0-.5-.1-.7-.1.2 0 .4.1.7.1zm114-179.7c.3.7.5 1.3.7 2-.2-.7-.4-1.4-.7-2zM169 250.9s.1 0 0 0c.1 0 0 0 0 0zM64.8 60.5c.4-.2.8-.5 1.3-.7-.5.2-.9.5-1.3.7zm159.9-.7c.3.2.7.4 1 .6-.3-.2-.6-.4-1-.6zm-72.9-14.3h-1.5 1.5zm62.3 9.6l1.5.6c-.5-.3-1-.4-1.5-.6zm12.5 50.9V88.5h-1.4c0-10.4-.2-20.1-.5-28.6-2.6-1.5-5.6-2.9-8.9-4.1.2 9.8.3 20.9.4 32.8h-1.7c0-12.1-.1-23.4-.4-33.4-2.8-1-5.7-1.9-8.9-2.8.2 10.9.3 23.2.2 36.2h-1.7c0-13.2-.1-25.7-.2-36.7-2.9-.7-5.8-1.4-8.9-2 .1 11.8.2 24.9.1 38.7H193c0-14 0-27.2-.1-39-2.9-.5-5.9-1-9-1.5.1 12.4.1 26.2.1 40.6h-1.6c0-14.5 0-28.3-.1-40.8-2.9-.4-5.9-.8-9-1.1v42.1l-.1-.2h-1.5v-42c-3-.3-6-.5-9-.7 0 13.3 0 27.7-.1 42.6H161c0-15 .1-29.4.1-42.7-3.1-.2-6.1-.3-9.3-.3l-.1 43.1h-1.6l.1-43.1c-1.6 0-3.2-.1-4.8-.1-5.3 0-10.5.2-15.6.4 0 13.3 0 27.7.1 42.6h-1.6c0-14.9-.1-29.2-.1-42.5-3.1.2-6.1.4-9.1.7v41.9h-1.6V46.9c-3.1.3-6.1.7-9 1-.1 12.5-.1 26.3 0 40.9h-1.6c0-14.4 0-28.2.1-40.6-3.1.4-6.1.9-9 1.5-.1 11.8-.2 25.1-.1 39.1h-1.7c0-13.9 0-27 .1-38.8-3.1.6-6.1 1.3-8.9 2-.2 11-.3 23.5-.3 36.7h-1.7c0-13.1.1-25.3.2-36.2-3.1.8-6.1 1.8-8.9 2.8-.2 10-.4 21.3-.4 33.4h-1.7c0-11.9.1-23 .4-32.8-3.3 1.3-6.3 2.6-8.9 4.1-1.3 43-.6 112.9 10.1 173.7-.9-1-1.7-2.2-2.3-3.6-10-59.5-10.7-126.9-9.5-169.1-2.4 1.5-4.4 3-6.1 4.7 0 0-.4.4-.9 1.2-.6.9-1.5 2.4-2.3 4.5.1-.3.2-.5.3-.8-1 29.5-.5 70.8 5.1 116.1-1.3-5.3-2.5-10.7-3.5-16-3.6-36.3-4.1-69.3-3.5-94.6.5-1.6 1-3.2 1.5-4.6-6.5 16.5-6.7 44.1-2.2 75.4 3.9 27.1 10.7 56.2 20.2 81.4 1.6 4.2 3 5.8 6.4 8.5 9.6 6.8 19.5 10.5 29.6 12.5.6.1 1.2.2 1.9.3-2.7-35.1-3.8-91.6-4.1-143h1.6c.3 51.6 1.4 108.2 4.1 143.3 2.5.4 5 .8 7.6 1.1-.6-12.3-1.1-27.5-1.4-44.3h1.6c.4 16.9.8 32.1 1.4 44.5 2.6.3 5.2.6 7.8.8-.3-12.6-.5-28.1-.7-45.3h1.6c.2 17.2.4 32.8.7 45.4 2.7.2 5.4.3 8.2.4l-.1-45.8h1.6l.1 45.9c1.4 0 2.7.1 4.1.1h.3c1.4 0 2.8 0 4.1-.1l.1-45.9h1.6l-.1 45.8c2.8-.1 5.5-.2 8.2-.4.5-24.3.9-59.5 1.1-96.8h1.6c-.2 37.2-.6 72.4-1.1 96.6 2.7-.2 5.3-.5 7.8-.8.6-12.4 1.1-27.6 1.4-44.5h1.6c-.4 16.8-.8 32-1.4 44.3 2.6-.3 5.1-.7 7.6-1.1.9-12.2 1.7-27 2.3-43.2h1.7c-.6 16.1-1.3 30.8-2.2 42.9.6-.1 1.2-.2 1.9-.3 10.1-2 20-5.7 29.6-12.5 1.4-1.1 2.4-2 3.3-2.9 7.4-42.1 10-88.6 10.4-127.5l1.8-.3zM83.7 239.2c-1.6-10.4-3-21.5-4.1-33h1.7c1.2 11.9 2.6 23.3 4.3 34.1-.7-.3-1.3-.7-1.9-1.1zm9.1 4.8c-1.5-11.4-2.8-24.1-3.8-37.6h1.7c1 13.8 2.3 26.8 3.9 38.3-.6-.2-1.2-.5-1.8-.7zm9 3.2c-2.6-24.6-4.2-58-5-92.4h1.7c.8 34.6 2.4 68.2 5 92.9-.5-.2-1.1-.3-1.7-.5zm5.4-142.9h-16v34.9h12.3v13.5H91.2l.2 51.6-13.9-.1-3.2-113.7 32.9.2v13.6zm-9.1 32.8h-1.7c-.2-10.4-.3-20.7-.4-30.8h1.7c.1 10.1.3 20.4.4 30.8zm31.6 67.2h-14.3l-2.2-113.8H130l-.3 113.8zm52.6-98.3h1.7c0 5.3-.1 10.7-.1 16-.5-2.7-1-5.3-1.6-7.9V106zm-41.7-60.5l.1 43.1h-1.6l-.1-43.1h1.6zm44.7 158.8h-13.1v-.3c0-3-.2-41.7-1.7-51.1h-17.1l-.1 51.3h-13.5l-1.3-113.6h33.4c16.2 31.1 13.9 84.9 13.4 113.7zm8.1-28.2c-.9 26.6-2.3 51.6-4.4 71.1-.6.2-1.2.3-1.7.5 3.9-36.3 5.4-91.9 5.8-141.6h.7c-.1 2.4-.3 41.4-.4 70zM198 244c-.6.3-1.2.5-1.8.7 1.6-11.5 2.9-24.5 3.9-38.3h1.7c-1 13.5-2.3 26.2-3.8 37.6zm9.1-4.8c-.6.4-1.3.7-1.9 1.1 1.7-10.7 3.1-22.1 4.3-34h1.7c-1.1 11.5-2.4 22.6-4.1 32.9zm4.1-32.9c0-1.4.7-20.9 1.4-42.4.9-16.5 1.4-33 1.6-48.7.2-5.2.3-8.6.3-9.2h1.5c-.2 31.9-1.5 67.6-4.8 100.3zM224.6 104h-11.9l-3.4 100.4h-14l.5-100.4h-12.1V90.7l40.9-.2V104zm10.9-33.6c0 .1.1.1.1.2-.1-.1-.1-.1-.1-.2zm1.2 3.2c.2.7.5 1.4.7 2.2.7 25.3.2 58.3-3.5 94.6-1.1 5.4-2.2 10.7-3.5 16.1 5.6-45.3 6.1-86.6 5.1-116.1-.7-1.6-1.4-2.9-2-3.7-.5-.8-.9-1.2-.9-1.2-1.7-1.7-3.7-3.2-6.1-4.7 1.2 42.3.5 109.6-9.5 169.1-.5 1.1-1 2-1.7 2.8 1-1.2 1.7-2.7 2.5-4.8 9.5-25.2 16.3-54.3 20.2-81.4 4.3-29.8 4.3-56.2-1.3-72.9zm-75.2 30h-.2c-.8 0-8.3-.1-8.3-.1l-.3 36.2h17.1s-.7-6.3-2-13.7c-1.2-6.8-3.2-16-6.3-22.4zm.9 34.1h-1.6c.1-10.1.1-20.2.1-30.1.6 1.4 1.1 3 1.6 4.8 0 8.4-.1 16.9-.1 25.3zm42.5-85.5c.1 0 .2.1.4.1-.2 0-.3-.1-.4-.1zm-33.2-5.6c.4.1.9.1 1.3.1-.4 0-.9 0-1.3-.1zm22.9 3.2h-.2.2zm-21.3-3h-.3c.1-.1.2 0 .3 0zm-10.6-.9c-.5 0-1.1-.1-1.6-.1.5.1 1 .1 1.6.1zm19.6 1.9c.5.1 1 .1 1.5.2-.5 0-1-.1-1.5-.2zm10.6 1.7l1.5.3c-.4-.1-1-.2-1.5-.3zm-8.9-1.4h-.1c0-.1 0-.1.1 0z"/>
</svg>
