<svg xmlns="http://www.w3.org/2000/svg" viewBox="0 0 370.9 370.9" width="20" height="20">
    <path d="M185.4 0C83.2 0 0 83.2 0 185.5S83.2 371 185.4 371c102.3 0 185.4-83.2 185.4-185.5C370.9 83.2 287.7 0 185.4 0zm-14.6 353.3v-48.4c4.8.6 9.6.9 14.6.9 4.8 0 9.6-.3 14.3-.8v48.4c-4.7.4-9.5.6-14.3.6-4.9-.1-9.8-.3-14.6-.7zM221 180.9V89.2l-21.2-6.1v97.7h-28.9V83.2l-21.2 6.1V181h-81c1.8-63 53.4-113.5 116.7-113.5 63.3 0 114.9 50.6 116.7 113.4H221zm81.1 4.9c-.7 51.3-34.6 94.7-81.2 109.7V185.8h81.2zm-152.5 0v109.6c-46.4-15-80.2-58.4-80.9-109.6h80.9zm21.2 0h28.9v114.3c-4.7.6-9.5.9-14.3.9-4.9 0-9.8-.3-14.6-.9V185.8zM221 350.1v-49.7c49.7-15.2 86-61.6 86-116.2 0-67-54.5-121.6-121.6-121.6-67 0-121.6 54.5-121.6 121.6 0 54.6 36.1 100.8 85.7 116.2V350C73.9 333.6 17 266 17 185.5 17 92.6 92.6 17 185.4 17c92.9 0 168.5 75.6 168.5 168.5 0 80.7-57 148.3-132.9 164.6zM39.7 110.4l8.3 3-9.7 26.7 6.9 2.5 9.2-25.2 8.3 3.1-9.1 25.2 12.2 4.4-3.9 11L26 148zm61.988-19.211l-8.353 8.048-26.503-27.508 8.353-8.048zM137.3 55.5c.7 1.9 1.6 3 2.7 3.2.4.1 1 0 1.7-.1s1.6-.4 2.6-.7l3.9-1.3 2.9-1c2.2-.8 3-2.1 2.3-4-.6-1.6-1.6-2.2-3.2-2l-2.3.6-2.2.6-6.4 1.8-4.4 1.1c-.7.2-1.7.4-2.9.6-3.3.6-5.7-.3-7.3-2.7-.9-1.3-1.7-2.8-2.2-4.5-1.1-3-1.5-5.4-1.5-6.9.1-2.6 1.2-4.6 3.1-6.1 1.9-1.5 6.3-3.4 13-5.7 1.2-.4 2.2-.7 3.3-1 2.5-.7 4.2-1.2 6-1.4 1.8-.3 3.4-.3 4.7-.1 1.5.2 2.8.8 4 1.9 1.1 1.1 2.1 2.6 2.7 4.5l.8 2.4-11 3.8-.6-1.3c-.6-1.1-1.5-1.7-2.7-1.7-.1 0-.3 0-.8.1-.8.2-1.6.4-2.5.6 0 0-1.5.4-2.2.7-.7.2-2.8 1.1-2.8 1.1-.8.4-1.5.6-2 1.1-1.1.7-1.4 1.8-1 3.2.5 1.4 1.5 2.1 3.2 1.9.3 0 .7-.1 1.2-.2s.9-.2 1.3-.3l2.9-.8 2.9-.9 6-1.7c.8-.3 1.6-.5 2.4-.6.8-.1 1.7-.2 2.5-.2 4 0 7 2.8 8.9 8.5 2.2 6.3.5 10.8-5 13.6-.3.2-.8.4-1.5.7-.6.3-1.2.5-1.6.6-1.1.4-2.5.9-4.2 1.5-1.7.6-2.7 1-3 1.1-.4.1-2 .7-5 1.6-3 1 1.9-.8.3-.2-.7.2-1.4.5-2.1.6-.7.2-1.4.4-2.1.5-1.5.5-3 .8-4.3.8-1.4 0-2.6-.3-3.8-.7-1-.4-1.9-1.1-2.8-2.2-.9-1.1-1.6-2.5-2.2-4.1l-1-2.5 11.3-3.8zm80.5-30.1l-3.5 13.8 3 .7 16.3-10.6 13.2 3.3-22.6 14 16 23.7-13.4-3.4-12.1-17.5-2.8-.6-3.4 13.6-11.2-2.8 9.2-37zm109.1 99.9l-8.4 3.2 3.3 8.5c.1.3.3.9.6 1.6.3.8.5 1.4.7 1.8.2.5.4.9.6 1.2.2.3.4.6.7.9.9.9 2.4.9 4.5.1 1.4-.6 2.4-1.3 2.8-2.4.3-.8.2-2-.5-3.6l-1.2-3.2-3.1-8.1zm14.6 10.3c.5 1.2.8 2 .9 2.5.1.5.3 1.1.6 2 .9 3.5.6 6.2-1 8.2-.6.8-1.3 1.4-2.1 2-.8.5-1.6 1-2.4 1.4-.8.4-1.7.8-2.7 1.2-2.9 1.1-5.3 1.6-7.1 1.3-1.8-.2-3.7-1.7-5.7-4.3.3 3.3 0 5.6-.9 6.7-.9 1.2-2.9 2.4-6 3.6l-4.4 1.7-4.2-10.8 3.3-1.3c2.2-.9 3.6-1.7 4.1-2.5.5-.9.4-2.4-.5-4.7l-4-10.5-8.9 3.4-4.2-10.8L332 111l9.5 24.6zm-59.2-83.3l29 27.5-6.2 6.5-20.5-19.5-3.6 3.8 19.5 18.5-5.8 6-19.4-18.5-4.8 5 20.8 19.7-6.1 6.5L256 80z"/>
</svg>
