<svg xmlns="http://www.w3.org/2000/svg" viewBox="0 0 130 130" width="20" height="20">
    <path d="M65.2 40.7C29.6 40.7 1 51.4 1 64.8c0 13.3 28.8 24.1 64.2 24.1 35.4 0 64.2-10.8 64.2-24.1.1-13.2-28.8-24.1-64.2-24.1zm0 46.1c-34 0-61.5-9.8-61.5-22 0-12.1 27.6-22 61.5-22 34 0 61.5 9.8 61.5 22 .1 12.2-27.5 22-61.5 22zm25.3-17.1v.2c0 .1.2.2.3.3 0 0 .1.1 0 .2-.4.9-.8 1.4-1.3 2.1-.5.7-1 1.2-1.6 1.7-.9.8-2.3 1.6-3.4 1.1-.5-.3-.7-.9-.7-1.5 0-1.5.7-3.1 2-4.7 1.5-1.9 3.3-2.9 4.4-2.3 1.2.5.9 1.9.3 2.9zm-31.8-10c-.1-.6.1-1.3.7-1.8.3-.3.7-.3 1-.1.3.2.1.8-.1 1.3-.3.5-.8.9-1.3.9-.2-.1-.3-.1-.3-.3zm6.5-15c-32.8 0-59.4 9.1-59.4 20.2 0 11 26.6 20.1 59.4 20.1s59.4-9.1 59.4-20.2S98 44.7 65.2 44.7zM34.7 78.1c-3.5 0-6.6-2.1-7-5.9-.2-2.1.4-3.9 1.6-5.5 1-1.4 2.8-2.5 4.3-2.8.5-.1 1.1 0 1.4.3.4.5.3 1-.1 1.3-1.1.6-2.5 1.6-3.2 2.9-.6 1.1-.7 2.5.2 3.7 1.4 2.1 5.3 2.2 9-1.2.9-.8 1.7-1.6 2.5-2.6 1.6-1.8 2.1-2.5 4.3-5.5v-.1l-.1-.1c-1.4 0-2.7.5-3.9 1.4-.3.3-.8.2-1.1-.1-.2-.4-.1-.9.3-1.1 1.9-1.4 4.1-1.6 6.2-2 0 0 .2 0 .3-.2.9-1.1 1.6-2.2 2.5-3.3 1-1.2 2.2-2.2 3.1-3.1 1.3-1.1 2.2-1.5 3-2 .2-.1 0-.3-.1-.3-4.8-.9-9.8-2.1-14.5-.3-3.3 1.2-4.7 3.8-4 5.6.5 1.2 2.1 1.4 3.7.7 1.3-.6 2.4-1.6 3.3-2.9.5-.7 1.4-.2.9 1-1.4 3.3-4.1 5.9-7.3 6-2.8.1-4.5-1.9-4.5-4.4 0-4.9 5.5-8.2 11.3-8.7 7-.6 13.6 1.3 20.5 2.1 5.3.6 10.4.7 15.7-.6.6-.1 1.1.3 1 .9-.1.9-.8 1.8-2.5 2.8-2 1.1-4.1 1.4-6.3 1.4-5.3 0-10.2-2-15.3-3.1 0 .2.1.5-.1.6-2.8 2.1-5.4 4.2-7.1 7.1-.1.1 0 .1.1.1 1.5-.1 2.8-.1 4.2-.2.2 0 .2-.1.2-.3-.1-1 .2-2.2 1.1-3 .9-.8 2.1-.9 2.8-.3.9.7.8 1.9.3 2.8-.5.9-1.3 1.4-2 1.7 0 0-.2 0-.1.2 0 .2 1.1.8 1.2 1 .1.1 0 .4-.1.5-.1.1-.3.2-.5.2s-.3-.1-.5-.2c-.5-.3-1.1-.7-1.4-1.2-.1-.2-.2-.2-.5-.2-1.5.1-3.8.3-5.4.5-.4 0-.4.1-.5.3-2.5 4.1-5.2 8.6-8.2 11.6-3.2 3.6-5.9 4.5-8.7 4.5zM103 57.9c-.5.8-9.9 15.2-10.5 16.6-.2.5-.2.8 0 1.1.5.7 1.6.3 2.3-.2 2-1.4 3.4-3.1 5-4.6.1-.1.2-.1.3 0 .2.2.6.5.8.7.1.1.1.2 0 .3-1.5 1.9-3.2 3.6-4.8 4.9-2.5 1.9-5 2.4-6.3 1.2-.5-.5-.7-1.1-.7-1.7 0-.3-.2-.3-.3-.2-1.5 1.5-4.1 3.1-6.4 1.9-2-1-2.4-3.3-2-5.3 0 0 0-.3-.3-.2-.4.3-.9.6-1.6.9-.8.3-1.2.4-2 .4-1 0-1.8-.4-2.4-1.4-.3-.5-.5-1.3-.5-1.9 0-.1-.1-.2-.2 0-1.6 2.4-3.1 4.8-4.7 7.3-.1.1-.2.2-.3.2h-3.1c-.2 0-.3-.1-.2-.3.6-1.1 3.6-5.5 5.7-9.3.6-1 .5-1.6.1-1.8-.4-.3-1.3.1-2.1.7-2 1.5-3.7 3.9-4.6 5-.5.6-1 1.6-2.3 3-2.1 2.3-4.9 3.6-7.5 2.7-1.5-.5-2.5-1.7-2.9-3.1-.1-.3-.2-.4-.4-.2-.4.5-1.3 1.3-2.1 1.8-.1.1-.3.2-.5.1s-.7-.8-.8-1.1c-.1-.2 0-.3.1-.4 1.1-.9 1.6-1.5 2.1-2 .3-.4.6-.9.9-1.7.6-1.6 2.1-4.6 5-6.2 1.1-.6 2.2-1 3.5-1.2.5-.1 1 0 1.1.4.1.2.2.6.3.8.1.2 0 .3-.2.4-1.7.7-3.4 1.7-4.6 3.3-1.4 1.8-1.7 4-.8 5.2.7.9 1.7 1.1 2.8.7 1.6-.5 2.9-1.9 3.6-3.6.7-1.8.9-3.8.3-5.7-.1-.3 0-.6.2-.7.4-.3 1-.6 1.1-.7.4-.2.8-.1 1 .2.6.8.9 2 .9 3.3 0 .3.1.3.3.1 1-1.1 2-2.2 3-3.1 1-.8 2.3-1.4 3.4-1.4 1.5 0 2.3 1.1 2.2 2.9 0 .2.2.2.3.1.5-.7.8-1 1.3-1.4 1.1-.9 2.1-1.3 3.3-1.2 1.4.1 2.5 1.4 2.3 2.8-.1.9-.7 1.8-1.5 2.2-.7.4-1.6.3-2.2-.2-.5-.4-.6-1.1-.5-1.7 0-.1-.1-.3-.3-.1-1.4 1.4-1.5 3.2-.6 4.1 1 .9 2.4.3 3.5-.4 2-1.3 3.5-3 5.2-4.4 1.2-.9 2.5-1.7 4-1.9.8-.1 1.6-.1 2.4.3 1.1.4 1.7 1.3 1.8 2.1 0 .2.2.3.3.1.8-1.3 5.4-8.1 5.8-8.8.1-.2.2-.3.5-.3h3.2c.3.4.3.5.3.6z"/>
</svg>
