<svg xmlns="http://www.w3.org/2000/svg" viewBox="0 0 612 612" width="20" height="20">
    <path d="M11 245.9c8.5.4 16.5.7 24.5 1.1 4.5.2 9.1.4 13.6.6 7 .3 14 .7 21 1 4.5.2 8.9.4 13.4.6 5.2.2 10.4.5 15.5.7 3.8.2 7.5.3 11.3.5 7.3.4 14.6.7 21.9 1.1 3.8.2 7.6.3 11.5.5 6.3.3 12.6.7 18.8 1 4.1.2 8.2.4 12.2.6 6.3.3 12.7.7 19 1 3.8.2 7.6.4 11.5.6 4.7.2 9.5.3 14.2.7 8.6.6 16.6-1.4 24.5-4.3 11.9-4.4 24-8 36.3-11.1 8-2 16-3.8 24.1-5.6 1-.2 2.1-.2 3.1 0 17.6 3.6 35 8.2 52.1 13.8 5.4 1.8 10.8 3.7 16.2 5.5 3.6 1.2 7.3 1.8 11.1 1.7 5.6-.1 11.1-.4 16.7-.6 4.2-.2 8.4-.3 12.6-.5 6.2-.3 12.4-.7 18.6-1 4.3-.2 8.6-.4 12.8-.6 6.5-.3 12.9-.7 19.4-1 4.7-.2 9.3-.4 14-.6 6.5-.3 13.1-.7 19.6-1 4.5-.2 8.9-.3 13.4-.6 6.7-.3 13.5-.7 20.2-1 4.7-.2 9.3-.4 14-.6 6.9-.3 13.7-.7 20.6-1 4.7-.2 9.5-.4 14.2-.6 6.1-.2 12.2-.5 18.3-.6 1.3 0 2.7.2 4 .5 3.6.9 4.7 3.1 2.9 6.4-1.8 3.5-3.7 6.9-5.7 10.2-5.1 8.3-10.7 16.2-17.6 23.2-4.3 4.3-9.2 7.8-14.8 10.3-7.5 3.4-15.2 5.9-23 8.4-23.9 7.4-47.6 15-71.6 22.2-28.7 8.5-57.4 16.7-86.2 24.9-13.5 3.9-27.1 7.8-40.7 11.4-13.7 3.6-27.4 6.8-41.2 10.2-1.1.3-2.3.2-3.4 0-27.1-6.3-54-13.4-80.7-21.2-29.1-8.5-58.4-16.7-87.5-25.3-23.8-7.1-47.4-14.6-71-22-6.6-2.1-13-4.4-19.5-6.8-9.1-3.3-16.4-9-22.7-16.3-7.5-8.8-13.8-18.4-19.1-28.6-2-3.9-.8-6.2 3.5-7 1.7-.6 3.2-.7 4.1-.8zm208.8 57.2c-1.4.2-2.7.4-4 .5-3.6.2-7.1.3-10.7.4-4 .1-8 .2-12 .4-2.4.1-4.8.2-7.1.4-2.3.1-4.6.4-7 .5-3.4.1-6.9.1-10.3.3-5.2.2-10.3.6-15.5.9l-11.4.6c-3.9.2-7.8.3-11.6.4h-3.3c-2.3.1-4.5.2-6.8.3-2.3.1-4.5.1-6.8.2-.5 0-1 .3-1.5.4v.5c.7.3 1.3.7 2.1.9 2.8.8 5.6 1.5 8.4 2.4 16.6 5.1 33.2 10.3 50 14.6 4.8 1.2 9.6 2.4 14.6 2.2 8.4-.2 16.7-.6 25.1-.7 6.7-.1 13.4-.2 20.1-.1 3.4 0 6.5 1.2 9.2 3.2.8.6 1.3 1.3 1.2 2.6-1.3.5-2.7 1.1-4.2 1.6-5.4 1.7-10.8 3.3-16.2 5-.8.2-1.9.4-1.8 1.4.1 1.1 1.2 1.2 2.1 1.4 2.9.8 5.9 1.4 8.8 2.3 10.5 3.2 20.9 6.5 31.4 9.6 2.6.8 5.3 1.3 7.9 1.9.8.2 1.5.2 2.2-.7-.4-.5-.6-1.1-1.1-1.5-.9-.9-1.8-1.7-2.7-2.5-6.6-5.5-12.7-11.4-17.7-18.3-5.9-8.1-11.4-16.6-17.1-24.8-4.2-6.1-8.3-12.2-12.8-18.2-2.2-2.9-4.8-5.6-7.5-8.2-3.7-3.6-8.6-5-13.4-6.3-10.6-2.8-21.4-4.4-32.3-5.9-5.5-.8-11.1-1.4-16.6-2-6.2-.8-12.5-1.5-18.7-2.2-5.2-.6-10.4-1.1-15.6-1.7-8-.9-16.1-1.8-24.1-2.7-4.1-.4-8.1-.8-12.2-1.2-5.7-.6-11.3-1.2-17-1.8-3.7-.4-7.3-.7-11-1.1-2.1-.2-4.1-.6-6.2-.8-2-.2-4.1-.2-6.2-.5-4.9-.8-9.8-.8-14.7-.7-.4 0-.8.3-1.3.4.7 2.5 2 4.5 3.4 6.5 4.7 6.7 10.2 12.5 16.5 17.7 6.8 5.7 14.3 9.5 23.2 10.5 4.2.5 8.3 1.2 12.5 1.6 5.7.6 11.3 1 17 1.4 4.9.3 9.7.4 14.6.6 6 .2 11.9.5 17.9.6 11 .1 22.1 0 33.1.1 8.2 0 16.3.3 24.5.3h20.5c1.1 0 2.2.1 3.2.4 2.7.9 5.1 2.2 7.3 4 .9.6 1.6 1.4 1.6 2.9zm149.6 29.4c.5-.4.9-.9 1.5-1.4 2.6-1.9 5.6-2.9 8.7-3 5.3-.1 10.6-.1 15.9 0 9.1.2 18.3.6 27.4.8 2.3.1 4.6.2 6.8-.3 5.3-1 10.7-2.1 15.9-3.6 12.7-3.6 25.4-7.4 38.1-11.2 4.5-1.3 8.9-2.6 13.4-3.9 1-.3 2-.6 2.6-1.8-.5-.1-.9-.3-1.3-.3-2.2-.1-4.4 0-6.5-.1-2.2-.1-4.4-.6-6.6-.6-3.6.1-7.2-.4-10.8-.3-4 .1-8-.6-12-.7-4.8-.1-9.6-.4-14.3-.7-3.2-.1-6.5-.2-9.7-.4-1.4-.1-2.8-.1-4.3-.2-3.6-.2-7.2-.5-10.8-.6-4.1-.2-8.3-.3-12.4-.4-2.4-.1-4.8-.3-7.2-.4-3.8-.1-7.6-.3-11.4-.4-.3 0-.6-.2-1.1-.4.5-.8.8-1.5 1.3-2 2-2.2 4.7-3.4 7.4-4.5 3-1.2 6.2-1.1 9.4-1.2 27.3-.2 54.7.3 82-.4 6.2-.2 12.3-.2 18.5-.6 8.4-.5 16.8-1.2 25.2-1.9 3.6-.3 7.2-.9 10.8-1.5 4.1-.7 8.1-1.6 11.8-3.7 4.8-2.6 9.1-5.9 13.2-9.6 5.9-5.4 11-11.6 15.3-18.3.5-.8 1.2-1.7.8-2.9-.5 0-.9-.1-1.3-.1-7.7-.1-15.2.8-22.8 1.6-7.7.9-15.3 1.6-23 2.3-3.9.4-7.9.8-11.8 1.2-6.9.7-13.8 1.5-20.7 2.3-5.3.6-10.6 1.1-15.8 1.7-7.8.9-15.6 1.8-23.3 2.7-3.8.4-7.6.8-11.4 1.3-5.3.7-10.5 1.3-15.8 2.1-6.2.9-12.4 1.9-18.6 3-3.7.7-7.3 1.6-10.9 2.5-5.7 1.4-11.2 3.4-15.3 7.9-2.8 3.1-5.6 6.1-8 9.5-6.9 9.9-13.5 19.8-20.2 29.8-5.9 8.9-12.5 17.2-20.4 24.4-2.2 2-4.4 3.8-6.6 5.8-.8.7-1.6 1.3-1.8 2.7.7.1 1.3.3 1.8.2 2.5-.5 5.1-.9 7.6-1.7 8.7-2.6 17.3-5.3 26-7.9 5.1-1.5 10.2-3.5 15.5-4.3.6-.1 1.5-.3 1.5-1.2.1-.9-.7-1.1-1.4-1.4-.1 0-.2-.1-.4-.1-4.9-1.6-9.8-3.2-14.7-4.9-1.3-.4-2.6-.8-3.9-1.3-.9-.1-1.7-.4-1.9-1.6zM306 259.7v.2c-.5 0-.9 0-1.4.1-1.2.2-2.3.4-3.4.6-11.9 2.5-23.5 5.8-35 9.8-4 1.4-8 3.1-11.8 4.9-2.7 1.2-3 2.2-2.2 5 1.2 4 2.3 8 3.7 11.9 3.1 9.2 6.7 18.1 11.6 26.5 1.9 3.3 4.1 6.5 7 9 8.5 7.4 18 13.3 28.2 18.2 2.4 1.1 4.6 1.3 6.8-.1.2-.1.5-.2.7-.3 5.6-2.6 10.9-5.7 16-9.2 3.5-2.4 6.8-4.9 10.1-7.5 4.7-3.7 7.7-8.7 10.4-13.9 3.8-7.3 6.9-15 9.5-22.8 1.4-4.1 2.6-8.2 3.8-12.3.6-2.1.2-2.9-1.6-4.1-.5-.3-1-.6-1.5-.8-3.1-1.3-6.2-2.8-9.3-3.9-10.6-3.8-21.5-6.8-32.5-9.4-3-.8-6.1-1.3-9.1-1.9z"/>
</svg>
