<svg xmlns="http://www.w3.org/2000/svg" viewBox="0 0 455.1 455.1" width="20" height="20">
    <path d="M405.4 183.7h-50.7c-27.5 0-49.7 22.3-49.7 49.7 0 27.5 22.3 49.7 49.7 49.7h50.7c27.5 0 49.7-22.3 49.7-49.7 0-27.4-22.3-49.7-49.7-49.7zm-3.1 78.9h-44.7c-16.1 0-29.1-13-29.1-29.1s13-29.1 29.1-29.1h44.7c16.1 0 29.1 13 29.1 29.1.1 16.1-13 29.1-29.1 29.1zm-131.8-20.3c16.1 0 29.1-13 29.1-29.1s-13-29.4-29.1-29.4h-67.6c-27.5 0-49.7 22.3-49.7 49.7 0 27.5 22.3 49.7 49.7 49.7h91.9v-20.6h-88.9c-16.1 0-29.1-13-29.1-29.1s13-29.1 29.1-29.1h61.5c4.7 0 8.5 4.1 8.5 8.8 0 4.7-3.8 8.5-8.5 8.5h-76.9v20.6h80zM61.2 262.6c-20.8 0-37.7-15.9-37.7-36.7 0-20.8 16.9-37.4 37.7-37.4h82.6v-19.8H57.2C25.6 168.7 0 194.3 0 225.9s25.6 57.2 57.2 57.2h86.7v-62.2H72v20.6h47.7v21.1H61.2z"/>
    <path d="M410.9 211.2h-4.1c2.3 1.6 5.5 4.3 8.3 8.1h-13.9c-2-3.2-4.6-5.9-7.6-8.1h-4.1c2.3 1.6 5.5 4.3 8.3 8.1h-15.5v-8.1h-3.9v8.1h-15.5c2.7-3.8 6-6.6 8.3-8.1h-4.1c-3 2.2-5.6 4.9-7.6 8.1h-13.9c2.7-3.8 6-6.6 8.3-8.1h-4.1c-7.1 5.2-12.1 13.5-12.1 23 0 8.7 4.3 16.5 10.2 21.5h4c-2.3-2.2-4.4-4.4-6.2-6.7h13.6c1.6 2.6 3.6 4.8 5.9 6.7h4c-2.3-2.2-4.4-4.4-6.1-6.7h15.3v6.7h3.9V249h15.3c-1.8 2.4-3.9 4.5-6.1 6.7h4c2.2-1.9 4.2-4.1 5.9-6.7H415c-1.8 2.3-3.9 4.5-6.2 6.7h4c5.9-5 10.2-12.8 10.2-21.5 0-9.4-5-17.8-12.1-23zm-67.7 33.9c-1.4-2.7-2.3-5.6-2.6-8.9H355c.2 3.2 1 6.1 2.2 8.9h-14zm11.8-12.8h-14.4c.3-3.4 1.2-6.4 2.6-9h14.2c-1.3 2.8-2.1 5.8-2.4 9zm23.4 12.8h-17.8c-1.4-2.7-2.4-5.5-2.6-8.9h20.4v8.9zm0-12.8H358c.3-3.4 1.3-6.4 2.6-9h17.8v9zm3.8-9H400c1.3 2.6 2.3 5.6 2.6 9h-20.4v-9zm17.9 21.8h-17.8v-8.9h20.4c-.3 3.3-1.2 6.2-2.6 8.9zm17.3-21.8c1.3 2.6 2.3 5.7 2.6 9h-14.4c-.2-3.2-1-6.2-2.3-9h14.1zm-14.1 21.8c1.2-2.8 2-5.8 2.2-8.9H420c-.3 3.4-1.2 6.3-2.6 8.9h-14.1z"/>
</svg>
