<svg xmlns="http://www.w3.org/2000/svg" viewBox="0 0 725 725" width="20" height="20">
    <path d="M65.6 354H44.2v-29.6H0v77.4h44.2v-30h21.4v30h44.2v-77.4H65.6zm116.9 22.1c0 5.3-3.2 11.4-11.1 11.4-7.8 0-11-6.1-11-11.4v-51.7h-44.2v52.4c0 7.8 6.8 25 32.1 25h46.3c25.3 0 32.1-17.1 32.1-25v-52.4h-44.2v51.7zm118-20.3L283 324.4h-50.6v77.4H273v-33.2l18.2 33.2h18.5l18.2-33.2v33.2h40.6v-77.4h-50.6zm141.8 0l-17.4-31.4h-50.7v77.4h40.7v-33.2l18.2 33.2h18.5l18.2-33.2v33.2h40.6v-77.4h-50.6zm73.1 46h86.3v-21.4H561v-8.6h40.7V354H561v-8.2h40.7v-21.4h-86.3zm203.2-51.7c0-9.6-6.1-25.7-23.2-25.7h-88v77.3h44.2v-22.5l18.9 22.5H725l-23.2-27.4c9.3.4 16.8-14.6 16.8-24.2zm-54.9 10h-12.1v-17.5h13.5c11 0 10 17.5-1.4 17.5z"/>
</svg>
