<svg xmlns="http://www.w3.org/2000/svg" xmlns:xlink="http://www.w3.org/1999/xlink" viewBox="0 0 845 845" width="20" height="20">
    <defs>
        <path id="a" d="M421.7 640.5c233 0 421.7-96.9 421.7-216.3S654.7 207.8 421.7 207.8C188.8 207.8 0 304.7 0 424.1s188.8 216.4 421.7 216.4zm79.2-106.3c-6.9 16.2-19.1 51.1-46.8 64.9-8.5 4-19 6.1-28.1 6.4-2.1.3-3.5 0-4 0-77.9 0-150.3-10.6-211-29.2-.5-.3-1.9-.8-1.9-.8-6.1-1.9-9-4.5-9-7.7 0-2.7 1.3-4.8 3.5-6.9.8-.8 2.1-1.9 3.7-3.5 13.8-11.7 56.4-42.3 135.5-73 28-10.6 62.8-23.9 99.3-31.7 21.6-4.1 100.9-16 58.8 81.5zm213.5-217.9c1.3-2.7 3.5-5 7.2-5 2.1-.3 4.5.3 8.5 2.9 49.5 30.5 79.1 68.6 79.1 109.9 0 74.7-95.8 138.7-232.6 166.8-8.8 1.9-14.6 1.9-16.7-.5-1.3-1.6-1.9-3.7 0-6.6.8-1.6 1.9-2.9 3.7-4.8 74.6-88 131.5-217.9 147.4-255.6 1-3.1 2.2-5.5 3.4-7.1zm-370.6-2.9c6.9-16.2 19.1-51.1 46.8-64.9 8.5-4.2 19-6.1 28.1-6.4h4.2c77.6 0 150.1 10.9 210.7 29.2.5 0 1.9.5 2.4.8 5.6 1.9 8.5 4.5 8.5 7.7 0 2.9-1.6 4.8-3.5 6.9-.8.8-2.1 2.1-3.7 3.5-14.1 11.7-56.1 42.3-135.5 72.6-28 10.9-62.8 23.9-99.3 32-21.6 4.3-100.8 16.3-58.7-81.4zm-76.4-56.1c8.8-1.9 15.7-1.9 17.5.5 1.3 1.3 1.9 3.7 0 6.6-.8 1.6-1.9 2.9-3.5 5-74.7 88-131.5 217.9-147.4 255.3-1.3 2.7-2.4 5.3-3.5 6.9-1.6 2.7-3.7 4.8-7.2 5-1.9 0-4.5-.5-8.8-2.9-49.5-30.5-80-68.6-80-109.9.4-74.4 96.2-138.5 232.9-166.5z"/>
    </defs>
    <use xlink:href="#a" overflow="visible"/>
    <path class="st0" d="M421.7 207.8C188.8 207.8 0 304.4 0 423.8s188.8 216 421.7 216c233 0 421.7-96.9 421.7-216 0-119.4-188.7-216-421.7-216zm293.1 357.1c-77.9 39.9-181.9 62-293 62s-214.9-22.2-292.8-62C54 526.3 12.9 476.4 12.9 424s41.3-102.4 116.2-141c77.9-40.2 181.9-62 293-62s215 22 293 62c75.1 38.6 116.2 88.6 116.2 140.9s-41.4 102.4-116.5 141z"/>
</svg>
