<svg xmlns="http://www.w3.org/2000/svg" viewBox="0 0 567.4 567.4" width="20" height="20">
    <path d="M553.4 362.6h-21c-11.7.3-17.5-6-20-8.1-73.3-52.8-210-112.8-333.2-154.3-15.9-4.9-39.5-8.3-54.3-8.3-14.7 0-21.8-1.2-37.1-.6-14.7.6-30 3.1-38.6 5.5-8.6 2.5-27.9 7.4-28.8 19.1C13 221.5 5.5 229 2.5 232.1c-3.1 3.1-4.1 9.1 2 15.8 6.1 6.8 13.5 13.5 18.4 10.5s3.7-6.8 5.5-10.5 8-9.2 14.1-2.5c6.1 6.8 2.3 9.7-1.2 12.9-3.3 3-9.8 8.6-5.5 14.1 4.3 5.5 9.2 7.4 15.9 2.5 4.9-3.6 18.2-11.2 25.9-15.5 1.9-1.1 4.2-3.9 12.6-.5 9 3.5 23 9.7 28.9 12.9l-12.7 5.8c-6.7 4.3-12.6 16.4-13.2 20.8-.6 6.8 1.8 16.4 11 24.4H124l12-17.2-.9-1.8c15.3-1.8 57 10.8 76.6 3.1 13.5 5.5 37.4 8.6 81.5 4.3 8-.6 18.9-2.3 25.6 6.5 7 9.1 41.2 45.2 52.3 48.9s57 3.7 69 5.8c10.3 1.9 14.4 0 23 9.8l18.4 16.3c2.1 2.5 8.6 7.2 15.9 7.2h12.7c7.4-.6 11.3-5.8 13.2-12h31.3c9.8 0 12.9-8.8 12.9-16.8-.1-7.8-5.5-14.3-14.1-14.3zm.2 23.8H524c-1.7-13.1-11.3-14.9-16.9-15.2-5.4-.3-9.5-2.5-12-4 0 0-19.9-17.8-25.4-23.7-5.5-5.8-9.2-7.7-14.4-7.7h-18.1c-3.7 0-8 .3-14.1-8s-21.8-21.5-25.7-24.3-4.9.3-2.5 2.5c2.1 2.2 12.3 8.6 18.4 18.8 6.1 10.1 11.3 15.4 15.6 17.5 3.7 2.5 15 2.2 21.8 2.2 6.7 0 9.2.6 14.7 6.1s18.1 16.6 21.5 20.3 9.2 7.1 17.5 7.1 12.3 5.2 12 10.1c-.3 4.6-2.8 9.8-6.4 9.8h-13.2c-2.1 0-7-3.1-8.3-4.3-4.3-3.1-15-12.3-21.2-18.8s-12.3-8.3-20.5-9.5-42.6-2.8-50.3-3.1c-7.7-.3-19.3-.3-27.6-5.5-8.1-5.1-40.5-40.6-46-47-6.4-7.4-16.1-6.5-21.9-6.6-57.3 6.3-77.7.5-83.8-3.2l6-10.3c17.9 4.2 42.5.2 45.8-.8 3.4-.9 2.8-4.3-.6-3.7-7.7.9-41.1-3.1-44.4-3.7-.3-8.6-19.6-34.4-22.1-39.4-2.5-4.9-.3-8 2.1-10.1 2.5-2.2 2.5-4.9.3-4.9-8.9.9-11 8-9.2 16.6 1.8 8.6 20.8 33.5 19.6 39.4-1.2 5.8-7 14-10.4 17.4-16.6 4-53.3-5.8-74.5-5.2-8.1.2-6.7 7.2-3.8 9.7l-6.7 9.8h-9.7c-5.2-1.5-7.1-9.5-8-13.5.2-2.6 2.1-10.1 8.6-15.7 13-11.2 65-6.1 69.6-6.1s3.4-2.2.6-3.1c-4.9-1.2-19.8-5.2-28.5-5.5-2-5.8-5.7-10-6.9-15.7-1-4.9.3-10.9 2-14.6 2.3-7.1-2.6-6-4.3-4-2.3 3.4-8.1 10.9-8.4 16.4-.3 5.5 5.4 15.4 6.9 17.8-2.8 0-7.7.3-9.8.3-14.9-12.6-41.5-21.1-46.7-22.9.9-2.5 2.3-5.1 3.2-8.1.9-3.1 2.8-2.5 4.9-1.8 3.1 1.5 17.5 6.8 22.1 8.6 4.6 1.8 8.9.9 11-.9 2.1-1.8 9.2-8 12.3-12.3 3.1-4.3-1.8-4.6-3.7-2.5-5.8 5.4-14.4 8.3-19 7.4-4.6-.9-19.3-8.3-23-10.8-8.3-3.7-11.3 2.2-12.3 5.5-5.4 15.5-14.1 22.9-20.4 27.5-1.8 1.5-10.1 6.4-12.6 8-2.1 1.4-3.5-.9-2.6-2.3 1.8-1.4 8.6-8.3 9-10.8 1.5-8.9-.9-11.8-4.6-15.8-3.7-4-8.4-5.4-13.9-5.4s-10.7 5.1-12.6 6.9.5 5.5-2.6 7.7-6.6-3.5-8.4-6c4-4.6 3.7-6.8 2.8-11.1 1.3-1 3.4-3.4 6-5.7 2.1 1.2 6.4 1.8 9.2 1.2 14.9-1.2 17.5.5 20.8 2 3.4 1.5 4.4-.6 3.2-2.8-1.6-2.9-2.9-4-6-7.1l6-1.8c6.7 0 13.5 2.5 16.9 2.8 3.4.3 5.5.3 6.7-2.2 2.1-6.5 6.1-7.7 8.9-8.6 2.8-.9 4.9-3.4 2.5-4h-6.1c-5.2.3-5.5 2.2-7.1 4-1.5 1.8-3.4 4-7.4 3.4-4-.6-12.4-2-17.3-1.7-3.8.2-9.3 4.2-20.1 3.8 4.3-10.8 44.1-15.1 51.8-15.4 50.9-2.2 61.6.3 84.9 5.2 23.3 4.9 58.3 16.4 125.5 43.1 63.8 25.4 187.6 87.8 216.2 113.3 1.6 1.6 11 8.2 21.5 8.2h22.1c5.5 0 7 5.1 7 7.5.1 2.7-1.3 9.3-5.9 9.3z"/>
</svg>
