<svg xmlns="http://www.w3.org/2000/svg" viewBox="0 0 567.4 567.4" width="20" height="20">
    <path d="M553.4 362.6h-21c-11.7.3-17.5-6-20-8.1-73.3-52.8-210-112.8-333.2-154.3-15.9-4.9-39.5-8.3-54.3-8.3-14.7 0-21.8-1.2-37.1-.6-14.7.6-30 3.1-38.6 5.5-8.6 2.5-27.9 7.4-28.8 19.1C13 221.5 5.5 229 2.5 232.1c-3.1 3.1-4.1 9.1 2 15.8 6.1 6.8 13.5 13.5 18.4 10.5s3.7-6.8 5.5-10.5 8-9.2 14.1-2.5c6.1 6.8 2.3 9.7-1.2 12.9-3.3 3-9.8 8.6-5.5 14.1s9.2 7.4 15.9 2.5c4.9-3.6 18.2-11.2 25.9-15.5 1.9-1.1 4.2-3.9 12.6-.5 9 3.5 23 9.7 28.9 12.9l-12.7 5.8c-6.7 4.3-12.6 16.4-13.2 20.8-.6 6.8 1.8 16.4 11 24.4H124l12-17.2-.9-1.8c15.3-1.8 57 10.8 76.6 3.1 13.5 5.5 37.4 8.6 81.5 4.3 8-.6 18.9-2.3 25.6 6.5 7 9.1 41.2 45.2 52.3 48.9s57 3.7 69 5.8c10.3 1.9 14.4 0 23 9.8l18.4 16.3c2.1 2.5 8.6 7.2 15.9 7.2h12.7c7.4-.6 11.3-5.8 13.2-12h31.3c9.8 0 12.9-8.8 12.9-16.8-.1-7.8-5.5-14.3-14.1-14.3z"/>
</svg>
