<svg xmlns="http://www.w3.org/2000/svg" viewBox="0 0 2500 2500" width="20" height="20">
    <path d="M2106.7 1448.9c121.2 0 220.1 98.9 220.1 220.1 0 121.2-98.9 220.1-220.1 220.1-121.2 0-220.1-98.9-220.1-220.1 0-121.2 98.9-220.1 220.1-220.1zm-1714.2 0c121.2 0 220.1 98.9 220.1 220.1 0 121.2-98.9 220.1-220.1 220.1-121.3 0-220.1-98.9-220.1-220.1-.1-121.2 98.8-220.1 220.1-220.1zm333.7 48c27.3.1 49.5 22.2 49.5 49.5v564.8c-.1 27.3-22.2 49.5-49.5 49.6-27.3-.1-49.5-22.2-49.6-49.6v-564.8c.1-27.3 22.2-49.4 49.6-49.5zm173.4 0c27.3.1 49.5 22.2 49.5 49.5v564.8c-.1 27.3-22.2 49.5-49.5 49.6-27.3-.1-49.5-22.2-49.6-49.6v-564.8c.1-27.3 22.2-49.4 49.6-49.5zm173.4 0c27.3.1 49.5 22.2 49.6 49.5v564.8c-.1 27.3-22.2 49.5-49.6 49.6-27.3-.1-49.5-22.2-49.6-49.6v-564.8c.1-27.3 22.2-49.4 49.6-49.5zm173.4 0c27.3.1 49.5 22.2 49.5 49.5v564.8c-.1 27.3-22.2 49.5-49.5 49.6-27.3-.1-49.5-22.2-49.6-49.6v-564.8c.1-27.3 22.3-49.4 49.6-49.5zm173.4 0c27.3.1 49.5 22.2 49.6 49.5v564.8c-.1 27.3-22.2 49.5-49.6 49.6-27.3-.1-49.5-22.2-49.6-49.6v-564.8c.1-27.3 22.3-49.4 49.6-49.5zm173.4 0c27.3.1 49.5 22.2 49.6 49.5v564.8c-.1 27.3-22.2 49.5-49.6 49.6-27.3-.1-49.5-22.2-49.6-49.6v-564.8c.1-27.3 22.3-49.4 49.6-49.5zm173.4 0c27.3.1 49.5 22.2 49.6 49.5v564.8c-.1 27.3-22.2 49.5-49.6 49.6-27.3-.1-49.5-22.2-49.6-49.6v-564.8c.1-27.3 22.3-49.4 49.6-49.5zM1484.8 790c-23.4 0-42.7 7.8-57.9 23.4-15.2 15.5-22.8 36.6-22.5 63.4h160c-.8-28.4-8.7-50-23.9-64.7-15.3-14.7-33.8-22.1-55.7-22.1zm437.9 5.4c-57.5 0-78.8 67.1-77.4 109.8 2 58 24.2 119.9 79.5 119.9 27.7 0 36.7-7.1 55.1-25.4 18.4-18.2 27.7-48.2 27.7-89.7 0-38.9-9.6-67.7-28.6-86.5-18.9-18.7-28.3-28.1-56.3-28.1zm-876.9-5.6c-23.4 0-42.7 7.8-57.9 23.4-15.2 15.5-22.7 36.6-22.5 63.4h160c-.8-28.4-8.7-49.9-23.9-64.7-15.3-14.7-33.9-22.1-55.7-22.1z"/>
    <path d="M2424.6 436.4H75.4C33.8 436.5.1 470.2 0 511.8v1090.3c40.2-154.6 178.2-269.5 307.1-269.5h1874.2c129.7 0 276.9 116.4 318.7 272.4V511.8c-.1-41.6-33.8-75.3-75.4-75.4zM793.8 912.1c0 141.5-63.5 200.7-192.5 203.3-125.9 2.5-171.5-102.5-171.8-215.5h127.8c2.5 51.8-13.9 103 59.1 101.5 45.5-1 52-21.5 52-82.6V579.4h125.4v332.7zm448.7 27.6H969.8c.8 29 9.5 51.6 26.3 67.7 16.8 16.2 37.8 24.3 62.8 24.3 20.3 0 61.7-12.6 69.3-36.6h108.5c-29.7 75.8-106.3 116-179 116-111.4 0-207.3-67.1-207.3-196.8 0-61.4 17.9-109.4 53.5-144.1 35.6-34.7 88.4-52.1 142.9-52.1 126.6-.1 198.4 83.7 195.7 221.6zm439.1.2h-272.7c.8 29 9.5 51.6 26.3 67.7 16.8 16.2 37.8 24.3 62.8 24.3 20.3 0 61.7-12.6 69.3-36.6h108.5c-29.7 75.8-106.3 116-179 116-111.4 0-207.2-67.1-207.2-196.8 0-61.4 17.9-109.4 53.5-144.2 35.6-34.7 88.4-52.1 142.9-52.1 126.5 0 198.2 83.7 195.6 221.7zm285.2 170.9c-46.6 0-82.7-23.9-117.2-58v186.5l-116.2-2V726.4l105.1-2v54.4c29.2-42.7 75.7-66.8 123-66.8 99.3 0 163.2 87 163.2 197.4 0 125.5-56.7 201.4-157.9 201.4z"/>
</svg>
