<svg xmlns="http://www.w3.org/2000/svg" viewBox="0 0 2500 2500" width="20" height="20">
    <path d="M911.4 925c-79.7 0-156.9 25.4-208.9 76.2-52 50.7-78.2 120.9-78.2 210.6 0 189.6 140.2 287.7 303 287.7 106.3 0 218.2-58.8 261.7-169.6h-158.6c-11.1 35.1-71.6 53.5-101.3 53.5-36.5 0-67.2-11.8-91.8-35.5-24.6-23.5-37.3-56.6-38.4-99h398.6c3.9-201.6-101.1-324.1-286.1-323.9zm-119 231.7c-.3-39.2 10.7-70 32.9-92.7 22.2-22.8 50.4-34.2 84.6-34.2 31.9 0 59.1 10.8 81.4 32.3 22.2 21.6 33.8 53.1 34.9 94.6H792.4zm761-231.6c-79.7 0-156.9 25.4-208.9 76.2-52 50.9-78.2 121-78.2 210.8 0 189.6 140 287.7 302.9 287.7 106.3 0 218.2-58.8 261.7-169.6h-158.6c-11.1 35.1-71.6 53.5-101.3 53.5-36.5 0-67.2-11.8-91.8-35.5-24.6-23.5-37.3-56.6-38.4-99h398.6c3.7-201.7-101.1-324.1-286-324.1zm-119.3 231.8c-.4-39.2 10.7-70 32.9-92.7 22.2-22.8 50.4-34.2 84.6-34.2 32 0 59.1 10.8 81.4 32.3 22.2 21.5 33.8 53.1 34.9 94.6h-233.8zm-1075.9 61.4c0 89.3-9.5 119.3-76 120.7-106.7 2.2-82.7-72.7-86.4-148.4H9c.4 165.2 67.1 318.7 251.1 315 188.6-3.8 281.4-90.3 281.4-297.2V722.2H358.2v496.1zM2248.5 916c-69.1 0-137.1 35.2-179.8 97.6v-79.5l-153.6 2.9v746.8l169.9 2.9v-272.6c50.4 49.8 103.2 84.8 171.3 84.8 147.9 0 230.8-111 230.8-294.4 0-161.3-93.4-288.5-238.6-288.5zm26.9 420.6c-26.9 26.8-40.1 37.1-80.5 37.1-80.8 0-113.3-90.5-116.2-175.3-2-62.4 29.1-160.5 113.1-160.5 40.9 0 54.7 13.7 82.3 41.1 27.8 27.5 41.8 69.6 41.8 126.4 0 60.7-13.6 104.6-40.5 131.2z"/>
</svg>
