<svg xmlns="http://www.w3.org/2000/svg" viewBox="0 0 261.9 263.7" width="20" height="20">
    <path d="M220.2 23.5l-.4-2.6-2.4-1.1C205.2 14 172.2.8 128.8.8c-41 0-72.4 11.8-87.6 18.9l-2.4 1.1-.4 2.6c-2.7 17.3-7.5 63.3 5.9 115.2 13.6 52.6 41.3 93.6 82.1 122.1l2.8 2 2.8-2c40.8-28.4 68.5-69.5 82.1-122.1 13.6-51.8 8.8-97.8 6.1-115.1zm-15.6 112.7c-12.7 49-38 87.4-75.3 114.4-37.3-27-62.6-65.5-75.3-114.4-12.4-47.7-8.8-90.1-6.1-108.5 15.1-6.8 43.9-16.8 80.9-16.8 38.8 0 68.8 11 82 16.8 2.6 18.4 6.2 60.8-6.2 108.5z"/>
    <path d="M59.5 48.7l5.9-2.2.8 2.1-8.4 3.2-4.3-11.9 2.4-.9zm36.6-7.4l-2.4.5-2-10.4h-.1l-.3 10.8-2.5.5-4.3-9.9 2 10.4-2.4.4-2.4-12.4 3.8-.7 4.1 9.3.3-10.2 3.8-.7zm56.5-8.2l5.3.5-.7 6.8-1.8-.2-.1-1.6c-.7.7-1.8 1.7-4.1 1.5-3-.3-5.6-2.8-5.1-7.2.4-3.4 2.6-6.5 6.8-6 3.9.4 5.1 3.1 5.1 4.8l-2.6-.3c0-.5-.7-2.2-2.5-2.4-1.9-.2-3.7.9-4.1 4.2-.4 3.4 1.4 4.5 3.2 4.7.6.1 2.5 0 3.3-2.5l-2.9-.3.2-2zm12.5 2.9l-1 5.6-2.6-.5 2.3-12.5 2.6.5-.9 4.7 4.9.9.8-4.7 2.6.4-2.2 12.5-2.6-.4 1-5.6zm13.5 8.6L176 44l3-12.4 2.5.6zm15.5-8.8l2.4.7-3.7 12.1-2.5-.7-2.3-10.2-2.7 8.7-2.3-.8 3.7-12.1 2.6.8 2.3 9.9zm5.4 15.3l-2.5-.9 4.5-11.9 2.5 1zM181.7 130c-2.3-.7-4.9-2.1-8.1-5.5.2-1.5.3-2.5.2-3.4s-.4-1.5-.8-2.4c-.4-.9-.9-1.7-1.2-3-.3-1.3-.5-3.1-.2-6s.2-7.6-1-12.7-3.6-10.6-7.7-15.2c1.1-3.4 1.7-5.8 1.8-7.7.1-1.9-.2-3.3-1-5-.8-1.6-2.8-3-5.8-3.9-3-.9-6.9-1.4-11.4-1.4s-11 .4-16.3.3c-5.3-.1-9.6-.5-9.6-1.9s.7-2 1.7-2.4 2.3-.4 3.3-.5c1.5.6 3.7 1 5.9 1.1 2.2.2 4.6.2 6.4.2 1.9 0 3.6-.6 5.5-1.1 1.8-.5 3.8-1.1 6-1.1-1.9-.6-4.3-1.5-6.8-2.2-2.5-.7-5-1.1-7.1-.6-.8-.7-1.3-1.3-2.2-1.5-.9-.2-2.1-.2-4.1.4-2 .5-3.3.7-4.3.9-1.1.1-1.9.2-3.2.5-1.3.3-3 .5-4.4 1.2-1.4.7-2.5 1.8-2.5 4 0 2.1.8 4 2.9 5.3 2.2 1.3 5.8 2.1 11.5 2 5.8-.1 12.1-.2 17.3 0 5.2.3 9.3 1 10.7 2.6 1.4 1.6 1.8 2.7 1.6 3.6-.2.9-1 1.6-2 2.5-.9 0-2.4.1-4.3 0-1.8-.1-3.9-.5-5.8-1.3-1.9-.9-4.1-1.4-6.4-1.4-2.2 0-4.5.4-6.3 1.5-1.9 1-6.5 3.3-11.2 6.7-4.7 3.5-9.6 8.2-11.8 14.3-2.3 6.1-3.4 9.9-4.1 12.6-.7 2.7-.9 4.1-1.4 5.5-.5 1.4-1.3 2.8-2 4.4-.7 1.6-1.3 3.3-1.2 5.3 0 2-.1 4.4-.4 6.7s-.6 4.5-.9 6.1-.8 3.5-1.2 5.7-.7 4.5-.6 7c0 2.5-.1 5-.5 7.4-.3 2.4-.9 4.6-1.6 6.5-.7 1.9-1 3.5-1.2 5.1-.3 1.5-.6 3-1.4 4.5-.9 1.5-2 3.4-3.2 5.2-1.2 1.8-2.3 3.5-3.2 4.7-.9 1.1-1.3 2.5-1 3.6.3 1.1 1.2 2 3.1 2.2 1.9.2 3.5-.2 4.7-1 1.2-.8 2-1.9 2.2-3.2.2-1.3.2-3 .3-4.8.1-1.8.2-3.6.8-5l.6-1.5.6-1.5c.6-1 1-1.4 1.5-1.7.4-.3.9-.6 1.5-1.3s1.6-2.9 2.4-5.2c.8-2.3 1.5-4.9 1.4-6.7 0-1.8.1-3.2.4-4.3.3-1.2.7-2.1 1.2-3s.8-1.9 1.2-2.7c.5-.8 1.1-1.3 2.2-1.2 1.1.1 1.5.7 1.6 1.4.1.7.1 1.6.5 2.4.4.8.8 1.6 1.3 2.3.5.7 1.2 1.3 2.3 1.7 1 .4 1.8 1.1 2.3 2 .4.9.4 1.9-.2 2.8-.6.9-1.5 2.4-2.2 4-.7 1.6-1.2 3.1-1.2 4.1 0 1 .2 2.5 0 4.1s-.6 3.2-1.9 4.5c-1.2 1.3-2.2 2.6-2.9 3.7-.7 1.1-1 2.1-1 2.7 0 .6.3 1.4.9 2.1.7.7 1.7 1.1 3.4 1.1 1.6 0 2.9-.4 3.8-1 .9-.6 1.5-1.5 1.9-2.6.4-1.1.3-2 .1-2.7-.2-.7-.4-1.3-.4-2.1s.2-1.6.5-2.6c.3-.9.6-1.9.7-2.8.1-.9.3-2 .7-3.2.4-1.2 1-2.5 2-3.9s1.5-2.6 2-3.7.8-2 1.4-2.9c.6-.9.9-1.3 1.1-1.5.2-.1.5.1 1.1.4.6.4.8.7.6 1.2-.1.4-.5 1-.9 1.6s-1.1 1.7-1.9 2.9c-.8 1.1-1.6 2.4-2.1 3.2-.5.9-.8 2-.6 3s.8 1.7 2.2 1.8c1.4.1 2.5.1 3.2-.1.8-.2 1.2-.7 1.3-1.4.1-.8.3-2 .7-3.2.3-1.2.7-2.4 1.2-3.2.5-.8.8-1.5 1-2.1.2-.6.2-1.1.2-1.5.8.7 1.4 1.6 2 2.5.5.9 1 1.8 1.4 2.7.4.9 1.3 1.9 2.9 2.7 1.6.8 3.9 1.3 7 1.2 3.1-.2 4.7-.3 5.6-.6s1.1-.7 1.4-1.5c.4-.8 1.2-2.3 1.6-3.8.4-1.5.4-3.1-1-4 .2-1.3.6-3 1.1-4.6.5-1.6 1.3-3.2 2.3-4.3 1-1 2.4-2.1 3.6-3 1.2-.9 2.3-1.8 2.6-2.4 1.6.9 3.2 1.9 4.3 3.5 1.2 1.6 1.9 3.6 2.1 6.4 0 1.5.2 2.9.5 4.2.2 1.2.5 2.3.6 3 .1.8.1 1.6.2 2.4 0 .9 0 1.7.2 2.6s.7 1.7 1.4 2.2c.7.6 1.6.9 2.4.7.8-.1 1.4-.8 1.9-1.7.5-.9.8-2 .8-2.8 0-.9-.3-1.5-.6-2-.4-.5-.8-.9-1.2-1.2s-.6-.7-.7-1.2 0-1.1.4-2.1.3-1.9 0-2.6c-.3-.7-.7-1.3-1.1-1.7s-.8-1.4-1.2-2.8c-.3-1.4-.5-3.1-.5-4.7s-.1-3.5-.6-5.2c-.5-1.6-1.2-3-2.2-3.6 2.9-.2 6.2-.4 9.1-1.3s5.5-2.4 7-5c-1.3-.3-3.2-.1-5.5-.8zm-9.3 3.1c-2.6-.6-4.8-1.7-5.9-3-.6-.7-1.4-1.4-2.2-1.9-.9-.5-1.8-.9-2.7-1.2-.9-.2-2.3-.8-3.8-1.4-1.5-.6-2.9-1.3-3.8-1.7-.2.4-.6.9-1.2 1.5s-1.4 1.4-2.4 2.2c-.9.8-1.1 1.5-1.1 2 .1.5.5 1 .7 1.4.3.4 1.4 1.3 2.6 2.4 1.2 1 2.5 2 2.9 2.5-1.4 0-2.4-.1-3.6-.5-1.2-.4-2.5-1.1-4.7-2.5s-2.9-2.8-2.9-4.1c0-1.2.6-2.3.9-2.7s1.1-1.1 1.9-1.7c.8-.6 1.6-1.2 1.9-1.5s.6-.6.5-.9c0-.3-.3-.5-.8-.4-3.7.6-6.3 1.6-8 2.7-1.7 1.1-2.4 2.2-2.5 3-.1.8.1 1.5.4 2.2.3.7.9 1.4 1.7 2.1.8.7 1.1 1.7 1 2.6 0 .9-.4 1.7-.8 2.2-.5.5-.7.8-.9 1.1s-.3.9-.6 1.9c-.3 1-.5 2.9-.6 5s-.1 4.2 0 5.7c.5-.8 1.2-1.5 1.9-2s1.5-.8 2-1c.4 3.9.2 6.6-.2 8.6-.3 2-.9 3.3-1.2 4.4-.1.3-.2.5-.4.4-.2 0-.4-.2-.5-.6-.3-.9-.8-2.3-1.4-3.6-.6-1.3-1.3-2.5-2-3.1-1.9-1.9-2.8-2.9-3.2-3.7s-.3-1.4-.3-2.6c-3-1.5-4-3.3-4-5.1 0-1.7.9-3.3 1.7-4.5.8-1.1 1.4-2.5 1.9-3.8.5-1.3.7-2.4.8-3.1.1-.7-.3-2-.8-3.3-.6-1.3-1.3-2.7-2.2-3.7-.2-.1-.7-.2-1.3-.1-.6.1-1.2.4-1.6 1.3-.4.9-1 1.4-1.5 1.6-.6.2-1.2.3-1.8.2-.6-.1-1.4-.1-2.1 0-.7.1-1.4.5-1.9 1.2s-1.1.7-1.8.5c-.6-.2-1.3-.6-1.8-.9-.5-.2-.8-.5-1.2-.7-.4-.2-.9-.3-2-.2-1.1.1-1.5.8-1.8 1.7-.4.8-.7 1.7-1.6 1.9-.9.3-1.6-.2-2-1.2-.4-1-.5-2.4-.5-3.9-.3-1.9.4-4.9 1.3-7.7s2-5.4 2.6-6.7c.5-1.3 1.4-3.7 2.2-6.5.9-2.7 1.7-5.7 2.3-8 .6-2.3 1.9-4 3.6-5.6s3.5-3 5.2-4.7c1.7-1.7 3.7-3.2 5.7-4.3 2-1.1 4-1.8 5.5-1.8s3.1.9 4.4 1.8c1.3 1 2.4 2 2.9 2.6.5.6 1 1.9 1.5 3.3s1 2.9 1.6 3.8c.6.9 1.1 2.2 1.5 3.8.4 1.6.8 3.4 1.1 5.1.3 1.8 1 3 1.7 4s1.5 1.8 2 2.7c.5.9 1.1 3 1.8 5.3s1.6 4.9 2.7 6.6c1.1 1.7 2.8 2.9 4.5 3.6 1.7.8 3.3 1.1 4.1 1.4.8.2 1.4.3 2 .6.6.3 1.3.9 2.3 2.1 1.4 1.6 3.5 3 5.5 4s3.8 1.6 4.6 1.9c-2.3 1.5-5.2 1.5-7.8 1zM72.8 33.5l-2.9.8-.9 13.4 2.7-.8.1-2.8 4.5-1.3 1.5 2.3 2.8-.8-7.8-10.8zm-.9 8.4l.2-5.3L75 41l-3.1.9zm38.7-6.1c-.1-1.2-.7-2.4-2.3-2.8.5-.3 1.5-.9 1.2-2.8-.1-1.3-1.1-3.1-4.2-2.8l-6.1.7 1.4 12.6 5.3-.6c2.6-.3 3.2-.8 3.8-1.6.7-.7 1-1.7.9-2.7zM102 30l3-.3c1.2-.1 2 .1 2.1 1.1.1 1-.7 1.5-1.7 1.6l-3.1.3-.3-2.7zm4.1 7.8l-3.2.4-.4-3.4 3.3-.4c.9-.1 1.9.2 2.1 1.3.2 1.4-.5 2-1.8 2.1zM120.4 26c-1.7.1-6 1-5.8 6.9.2 5.9 4.7 6.5 6.3 6.4 1.7-.1 6-1 5.8-6.9-.2-6-4.7-6.5-6.3-6.4zm.4 11.1c-1.4.1-3.5-.7-3.6-4.3-.1-3.5 1.8-4.5 3.3-4.6 1.4-.1 3.5.7 3.6 4.3.1 3.5-1.9 4.5-3.3 4.6zm20.5-.9c.1-2.4-.5-2.8-1.5-3.3 1.3-.4 2-1.6 2-3 0-1.1-.5-3.6-3.9-3.7l-6.4-.2-.4 12.7 2.6.1.2-5 2.7.1c2 .1 2 .7 2 2.5 0 1.3 0 2 .2 2.6l2.9.1v-.3c-.5-.3-.5-.8-.4-2.6zm-4.2-4.4l-3.1-.1.1-3.4 3.3.1c1.5 0 1.8 1 1.8 1.7-.1 1.3-.8 1.8-2.1 1.7z"/>
</svg>
