<svg xmlns="http://www.w3.org/2000/svg" viewBox="0 0 261.9 263.7" width="20" height="20">
    <path d="M217.4 147.9c-4.4-1.4-9.5-4.1-15.7-10.6.4-2.9.6-4.8.4-6.6-.2-1.7-.8-2.9-1.5-4.6-.8-1.7-1.7-3.3-2.3-5.8s-1-6-.4-11.6.4-14.7-1.9-24.5c-2.3-9.9-7-20.5-14.9-29.4 2.1-6.6 3.3-11.2 3.5-14.9.2-3.7-.4-6.4-1.9-9.7-1.5-3.1-5.4-5.8-11.2-7.5-5.8-1.7-13.3-2.7-22-2.7s-21.3.8-31.5.6-18.6-1-18.6-3.7 1.4-3.9 3.3-4.6 4.4-.8 6.4-1c2.9 1.2 7.2 1.9 11.4 2.1 4.3.4 8.9.4 12.4.4 3.7 0 7-1.2 10.6-2.1 3.5-1 7.3-2.1 11.6-2.1-3.7-1.2-8.3-2.9-13.1-4.3-4.8-1.4-9.7-2.1-13.7-1.2-1.5-1.4-2.5-2.5-4.3-2.9-1.7-.4-4.1-.4-7.9.8-3.9 1-6.4 1.4-8.3 1.7-2.1.2-3.7.4-6.2 1s-5.8 1-8.5 2.3c-2.7 1.4-4.8 3.5-4.8 7.7 0 4.1 1.5 7.7 5.6 10.2 4.3 2.5 11.2 4.1 22.2 3.9 11.2-.2 23.4-.4 33.4 0 10.1.6 18 1.9 20.7 5 2.7 3.1 3.5 5.2 3.1 7s-1.9 3.1-3.9 4.8c-1.7 0-4.6.2-8.3 0-3.5-.2-7.5-1-11.2-2.5-3.7-1.7-7.9-2.7-12.4-2.7-4.3 0-8.7.8-12.2 2.9-3.7 1.9-12.6 6.4-21.6 12.9-9.3 6.9-18.7 16-23 27.8-4.4 11.8-6.6 19.1-7.9 24.4-1.4 5.2-1.7 7.9-2.7 10.6s-2.5 5.4-3.9 8.5c-1.4 3.1-2.5 6.4-2.3 10.2 0 3.9-.2 8.5-.8 12.9-.6 4.4-1.2 8.7-1.7 11.8-.6 3.1-1.5 6.8-2.3 11-.8 4.3-1.4 8.7-1.2 13.5 0 4.8-.2 9.7-1 14.3-.6 4.6-1.7 8.9-3.1 12.6-1.4 3.7-1.9 6.8-2.3 9.9-.6 2.9-1.2 5.8-2.7 8.7-1.7 2.9-3.9 6.6-6.2 10.1s-4.4 6.8-6.2 9.1c-1.7 2.1-2.5 4.8-1.9 7s2.3 3.9 6 4.3c3.7.4 6.8-.4 9.1-1.9s3.9-3.7 4.3-6.2c.4-2.5.4-5.8.6-9.3.2-3.5.4-7 1.5-9.7l1.2-2.9 1.2-2.9c1.2-1.9 1.9-2.7 2.9-3.3.8-.6 1.7-1.2 2.9-2.5 1.2-1.4 3.1-5.6 4.6-10.1 1.5-4.4 2.9-9.5 2.7-12.9 0-3.5.2-6.2.8-8.3.6-2.3 1.4-4.1 2.3-5.8 1-1.7 1.5-3.7 2.3-5.2 1-1.5 2.1-2.5 4.3-2.3 2.1.2 2.9 1.4 3.1 2.7s.2 3.1 1 4.6c.8 1.5 1.5 3.1 2.5 4.4 1 1.4 2.3 2.5 4.4 3.3 1.9.8 3.5 2.1 4.4 3.9.8 1.7.8 3.7-.4 5.4-1.2 1.7-2.9 4.6-4.3 7.7-1.4 3.1-2.3 6-2.3 7.9s.4 4.8 0 7.9c-.4 3.1-1.2 6.2-3.7 8.7-2.3 2.5-4.3 5-5.6 7.2-1.4 2.1-1.9 4.1-1.9 5.2 0 1.2.6 2.7 1.7 4.1 1.4 1.4 3.3 2.1 6.6 2.1 3.1 0 5.6-.8 7.3-1.9 1.7-1.2 2.9-2.9 3.7-5 .8-2.1.6-3.9.2-5.2-.4-1.4-.8-2.5-.8-4.1 0-1.5.4-3.1 1-5 .6-1.7 1.2-3.7 1.4-5.4.2-1.7.6-3.9 1.4-6.2.8-2.3 1.9-4.8 3.9-7.5 1.9-2.7 2.9-5 3.9-7.2 1-2.1 1.5-3.9 2.7-5.6 1.2-1.7 1.7-2.5 2.1-2.9.4-.2 1 .2 2.1.8 1.2.8 1.5 1.4 1.2 2.3-.2.8-1 1.9-1.7 3.1-.8 1.2-2.1 3.3-3.7 5.6-1.5 2.1-3.1 4.6-4.1 6.2-1 1.7-1.5 3.9-1.2 5.8.4 1.9 1.5 3.3 4.3 3.5 2.7.2 4.8.2 6.2-.2 1.5-.4 2.3-1.4 2.5-2.7.2-1.5.6-3.9 1.4-6.2.6-2.3 1.4-4.6 2.3-6.2s1.5-2.9 1.9-4.1c.4-1.2.4-2.1.4-2.9 1.5 1.4 2.7 3.1 3.9 4.8 1 1.7 1.9 3.5 2.7 5.2.8 1.7 2.5 3.7 5.6 5.2 3.1 1.5 7.5 2.5 13.5 2.3 6-.4 9.1-.6 10.8-1.2 1.7-.6 2.1-1.4 2.7-2.9.8-1.5 2.3-4.4 3.1-7.3.8-2.9.8-6-1.9-7.7.4-2.5 1.2-5.8 2.1-8.9 1-3.1 2.5-6.2 4.4-8.3 1.9-1.9 4.6-4.1 7-5.8 2.3-1.7 4.4-3.5 5-4.6 3.1 1.7 6.2 3.7 8.3 6.8 2.3 3.1 3.7 7 4.1 12.4 0 2.9.4 5.6 1 8.1.4 2.3 1 4.4 1.2 5.8.2 1.5.2 3.1.4 4.6 0 1.7 0 3.3.4 5 .4 1.7 1.4 3.3 2.7 4.3 1.4 1.2 3.1 1.7 4.6 1.4 1.5-.2 2.7-1.5 3.7-3.3 1-1.7 1.5-3.9 1.5-5.4 0-1.7-.6-2.9-1.2-3.9-.8-1-1.5-1.7-2.3-2.3-.8-.6-1.2-1.4-1.4-2.3s0-2.1.8-4.1c.8-1.9.6-3.7 0-5-.6-1.4-1.4-2.5-2.1-3.3-.8-.8-1.5-2.7-2.3-5.4-.6-2.7-1-6-1-9.1 0-3.1-.2-6.8-1.2-10.1-1-3.1-2.3-5.8-4.3-7 5.6-.4 12-.8 17.6-2.5 5.6-1.7 10.6-4.6 13.5-9.7-2.5-.6-6.2-.2-10.6-1.6zm-18 6c-5-1.2-9.3-3.3-11.4-5.8-1.2-1.4-2.7-2.7-4.3-3.7-1.7-1-3.5-1.7-5.2-2.3-1.7-.4-4.4-1.5-7.3-2.7s-5.6-2.5-7.3-3.3c-.4.8-1.2 1.7-2.3 2.9-1.2 1.2-2.7 2.7-4.6 4.3-1.7 1.5-2.1 2.9-2.1 3.9.2 1 1 1.9 1.4 2.7.6.8 2.7 2.5 5 4.6 2.3 1.9 4.8 3.9 5.6 4.8-2.7 0-4.6-.2-7-1-2.3-.8-4.8-2.1-9.1-4.8-4.3-2.7-5.6-5.4-5.6-7.9 0-2.3 1.2-4.4 1.7-5.2.6-.8 2.1-2.1 3.7-3.3 1.5-1.2 3.1-2.3 3.7-2.9.6-.6 1.2-1.2 1-1.7 0-.6-.6-1-1.5-.8-7.2 1.2-12.2 3.1-15.5 5.2-3.3 2.1-4.6 4.3-4.8 5.8-.2 1.5.2 2.9.8 4.3.6 1.4 1.7 2.7 3.3 4.1 1.5 1.4 2.1 3.3 1.9 5 0 1.7-.8 3.3-1.5 4.3-1 1-1.4 1.5-1.7 2.1-.4.6-.6 1.7-1.2 3.7s-1 5.6-1.2 9.7c-.2 4.1-.2 8.1 0 11 1-1.5 2.3-2.9 3.7-3.9s2.9-1.5 3.9-1.9c.8 7.5.4 12.8-.4 16.6-.6 3.9-1.7 6.4-2.3 8.5-.2.6-.4 1-.8.8-.4 0-.8-.4-1-1.2-.6-1.7-1.5-4.4-2.7-7-1.2-2.5-2.5-4.8-3.9-6-3.7-3.7-5.4-5.6-6.2-7.2s-.6-2.7-.6-5c-5.8-2.9-7.7-6.4-7.7-9.9 0-3.3 1.7-6.4 3.3-8.7 1.5-2.1 2.7-4.8 3.7-7.3s1.4-4.6 1.5-6c.2-1.4-.6-3.9-1.5-6.4-1.2-2.5-2.5-5.2-4.3-7.2-.4-.2-1.4-.4-2.5-.2-1.2.2-2.3.8-3.1 2.5-.8 1.7-1.9 2.7-2.9 3.1-1.2.4-2.3.6-3.5.4-1.2-.2-2.7-.2-4.1 0-1.4.2-2.7 1-3.7 2.3-1 1.4-2.1 1.4-3.5 1-1.2-.4-2.5-1.2-3.5-1.7-1-.4-1.5-1-2.3-1.4-.8-.4-1.7-.6-3.9-.4-2.1.2-2.9 1.5-3.5 3.3-.8 1.5-1.4 3.3-3.1 3.7-1.7.6-3.1-.4-3.9-2.3s-1-4.6-1-7.5c-.6-3.7.8-9.5 2.5-14.9s3.9-10.4 5-12.9c1-2.5 2.7-7.2 4.3-12.6 1.7-5.2 3.3-11 4.4-15.5 1.2-4.4 3.7-7.7 7-10.8 3.3-3.1 6.8-5.8 10.1-9.1s7.2-6.2 11-8.3c3.9-2.1 7.7-3.5 10.6-3.5 2.9 0 6 1.7 8.5 3.5 2.5 1.9 4.6 3.9 5.6 5 1 1.2 1.9 3.7 2.9 6.4s1.9 5.6 3.1 7.3c1.2 1.7 2.1 4.3 2.9 7.3.8 3.1 1.5 6.6 2.1 9.9.6 3.5 1.9 5.8 3.3 7.7s2.9 3.5 3.9 5.2c1 1.7 2.1 5.8 3.5 10.2 1.4 4.4 3.1 9.5 5.2 12.8 2.1 3.3 5.4 5.6 8.7 7 3.3 1.5 6.4 2.1 7.9 2.7 1.5.4 2.7.6 3.9 1.2 1.2.6 2.5 1.7 4.4 4.1 2.7 3.1 6.8 5.8 10.6 7.7s7.3 3.1 8.9 3.7c-4.4 2.9-10 2.9-15 1.9z"/>
</svg>
