<svg xmlns="http://www.w3.org/2000/svg" viewBox="0 0 100 100" width="20" height="20">
    <path d="M50 23.3C22.5 23.3.2 34.4.2 48.1S22.5 72.9 50 72.9s49.8-11.1 49.8-24.8S77.5 23.3 50 23.3zm0 47.5c-26.3 0-47.5-10.1-47.5-22.7S23.7 25.4 50 25.4s47.5 10.2 47.5 22.7S76.3 70.8 50 70.8z"/>
    <path d="M50 26.3c-25.8 0-46.7 9.8-46.7 21.8S24.2 69.9 50 69.9s46.7-9.8 46.7-21.8S75.8 26.3 50 26.3zm19.8 16.8l4.8-2.1h-4.2l1.1-3.1h8.1l-1 3.1-9.1 3.1.3-1zm-6.6-10c1.1 0 2.3.3 3.3.8.9.6 1.6 1.6 1.7 2.7.1 1.5-.1 3-.7 4.4-.6 1.4-1.6 2.6-2.8 3.5-1.1.8-2.4 1.2-3.8 1.2h-5.8L59 34.3c.1-.4.1-.8 0-1.3l4.2.1zm-16.6 1.3c.2-.4.2-.9 0-1.3h3.8l1.1 5.7 2-5.7h3.6l-4.6 12.6H49l-1-5.5-2.2 5.5h-3.2l4-11.3zm-9.3-1.3h3.9l.7 12.6h-3.6l-.2-1.6h-3.6l-1.2 1.6h-3.6l7.4-11.4c.2-.3.3-.8.2-1.2zm-12.2 1.3c.1-.4.1-.9 0-1.3h4.3l-3.3 9.8h3.7l-1.2 2.9h-7.5l4-11.4zm-.5 18.3l-1.2 3.1h-8.2l1.2-3.1 9.1-3.1-.4 1-4.8 2 4.3.1zm13.4.6c-.3.8-.8 1.4-1.5 1.9-.6.5-1.4.8-2.2.9l2.5 4.7h-3.7l-2.4-4.5-1.6 4.5h-3.7l4.1-11.4c.2-.4.2-.9 0-1.3h5.1c.8 0 1.6.2 2.4.6.5.2.9.6 1.2 1.1.4 1.2.4 2.5-.2 3.5zm11.1 4.8c-.8 1-1.8 1.8-3 2.4-1.1.5-2.3.6-3.5.5-1.8-.4-3.2-1.8-3.6-3.6-.3-1.3-.3-2.6.1-3.8.8-2.5 2.7-4.5 5.1-5.4 1.5-.5 3.1-.2 4.4.6 1 .7 1.7 1.7 1.9 2.9.6 2.2.1 4.6-1.4 6.4zm3 2.8l-.2-11.4c0-.4-.1-.9-.3-1.3h3.9V55l4.6-6.8h4.2L54.9 61l-2.8-.1zm16.6 0h-8l3.9-11.1c.2-.5.2-1.1 0-1.6h8.5l-.9 2.8H68l-.7 2.2h3.2l-1 2.8h-3.1c-.3.7-.5 1.4-.7 2.2h4.2l-1.2 2.7zM83 53.3c-.3.8-.8 1.5-1.5 1.9-.6.5-1.4.8-2.2.9l2.5 4.7h-3.7l-2.4-4.5-1.6 4.5h-3.7l4.1-11.4c.2-.4.2-.9 0-1.3h5.1c.8 0 1.6.2 2.3.6.5.2.9.6 1.2 1.1.4 1.2.4 2.4-.1 3.5z"/>
    <path d="M61.5 42.6c.4-.2.7-.4 1-.7.5-.5.9-1.1 1.1-1.8.5-1.3 1.2-3.8-.4-3.8h-.9L60 42.8h.9c.2 0 .4-.1.6-.2zm16.9 8.7h-.8l-.7 2.1h1c1.3 0 2.6-2.1.5-2.1zm-45 0h-.8l-.7 2.1h1c1.5 0 2.6-2.1.5-2.1zm4.7-10l-.2-2.7-1.6 2.7zm6 10.6c-.8.9-1.3 2.1-1.4 3.3-.1.7 0 1.4.2 2 .3.7 1.2 1 1.9.6.2-.1.4-.2.5-.4 1.2-1.3 1.8-3.1 1.5-4.9-.1-.8-.9-1.4-1.7-1.2-.5.1-.8.3-1 .6z"/>
</svg>
