<svg xmlns="http://www.w3.org/2000/svg" viewBox="0 0 294.6 296.1" width="20" height="20">
    <path d="M174.5 139.2v-2.9 2.9zm0-3.2v-.9.9zm0-1.6v-.5.5zm-55.9 3.4zm-.1-4.3zm.1 22.1zm-.1 4.5zm56-3.3zm0 3.3zm0 1.5zm11.7-20.2c-.4-54.2-5.3-115.2-13.5-134.3L146.5.7l-26.2 6.4c-8.2 19.1-13.1 80-13.5 134.2l-11.4.9v11.5l11.4.9c.4 54.2 5.3 115.2 13.5 134.2l26.2 6.4 26.2-6.4c8.2-19.1 13.1-80 13.5-134.3l11.1-.9v-11.5l-11.1-.7zm-57.8 132.1c-7.4-31.8-8.9-84.3-9.5-118.3l18.6 1.4 3.3 116.9h-12.4zm9.1-134l-18.6 1.4c.6-34 2.1-86.5 9.5-118.3h12.3l-3.2 116.9zm27.1 134H152l3.3-116.9 18.8-1.4c-.6 34-2 86.5-9.5 118.3zm-9.3-134L152 22.6h12.6c7.4 31.8 8.9 84.3 9.5 118.3l-18.8-1.4z"/>
</svg>
