<svg xmlns="http://www.w3.org/2000/svg" viewBox="0 0 180.1 180.1" width="20" height="20">
    <path d="M101.9 55.2c0-4-3.2-4.3-3.2-4.3h-8.1V53l4.6.1s1.3-1.4 2.7.3c1.4 1.6 1.6 2.4 1.6 2.4s.2 3-2.5.4c-2.9-2.5-6.3-1.4-6.3-1.4v5.3h8.1c-.1.1 3.1-.6 3.1-4.9zm-33.4 46.6c-.6-.7-1.6-1.4-2.8-1.8-2-.5-3.9 0-5.7 1.6s-3.3 4.1-4.3 7.5c-.5 1.4-1 3-1.2 4.1-.2 1.4-.2 2.7-.1 3.7.1 1.1.5 2.1 1.2 2.9.5.7 1.4 1.3 2.5 1.6 1.2.4 2.2.4 3.3 0 .8-.2 1.7-.7 2.4-1.6.8-1 1.6-1.9 2.4-3.2.6-1.2 1.3-2.5 1.9-4.1.4-1.3.7-2.7 1.2-3.9.2-1.4.2-2.7.1-3.8-.1-1.2-.4-2.2-.9-3zm13.9-44.1C81 59.3 81 60.2 81 60.2h4.1v-4.3c0-.1-1.7.2-2.7 1.8zm-2.5-1.9c2.5-1.8 5.3-2.5 5.3-2.5s.6-2.3-1.2-2.1c-1.8.1-3.4.2-3.4.2s-1 0-1.6 1.4c-.8 1.4-4.3 7.6-4.3 7.6l1.8.1s1-2.8 3.4-4.7zM90.8 64l.2 9.9s3.7.7 6.5-1.6 2.1-2 2.1-2 .4-.4 1.3.2c1 .7-.4 2.5-.4 2.5s-1 1.5-3.5 3c-2.7 1.3-5.5 1.5-5.5 1.5l-.1 1.4s1.8 1 4.6 1c2.7-.1 3.4-.4 3.4-.4s5.3-1.6 5.3-7.8c0-6.2-6.2-7.5-6.2-7.5h-7.7z"/>
    <path d="M90 .8C40.9.8.8 40.9.8 90.1c0 49.1 40.1 89.2 89.2 89.2 49.2 0 89.3-40.1 89.3-89.2C179.3 40.9 139.2.8 90 .8zm1.1 143.4c-54.5 1.2-77.4-28.3-77.4-28.3s-10.8-17.4.4-30.5c11.2-12.9 49.5-55.3 49.5-55.3S74 17.8 88.9 17.4c15.2-.4 24.1 8.9 24.1 8.9l52.4 57.4s9 10.7 5 22.3c-3.9 11.5-24.8 37.2-79.3 38.2z"/>
    <path d="M111 31s-7.7-9-21.7-8.6c-13.9.2-23 12.5-23 12.5S30.2 75.7 19.9 87.6s0 25.6 0 25.6 21.1 26.4 71.3 25.5c50.1-1.2 70.1-23.8 73.6-34.4 3.7-10.4-6.2-19.7-5.9-19.6L111 31zM53.4 80.6s4.3-.1 5.7-2.4c1.4-2.1 3.5-5.4 3.5-5.4s-1.3-7.2-1-10.3c.2-3 2.5-19.1 15-24.4 12.5-5.2 24.9-1 24.9-1s2.2 1.3 3.9 0c1.6-1.3 2.2-2.5 3.5-.1 1.1 2.4 3.6 6.4 3.6 6.4s1.2 3.5-3.9.6c-5.2-3-13.5-4.7-13.5-4.7l-4-.2s-8.9-1.4-15.7 5.7c-6.6 6.9-6 16.2-6 16.2l5.9-8.5s.7-.5.4-1.6c-.4-1-.4-1.3-.4-1.3V48l25.7-.2s6.9-.3 6.9 6.8-4.8 7.5-4.8 7.5 7.4 1.6 7.4 9.8c0 8.4-8.8 10.6-8.8 10.6l-19.3-.2s-1.6-1.3.1-2c1.8-.6 2.7-1 2.7-1.9v-1s-4.1-.4-7.1-4.1c-2.9-3.5-2.2-9.3-2.2-9.3l-3.8-.1-2.4 3.7s1.2 9.1 5.6 13.2c4.3 4.1 7.4 7.8 17.9 7.3 10.5-.4 18.2-5.8 18.2-5.8l2-1.8s.7-1.6 2.3-.6c1.5.7-1.6 3.9-1.6 3.9s-6.4 8.6-22.7 9.5c-15.7.9-26.8-14.8-26.9-16.6-.5.8-2 3.1-.7 3.8 1.8 1 .8 2.4.8 2.4l-11.7.1s-.7.4-.7-1.2c-.1-1.3 1.2-1.2 1.2-1.2zm-22.6 25.7c.1.4.4.7 1 1.3.5.4 1.2.8 2.1 1.6.8.6 1.8 1.3 2.8 1.8.8.4 1.6.7 2.2.6 1 0 1.9-.4 3.3-.8 1.3-.5 2.2-1 3.2-1.6l1.3.8-5.1 6.7-22.4-16.1.8-1.1c.4.2 1 .4 1.4.8.7.2 1.1.5 1.3.5.4.1.8.1 1.3 0 .3-.1.6-.4 1-.7l10-15.4c.3-.4.4-.6.5-1 0-.4-.1-.7-.5-1.3-.2-.4-.6-1-1-1.3-.4-.4-.8-.7-1.2-1l.7-1.3 13.4 9.7-.9 1.3c-.4-.1-.7-.4-1.4-.7-.5-.2-1-.4-1.4-.6-.5-.2-1-.2-1.3-.1-.4.2-.6.4-.8.8l-9.4 14.2c-.4.6-.7 1.3-.8 1.6-.2.5-.2.9-.1 1.3zm44.1 7.9c-.6 1.8-1.5 3.3-2.7 4.7-1.2 1.3-2.4 2.4-3.9 3.2-1.6 1-3.3 1.4-5.2 1.7-1.8.1-3.8 0-5.9-.7-1.8-.4-3.5-1.3-4.7-2.2-1.4-1-2.5-2.1-3.3-3.5-.8-1.4-1.4-3-1.5-4.6-.1-1.6.1-3.4.7-5.3.7-1.9 1.6-3.5 2.9-4.8 1.3-1.4 2.7-2.5 4.1-3.3 1.7-.7 3.3-1.2 5.2-1.4 1.8-.1 3.5.1 5.4.6 1.8.5 3.4 1.3 4.9 2.3 1.5 1 2.4 2.1 3.3 3.3.7 1.4 1.3 3 1.4 4.7.3 1.6 0 3.4-.7 5.3zm23.8-6.4c-.2-1.2-.8-2.3-1.6-3.4-.7-1.3-1.4-1.9-2-1.9-.4-.1-.7-.1-1.3-.1h-2.1l.4 19.6c0 .4 0 .7.1 1 .2.4.4.6.8.7.3.1.7.2 1.2.4.5 0 1 .1 1.4.1v1.4l-12.8.2v-1.4c.3 0 .7-.1 1.3-.1.6-.1 1-.1 1.2-.2.4-.3.7-.5.8-.7.1-.4.1-.7.1-1.2l-.3-19.7h-2.1c-.5.1-1 .1-1.3.1-.6.1-1.3.8-2 2-.6 1.3-1.2 2.4-1.6 3.5h-1.3l-.1-7.2 22.3-.4.2 7.3h-1.3zm28.3-7.4l2.4 8.7c.6 2.7.2 5-1.2 6.9-1.6 2.1-3.7 3.7-6.7 4.6-3.5 1-6.6 1-8.9 0-2.4-.8-3.9-2.8-4.6-5.4l-3.2-12c-.1-.5-.4-.7-.4-1-.3-.3-.7-.4-1.2-.5h-1.3c-.3 0-.7.1-1.1.1l-.3-1.3 13-3.6.3 1.3c-.3.1-.7.3-1.1.4-.3.2-.7.4-1.1.6-.4.3-.6.7-.7 1 0 .4 0 .7.1 1.2l3 11.9c.6 2.2 1.6 3.9 3 4.6 1.4.7 3.1.8 5.2.2 2-.4 3.4-1.6 4.2-3 1-1.6 1-3.5.4-5.7l-2.1-8c-.4-1.4-.7-2.4-1.1-3.1-.4-.6-.7-1.2-1.3-1.3-.4-.2-1-.2-1.8-.2s-1.4 0-1.8.1l-.2-1.3 10.7-3.2.3 1.2c-.4.1-.8.4-1.4.7-.6.2-1.1.6-1.5 1-.4.4-.5 1-.5 1.8s.5 1.9.9 3.3zm29.3 1.1c-.6 1.2-1.5 2.2-2.4 3.3-.8 1.1-2.2 2-3.9 3.1-1.6.8-3 1.6-4.6 1.9-1.6.4-2.8.7-3.9.8l-.6 1.6-1.6 1-4.2-7.5 1.5-.8c.7.6 1.7 1.1 2.5 1.5 1 .5 1.9 1 3 1.2 1.1.2 2.1.4 3.2.2 1.2-.1 2.3-.4 3.5-1.2 1.6-1 2.7-2 3.2-3.2.4-1.1.4-2.1 0-3.2-.4-.7-1.2-1.3-2.1-1.4-1-.1-2.4 0-4.1.4-1.2.4-2.1.7-3.1 1-1 .2-1.8.4-2.8.6-1.8.4-3.5.4-5-.2-1.4-.5-2.4-1.6-3.2-2.8-.4-1-.6-1.8-.6-2.8.1-1 .4-1.9 1-3.1.3-1 1.1-2 2.1-3 1.1-1.2 2.3-2 3.7-2.8 1.4-1 2.8-1.4 4.1-1.8 1.4-.4 2.5-.6 3.4-.6l.5-1.6 1.6-1 3.9 7-1.6.8c-.7-.4-1.6-1-2.4-1.6-1-.5-1.8-1-2.5-1.2-1-.2-1.8-.2-2.8-.1-1 0-1.9.4-3 1.1-1.3.6-2.1 1.5-2.7 2.7-.4 1-.4 2 0 3 .4.7 1.1 1.3 2.1 1.4 1 .1 2.2 0 4-.4 1-.2 2-.5 3-1 1-.2 1.9-.4 2.8-.6 2.1-.4 3.7-.4 5.1 0 1.4.5 2.5 1.6 3.3 3 .4.8.6 1.8.6 3-.2 1.1-.5 2.3-1 3.3z"/>
</svg>
