<svg xmlns="http://www.w3.org/2000/svg" viewBox="0 0 989.6 989.6" width="20" height="20">
    <path d="M482.78 129.59c-70.38 24-149.03 80.47-242 173.64C196.01 348 146.4 405.88 109.09 457.1 74.8 503.69 33.26 582.74 17.12 631.75 2.4 675.51.78 706.16 11.88 726.53c7.26 13.11 12.3 17.34 36.91 31.06C123 799.13 243 836.85 347.66 851.57c55.06 7.66 78.45 9.28 147.22 9.28s92.16-1.61 147.22-9.28c97.41-13.71 201.47-44.97 280.32-84.3 33.48-16.74 45.58-24.81 52.43-35.9 8.67-13.71 10.69-22.99 9.48-44.97-1.82-32.06-15.13-72.6-41.75-125.24-19.16-38.52-60.91-106.68-71.39-117.37-1.81-1.82-3.02-4.03-2.82-5.04.81-2.22-34.49-47.39-60.7-77.84-24.4-28.44-82.88-86.92-113.14-113.34-63.73-55.66-122.82-95.39-166.98-112.13-16.34-6.05-36.3-8.67-44.77-5.85zm43.56 38.32c36.3 17.95 143.79 96.4 186.34 135.92 78.05 72.4 150.24 172.43 206.71 286.77 45.78 92.77 49.61 117.57 20.77 136.53-39.53 26.22-122.61 57.07-216.39 80.26-81.88 20.37-136.13 27.02-222.84 27.02-64.74.2-88.94-1.41-143.99-9.88-108.3-16.74-256.52-65.54-302.91-99.83-24.6-17.95-20.17-43.56 23.39-132.09 40.74-82.68 91.96-161.74 145.4-223.85 20.97-24.81 74.01-77.24 95.59-94.99 55.06-45.17 133.1-98.01 163.96-111.12 14.93-6.24 22.79-5.23 43.97 5.26z"/>
    <path d="M341.21 370.59l-.6 105.67-19.36-10.69c-10.49-6.05-40.54-24-66.55-39.93-30.05-18.55-47.79-28.23-48.6-26.82-.81 1.21-1.61 87.12-1.61 190.98v188.76l16.74 6.25c9.08 3.43 17.95 6.45 19.56 6.86 2.62.6 3.23-18.55 4.03-159.12l1.01-159.72 42.75 23.8c23.59 13.11 44.97 25.41 47.79 27.23l5.24 3.23v287.78l11.7 2.22c6.25 1.21 15.73 2.82 20.97 3.63l9.68 1.21.4-134.11.6-134.11 56.06 34.08 55.86 33.88 56.06-34.08 55.86-33.88.6 133.91c.4 108.7 1.01 133.91 3.02 133.91 1.41 0 8.07-1.01 14.72-2.02 6.45-1.21 14.92-2.62 18.55-3.23l6.45-1.01V671.48c0-112.73.6-144.4 2.62-146.01 1.21-1.01 22.79-13.51 47.8-27.43l45.38-25.21 1.01 159.72c.81 140.56 1.41 159.72 4.03 159.12 1.61-.4 10.49-3.43 19.76-6.86l16.54-6.25V589.8c0-103.86-.81-189.77-1.61-190.98-.81-1.41-18.55 8.27-48.6 26.82-26.01 15.93-56.06 33.88-66.55 39.93l-19.36 10.69-.6-105.67c-.4-89.14-.81-105.67-3.23-105.67-1.61 0-36.5 19.56-77.64 43.36l-74.82 43.56-74.82-43.56c-41.14-23.8-76.03-43.36-77.64-43.36-2.4-.01-2.8 16.13-3.2 105.67zm99.82-3.03c29.85 16.74 55.06 30.45 56.06 30.45.81 0 26.42-13.91 56.67-31.06l55.06-31.06.6 82.89c.4 64.74-.2 83.49-2.02 85.31-1.41 1.21-26.82 16.94-56.47 34.89l-54.04 32.87-55.86-34.28-56.06-34.08-.6-84.09c-.2-46.38.2-83.69 1.01-83.29 1 .6 26.01 14.71 55.65 31.45z"/>
</svg>
