<svg xmlns="http://www.w3.org/2000/svg" viewBox="0 0 182.6 182.6" width="20" height="20">
    <path d="M37.3 135.3c-4.9-3-6.5-6.9-14-9.9-7.4-9.7-10.3-21.9-10.3-34 0-8.9 1.5-17.7 4-25.7l7.5 14.9c-.4 3.3-.6 6.9-.6 10.8 0 49.5 32.8 59.5 67.5 59.4 34.6.1 67.5-9.9 67.5-59.4 0-5.1-.3-9.7-1-14l5.4-11c2.8 7 4.4 16 4.2 25.1-.3 14.6-5 29.4-16 36.4l-1.8 2.6-1.9 2.4-2 2.2-2.1 2.1-2.3 1.9-2.4 1.8-2.5 1.6-2.6 1.5-2.7 1.3-2.7 1.2-2.8 1-2.9.9-2.9.8-3 .7-3.1.6-3.1.5-3.1.4-3.2.3-3.2.2-3.2.2-3.3.1H88l-3.3-.1-3.2-.2-3.2-.2-3.2-.3-3.1-.4-3.1-.5-3.1-.6-3-.7-2.9-.8-2.9-.9-2.8-1-2.7-1.2-2.7-1.3-2.6-1.5-2.5-1.6-2.4-1.8-2.3-1.9-1.7-1.9zm127.3-92.4c-18.2-19.8-48.3-24-73.3-24-25.6 0-56.4 4.4-74.5 25.3l.3.3.5.4.2.2c3.9 3.8 8.2 7.8 12.6 10.1.7.3 1.5.4 2.3.1C44.8 36.6 67.6 32 91.3 32c23.3-.1 45.7 4.4 58 22.5l14.5-11 .8-.6zm-8.7 3.8c-19.4-17-40-21.2-64.6-21-24.9-.2-46.6 4.3-65.8 22.4L18.8 44l1.9-2 2.8-2.6 2.9-2.4 3-2.2 3.2-2 3.3-1.8 3.4-1.6 3.5-1.5 3.6-1.3 3.6-1.2 3.7-1 3.7-.9 3.8-.8L65 22l3.8-.5 3.8-.4 3.8-.3 3.8-.3 3.8-.2 3.7-.1h7.2l3.7.1 3.8.2 3.8.3 3.8.3 3.8.4 3.8.5 3.8.7 3.8.8 3.7.9 3.7 1 3.6 1.2 3.6 1.3 3.5 1.5 3.4 1.6 3.3 2 3.2 2 3 2.2 2.9 2.4 2.8 2.6.6.6-6.6 3.9z"/>
    <path d="M91.1 122.1c-8.3-17.8-17.4-25.8-31.2-31.6L25.3 78.8l-4.8-13.2c8.5 6.5 21.1 11 33 15.6 18.5 7.1 28.5 16 37.6 34.4v6.5zm0 0c8.3-17.8 17.4-27 31.2-32.7l34.3-12.2 4.8-12.8c-8.5 6.5-22 11.5-34 16.1-18.5 7.1-27.2 16.8-36.2 35.1l-.1 6.5z"/>
    <path d="M166.6 45.2l-1 1c-.2 5.5-1.1 11.1-1.9 16.4 3.9 8.3 5.7 18.3 6 28.8.6 31-15.2 63.6-78.4 65.7-39.7-.3-64.7-12.6-74.9-38.1-6.8-4.3-10-12.2-13.2-19.9L3.1 97 3 91.4l.1-5.6.4-5.3.7-5 1-4.7 1.2-4.5 1.4-4.2 1.7-3.9 1.9-3.7 2.1-3.4 1.9-2.7c.7 5.3 1.6 12.2 3.3 13.6 20.1 16.9 55.5 14.7 72.5 48.7 18.5-37.7 51.1-32.9 71.2-49.8l1.9-16.2C140.9 70 109 61.4 91.2 99.3 71.9 62 40.5 71.2 17 46.2l-1-1C7.1 55.9 1.5 70.8 1.5 91.4c0 62.4 50.9 72.5 89.7 72.5 38.8 0 89.7-10.1 89.7-72.5.1-20.6-5.4-35.5-14.3-46.2zm-49.9 27.9l2.2-1.2 2.4-1.2 4.8-2.2c4.1-1.8 8.3-3.5 12.4-5.2l5-2.3 2.5-1.2 2.5-1.3L151 57l2.5-1.5 2.4-1.7 2.4-1.8 2.4-2 1.7-1.6L161 60l-1.4 1.1-1.9 1.4-2 1.3-2.1 1.2-2.1 1.1-2.2 1-2.2 1-2.3.9c-4.7 1.9-9.5 3.6-14.3 5.5l-4.9 2-2.5 1.1-2.5 1.2-2.4 1.3-2.4 1.4-2.4 1.5-2.4 1.6-2.4 1.7-1.5 1.3c1.1-5 4-9.7 9.6-14.5zm-13.8 10.8l.6-.6 2.1-2 2.1-1.9 2.2-1.7.3-.2c-2.8 4.1-4.5 8-5.1 11.9l-1 .9-2.2 2.2-1.7 1.9c-.2-3.4.7-6.8 2.7-10.5zM18.3 49.5l2.3 2.1 2.4 1.9 2.4 1.8 2.4 1.6 2.4 1.5 2.5 1.4 2.5 1.3 2.5 1.2 5 2.2c4.1 1.7 8.3 3.3 12.4 5l4.9 2.1c3.8 4.7 7.5 9.3 10.5 14.2l-1.3-.8-2.5-1.4-2.5-1.3-2.5-1.3-2.5-1.2-5.2-2.3c-5-2-10-3.9-15-5.9l-4.8-2-2.3-1.1-2.2-1.1-2.2-1.2-2.1-1.2-2-1.3-2-1.4-1.8-1.4-.4-.5-.4-1-.4-1.5-.5-1.9-.4-2.1-.9-6 1.7 1.6z"/>
</svg>
