<svg xmlns="http://www.w3.org/2000/svg" viewBox="0 0 1413 1413" width="20" height="20">
    <path d="M1329 609.7c11.9-2.1 24-2.4 36-2.6 12-.1 24.5 1.2 35.2 7.1 9.8 4 15.2 16 11.6 26.1-4.7 15.5-15.8 27.9-27.1 39-28.6 29.5-64.1 50.7-98.2 73.1 5.7-8.3 10.4-17.4 13.9-26.8 2.7-7.4 5.3-15.1 5.6-23.1.4-8.2-1.3-17-6.6-23.5-5.3-6-12.9-9.6-20.5-11.7-11-3.1-22.6-3.4-34-3.4-25.9.2-51.6 4.4-76.9 9.6-8.9 1.6-17.6 4.3-26.7 4.7 7.7-2.5 14.5-7 21.8-10.6 34.1-17.3 69.4-32.3 105.9-43.7 19.6-6.2 39.7-10.7 60-14.2zm-1182.9 80c1.3-1.4 3.2-1.1 4.9-1.2 14.6.1 29.2.1 43.8 0 .3 20.7.7 41.4 1 62.1 26.3-20 50.9-42.2 77.1-62.3 16 .6 32 0 48 .4-.1 39.2-.1 78.5 0 117.7-20.8.2-41.5-.2-62.2.2h-.4c-.2-18.4-.1-36.8-.1-55.1-21.5 17.8-41.5 37.2-62.9 55.1h-3.1c-19.6-.4-39.1.1-58.7-.2.3-18.4-.1-36.9.2-55.3-21.3 18.1-41.7 37.3-62.9 55.5H.8c2-2.1 4.3-3.8 6.7-5.5 12-8.9 23.1-18.9 35-28 34.6-27.8 69.2-55.5 103.6-83.4zm363-1.3c20.6.2 41.3.1 61.9.1.3 30.2.1 60.4.1 90.6h41.8c-.2 9.1-.3 18.1 0 27.2-34.7 0-69.4.2-104.1-.1.2-39.2-.1-78.5.3-117.8zm-166.9 39.4c5.5-10.5 16.7-18.4 28.8-18.3h123.7c-.2 9.2 0 18.3 0 27.5-27.2.3-54.5-.2-81.7.2-7 .3-12.6 6.2-14.6 12.6-2.7 8.6-1.2 19.2 5.8 25.4 2.5 2 5.5 3.6 8.8 3.6 27.2.7 54.5 0 81.8.3-.2 9-.2 18 .1 27-41.9.4-83.9.1-125.8.2-9.2-.3-17.7-5.4-23.2-12.6-13.4-18.9-14.2-45.4-3.7-65.9zM634 709.4c40.7.2 81.3 0 122 .1 8.4 0 16.8 3.3 22.8 9.3 10 9.7 14.6 23.9 14.7 37.7.1 12.9-2.6 26.4-10.8 36.7-5.5 7.2-13.8 12.1-22.8 13.4H643.2c-8.7-1.4-13.6-10.1-15.2-18-2-9.7-1.2-20.3 3.8-29.1 2.8-5 8.4-8.2 14.1-8.2 28.4.2 56.8-.1 85.2.2v-14.4c-32.4.2-64.8 0-97.1.1-.3-9.3-.2-18.6 0-27.8m48.1 55.8v14c16.3 0 32.7-.2 49 .2.1-4.8.2-9.5.2-14.3-16.4-.1-32.8-.2-49.2.1zM808 724.5c-.6-7.9 7-15.8 15-14.9 27.4-.4 54.8 0 82.1-.1-.2 9.2-.1 18.3-.1 27.5-11.6.1-23.3 0-34.9.1.1 23.1 0 46.2.1 69.2-20.7.1-41.4 0-62.2 0v-81.8zm123.5-9.4c5.9-4.2 13.3-5.6 20.5-5.6 37 .1 74 .1 111 0 7.3 1.7 12.1 8.9 14.2 15.7 2.7 9.6 2.5 20.4-2.1 29.4-2.8 5.7-8.4 10.7-15.1 10.4h-85.4v14.1c32.5.2 65-.1 97.5.1-.1 9.1 0 18.2-.2 27.3H946.3c-9.8-1.1-18.9-6.8-24.3-15-9-13.5-11.6-30.8-8.4-46.5 2.3-11.6 8-23.1 17.9-29.9m43.1 22.1c0 4.6.1 9.2 0 13.8 16.2.5 32.4 0 48.6.3 0-4.7 0-9.5.1-14.2-16.3.1-32.5-.1-48.7.1z"/>
    <path d="M1092.9 709.4c41.7.1 83.4.1 125.1 0 6.3-.3 12.7.9 18.3 3.7 8.6 4.1 16 12.5 16.4 22.3.6 23.6-.1 47.2.3 70.9-18.6-.1-37.2.2-55.8-.1.2-16.2.1-32.5.1-48.7.1-6.2-3.7-12.2-9.3-14.9-10-4.9-21.4-5.2-32.3-5.8 0 23.1-.3 46.1.1 69.2-3.8.1-7.7.1-11.5.5h-35.7c-5.2-.4-10.5-.2-15.8-.3.2-32.2.1-64.5.1-96.8z"/>
</svg>
