<svg xmlns="http://www.w3.org/2000/svg" viewBox="0 0 1413 1413" width="20" height="20">
    <path d="M976.4 340.1c61.9-10.9 124.8-12.5 187.3-13.5 62.4-.5 127.4 6.2 183.1 36.9 51 20.8 79.1 83.2 60.3 135.8-24.4 80.6-82.2 145.1-141 202.9-148.8 153.5-333.4 263.7-510.8 380.3 29.7-43.2 54.1-90.5 72.3-139.4 14-38.5 27.6-78.5 29.1-120.2 2.1-42.7-6.8-88.4-34.3-122.2-27.6-31.2-67.1-49.9-106.6-60.9-57.2-16.2-117.6-17.8-176.9-17.8-134.7 1-268.4 22.9-400 49.9-46.3 8.4-91.6 22.4-138.9 24.5 40.1-13 75.4-36.4 113.4-55.1 177.4-90 361-168 550.9-227.3 101.9-32.3 206.5-55.7 312.1-73.9z"/>
</svg>
