<svg xmlns="http://www.w3.org/2000/svg" viewBox="0 0 142.3 142.3" width="20" height="20">
    <path d="M72.6 70.8l3.1-1.9L115.3 96zm-2.3-1.5l-2.9-1.7 3.3-51.7zm-3.5-.2L53.7 80l15.7-9.3z"/>
    <path d="M71.1.6C32.1.6.5 32.2.5 71.2s31.6 70.6 70.6 70.6c39 0 70.6-31.6 70.6-70.6 0-39-31.6-70.6-70.6-70.6zm0 137.3c-16.1 0-31.2-5.4-42.5-15.2-10.9-9.6-19.4-24.9-21.5-41.1 5 30.9 31.7 54.4 64 54.4 35.8 0 64.8-29 64.8-64.8 0-14.9-5.5-29.4-14-40.3 8.5 6.6 15.9 25.3 15.9 40.3.1 36.9-29.8 66.7-66.7 66.7zM65 66.1l5.7-58.5h.5l.6 61.6 9.8-5.9-9.8-55.7c34.8.3 62.9 28.7 62.9 63.5 0 11.2-2.9 21.7-8 30.9L82.6 65.1l-4.2 2.4 48 35.1c-.1.2-.2.4-.4.6L72 72.1V83l53.6 20.7c-11.1 18.5-31.4 30.9-54.5 30.9s-43.4-12.4-54.5-30.8L70.2 83V72l-54 31c-.1-.2-.2-.4-.4-.6l47.8-35-4.2-2.4-44 36.7c-5-9.1-7.9-19.5-7.9-30.7 0-34.6 27.7-62.7 62.1-63.5L61 63.8l4 2.3zm6.1-61.7C34.3 4.4 4.4 34.3 4.4 71.1c0 15 5.4 29.1 13.7 41.4 2.8 5.3 5.8 8.5 9.9 12.8C12.1 112.6 1.8 93 1.8 71.1c0-38.3 31-69.3 69.3-69.3s69.9 32.4 68.7 69.3c-.9-36-32.4-66.7-68.7-66.7z"/>
</svg>
