<svg xmlns="http://www.w3.org/2000/svg" viewBox="0 0 202 202" width="20" height="20">
    <path d="M3.7 128.2l44.4-69.3c2.3-3.6 4.7-6.5 8.5-9 3.7-2.5 9.3-4.1 11.7-4.1l117.4.1C167.6 18.3 136.5 0 101 0 45.2 0 0 45.2 0 101c0 9.4 1.3 18.6 3.7 27.2z"/>
    <path d="M26.8 169.5l58.4-92.4c4.4-6.3 8.6-12.4 19.3-12.4h90.8c-1.7-4.3-3.6-8.5-5.9-12.6L86 52.2c-7.3 0-12 5.4-15.6 12L15 153.9c3.4 5.6 7.4 10.8 11.8 15.6z"/>
    <path d="M61 193.8L123 94c3.1-5.1 9.2-10.3 15.5-10.3h62c-.7-4.2-1.7-8.4-3-12.4l-71-.1c-8.2 0-12.5.3-19.7 12.2L44.9 185c5.1 3.4 10.5 6.3 16.1 8.8z"/>
    <path d="M201.4 90H160c-7.5-.1-11.5 4.2-14.2 8.7L83.2 200.4c5.8 1 11.7 1.6 17.8 1.6 55.8 0 101-45.2 101-101 0-3.7-.2-7.4-.6-11z"/>
</svg>
