<svg xmlns="http://www.w3.org/2000/svg" viewBox="0 0 312 312" width="20" height="20">
    <path d="M302.2 128.7l9.8-9.9h-98.1c-12.2-19.4-33.5-32.3-57.8-32.3s-45.6 12.9-57.8 32.3H0l9.8 9.9h83.3c-1.6 3.7-2.8 7.6-3.7 11.6H21.2l9.8 9.9h56.9c-.2 1.9-.3 3.8-.3 5.8s.1 3.9.3 5.8H42.4l9.8 9.9h37.2c.9 4.1 2.2 8.1 3.9 11.9 0-.1-.1-.2-.1-.3H63.6l9.8 9.9h24.9c12.2 19.4 33.5 32.3 57.8 32.3s45.6-12.9 57.8-32.3h24.7l9.8-9.9h-29.3c0 .1-.1.2-.1.3 1.6-3.8 2.9-7.8 3.9-11.9h37l9.8-9.9h-45.2c.2-1.9.3-3.8.3-5.8s-.1-3.9-.3-5.8H281l9.8-9.9h-68c-.9-4-2.2-7.9-3.7-11.6h83.1zm-86.8-7.4c0-.1-.1-.1-.1-.2 0 .1.1.1.1.2zm1.4 2.6c0-.1-.1-.2-.1-.3 0 .1.1.2.1.3zm-121.2-.3c-.1.1-.1.2-.1.3 0-.1 0-.2.1-.3zm1.3-2.5c0 .1-.1.1-.1.2 0-.1.1-.1.1-.2zm-.1 69.6c0 .1.1.1.1.2 0 0-.1-.1-.1-.2zm-1.4-2.6c.1.1.1.2.2.3-.1-.1-.2-.2-.2-.3zm60.7 27.5c-32.4 0-58.7-26.7-58.7-59.6s26.3-59.6 58.7-59.6 58.7 26.7 58.7 59.6-26.3 59.6-58.7 59.6zm60.6-27.1c.1-.1.1-.2.2-.3-.1 0-.2.1-.2.3zm-1.4 2.4c0-.1.1-.1.1-.2 0 .1-.1.2-.1.2z"/>
    <path d="M114.9 171.7h-6.1V140h9.1l7.9 25.3 7.9-25.3h9.1v31.6h-6.3v-23.4l-7.3 23.4h-6.8l-7.5-23.6v23.7zm41.4 0h-6.5V140h6.5v31.7zm13.3 0h-6.2V140h7.6l12.4 22.9V140h6.2v31.6H182l-12.4-22.8v22.9zm33.5 0h-6.5V140h6.5v31.7z"/>
</svg>
