<svg version="1.1" id="Ebene_1" xmlns="http://www.w3.org/2000/svg" x="0" y="0" viewBox="0 0 1305.5 1305.5" xml:space="preserve" width="20" height="20">
    <path class="st0" d="M890.6 512.6l-1.9-3.2-4.8-7.6-5-7.4-5.3-7.2-5.5-7.1-5.7-6.9-5.9-6.7-6.1-6.5-6.4-6.3-6.6-6.1-6.7-5.9-6.9-5.6-7.1-5.4-7.3-5.2-7.5-5-7.6-4.7-7.8-4.5-8-4.2-8.1-4-8.3-3.7-8.4-3.5-8.5-3.2-8.7-2.9-8.8-2.6-8.9-2.3-9-2-9.1-1.7-9.2-1.4-9.3-1.1-9.4-.8-9.5-.5-9.6-.2-9.6.2-9.5.5-9.4.8-9.3 1.1-9.2 1.4-9.1 1.7-9 2-8.9 2.3-8.8 2.6-8.7 2.9-8.5 3.2-8.4 3.5-8.2 3.7-8.1 4-8 4.2-7.8 4.5-7.6 4.7-7.5 5-7.3 5.2-7.1 5.4-6.9 5.6-6.7 5.9-6.6 6.1-6.3 6.3-6.2 6.5-5.9 6.7-5.7 6.9-5.5 7.1-5.3 7.2-5 7.4-4.8 7.6-1.9 3.2H.2l44.9 63.5 20.5 24.4 55.8 63.5 25 24.4 71.3 63.5 31.2 24.6 85 63.3h117.9l2.1 2.2 4.9 5.1 5 4.9 5.2 4.8 5.3 4.7 5.4 4.5 5.5 4.4 5.6 4.3 5.8 4.1 5.9 4 6 3.8 6.1 3.7 6.2 3.5 6.3 3.4 6.4 3.2 6.5 3.1 6.6 2.9 6.6 2.7 6.7 2.5 6.8 2.4 6.9 2.2 7 2 7 1.8 7.1 1.7 7.2 1.5 7.2 1.3 7.3 1.1 7.4.9 7.4.7 7.5.5 7.5.3 7.6.1 7.6-.1 7.5-.3 7.5-.5 7.4-.7 7.4-.9 7.3-1.1 7.2-1.3 7.2-1.5 7.1-1.7 7-1.8 7-2 6.9-2.2 6.8-2.4 6.7-2.5 6.6-2.7 6.6-2.9 6.5-3.1 6.4-3.2 6.3-3.4 6.2-3.5 6.1-3.7 6-3.8 5.9-4 5.8-4.1 5.6-4.3 5.5-4.4 5.4-4.5 5.3-4.7 5.2-4.8 5.1-4.9 4.9-5.1 2.1-2.2H972l85-63.3 31.2-24.6 71.3-63.5 25-24.4 55.8-63.5 20.5-24.4 44.9-63.5H890.6zm365.1 54.5H906c4.7 13.6 8.2 27.8 10.6 42.3h303.5L1180 655H920.2c-.1 14.4-1.4 28.5-3.7 42.3h219.1l-51.2 45.6h-180c-5.2 14.4-11.6 28.3-19.1 41.4l144.6.9-61.2 45.6h-117c-48.8 54.2-119.5 88.4-197.9 88.4S504.7 885 455.9 830.8h-119l-61.2-45.6 146.4-.9c-7.5-13.1-13.9-27-19.1-41.4H221.1L170 697.4h221c-2.3-13.8-3.6-27.9-3.7-42.3H125.4l-40.1-45.6h305.4c2.4-14.5 6-28.7 10.6-42.3H49.8l-32.3-45.6h404.4c45.9-80.7 132.7-135.3 231.8-135.3 99.1 0 185.9 54.6 231.8 135.3H1288l-32.3 45.5z"/>
    <path class="st0" d="M653.7 451.9c-110.6 0-200.9 90.2-200.9 200.9 0 110.6 90.2 200.9 200.9 200.9s200.9-90.2 200.9-200.9-90.3-200.9-200.9-200.9zm-50.6 263.9h-29.2v-88.4l-22.7 88.4h-26.4l-22.6-88.4v88.4h-29.3v-116h47l18.2 70.6 18.1-70.6h46.9v116zm51.6 0h-31.8v-116h31.8v116zm129.1 0H751l-42.2-63.7v63.7h-32.7v-116h32.5L751 664v-64.2h32.8v116zm20.1 0v-116h31.8v116h-31.8z"/>
</svg>
