<svg xmlns="http://www.w3.org/2000/svg" viewBox="0 0 612 612" width="20" height="20">
    <path d="M492.3 207.7C457.1 140.3 386.5 94.2 305.1 94.2s-152 46.1-187.2 113.5h374.4zM117.7 402.6c35.2 67.6 105.9 113.8 187.4 113.8s152.2-46.2 187.4-113.8H117.7zm311.6-120.4c-.6-1.6-1.1-2.8-1.2-2.8s-.6 1.3-1.2 2.8l-9.8 26.2c-.6 1.6.3 2.8 2 2.8h18c1.7 0 2.6-1.3 2-2.8l-9.8-26.2z"/>
    <path d="M592 225.9H21.2c-10 0-18.2 8.2-18.2 18.2v124.4c0 10 8.2 18.2 18.2 18.2H592c10 0 18.2-8.2 18.2-18.2V244.1c0-10-8.2-18.2-18.2-18.2zM135.1 348.1c0 1.7-1.4 3-3 3H98.5c-1.7 0-3.6-1.2-4.3-2.8l-29.3-63.1c-.7-1.5-1.3-2.7-1.3-2.6 0 .1-.1 1.5-.1 3.2l-.4 62.3c0 1.7-1.4 3-3.1 3H43.9c-1.7 0-3-1.4-3-3v-85.3c0-1.7 1.4-3 3-3h36c1.7 0 3.6 1.3 4.2 2.8l26.3 62.9c.6 1.5 1.2 1.4 1.2-.2v-62.4c0-1.7 1.4-3 3-3H132c1.7 0 3 1.4 3 3v85.2zm43.9 0c0 1.7-1.4 3-3 3h-17.4c-1.7 0-3-1.4-3-3v-85.3c0-1.7 1.4-3 3-3H176c1.7 0 3 1.4 3 3v85.3zm102.5-26.5c0 12.2-9 26-20.6 28.3h-61.5v-20.1l49.7-.7c6.2-.1 6.6-3.7 6.5-6.2 0 0 1.2-7.9-7.3-7.9h-27.6c-16.6 0-25.5-10.4-25.5-28.2 0-25 14.3-27.9 37.3-27.9 23 0 40.5-.3 40.5-.3l-.3 20.7c-16.6 0-31 .1-40.2.1-12.7 0-12.6.4-12.6 7.9 0 6.7 1 6.7 11.4 6.7l29.7.3c21.2.1 20.5 27.3 20.5 27.3zm94.5 0c0 12.2-9 26-20.6 28.3H294v-20.1l49.7-.7c6.2-.1 6.6-3.7 6.5-6.2 0 0 1.2-7.9-7.3-7.9h-27.6c-16.6 0-25.5-10.4-25.5-28.2 0-25 14.3-27.9 37.3-27.9 23 0 40.5-.3 40.5-.3l-.3 20.7c-16.6 0-31 .1-40.2.1-12.7 0-12.6.4-12.6 7.9 0 6.7 1 6.7 11.4 6.7l29.7.3c21.1.1 20.4 27.3 20.4 27.3zM476.3 349h-17.8c-1.7 0-3.6-1.2-4.4-2.7l-5-10.3c-.7-1.5-2.7-2.7-4.4-2.7h-33c-1.7 0-3.7 1.2-4.4 2.7l-5.3 10.3c-.8 1.5-2.7 2.7-4.4 2.7h-18.3c-1.7 0-2.6-1.3-2-2.8l31.6-85.7c.6-1.6 2.4-2.8 4.1-2.8h29.6c1.7 0 3.5 1.3 4.1 2.8l31.7 85.7c.5 1.5-.4 2.8-2.1 2.8zm106.4-.9c0 1.7-1.4 3-3 3h-33.6c-1.7 0-3.6-1.2-4.3-2.8l-29.3-63.1c-.7-1.5-1.3-2.7-1.3-2.6 0 .1-.1 1.5-.1 3.2l-.4 62.3c0 1.7-1.4 3-3.1 3h-16.2c-1.7 0-3-1.4-3-3v-85.3c0-1.7 1.4-3 3-3h36c1.7 0 3.6 1.3 4.2 2.8l26.3 62.9c.6 1.5 1.2 1.4 1.2-.2v-62.4c0-1.7 1.4-3 3-3h17.5c1.7 0 3 1.4 3 3v85.2z"/>
</svg>
