<svg width="20" height="20" viewBox="0 0 100 100" xmlns="http://www.w3.org/2000/svg">
    <path d="M49.94 84.246c-18.747 0-34.297-15.543-34.297-34.284 0-.974.045-1.94.128-2.895l28.697 1.79-12.412 8.572a.65.65 0 0 0 .372 1.183h50.679c-3.897 14.641-17.4 25.634-33.166 25.634m0-68.569c18.748 0 34.297 15.545 34.297 34.285 0 .967-.042 1.926-.124 2.875l-28.67-1.821 12.44-8.521a.649.649 0 0 0-.369-1.183h-50.74c3.898-14.642 17.4-25.635 33.166-25.635M99.13 53.792l-9.383-.597a40.68 40.68 0 0 0 .13-3.233c0-22.048-17.88-39.92-39.936-39.92-19.084 0-35.04 13.381-38.993 31.27H3.58c-.483 0-.914.229-1.188.585L.2 44.923a.748.748 0 0 0 .592 1.209l9.347.582a40.294 40.294 0 0 0-.133 3.248c0 22.047 17.88 39.92 39.936 39.92 19.084 0 35.04-13.382 38.994-31.27h7.405c.484 0 .914-.23 1.188-.585L99.722 55a.75.75 0 0 0-.592-1.209" />
</svg>
