<svg width="20" height="20" viewBox="0 0 100 100" xmlns="http://www.w3.org/2000/svg">
    <path d="M42.432 1.27c-1.963.674-4.363 1.863-5.334 2.642-.97.779-3.49 2.197-5.598 3.15-4.401 1.992-4.66 2.813-2.082 6.61 2.6 3.831 4.632 4.616 6.677 2.58 1.446-1.439 4.71-1.27 5.547.287.818 1.52-.65 2.223-4.157 1.992-4.474-.294-5.544 1.343-3.105 4.751 2.103 2.94 3.57 3.483 6.01 2.228 2.533-1.304 3.13-.852 1.9 1.437-1.46 2.715-1.906 2.625-12.187-2.465-13.804-6.834-20.715-6.753-24.55.288-1.389 2.55.555 5.132 3.511 4.662 2.335-.371 2.634-.248 3.238 1.331.434 1.137 1.165 1.741 2.103 1.741.79 0 2.523.668 3.85 1.485l2.412 1.484-4.334.874c-8.651 1.746-10.842 2.812-12.5 6.082-2.956 5.832-1.146 9.48 3.864 7.787 2.096-.708 3.219-.799 3.817-.309.525.429 4.748.642 11.09.56 10.862-.142 12.87.26 16.375 3.286 1.643 1.419 1.644 1.423.407 3.519-8.472 14.357-10.048 17.903-10.29 23.15-.13 2.833-.28 5.15-.334 5.151-2.078.02-11.722 2.245-12.814 2.957-1.494.974-2.043 2.945-2.46 8.83l-.154 2.168 15 .118 15 .118-.232-4.673-.23-4.674 7.767-8.682 7.768-8.682 5.13 3.806c8.204 6.087 9.185 6.686 11.845 7.236 3.093.64 3.701 1.947 1.165 2.507-6.763 1.496-7.739 2.56-8.471 9.252l-.436 3.98 12.635-.026 12.636-.026 3.044-3.253C97.63 94.739 99 92.882 99 92.399c0-1.49-8.356-17.16-12.28-23.027-4.511-6.748-4.509-5.956-.035-10.351 6.418-6.308 6.334-8.193-1.074-23.982-5.497-11.717-6.36-14.855-4.984-18.133 1.133-2.697 3.707-3.32 3.707-.897 0 5.93 9.513 17.307 11.627 13.904.398-.64-2.335-11.79-4.034-16.454-2.432-6.679-11.024-7.86-15.83-2.175l-1.841 2.177-2.656-2.58c-1.461-1.42-2.823-3.245-3.028-4.055-.28-1.112-1.647-1.963-5.566-3.467-9.563-3.67-14.513-4.172-20.574-2.09M53.36 2.994c8.07 2.039 11.623 3.67 12.09 5.548.239.957 2.361 3.731 4.716 6.164 4.148 4.286 4.302 4.569 4.87 8.956 1.45 11.188 1.456 11.177-6.703 13.195-8.227 2.036-8.124 2.715 2.418 15.936 9.982 12.52 17.373 23.452 21.816 32.266l3.233 6.415-2.233 2.734-2.233 2.735-4.934-.379c-2.714-.208-6.338-.378-8.052-.378-3.085 0-3.114-.02-2.823-1.994.316-2.145 1.105-2.483 11.141-4.776 5.488-1.254 5.439-1.909-.908-11.99C70.611 53.361 59.7 44.002 28.25 28.1c-7.265-3.674-9.35-4.433-12.954-4.721-6.066-.485-5.476-1.693.676-1.383 4.812.241 5.447.488 19.832 7.712 18.257 9.168 17.692 9.101 21.018 2.465 4.426-8.833 4.219-10.58-2.22-18.733-4.816-6.1-10.292-6.738-20.69-2.416-2.22.923-3.578.78-3.578-.378 0-.303 1.274-1.055 2.832-1.67 1.559-.615 3.584-1.802 4.5-2.638 1.9-1.734 7.419-3.87 11.028-4.27.38-.043 2.48.374 4.666.926M40.568 5.302c-1.814.729-2.572 1.924-1.742 2.75C39.694 8.916 45 6.781 45 5.567c0-1.028-2.203-1.16-4.432-.265m43.496 40.444c1.243 2.894.009 4.909-4.367 7.135-3.519 1.79-3.748 1.68-8.791-4.2-5.128-5.977-5.011-6.762 1.305-8.781 3.67-1.174 5.061-1.958 5.615-3.168.767-1.674 3.098 1.694 6.239 9.014m-52.1-.013c1.155 1.27 1.04 1.292-7.541 1.493-9.426.22-11.417-1.273-2.907-2.18 7.443-.793 9.208-.677 10.448.687M46.611 55.93c1.111.809.818 1.404-4 8.126-7.997 11.157-9.808 14.973-9.275 19.544.534 4.579.176 4.935-6.015 5.99-5.888 1.002-6.777 1.48-7.32 3.937-.516 2.337-2.335 2.715-2.335.484 0-3.04 1.674-4.288 6.829-5.095 7.905-1.237 7.826-1.168 7.653-6.804-.162-5.274 2.97-12.848 9.472-22.908 2.866-4.434 3.145-4.617 4.991-3.274" fill-rule="evenodd"/>
</svg>
