<svg width="20" height="20" viewBox="0 0 100 100" xmlns="http://www.w3.org/2000/svg">
    <path d="M46.67.303c-3.15.572-5.992 1.505-8.701 2.861-1.414.707-1.832 1.036-3.103 2.444-.355.393-.73.619-1.429.86-5.86 2.016-6.692 2.69-5.715 4.632 1.522 3.025 3.327 5.139 4.769 5.584 1.277.395 1.47.374 1.738-.19.451-.947 2.573-1.84 4.63-1.95l1.199-.063.597.642c1.15 1.236 1.539 2.593.883 3.079-1 .739-5.355 1.11-6.357.542l-.574-.326-.376.376c-.206.207-.56.47-.786.584-1.163.589-1.158.932.041 2.77 2.4 3.68 3.732 4.283 6.06 2.745 1.679-1.107 2.263-1.167 2.99-.303.631.751.34 1.422-1.752 4.034-1.357 1.694-.926 1.748-5.766-.727-15.71-8.034-15.29-7.873-20.42-7.858-4.687.014-5.193.18-7.414 2.437-2.264 2.3-2.62 3.402-1.723 5.314.746 1.59.818 1.622 2.566 1.143 2.529-.694 4.096-.039 4.344 1.817.109.82.18.868 1.412.966 1.289.104 2.622.737 4.557 2.167 2.718 2.009 2.802 2.287.749 2.478-2.921.273-8.317 1.38-10.75 2.206-2.95 1.002-3.663 1.554-4.678 3.628-1.953 3.99-1.974 5.349-.118 7.655.839 1.043.934 1.048 2.706.154 3.13-1.58 4.406-1.623 5.439-.184.314.438.546.64.678.59 1.428-.55 1.614-.56 9.851-.556 12.021.005 12.822.21 17.314 4.441l.92.866-.901 1.498c-3.076 5.116-7.256 12.665-9.124 16.476-1.745 3.56-1.857 4.117-1.739 8.602l.094 3.564-.333.334c-.423.423-1.673.72-6.094 1.45-7.947 1.31-8.127 1.475-8.98 8.216-.541 4.276-.502 4.4 1.276 4.112 3.635-.589 13.1-.62 22.319-.075 2.976.176 4.936.24 5.012.163.076-.076.061-1.315-.038-3.17-.33-6.19-.298-6.317 2.418-9.315a4268.5 4268.5 0 0 0 6.016-6.672c6.41-7.123 6.94-7.686 7.251-7.686.117 0 .538.258.938.574 1.972 1.561 11.956 8.815 12.993 9.44.997.603 2.36 1.017 3.856 1.172 1.937.202 2.447.585 2.449 1.837 0 .984-.202 1.105-2.726 1.63-6.51 1.354-6.637 1.52-7.54 9.813-.292 2.687-.499 2.517 2.511 2.062 2.036-.309 12.15-.225 17.245.142 2.34.168 4.312.27 4.385.224.073-.045.483-.554.912-1.131.43-.577 1.686-1.955 2.792-3.063 2.299-2.3 2.245-2.172 1.619-3.866-2.338-6.319-9.067-18.407-14.236-25.574-1.966-2.728-1.958-2.933.208-4.867 8.558-7.639 8.776-9.854 2.312-23.388C79.94 26.35 79.668 25.71 78.89 22.535c-1.144-4.673.44-8.685 3.435-8.698 1.057-.004 1.318.305 1.442 1.706.509 5.726 4.31 11.481 9.223 13.963 1.799.909 1.927.516 1.002-3.054a3489.92 3489.92 0 0 1-1.758-6.83c-2.007-7.836-2.422-8.67-5.139-10.314-4.556-2.757-9.588-1.273-12.544 3.7-.359.604-.683 1.099-.72 1.099-1.275 0-6.095-5.202-6.613-7.138-.38-1.416-.262-1.333-3.92-2.74C54.637.898 49.75-.256 46.67.303M42.898 5.71c0 .329-2.995 1.589-3.776 1.589-.357 0-.423-.469-.124-.878.452-.618 3.9-1.247 3.9-.711m36.915 32.396c4.042 7.567 4.337 8.198 4.417 9.443.146 2.289-1.471 3.994-5.761 6.071-3.51 1.7-3.379 1.766-8.61-4.386-4.672-5.494-4.89-5.837-4.507-7.042.372-1.168.692-1.346 5.301-2.95 5.051-1.759 5.228-1.918 5.387-4.856.165-3.038.162-3.04 3.773 3.72" fill-rule="evenodd"/>
</svg>
