<svg xmlns="http://www.w3.org/2000/svg" viewBox="0 0 175.8 175.8" width="20" height="20">
    <path d="M87.8 0C39.3 0-.1 39.3-.1 87.8s39.4 87.9 87.9 87.9c48.5 0 87.8-39.4 87.8-87.9C175.6 39.3 136.3 0 87.8 0zm54.9 31.5l1.6-1.3 8.6 9.5-1.5 1.2-3.3-3.7-4.5 4.2-1.8-1.9 4.5-4.2-3.6-3.8zm-21-11.8l2.7-4.2 2.2 1.4-2.6 3.7c-.5.8-.2 1.6.6 2.1l5 3.5 3.3-5 2.2 1.4-4.4 6.8-8.6-5.8c-1.6-1.1-1-3.2-.4-3.9zm-25.1-8.8c.5-2.8 2.1-3.3 4.9-2.8l5.4.9c2.4.4 4 1.1 3.4 4.4-.6 3.2-2.2 4-4.5 3.6l-6.3-1.2c-1.5-.2-3.9-.2-2.9-4.9zm-24-2.1c.4-.1.9-.1 1.4.3.1-.2.3-.6.8-.6l4.8-.8c1.3-.2 2.9.7 3 1.7l.9 5.5-2.6.5-.8-4.8c-.1-.7-.9-1.2-1.7-1l-2.9.5 1 5.9-2.6.4-.8-4.8c-.1-.6-.9-1.1-1.6-.9l-3 .5 1.1 5.8-2.7.4-1.3-7.4 7-1.2zm-30.7 12l1.2 1.7c.4.6 1.4.8 2 .3l4-2.8c.4-.4.4-1.7.1-2l-1.1-1.4 2.2-1.5 1.6 2.2c.6 1.1-.3 3-.9 3.5l-2.2 1.4 2.2 3-2.2 1.7-2.2-3-1.7 1.2c-1.2.7-2.9.5-3.6-.3l-1.6-2.2 2.2-1.8zM25.1 37l4.5 4.1 6.9-7.6 1.4 1.4-8.6 9.6-5.9-5.4 1.7-2.1zM14 64.7l3.9-8.7c.4-.9-1.2-1.6-1.5-.8L12.5 64l-1.5-.7 4.5-10.2c.4-1 1.4-1.4 3.1-.6 1.7.7 2 1.4 1.6 2.4l-3.5 7.9 2.4.9-1 2.4-4.1-1.4zM87.8 155c-26.6 0-49.7-15.5-60.6-38-1.4-.4-2.1-.1-3.7-.3-1.5-.1-2.7-1.7-3.1-2.7h5.5l-1.1-2.5h-5.3l-.9-2.9h5.3c-2.2-6.6-3.3-13.5-3.3-20.8 0-37.1 30.1-67.1 67.2-67.1s67.1 30 67.1 67.1-30 67.2-67.1 67.2zm68.5-91.1l3.2-1.3-2.9-7.1-3.1 1.4-1-2.5 7.2-2.9.9 2.4-2.4 1.1 2.9 7 2.4-1 1 2.4-7.1 3-1.1-2.5z"/>
    <path d="M99.8 14.3c-1.2-.2-1.4-1.2-1.1-3 .2-1.6 1.2-1.7 2.2-1.5l5.8 1.1c.9.2 1.7.9 1.4 2.4-.3 1.4-1 2.4-2.5 2.1l-5.8-1.1zm35 116.5c1.2-1.4 2.2-2.4 3.3-3.9-14-2-35.3-3.7-41 9.9-4.9-3.6-16.9-3.9-20-1.5-2.9-2.4-13-4-18.5.6-4.8-4.9-13.1-14.7-27.3-18.6C36.9 128 45.5 137 56 143.1c2.5-4.5 12.7-8.6 20.6-3.1 3.5-2.3 14.3-4 22.6 3.3.3-5.7 6.8-17.9 35.6-12.5 0 0-28.8-5.4 0 0z"/>
    <path d="M76.7 142.3c9.6-4.3 18.8.2 23.5 4.8.2-1.9 1.8-18.9 32.2-14-11.4 11.4-27.3 18.4-44.6 18.4-10.7 0-20.4-2.6-29.2-7.2 1.6-3.2 11.6-6.9 18.1-2 0 0-6.5-4.9 0 0zm23.9-116.8c-4.2-.9-8.4-1.3-12.8-1.3-35.2 0-63.7 28.5-63.7 63.6 0 5.8.8 11.3 2.2 16.6 2-20.5 14.2-35.7 20.6-42.8 7.4-8 30.4-27.4 53.7-36.1 0 0-23.3 8.7 0 0zm-8.1 83.1c-2.7-8.8-5.7-33.1 32.5-68.5l-25.3 68.5h-7.2zm11.8 0c1.2-5.6 16.4-7.4 43.9-1.4l-.1 1.4h-43.8zm-74.5 0c1.5-6.3 12-7.8 21.1-7.4 9.1.3 25.8 2.9 37.5 7.4H29.8zm-1.3 2.9l.8 2.5h116.5l1-2.5z"/>
</svg>
