<svg xmlns="http://www.w3.org/2000/svg" viewBox="0 0 293.1 293.1" width="20" height="20">
    <path d="M159.9 216.5c1.7-1.3 5.5-2.6 7.6-3.5-.1-3.2-1.4-6.2-.6-8.9 1.4-4.8 4.7-6.9 7.9-7.3.2.1.4.5.2.6-1.8 1.7-2.5 4.1-2.8 6.7-.1 1-.3 4.1.6 6.3 1.9-1 6.5-2.6 8-2.9.2-3.2.7-6.3 1.6-8.6 1.8-4.5 5.8-8.1 9.8-6 .2.1.4.5.2.6-2.5.9-4.1 3.5-5.5 6.5-.4.9-1.8 5.7-.2 6.7 0 0 .1 0 .1.1 2.9-.6 3.4-.3 6.5-.6.5-3.1 1.9-5.8 3.1-7.8 1.8-3.5 6.5-6.3 10.7-3.8.2.1.4.6.1.6-2.9.6-4.8 2.5-5.8 4.2-.5.8-3.2 4.5-1.8 6h.5c2.5-.1 4.3.4 6.9.9.8-1.9 1.5-2.1 2.3-3.1 2.9-3.5 7.8-4.7 9.5-1.4.2.2.2.6 0 .6-1.5.2-4 1-5.2 2.5-.3.3-1.1 1.2-1.9 2.9 3.4 2.6 5.3 4.7 6.2 8.2.2.6.5 4.2-.7 2.4-5.5-6.9-12.9-8.4-24-7.3-11.9 1.1-17.4 2.9-29.3 9.3 6.6 5.9-3.3 11.7-4.9 3-5.8 8.8-11.9-2.3-4.1-3.9-8-7.8 2.9-11.4 5-3zm20.3-38c4.3-1.4 9-2.9 11.4-3.4.4-7 7-15.7 14.8-12.7.3.1.5.5.2.6-2 .6-8.4 6.7-6.2 10.6 1.6.1 6 0 7.3.1 1.7-7.7 8.4-13.1 16-9.6.3.1.5.6.2.6-3 .5-9.8 5.3-9 9.4 1.4.1 5.2 1.4 7.6 2.7.9-1.9 1.9-2.6 2.8-3.6 3.3-3.5 10.1-3.8 12.1-.4.2.2.2.6 0 .6-2.9-.1-5.5.3-8 2.5-.4.3-1.2 1.5-2.1 3.2 2.4 1.3 5.1 3.8 5.6 6.2.4 1.2.6 2.2.4 3.4-.1.3-.7 0-.9-.2-6.3-6.9-20.2-11.2-33.7-9.5-9 1.1-17.8 3.6-25.1 6.8 2.5-2.2 4.7-4.6 6.6-7.3zm-19.8 15.6c-.6.6-1.2 1.1-1.7 1.7 3.2 4.4-1.9 7.9-3.4 3.5-3.8 4.1-6.8-.7-4.3-2.7 3.2-.5 6.4-1.3 9.4-2.5zm-2.2 59c.9-1 3.1-2.9 4.2-3.8-3.4-5.3-1.5-12.1 1.8-12.6.2.1.3.4.2.6-.9 1.3-1.3 8.3 1.3 9.8 1.3-.9 3.8-2.7 4.9-3-1.9-6.4 1.4-15 7.8-13.6.2.1.3.5.2.6-5.2 2.7-5.3 10.7-3.9 11.6 2.1-.6 4.4-1.5 6.7-1.7 1-8.5 8.5-12.3 12.3-10.1.2.1.3.6.2.6-2.1-1.2-10 6.9-7.4 9.3 1.8-.1 3.9.7 6 1.2.9-4.7 7.5-8.6 10.3-5.6.2.2.2.6.1.6-2.5.5-5.8 2.8-6.3 7.2 5.3 2.5 4.7 7.7 3.8 6.3-5-6.6-15.6-5.5-23.7-3.8-4.7 1-11.3 5.5-14.1 8.7 8.5 4 .8 11.5-2.8 3-5.9 10.4-11.7.9-4.8-1.9-8.4-6.5.3-10.9 3.2-3.4zm-85.6-7.9c-8.4-9.7-15.5-20.2-21.2-30.8h92v30.8H72.6zM187.7 94.7h67.6v26.5h-67.6zm67.6-40.2l-20-7.1-23.3-4.7-26.2-5.7-24.3-1.9H143V63h112.2zM47.1 23.2c2.7-.9 5.4-1.7 8.2-2.5 1-.3 2-.6 3.1-.8 1.1-.2 2.2-.3 3.3 0l.4.2c.4.2.6.5.8.9.3.7.4 1.4.5 2.2.2 1.6.2 3.2 0 4.8-.1 1.3-.3 2.6-.8 3.7-.2.5-.5.9-.9 1.3-.3.3-.6.6-.9.8-.7.5-1.3.9-2.1 1.2-1.8.8-3.6 1.4-5.5 2l-9.6 3.3v5.9c-1.6.6-3.2 1.3-4.8 1.9V25.9c2.8-.9 5.5-1.8 8.3-2.7zm-3.5 13.1c3.2-1.1 6.4-2.2 9.7-3.3 1-.3 2-.6 2.9-1l.7-.4.3-.2.3-.3.3-.3.2-.3.3-.6c.1-.4.2-.7.2-1.1.1-1 .1-1.9-.2-2.9l-.2-.5-.2-.4-.3-.3-.4-.2-.4-.1H56c-1 .1-1.9.4-2.9.7-3.2 1-6.4 2.1-9.6 3.1l.1 8.1zm40.7-23.2c2.2-.4 4.3-.8 6.5-1 .7-.1 1.4-.1 2.1-.1.3 0 .7.1 1 .2.3.1.5.2.8.4.2.2.4.3.6.5.2.2.3.5.4.7.2.4.3.7.3 1.1.2 1.3.3 2.7.4 4.1.1 1.6.1 3.1 0 4.6 0 .6 0 1.3-.1 1.9-.1 1.2-.1 2.4-.4 3.6-.1.3-.2.6-.3.8-.2.4-.4.8-.7 1.2l-.6.9-.9.6c-.4.2-.7.3-1.1.5-1.6.5-3.2.8-4.8 1.2-3.3.7-6.6 1.3-9.9 2-1.6.3-3.2.6-4.8.8-.4.1-.9.1-1.3.1l-1-.1c-.3-.1-.5-.2-.7-.3l-.5-.4-.4-.6-.6-3.3v-8.9c.1-1 .2-2.1.4-3.1l.3-.9c.2-.5.4-.9.7-1.3l.7-.8.6-.5c.6-.4 1.3-.8 2.1-1.1l3.6-1.1c2.3-.7 4.9-1.2 7.6-1.7zm-2.5 4.5l-5.2 1.2c-.4.1-.8.3-1.2.4l-.4.3-.4.3-.3.3-.3.3-.3.3-.2.4c-.2.3-.3.7-.4 1-.3 1.3-.3 2.6-.3 3.9 0 1.4 0 2.8.2 4.1l.2.5.3.5.4.4.4.3.5.2.5.1h.6c.4 0 .7 0 1-.1 2-.3 4-.7 6-1.1 1.6-.3 3.3-.7 4.9-1.1.3-.1.7-.2 1-.3l.5-.3.5-.3.4-.4.4-.4.3-.5.2-.5.2-.5c.3-1.5.2-2.9.2-4.4 0-.8 0-1.6-.1-2.3l-.1-.6c-.1-.4-.2-.8-.4-1.2l-.2-.4-.2-.3-.3-.3-.2-.1-.4-.2-.4-.1-.8-.1c-.9 0-1.7.1-2.5.2-1.4.3-2.8.6-4.1.8zm33-8.2c2.5-.2 5-.4 7.5-.4h1.6c.6 0 1.1.1 1.6.4.2.1.4.2.5.3.4.3.7.6.9 1.1.2.3.3.7.4 1 .2.8.2 1.7.2 2.5 0 1.1 0 2.1-.1 3.2 0 .4-.1.8-.2 1.2l-.2.4c-.2.3-.3.5-.5.8l-.5.4c-.2.1-.4.3-.7.4-.3.1-.7.2-1 .3l-2.7.6 2.7 1.5c.4.3.7.5 1 .8l.3.4c.4.6.7 1.2 1 1.9.4 1.2.6 2.4.6 3.6-1.6.1-3.2.1-4.8.2-.1-.9-.2-1.7-.5-2.6l-.4-1-.2-.5-.3-.4-.3-.4-.4-.3-.5-.3c-.3-.1-.6-.2-.9-.2-.6-.1-1.3 0-1.9 0-3.1.2-6.1.5-9.2.8l-1.2.1v5.9c-1.6.2-3.2.4-4.8.5v-21c4.4-.5 8.7-.9 13-1.2zm-8.1 12.2c3.2-.3 6.4-.6 9.6-.8l3.3-.3c.3 0 .6-.1.9-.2l.4-.1.4-.2.3-.2.3-.3.2-.3.2-.3c.1-.3.2-.5.2-.8.1-.9.1-1.8.1-2.7 0-.3-.1-.6-.2-1l-.2-.3-.2-.3-.3-.3-.3-.2-.3-.2-.4-.1c-.3-.1-.6-.1-.9-.1-1.6 0-3.2.2-4.7.3-2.8.2-5.5.5-8.3.7l-.1 7.7zm34 4.9h5.5c1.2 0 2.5 0 3.8-.1.3 0 .5-.1.8-.1.3-.1.5-.2.7-.3l.3-.2.2-.3.2-.3.1-.3.1-.7v-1l-.2-1.1-.1-.3-.1-.3-.2-.3-.3-.2-.3-.2-.7-.2-1.2-.2h-11.6c-1 0-2 0-2.9-.2-.3-.1-.5-.1-.7-.2l-.3-.2-.3-.2-.2-.2-.2-.3-.2-.3c-.2-.4-.4-.8-.5-1.2-.2-1.1-.2-2.3-.2-3.4 0-1.4.1-2.8.7-4.1.1-.2.3-.4.4-.6.7-.6 1.6-.9 2.5-1.1.9-.2 1.9-.2 2.8-.2h6.6c3.6 0 7.3.1 10.9.2v3.2c-4.8-.1-9.6-.2-14.4-.2-1.1 0-2.2 0-3.3.1-.2 0-.5.1-.7.1l-.4.2-.3.3-.2.4-.1.4-.1.7v1.7l.1.4.1.4.3.4.5.3.5.1c5 .1 10.1.2 15.1.4l.6.1c.8.2 1.6.5 2.2 1.1.3.3.5.6.6.9.5 1.1.6 2.4.6 3.6 0 1.4 0 2.8-.4 4.1-.1.2-.1.4-.2.6l-.3.4c-.2.3-.4.5-.7.7-.5.3-1 .6-1.5.7-.8.2-1.7.2-2.5.3-2.5.1-4.9.1-7.4.1-3.9 0-7.8.1-11.6.1v-3.4c2.6-.1 5.2-.1 7.8-.1h.3zm33.1 4.4c-2-.2-4.1-.3-6.1-.6-.9-.1-1.8-.3-2.6-.6-.4-.2-.8-.3-1.2-.6-.3-.2-.5-.4-.8-.6-.2-.2-.4-.5-.6-.7-.2-.3-.3-.6-.4-.9-.3-1.1-.4-2.3-.4-3.5-.1-2.9-.1-5.7 0-8.6v-.7c.1-1.3.2-2.6 1-3.7.3-.3.5-.6.9-.8 1-.5 2.2-.7 3.3-.8 1.2-.1 2.3-.1 3.5 0 2.3.1 4.7.2 7 .4 3.4.3 6.7.6 10.1 1V14c-4.5-.4-8.9-.8-13.4-1.1-1.4-.1-2.9-.2-4.4-.1l-.7.1-.5.1-.4.2-.4.3-.4.4-.3.4-.2.5c-.1.3-.2.6-.2.9-.2 1.4-.3 2.9-.2 4.4 0 1.2 0 2.4.2 3.6.1.3.1.6.2.9l.2.5.3.4.4.4.4.3.4.2.5.2c.4.1.8.2 1.2.2 1.3.2 2.7.3 4 .4 4.5.4 9.1.8 13.6 1.3v3.9c-2.8-.3-5.7-.6-8.5-.8-1.7-.4-3.6-.5-5.5-.7zm30.6-9.5l11.1 2.1V15c1.7.4 3.4.8 5.2 1.1V38c-1.7-.4-3.4-.8-5.2-1.2v-8.6c-3-.6-5.9-1.2-8.9-1.8-2.7-.5-5.5-1-8.2-1.5v8.5c-1.7-.3-3.4-.5-5.2-.8V11.3c1.7.2 3.5.4 5.2.7v8.4c2 .3 4 .6 6 1zm39.3 1.4c1.8.6 3.6 1.2 5.5 1.8v3.6c-5.3-1.8-10.7-3.5-16.1-5.2l-1.8-.5V28c3.9 1.2 7.9 2.4 11.8 3.7 1.7.6 3.5 1.1 5.2 1.7v3.2c-5-1.7-10.1-3.3-15.2-4.8l-1.8-.5v5.8c3.8 1.1 7.6 2.3 11.3 3.5 2.2.7 4.4 1.5 6.7 2.2v3.7c-7.2-2.4-14.5-4.6-21.9-6.7l-.8-.2v-22c5.7 1.6 11.4 3.4 17.1 5.2zM38.5 183.7c-3.2-10.7-4.9-20.7-5-29.3h67c.2 11.3 4.9 21.7 12.3 29.3H38.5z"/>
    <path d="M30.5 22.2l1.3-.5C69.2 7.9 106.5.7 143.9 0c37.4-.6 74.7 5.3 112.1 17.9l1.4.5v1.4l-.9 134.7c-.1 23.2-12.3 55.8-35.3 84.3-18.5 23-44.1 43.4-76.1 54.2H144c-32.3-8.3-57.8-27.9-76.4-50.8-23.8-29.5-36-64.7-36.1-88.6-.2-21.7-.3-43.4-.5-65l-.5-66.4zM74.1 244h68v-27.3H54.9c-.3-.5-.6-1-.8-1.5 4.7 8.4 10.2 16.7 16.5 24.6 1.2 1.4 2.3 2.8 3.5 4.2zm68.1 3.4h-65c16.8 18.4 38.5 33.7 65 41.1v-41.1zm-65.2-.2c-.2-.2-.4-.4-.5-.6.1.2.3.4.5.6zm-1.2-1.3c-.1-.1-.1-.1-.1-.2 0 .1.1.2.1.2zM53 213.2h89.2v-16.1h3.5v91.5c-.1 0-.2.1-.2.1 30.4-10.6 54.8-30.2 72.6-52.3 22.1-27.4 33.9-58.6 34.4-81v.2h-64.3c0-.7.1-1.4.1-2.1v-1.4h64.3c.1-9.6.1-19.2.2-28.7h-64.5V120h64.5c.1-7.8.1-15.5.2-23.2h-64.7v-3.4h-.5v-.1H253c.1-9.4.1-18.7.2-28.1H144.7v28.2h-3.5V36.7c-35.6.6-71.3 7.7-107.1 21.6l-.1-3.6c36.8-14.2 73.6-21.2 110.3-21.5 36.4-.3 72.7 6 108.9 18.5v3.6c.1-11.4.2-22.8.2-34.1C216.9 9.1 180.4 3.4 144 4c-37 .6-73.9 7.7-110.8 21.4L35 88.6c.2 21.2.3 42.4.5 63.7v-.1h65.1v1.4c0 .7 0 1.4.1 2.1H35.4c.2 8 1.9 17.3 4.8 27.1 0-.1-.1-.2-.1-.3h71.4c.6.7 1.2 1.4 1.9 2l2.2 1.5H41.2c2.9 8.8 6.8 18 11.8 27.2zm1 1.9s0-.1-.1-.1c.1 0 .1.1.1.1zm-.1-.2c-.1-.1-.1-.2-.2-.3.1.1.1.2.2.3zm-.6-1c0-.1 0-.1 0 0 0-.1 0-.1 0 0zM41 185.3c-.1-.2-.1-.4-.2-.5.1.2.2.3.2.5zm-.4-1.3c-.1-.2-.1-.4-.2-.6.1.2.2.4.2.6zm-5.2-29.3zm0-2.2zm217 .4zm0 .5zm0 .2zm0 .6zm0 .2zm0 .1s0 .1 0 0c0 .1 0 0 0 0zm0-.3v-.1.1zm0-.3v-.1.1zm0-1.5s0-.1 0 0v-.1.1zm.5-58.6zm-108.2-32h108.4v-6.4C217 42.8 180.9 36.5 144.7 36.7v25.1zm108.4 1.7zm0 1zm0 .1zM145.3 288.8zm-.8.2zm0 0c-.1 0-.1 0-.2.1.1 0 .1 0 .2-.1zm-1.4-.2c-.3-.1-.5-.1-.8-.2.3 0 .6.1.8.2zm2.2-.1c.1 0 .1 0 0 0 .1 0 .1 0 0 0z"/>
    <path d="M49.6 77.5c1.9-1.2 3.9-2.4 5.9-3.4-.3-3.1-.6-7.9.2-10.5 1.5-4.8 5.9-8.7 11.1-7.8.3.1.5.4.3.5-2.9 1.5-5.2 3.8-6.5 7-.4.9-1.8 7.3.3 7.8.2.1.4.1.7.1 3.8-1.6 7.7-3 11.7-4.2 0-3.1.1-7.4 1.2-9.7 2-4.5 7-7.8 12.4-6.2.3.1.5.5.3.6-3.2 1.1-5.8 3-7.5 6-.5.9-2.6 7-.4 7.8h.1c3.7-.8 7.5-1.5 11.6-2 .5-3.1 1.3-7.1 2.7-9.2 3-4.4 9-7.4 14.6-5.3.3.1.5.5.2.6-3.7.9-6.9 2.6-9.2 5.5-.6.8-3.7 6.4-1.9 7.7.2 0 .4 0 .6-.1 3.2-.3 6.9-.4 10.4-.2.9-1.9 1.8-3.6 2.8-4.7 3.5-3.6 11.2-4.9 13.5-1.8.2.2.3.6 0 .6-3.3.1-6.7.6-9.2 2.9-.4.4-1.8 1.8-2.6 3.4 5.3.9 9.8 2.7 11.2 6.1.5 1.1.8 2.1.6 3.3 0 .3-.7.1-.9-.2-6.7-6.2-17.4-6.9-31.7-4.4-14.5 2.5-26.6 6.8-39.6 13 5.2 5.9-3 10.4-5.7 4.2-6.3 7.5-12.1-3.4-3.5-4.7-4.9-7.6 5-7.9 6.3-2.7zm1.8 59.8c1.7-1.3 3.9-2.4 5.7-3.5-1.8-2.9-2.9-7.1-2.2-9.8 1.2-4.8 4.2-7.1 7.9-6.9.3 0 .5.4.3.5-2.6 1.7-3 3.9-3.8 7.2-.4 1.8.6 4.8 1.9 5.9 3.3-1.8 3.2-1.5 6.7-2.8-1-3.1-.8-7.3.5-9.9 2-4.2 5.3-5.8 8.6-5.1.3.1.5.4.2.5-2.6 1.1-7.9 5.3-4.4 13.2 3.2-1.1 3.4-1.3 7.5-2.2.3-3.1.4-6.8 1.6-9 2.5-4.5 8.4-6.6 11.1-5.5.3.1.5.5.2.6-1.5 1-3.5 1.8-5.5 4.8-1.1 1.6-3 5.3-2.5 7.8 2.9-.4 6.7-.6 10-.5.7-1.9 2.1-4.2 3-5.3.6-.7 1.4-1.3 2.2-1.6v11.2c-5.5-.3-11.6.3-17.4 1.7-13.1 3.1-16.5 5.5-28.2 11.8 7 4.4.2 11.1-4.1 4.5-7.6 8.7-12.5-2.5-4.6-4.2-6-7.3 3.8-11.2 5.3-3.4zM48 107.5c2-1.2 4.7-2.1 6.7-3.1-.2-3.1-.6-5.9.3-8.5 1.6-4.7 4.1-7.1 8.1-6.7.3.1.5.4.3.6-2.9 1.5-2.2 3.5-3.5 6.6-.4.9-1.4 4.7.7 5.3.2.1.4.1.7.1 3.8-1.5 2.4-1.4 6.3-2.4.1-3 .3-7.1 1.3-9.3 2.1-4.3 6-6.4 9.6-5.5.3.1.9.8.6.9-2.9.9-7.9 6.8-5.8 11.4 2.5-.4 4.2-1.2 8.7-1.8.6-3.1 1.6-6.2 3.1-8.3 3.1-4.3 7.9-5.2 10.7-3.9.3.1.7.9.4 1-3.7.8-3.8.4-6.2 3.3-1.3 1.5-3.9 5.6-2 7.5 3.2-.2 5.4-.6 8.9-.3.9-1.8 1.6-4.3 2.6-5.3 3.5-3.6 9.6-3.9 11.6-1.5.2.2.3.6 0 .6-3.3.1-4.5 1-7.1 3.3-.3.2-.9 1-1.6 2h-1.9v6.2c-5.4-.5-11.3-.3-16.8.5-14.5 2.2-19.8 5.5-31.8 11.3 5.1 6-3.2 10.2-5.7 3.9-6.4 7.4-12.1-3.7-3.3-4.8-4.9-7.9 3.7-10 5.1-3.1z"/>
    <path d="M186.1 95.5v58.1c0 22.9-18.7 41.5-41.8 41.5-23 0-41.8-18.6-41.8-41.5V95.5h83.6m2-2.1h-87.7v60.1c0 23.9 19.7 43.6 43.8 43.6 24.2 0 43.8-19.7 43.8-43.6l.1-60.1z"/>
    <path d="M142.4 136c.4.4 1.3-.1 1.6-.5.7-1.1.6-2.5.7-3.9.1-1.5.1-2.8-.4-4.2-.8-2.4-1.9-4.3-4.6-4.7-.3-.1-.9.5-.7.7 1.8 1.9 2.5 1.8 3 4.7.5 2.8.2 7.7.4 7.9zm-18.9 34.9c.4.1 1.3-1.1 1.6-1.8.3-.6.2-1.8.2-1.9-.1-.2-1.1.2-1.6.2s-.9-.1-1.6-.2c-.7-.1-.6-1.7-.7-2.6-.2-2.3-.3-4.6-.2-6.9 0-.6.2-1.4.7-1.8.7-.4 1.7-.3 2.5-.2 1.6.3 3.1 1.1 4.8 1.4.9.2 1.9.1 2.8-.2.8-.2 1.4-.8 2.1-1.1.4-.1.9-.2 1.2 0 1.3.7 2.2 2 3.5 2.5 1.7.5 3.5.3 5.3.4 1.4 0 2.8-.2 4.2 0 .6.1 1.6.2 1.8.9.2.9-1.3 1.7-1.1 2.6.4 1.4 2 2.1 2.7 3.3.3.5.2 1.1 0 1.6-.2.4-.9.5-1.2.9-.4.6-.5 1.3-.9 1.9-.4.6-1 1.1-1.6 1.6-1.3 1-2.6 2-4.1 2.8-.5.3-1.4-.3-1.6.2-.4.9-.8 2-1.2 2.6-.4.6-.9.7-1.2 1-.3.4-.7 1.1-.5 1.2.2.1 2.1.1 2.8 0 .7-.1 1.1-.2 1.3-.3.2-.2-.1-.8-.3-2-.1-1.2 3.2-1.7 4.8-2.6 1.7-1.1 3.4-2.3 5.1-3.3.7-.4 1.7-.5 2.3-1.1.3-.3.2-.8.2-1.2 0-1-.2-2-.2-3 0-.5 0-1.1.4-1.4.3-.3.9-.4 1.2-.2.6.3.7 1.2 1.2 1.6.8.6 1.8.8 2.7 1.2.8.4 2.2.4 2.3 1.2.2 1.5-.8 2.9-1.4 4.2-.3.7-1 1.1-1.4 1.8-.2.4-.2.9-.5 1.2-.8.8-1.9 1.3-2.7 2.1-.6.6-1.1 1.2-1.4 1.9-.2.4-.3.8-.5 1.2-.3.4-.8.5-1.1 1.1-.3.6-1 2.2-.4 2.1.6-.1 4.1-.7 4.2-1.1.1-.3-.2-1.2-.4-2.3-.2-1.1 2.3-1.9 3.5-2.6.7-.4 1.7-.2 2.3-.7.4-.3.2-1 .3-1.4.3-.7.5-1.5 1.1-2.1.7-.8 1.9-1.1 2.5-1.9.6-1 1.3-2.2 1.1-3.3-.2-.9-1.3-1.2-1.9-1.9-.5-.5-1-1.1-1.2-1.8-.3-1-.5-2-.2-3 .4-1.2 1.6-2 2.3-3 .6-.9 1.5-1.6 1.8-2.6.3-1.2-.3-2.5-.4-3.7 0-.2-.2-.5 0-.7.8-.7 1.7-1.6 2.8-1.8 1-.1 1.8.9 2.8 1.1 1 .1 2.2.2 3.2-.2.3-.1.4-.8.2-1.1-.7-.6-2.2-.4-2.5-1.2-.2-.7 1.2-.9 1.6-1.6.5-.9.9-1.9.9-3 0-.4-.8-.4-1.1-.2-.5.3-.5 1-.9 1.4-.3.3-.8.4-1.2.4-.4 0-1-.2-1.2-.5-.3-.3-.5-1-.2-1.2.8-.5 1.9-.3 2.8-.5.4-.1.9-.2 1.1-.5.3-.6.3-1.3 0-1.9-.1-.3-.6-.3-.9-.2-.4.1-.6.7-1.1.7-.6 0-1.2-.3-1.6-.7-.3-.4-.4-1-.2-1.4.3-.7 1.3-.9 1.6-1.6.4-.9.7-2 .5-3-.1-.4-.9-.6-1.2-.3-.5.3-.4 1-.7 1.4-.4.6-.6 1.5-1.2 1.8-.4.2-1.1-.2-1.2-.7-.2-.8.3-1.6.5-2.3.3-.8.7-1.6 1.2-2.3.5-.7 1.5-1 1.9-1.8.3-.6.6-1.4.2-1.9-.3-.4-1-.1-1.4.2-.3.2-.2.9-.5 1.1-.9.4-2 .1-2.8.5-.7.4-1 1.1-1.4 1.8-.7 1.2-.8 3.3-1.1 3.5-.3.3-1 .2-1.2-.2-.3-.5.2-1.3-.2-1.8-.3-.3-1.1-.3-1.4 0-.4.4-.5 1-.5 1.6 0 .9.1 1.8.5 2.6.7 1.3 1.8 2.3 2.7 3.5.9 1.2 2 2.3 2.5 3.7.3.9.4 2 0 2.8-.3.8-1.1 1.6-1.9 1.6-1.1-.1-1.9-1.3-2.8-1.9-.9-.6-1.8-1.4-2.8-1.6-2.3-.4-4.7 0-7.1 0-2.1 0-4.3.3-6.4 0-1-.1-2.1-.5-2.8-1.2-.7-.7-1.2-1.7-1.2-2.6-.1-1.3.4-2.5.9-3.7.4-.8 1-1.6 1.8-2.1.6-.4 1.6-.6 2.2-.4.7.3 2.6 2.9 3 2.8.4-.1.1-2.4-.1-3.1-.4-1.1-1.6-1.7-1.9-2.8-.1-.3.4-.7.7-.7.6 0 1.3.4 1.8.9.3.2 1.6 2.1 1.9 2 .3-.1-.2-2.7-.5-3.5-.5-1.1-2.1-1.9-2.2-2.2-.1-.2 0-.4.3-.5.6 0 1.2.3 1.8.5.5.2 1.3.8 1.6.7.3-.1 0-1-.3-1.4-1.1-1.3-2.6-2.1-3.7-3.3-.6-.6-1.2-1.4-1.2-2.3 0-.5.6-1 1.1-1.2.9-.4 2.1-.6 2.9-1.1.3-.2.1-.4-.2-.5-1.3-.5-2.7-.7-4.1-.7-.8 0-1.5.5-2.3.7-.5.2-1 .5-1.6.5-1 0-2.1.1-2.8-.5-.4-.4.1-1.2.4-1.8.3-.5.8-.8 1.2-1.2.3-.3 1.2-.6.9-.7-.3-.1-1.9-.1-2.8.2-.8.2-1.5.5-2.1 1.1-.5.5-.4 1.6-1.1 1.9-1.2.7-1.8.5-3.1 1.1-.3.2-1 1-1.3 1.1-1.6.2-4.8-.6-4.9-.3-.2.3 2.5 1.8 3 3.2.2.6-1.3-.3-1.9-.2-1 .1-2 .3-2.8.7-.8.4-1.5 1.1-2.1 1.8-.6.6-.9 1.4-1.6 1.9-.3.2-1-.1-1.2.2-.3.4-.4 1.3.1 1.3l2.8.2c.5 0-.5 1.1-.2 1.6.2.3.9.2 1.2 0 .4-.2.6-.8 1.1-1.1.5-.3 1-.7 1.6-.7.7 0 1.6.3 1.9.9.3.6-.4 1.3-.5 1.9-.1.7.3 1.6-.2 2.1-1.5 1.4-2 .2-4.2 3-1.8 2.2-1 1-1.6 3.9-.1.6-.2 1.2-.7 1.6-.5.3-1.3.5-1.8.2-1-.5-1.6-1.5-2.3-2.5-.4-.5-.2-1.4-.7-1.8-.7-.4-1.7-.4-2.5-.2-.6.2-.9.9-1.2 1.4-.8 1.1-1.4 2.4-2.1 3.5-.6.9-1.4 1.7-1.9 2.6-.3.5-.1 1.1-.4 1.6-.6 1.4-1.1 2.7-1.8 4-.3.5-.9.8-1.1 1.4-.1.6.1 1.9.4 1.9.3 0 1.3-.7 1.9-1.1.7-.3 2-.7 2.1-.9.1-.2-.7-.9-1.1-1.4-.7-.9.8-2.2 1.4-3.2.2-.4.7-.5.9-.9.4-.8.5-1.8.9-2.6.5-1.1 1.1-2.2 1.9-3 .4-.4 1.1-.7 1.6-.3.8.5.9 1.6 1.4 2.5.4.6.9 1.2 1.1 1.9.2.6-.4 1.4 0 1.9.5.6 1.5.8 2.3.9l1.8.2.2 2.5c.1.9-1.9.2-2.8.4-.8.2-1.6.5-2.5.7-.8.2-2.3-.5-2.5.4-.7 3.5.2 7 .4 10.5 0 .9-.5 2.4.4 2.8l1.7.7c.3.7.5 1.6.9 2.1-.1.5.4.6.8.7zm55.1-66.7c0-.7-.5-1-1.4-1h-3.4c-.9 0-1.4.3-1.4 1s.5 1 1.4 1h.7v6.3c0 1.1.3 1.6 1 1.6s1-.5 1-1.6v-6.3h.7c1 0 1.4-.3 1.4-1zm-9.7 2.2c0 .8-.4 1.2-1.2 1.2h-.9v-2.4h.9c.8 0 1.2.4 1.2 1.2zm2.2 5.7c0-.4-.2-.8-.6-1.3l-1.6-2c1.3-.3 2.1-1.3 2.1-2.7 0-1.8-1.2-3.1-3.3-3.1h-1.5c-1.1 0-1.4.5-1.4 1.6v6.8c0 1.1.3 1.6 1 1.6s1-.5 1-1.6V109l2.3 3.3c.4.5.7.8 1.1.8.5 0 .9-.4.9-1zm-10.6-3.1h-2.1l1.1-3.6 1 3.6zm2.8 3c0-.2 0-.4-.1-.7l-2.2-7c-.3-.8-.8-1.3-1.5-1.3s-1.2.5-1.5 1.4l-2.3 6.9c-.1.2-.1.4-.1.6 0 .6.4 1.1.9 1.1.4 0 .8-.3 1-1l.3-1h3.2l.2.9c.2.7.5 1.1 1 1.1.7.1 1.1-.3 1.1-1zm-9.1-3.5c0-1.1-.4-1.5-1.2-1.5h-1.3c-.8 0-1.2.3-1.2 1s.4 1 1.2 1h.6c0 1.2-.6 2-1.6 2-1.1 0-1.9-1.2-1.9-3.1 0-1.9.8-3 1.9-3 1.1 0 1.6.9 2.1.9.4 0 .8-.5.8-1 0-1-1.1-2-2.8-2-2.4 0-3.9 2-3.9 5.2 0 3.1 1.5 5.2 3.7 5.2s3.6-2 3.6-4.7zm-7.8-4.3c0-.7-.5-1-1.4-1h-3.4c-.9 0-1.4.3-1.4 1s.5 1 1.4 1h.7v6.3c0 1.1.3 1.6 1 1.6s1-.5 1-1.6v-6.3h.7c.9 0 1.4-.3 1.4-1zm-6.6 0c0-.7-.5-1-1.4-1H135c-.9 0-1.4.3-1.4 1s.5 1 1.4 1h.7v6.3c0 1.1.3 1.6 1 1.6s1-.5 1-1.6v-6.3h.7c.9 0 1.4-.3 1.4-1zm-7.4 4.5v-4.1c0-1.1-.3-1.6-1-1.6s-1 .5-1 1.6v3.9c0 1.7-.6 2.6-1.7 2.6s-1.7-.9-1.7-2.6v-3.9c0-1.1-.3-1.6-1-1.6s-1 .5-1 1.6v4.1c0 2.9 1.4 4.5 3.7 4.5 2.2 0 3.7-1.6 3.7-4.5zm-8.2-4.5c0-.7-.5-1-1.4-1h-3.4c-.9 0-1.4.3-1.4 1s.5 1 1.4 1h.7v6.3c0 1.1.3 1.6 1 1.6s1-.5 1-1.6v-6.3h.7c.9 0 1.4-.3 1.4-1zm-6.9 5.7c0-1.5-.8-2.4-2.4-3-1-.4-1.6-.5-1.6-1.2 0-.5.4-.8 1-.8.5 0 1.1.3 1.5.3.6 0 .9-.4.9-.9 0-.8-.9-1.4-2.4-1.4-1.9 0-3.1 1.3-3.1 3.1 0 1.5.8 2.2 2.4 2.8.9.3 1.5.6 1.5 1.4 0 .6-.4 1-1 1-.9 0-1.6-.5-2.1-.5-.6 0-1 .4-1 1 0 .8 1.2 1.6 2.8 1.6 2.2-.1 3.5-1.5 3.5-3.4z"/>
</svg>
