<svg xmlns="http://www.w3.org/2000/svg" viewBox="0 0 175.5 175.5" width="20" height="20">
    <path d="M151.125 3.25C140.75 2.25 113.5.75 87.75.75s-53 1.5-63.375 2.5C12.625 4.5 7.125 10.5 7.125 22.125c0 22.125.875 56.75 2.375 77 1.375 18.125 2.375 32.375 24.875 46 16.125 9.75 32.125 18.125 53 29l.375.25.375-.25c20.875-10.75 37-19.25 53-29 22.5-13.75 23.625-28 24.875-46 1.5-20.375 2.375-54.875 2.375-77 0-11.625-5.5-17.625-17.25-18.875zm8 95.375c-1.25 17.25-2.125 28.75-21.625 40.5-15.25 9.25-28.75 16.375-49 26.875l-.75.375L87 166c-19.75-10.25-33.75-17.625-49-26.875-19.375-11.75-20.25-23.125-21.5-40.5-1.5-20.125-2.375-54.5-2.375-76.5 0-8.125 2.75-11 11-11.875 10.25-1 37.25-2.5 62.625-2.5 25.5 0 52.375 1.5 62.625 2.5 8.25.875 11 3.875 11 11.875 0 22-.75 56.375-2.25 76.5z"/>
    <path d="M86.718 52.565l-2.375 8.125c-8.875-17.875-19.375-27.375-32-27.375-13.75 0-20.375 9.125-22.375 12.125 3.5-8.875 12.75-16.625 25.125-16.625 17 0 26.625 13.375 31.625 23.75zM23.126 70.994c0 29.875 8.75 44.25 21.75 44.25 6 0 10.375-3.75 10.375-10 0-5.25-2.25-9.375-3.25-11.125.375 1.75.625 3.625.625 5.875 0 5.125-3.5 6.875-6.375 6.875-8.5.125-17.25-16.75-19.625-35.875h-3.5zm97.334-42.179c12.374 0 21.624 7.75 25.25 16.625-2-2.875-8.75-12.125-22.376-12.125-12.75 0-23.25 9.5-32 27.375l-2.375-8.125c4.875-10.375 14.5-23.75 31.5-23.75zm28.489 42.179c-2.375 19.125-11.125 36-19.75 36-2.875 0-6.25-1.625-6.25-6.875 0-2.25.25-4.125.625-5.875-.875 1.625-3.25 5.875-3.25 11.125 0 6.125 4.25 10 10.375 10 13-.125 21.75-14.5 21.75-44.375h-3.5z"/>
    <path d="M131.3 45.268c-11.125 0-22 8.875-28.375 29.25l4.25 2.875-2 10-8 3.375-1.375 9.875 3.875-4.75 4.125-1.75-1.25 6.375-7.125 2.875-2.5 17.125 1.75 5.5-6.875 2.75-6.875-2.75 1.75-5.5-2.5-17.125-7.125-2.875-1.25-6.375 4.125 1.75 3.875 4.75-1.5-9.875-7.875-3.25-2-10 4.25-2.875c-6.5-20.5-17.375-29.375-28.375-29.375-13.75 0-19.375 13-18.625 23.75h3.25c2.75 15.25 10.375 28 16.25 28 1.75 0 2.75-1.375 2.75-3.625 0-5.375-3.625-11-3.625-21.125 0-4.75 1.5-7.625 5.125-7.625 2.375 0 4.375 2.5 5.5 5.25-2.125 7.625-1.875 14 4.25 16.75 3 1.375 6.625 3 6.625 3s3.875 16.375 4.125 17.625c.25 1.125.875 2.5 1.375 3.5.75 1.25 5.75 10 5.75 10s1.75 8.625 2.125 10.5c1 5 4.5 5 8.5 5s7.5 0 8.5-5c.375-1.875 2.125-10.5 2.125-10.5s5.125-8.75 5.75-10c.5-.875 1.125-2.375 1.375-3.5s4.125-17.625 4.125-17.625 3.625-1.625 6.625-3c6.125-2.75 6.375-9.125 4.25-16.75 1.125-2.75 3.125-5.25 5.625-5.25 3.5 0 5.125 3 5.125 7.625 0 10.25-3.625 15.875-3.625 21.125 0 2.25.875 3.625 2.75 3.625 5.75 0 13.5-12.875 16.25-28h3.25c.875-10.75-4.75-23.75-18.5-23.75zm-69.75 38.5c-4.375-1.875-4.75-7-3.375-13.75l4.75 7.375 1.75 7.625c0 .125-1.75-.625-3.125-1.25zm52.5 0c-1.5.625-3.125 1.375-3.125 1.375l1.75-7.625 4.75-7.375c1.375 6.625 1 11.75-3.375 13.625z"/>
</svg>
