<svg xmlns="http://www.w3.org/2000/svg" viewBox="0 0 1326 1326" width="20" height="20">
    <path d="M925.7 510.6c47.7-83.5 60.6-181.8 143.3-231.4 55.1-33.1 132.2-27.6 165.3 33.1 5.6 16.5 16.6 27.6 16.6 38.6 16.5 49.6 49.5 104.7 27.6 159.8-5.6 11-33.1 11-38.6 22-16.5 82.7-49.6 154.3-77.1 231.4-11 27.6-38.6 49.6-60.6 66.1-16.5 11-44.1 11-38.6-11 0-44.1 0-88.2 16.5-132.2 16.5-33.1 11-71.6 0-104.7-5.5-22-11-55.1-33.1-71.6-5.6 0-16.5-5.5-22 5.5-5.5 33.1 16.5 60.6 5.5 93.7-16.5 38.6-60.6 44.1-82.7 77.1-38.6 49.6-22 115.7-49.6 176.3-22 49.6-60.6 93.7-88.2 143.3-22 33.1 0 77.1-27.6 104.7-22 27.6-55.1 49.6-88.2 33.1-22-11-33.1-38.6-16.5-60.6 16.5-27.6 66.1-16.5 71.6-60.6 0-49.6-11-99.2 0-143.3 11-22 27.5-38.6 38.6-60.6 16.5-11 44.1-16.5 38.6-38.6 0-11-22 5.5-33.1 0-5.5-5.5-5.5-11-5.5-16.5 27.5-49.6 115.7-77.1 77.1-143.3h-16.5c-5.5 0-5.5-5.5-5.5-11 44-16.6 60.6-60.7 82.7-99.3zm242.4 319.6c41.9-83.8 71.6-170.8 104.7-259 0-5.5 27.6-22 38.6-5.5 5.5 11 5.5 16.5 11 27.6 5.5 33.1 5.5 71.6-5.6 104.7-11 44.1-11 88.2-27.6 126.7-11 16.5-22 33.1-33.1 55.1-27.6 44.1-55.1 99.2-104.7 115.7-27.6 11-66.1 33.1-93.7 0-5.5-11-5.5-22 0-33.1 38.7-49.5 82.9-77.1 110.4-132.2zM620.7 284.7c-15.4-28.2-21.9-66.4-60.7-77.1-24.7-6.9-16.5-33.1-27.5-38.6-9.7-3.3-24-2.8-33.6-7.3-11.1-5.2-17.5-15.3-28-20-11.2-5.1-24.3-2.4-34.3-4.4-7.9-2-13.4-11.2-21.3-13.6-36.1-10.9-71.5-22.5-103.2-4.4-27.6 11-60.6-5.6-99.2 16.5-22 22-49.6 38.6-66.1 60.6-11 16.5-27.6 22-22 44.1C323.2 163.4 427.9 394.8 560 505c27.6 22 66.1 11 71.7-22 11.1-66 22.1-137.7-11-198.3zm88.7 0c15.4-28.2 21.9-66.4 60.6-77.1 24.8-6.9 16.5-33.1 27.5-38.6 9.8-3.3 24-2.8 33.6-7.3 11.2-5.2 17.5-15.3 28.1-20 11.2-5.1 24.2-2.4 34.3-4.4 7.9-2 13.4-11.2 21.3-13.6 36-10.9 71.5-22.5 103.1-4.4 27.5 11 60.6-5.6 99.2 16.5 22 22 49.6 38.6 66.1 60.6 11 16.5 27.6 22 22 44.1-198.3-77-303 154.4-435.2 264.6-27.6 22-66.1 11-71.6-22-11.1-66.1-22.1-137.8 11-198.4zM400.3 510.6c-47.8-83.5-60.7-181.8-143.3-231.4-55.1-33.1-132.2-27.6-165.3 33.1-5.5 16.5-16.5 27.6-16.5 38.6-16.5 49.6-49.6 104.7-27.6 159.8 5.5 11 33.1 11 38.6 22 16.5 82.7 49.6 154.3 77.1 231.4 11 27.6 38.6 49.6 60.6 66.1 16.5 11 44.1 11 38.6-11 0-44.1 0-88.2-16.5-132.2-16.5-33.1-11-71.6 0-104.7 5.5-22 11-55.1 33.1-71.6 5.5 0 16.5-5.5 22 5.5 5.5 33.1-16.5 60.6-5.5 93.7 16.5 38.6 60.7 44.1 82.7 77.1 38.6 49.6 22 115.7 49.6 176.3 22 49.6 60.6 93.7 88.2 143.3 22 33.1 0 77.1 27.6 104.7 22 27.6 55.1 49.6 88.2 33.1 22-11 33.1-38.6 16.5-60.6-16.5-27.6-66.1-16.5-71.6-60.6 0-49.6 11-99.2 0-143.3-11-22-27.6-38.6-38.6-60.6-16.5-11-44.1-16.5-38.6-38.6 0-11 22 5.5 33.1 0 5.6-5.5 5.6-11 5.6-16.5-27.7-49.6-115.9-77.2-77.3-143.3h16.5c5.6 0 5.6-5.5 5.6-11-44.1-16.6-60.7-60.7-82.8-99.3zM157.9 830.2c-41.9-83.8-71.6-170.8-104.7-259 0-5.5-27.6-22-38.6-5.5-5.6 11-5.6 16.5-11 27.6-5.5 33.1-5.5 71.6 5.5 104.7 11 44.1 11 88.2 27.6 126.7 11 16.5 22 33.1 33.1 55.1 27.6 44.1 55.1 99.2 104.6 115.7 27.6 11 66.1 33.1 93.7 0 5.5-11 5.5-22 0-33.1-38.6-49.5-82.7-77.1-110.2-132.2zm566.6 350.6c.5-26.2-68.2-23.4-68.2-23.4s-68.2-2.8-68.2 23.4 50.3 35.8 68.9 35.8c.1 0 66.8 1.4 67.5-35.8z"/>
</svg>
