<svg width="20" height="20" viewBox="0 0 100 100" xmlns="http://www.w3.org/2000/svg">
    <path d="M63.656 52.927C58.34 64.356 43.97 90.874 40.99 95.949c-.191.32-.347.576-.465.763-.442.675-.824 1.067-1.147 1.051 0 0 5.312-9.724 9.463-20.13a477.325 477.325 0 0 1-12.537-24.754c-.69-1.457-1.02-2.18-1.017-2.9v-.004c.002-.711.346-1.43 1.027-2.896C41.892 35.08 55.553 9.349 59.51 3.224c.46-.714.706-.98 1.036-.98h.03s-5.515 10.32-9.451 20.132A479.974 479.974 0 0 1 63.68 47.145c.683 1.454 1.017 2.154 1.017 2.866 0 .713-.358 1.447-1.04 2.916zm25.642-5.62c-1.452-3.03-5.972-11.924-9.803-18.868-5.252-9.52-14.63-25.191-15.694-26.62C62.749.406 62.159.343 61.186.242l-.143-.017C59.625.072 53.616 0 50 0c-3.096 0-9.675.08-11.207.233-1.444.143-1.834.586-2.657 1.661C35.004 3.37 25.47 19.487 20.506 28.44c-3.593 6.472-9.279 17.664-9.808 18.869C10.222 48.395 10 49.252 10 50c0 .8.222 1.653.7 2.69 1.193 2.585 4.788 9.744 9.805 18.87 5.234 9.519 14.69 25.251 15.693 26.62 1.06 1.448 1.752 1.506 2.71 1.594 1.455.129 7.733.227 11.092.227 3.627 0 10.188-.145 11.092-.227.896-.082 1.67-.152 2.709-1.594.953-1.321 11.124-18.27 15.694-26.62 4.38-8 9.243-17.613 9.803-18.87.618-1.378.702-2.107.702-2.691 0-.458-.091-1.418-.702-2.69z" fill-rule="evenodd"/>
</svg>
