<svg width="20" height="20" viewBox="0 0 100 100" xmlns="http://www.w3.org/2000/svg">
    <path d="M37.43 1.056a81766.243 81766.243 0 0 0-10.536 18.916l-4.83 8.664a71055.518 71055.518 0 0 0-9.833 17.644l-1.996 3.58.908 1.628c.5.895 3.39 6.06 6.422 11.476 3.034 5.417 7.72 13.79 10.416 18.608 4.545 8.121 7.873 14.066 9.583 17.117l.703 1.254 11.667-.002 11.666-.002.486-.874c.919-1.653 6.059-10.845 17.671-31.603 2.317-4.14 5.478-9.795 7.026-12.565l2.813-5.036-2.862-5.143c-4.02-7.226-19.2-34.52-22.281-40.063L61.886.038H37.994l-.565 1.018m27.205 5.54A82014.346 82014.346 0 0 1 76.42 27.69c8.307 14.858 12.23 21.893 12.276 22.015.05.128-1.091.144-10.456.144H67.729l-.42-.734c-.23-.404-1.038-1.8-1.796-3.102-2.66-4.57-7.46-12.83-10.208-17.566-1.527-2.63-2.936-5.053-3.132-5.385l-.356-.603.28-.657c.154-.362.986-2.222 1.848-4.132 2.927-6.482 5.62-12.59 5.62-12.746 0-.031-.267-.055-.592-.054l-.592.004-1.813 3.192c-.998 1.757-4.444 7.817-7.66 13.468L36.614 43.143c-2.065 3.63-3.754 6.623-3.754 6.652 0 .03 1.012.055 2.25.056l2.248.002 1.173 2.105c1.093 1.96 9.133 16.336 10.737 19.197.394.704.747 1.279.785 1.279.037 0 1.857-3.196 4.045-7.103l6.31-11.268 2.333-4.167 2.484-.026c1.366-.013 2.483-.002 2.483.026 0 .028-2.926 5.132-6.503 11.342l-7.73 13.421-4.64 8.05-5.185 8.996-1.774 3.077-.637.028c-.494.022-.626 0-.587-.094.028-.068 1.78-4.012 3.894-8.766a2978.26 2978.26 0 0 0 3.868-8.713c.018-.054-11.357-19.937-15.1-26.394l-.55-.947-10.84-.047-10.84-.048 2.75-4.924c1.512-2.708 3.061-5.478 3.442-6.155.382-.677 2.111-3.767 3.844-6.866 5.27-9.426 8.845-15.817 10.46-18.702.847-1.51 2.55-4.558 3.788-6.771 1.236-2.214 2.46-4.398 2.718-4.853l.47-.83h22.783l3.295 5.895M50.626 29.61c.267.48 2.861 5.114 5.766 10.296 2.904 5.183 5.345 9.557 5.423 9.722l.144.299-2.038 3.63c-1.12 1.998-3.731 6.657-5.801 10.355a1657.69 1657.69 0 0 1-3.92 6.98l-.158.257-2.025-3.618a9888.943 9888.943 0 0 0-8.782-15.679c-.597-1.06-1.066-1.976-1.043-2.037.023-.06 2.27-4.073 4.99-8.916l5.892-10.486c.518-.925.97-1.68 1.005-1.68.035.002.281.396.547.877" fill-rule="evenodd"/>
</svg>
