<svg xmlns="http://www.w3.org/2000/svg" viewBox="0 0 281 281" width="20" height="20">
    <path d="M58 89.7c6.9-9.2 15-10.9 21.3-11.1 10.2-.2 16.4 7.6 16.4 7.6s3.5-10.9 6.2-14.8c1.2-1.6 2.5-2.8 4.2-3.5-.2 0-.5 0-.9.2L77 2.1c14.1-.5 31 8.1 19.6 23.8-.2.7.5.9.9.5 2.1-2.1 4.9-3.5 8.1-3.5 6 0 10.9 4.9 10.9 10.9s-4.9 10.9-10.9 10.9c-.7 0-1.4 0-2.3-.2.7 4.4 26.1 14.6 36-4.9-1.8 1.4-4.2 2.1-6.5 2.1-6 0-10.9-4.9-10.9-10.9s4.9-10.9 10.9-10.9c2.1 0 4.2.7 5.8 1.6-2.1-2.1-3.5-4.9-3.5-7.9 0-6 4.9-10.9 10.9-10.9s10.9 4.9 10.9 10.9c0 3-1.2 5.5-3 7.4 1.6-.7 3.2-1.2 5.1-1.2 6 0 10.9 4.9 10.9 10.9S165 41.6 159 41.6c-2.8 0-5.1-.9-7.2-2.5 2.1 7.4 19.6 21.5 37.2 5.3-.7.2-1.4.2-2.3.2-6 0-10.9-4.9-10.9-10.9s4.9-10.9 10.9-10.9c3.2 0 6 1.4 8.1 3.5.5.5 1.2.2.9-.5-11.3-15.7 5.5-24.3 19.6-23.8l-28.2 66.3c-.5 0-.7-.5-1.2-.5 2.3.9 3.2 2.3 4.4 4.9 0 0 17.3-8.5 29.3-6.7 0 0-.9 8.5-3.7 15.7-2.8 7.2-6.2 12-6.2 12s19.9 20.6 17.3 43.9c-1.4 12.7-3.2 15.7-3.2 15.7-6-7.6-14.6-9.2-14.6-9.2s15 14.8 12.2 31.7c-1.2 7.4-3.2 16.6-4.4 19.9-1.8 5.3-2.5 18.7-2.5 18.7s-6.7-13.6-12.7-18.3c0 0 7.4 20.6-4.4 37.4-5.1 7.2-15.7 18.3-15.7 18.3s-3.7-15-10.9-20.3c0 0 .2 18.3-4.4 25.6-9 14.8-35.6 23.8-35.6 23.8s-1.4-45.3-3.7-51.5c0 0-4.9 10.4-6.2 20.8-.9 6.7-1.2 14.8-1.2 14.8s-20.8-28.7-23.3-32.4c-8.3-12.7 6.9-32.8 6.9-32.8-6.9.9-15.5 13.4-15.5 13.4s-.9-17.6-.9-25.2c.2-8.3 8.3-17.6 8.3-17.6-7.2 4.4-12.9 4.6-19.9-1.2-7.4-5.8-9-24.3-9-24.3s12.9 7.2 22.4 3.7c9.5-3.2 21.5-15.9 21.5-15.9l-24.3-6.9S84.5 114 72.5 114c-11.3 0-22.2 10.6-22.2 10.6s-1-23.4 7.7-34.9zm-36 30.9c7.4 14.6 16.9 21 27.3 22.2s27.7-7.4 32.8-7.4 12.2 2.8 14.8 3.9c-5.8-10.4-14.8-11.8-21.7-12.7-6.9-.9-18.7 5.1-29.3 5.5-10.7.8-19-6.8-23.9-11.5zm92.7-13.6c6 0 10.9-4.9 10.9-10.9h-6c0 3.5-1.8 5.8-5.1 5.8-3.2 0-4.6-2.3-4.6-5.8h-6c-.1 6 4.8 10.9 10.8 10.9zm-19.9 10.9l35.1 10.6s-23.3 25.6-36.3 28.7c-5.8 1.4-9 1.2-15-1.2-.2-.2 4.6 12.2 15.9 8.5 12.2-3.9 26.1-7.4 9.2 12.2-2.3 2.8-5.8 8.3-5.8 11.6v3.5c1.8-.9 3.5-1.4 5.5-1.6 12.2-1.6 18.3 3.2 9 15.7-3.9 5.1-9.7 16.6-6.7 21.5.9 1.2 4.4 6 8.5 12 2.1-7.9 5.1-13.9 5.1-14.1 9.9-20.8 13.9-9.5 18 .5 2.1 5.1 3.2 22.6 3.9 40.4 6.9-3.7 14.6-8.5 18-14.1 1.8-3 3-13.2 3-20.6-.2-18.9 5.8-17.1 15.7-7.9 3 2.8 6 6 8.1 9.9 1.6-2.1 3.2-3.9 4.4-5.5 8.5-12.5 3.2-28.7 3.2-28.7-11.1-30.7 8.3-16.2 15-11.1.5.2.7.7 1.2.9.9-3.7 2.3-9.7 3-15 1.6-9.5-7.2-19.2-9.5-23.1-6.7-11.8-8.1-21.7 14.8-14.6C219.7 120 206.5 104 204 101c-7.2 8.1-15 15.7-15 15.7 1.8 2.1 3.7 26.6.7 36.5-6.9 22-15.5 25.2-15.5 25.2s-.9-15.5-6.9-25.6c0 0-.9 17.1-6.5 27-9 15.9-17.1 18.5-17.1 18.5 3.2-12 .2-31.4.2-31.4-6 14.1-18 17.8-18 17.8l-3-21 7.9-5.8 1.6 11.6s3-.7 5.1-6.7c2.8-7.6 6.9-26.3 13.2-6.2 1.6 5.3 2.3 18 2.3 18s5.8-9.9 5.8-23.8c0-8.5 2.5-29.1 12.7-10.4 3 5.5 6.9 14.3 6.9 14.3s6.2-22.6-1.4-41.1c0 0 19.4-16.9 28.7-33.7 0 0-22.4 9.2-34 20.6l-6-9s5.8-5.5 15.5-11.6c0 0-1.8-3-7.6-3h-60.5c-4.2.2-6 5.8-7.6 10.6h37.2V96h-9.5c0 10.2-8.3 18.5-18.5 18.5s-18.5-8.1-18.5-18.3c-3 .2-6-1.2-8.1-3.7 0 0-3.7-4.2-8.5-3.9-4.2.2-9 1.2-13.6 7.2-1.8 2.5-3.2 6.7-3.9 11.1 3.7-1.4 7.6-2.3 11.8-2.3 11-.4 17.7 6.6 20.9 13.3zm16.4-60.4l3.2 9.2H180l3-9.2h-71.8z"/>
</svg>
