<svg xmlns="http://www.w3.org/2000/svg" viewBox="0 0 281 281" width="20" height="20">
    <path d="M281 141c0 77.6-62.9 140.5-140.5 140.5S0 218.6 0 141 62.9.5 140.5.5 281 63.4 281 141zM140.5 7.3C66.7 7.3 6.8 67.2 6.8 141c0 73.8 59.9 133.7 133.7 133.7S274.2 214.9 274.2 141 214.3 7.3 140.5 7.3zm.7 5.8c-58.5 0-106 44.6-106 99.6v56.6c0 55 47.5 99.6 106 99.6s106-44.6 106-99.6v-56.6c0-55-47.4-99.6-106-99.6zm98.9 135.6c1.6 6.7 2.4 13.6 2.4 20.7 0 52.4-45.3 94.8-101.3 94.8S40 221.7 40 169.3c0-7.1.8-14 2.4-20.7 15.4 37.2 53.8 63.6 98.9 63.6 45 .1 83.4-26.3 98.8-63.5zm2.4-36v27.2c-13.4-40.6-53.7-70.1-101.3-70.1-47.6 0-87.9 29.5-101.3 70.1v-27.2c0-52.4 45.3-94.8 101.3-94.8 56-.1 101.3 42.4 101.3 94.8zM44.5 141c12.9-38.5 51.3-66.5 96.7-66.5s83.8 28 96.7 66.5c-12.9 38.5-51.3 66.5-96.7 66.5S57.4 179.6 44.5 141z"/>
    <path d="M176.3 216.3c1.1-.2 7-2.4 7.9-3l-.2 30.9c-.9.6-8.5 3.3-9.4 3.3-1.2-1.1-10.7-12.4-11.5-13.8l-.3 17.2c-.8.3-8.7 1.6-9.8 1.4-.8.3-7.7.6-9.2.5l-1.2-3.8c-1.2.2-11.5-.6-12.7-.9l-1.9 4c-1.5-.2-7.9-1.1-9.2-1.6l2.2-5.3c-6.6 7.8-16 2.7-20.6.3-4.5-2.4-9.5-8.8-10.3-15.4v1.8c-.8 7-8.3 4.9-13.8.4-8.6-6.5-11.2-13.9-11.2-20.4.8 1.1 7 6.7 8.8 8-.3 5.5 3.3 7.5 5.6 7.7 2.3.3 2.1-2.2 1.5-3.5-.6-1.3-6.7-7-8-8.6-2.8-3-6.3-8.1-6.8-11-1.1-5.8.5-8.4 2.8-8.7 2.3-.4 6.6 1.4 12.2 6.8 9.2 8.6 9 13.2 8.4 15.9-2.1-.7-8-4.9-8.8-5.6.8-2.2-1.6-6.6-3.8-8-3-1.8-3.9.7-3 3.2.7 2.1 5.6 6.9 7.4 8.4 2.3 2.2 8.2 7.7 8.8 10v-2.2c.2-15.9 13.9-10.6 19.5-8 10.4 4.7 13 11.1 13 16-.9-.2-8.9-1.8-10-2.3 0-2.6-3.2-8.3-8.3-8.2-5.1.2-5 5.5-5 7.3s.8 10 5.8 12 7.6-2.6 7.3-3.2l10.6 2.1 8.7-18.9c.6.3 9.7.6 10.9.4l10.5 29.6 2.2-30.4c.6-.3 9.1-1.4 9.9-1.6.8.6 10.4 13.4 11 14.2v-17zm-36.1 26.3l-3.6-13.4-4.5 13c.8.1 6.5.4 8.1.4zm71.7-45.9l8.6 21.1c-.8 1.5-4.5 4.9-5.4 5.5l-1.5-3.7c-.7.7-7.7 6.9-8.9 7.7l-1 6c-1.1.9-13 8.7-16.2 9.6l.1-30.9c1.3-.7 7.5-3.4 7.9-4l.4 28.8 7-33.4c1.9-1.2 7.9-5.6 9-6.7zm-.3 18.2l-3.4-8.7-2.2 13.6c1.1-.9 4.8-4.1 5.6-4.9zm-8.7-155.4c1 .2 4.1.9 5.2.2 5-3.4-1.7-10.5-4.4-12.6-9.1-7.5-23.3-13-26.9-13.8-.2 2.1-2 24.8-2 26.6l-11.9-30.4c-2.3-.9-12.4-2.2-14.5-2.1l-10.2 23.9-11-23.2c-2.5.2-10.8 1.8-13.6 2.8l-9.2 25.8c.7-2.3-.6-4.3-2-5.5-2.8-2.7-8.7 0-10.3.6-1.6.6-6.1 3.1-7.9 2.1-1.8-1-1.6-4 .8-5.8 4.8-3.3 7.4-1.4 7.5-.2 2.1-1.1 8.9-3.9 10.9-4.6 0-1.1-.3-4.9-4.4-5.2-5.8-.4-10.9 2.5-18.6 7.9-7.7 5.4-9.5 11.4-7.3 17.2 2.2 5.8 17.2-3.9 19-2.5 1.8 1.4-.2 4.6-2.4 5.8s-5.7 2.3-6.1.8c-1.9.7-10.5 6-12.1 7.5.4 5 4.2 3.7 8.5 2.3 4.2-1.5 15.1-8.1 16.6-8.9 1.4-.8 4.9-4 5.9-5.5l-1 3.3c1.8-.7 8.6-3 10.2-3.4l2.1-5.6c1.4-.6 12.1-2.2 14.3-2.6l2.5 4.7c1.1-.3 6.6-.5 7.6-.5h7.9l1.8-4.6c1.6-.2 13.5 1.6 14.9 1.8l2 5.1c19.5 3.6 32.9 13.1 35.6 14.5 1.3.8 4.6 2.2 6.3 2.2 2.8.2 4.4-2.6 4.4-6.9.3-3.9-4.8-9.7-8.2-11.2zm-86.7-9.1l4-13.1 5 11.5c-.8.1-7.2.9-9 1.6zm34.3-1.7l5.2-11.8 4.8 13.3c-1-.3-9.2-1.4-10-1.5zm36.1-5.2c3.9 1.4 10.6 5.1 12.1 6.5 1 .9 1.4 1.9 1 3.5-.4 1.6-2.5 1.1-3.7.3-.8-.5-5.9-3.4-9.4-4.4v-5.9zm13.8 22.9c-.4 1.6-2.5 1.3-3.7.5-.8-.5-7.8-4.5-10.9-5.4v-6.1c4.9 1.6 12.9 6.5 13.6 7.1 1 1 1.4 2.3 1 3.9zm-97.5 54.1c3-4 6.5-4.7 9.2-4.8 4.4-.1 7.1 3.3 7.1 3.3s1.5-4.7 2.7-6.4c.5-.7 1.1-1.2 1.8-1.5-.1 0-.2 0-.4.1l-12.2-28.6c6.1-.2 13.4 3.5 8.5 10.3-.1.3.2.4.4.2.9-.9 2.1-1.5 3.5-1.5 2.6 0 4.7 2.1 4.7 4.7s-2.1 4.7-4.7 4.7c-.3 0-.6 0-1-.1.3 1.9 11.3 6.3 15.6-2.1-.8.6-1.8.9-2.8.9-2.6 0-4.7-2.1-4.7-4.7s2.1-4.7 4.7-4.7c.9 0 1.8.3 2.5.7-.9-.9-1.5-2.1-1.5-3.4 0-2.6 2.1-4.7 4.7-4.7s4.7 2.1 4.7 4.7c0 1.3-.5 2.4-1.3 3.2.7-.3 1.4-.5 2.2-.5 2.6 0 4.7 2.1 4.7 4.7s-2.1 4.7-4.7 4.7c-1.2 0-2.2-.4-3.1-1.1.9 3.2 8.5 9.3 16.1 2.3-.3.1-.6.1-1 .1-2.6 0-4.7-2.1-4.7-4.7s2.1-4.7 4.7-4.7c1.4 0 2.6.6 3.5 1.5.2.2.5.1.4-.2-4.9-6.8 2.4-10.5 8.5-10.3l-12.2 28.7c-.2 0-.3-.2-.5-.2 1 .4 1.4 1 1.9 2.1 0 0 7.5-3.7 12.7-2.9 0 0-.4 3.7-1.6 6.8-1.2 3.1-2.7 5.2-2.7 5.2s8.6 8.9 7.5 19c-.6 5.5-1.4 6.8-1.4 6.8-2.6-3.3-6.3-4-6.3-4s6.5 6.4 5.3 13.7c-.5 3.2-1.4 7.2-1.9 8.6-.8 2.3-1.1 8.1-1.1 8.1s-2.9-5.9-5.5-7.9c0 0 3.2 8.9-1.9 16.2-2.2 3.1-6.8 7.9-6.8 7.9s-1.6-6.5-4.7-8.8c0 0 .1 7.9-1.9 11.1-3.9 6.4-15.4 10.3-15.4 10.3s-.6-19.6-1.6-22.3c0 0-2.1 4.5-2.7 9-.4 2.9-.5 6.4-.5 6.4s-9-12.4-10.1-14c-3.6-5.5 3-14.2 3-14.2-3 .4-6.7 5.8-6.7 5.8s-.4-7.6-.4-10.9c.1-3.6 3.6-7.6 3.6-7.6-3.1 1.9-5.6 2-8.6-.5-3.2-2.5-3.9-10.5-3.9-10.5s5.6 3.1 9.7 1.6c4.1-1.4 9.3-6.9 9.3-6.9l-10.5-3s-.6-5.1-5.8-5.1c-4.9 0-9.6 4.6-9.6 4.6s-.6-10.2 3.2-15.2zm-15.6 13.4c3.2 6.3 7.3 9.1 11.8 9.6 4.5.5 12-3.2 14.2-3.2 2.2 0 5.3 1.2 6.4 1.7-2.5-4.5-6.4-5.1-9.4-5.5-3-.4-8.1 2.2-12.7 2.4-4.6.3-8.2-3-10.3-5zm40.1-5.9c2.6 0 4.7-2.1 4.7-4.7h-2.6c0 1.5-.8 2.5-2.2 2.5-1.4 0-2-1-2-2.5h-2.6c0 2.6 2.1 4.7 4.7 4.7zm-8.6 4.7l15.2 4.6s-10.1 11.1-15.7 12.4c-2.5.6-3.9.5-6.5-.5-.1-.1 2 5.3 6.9 3.7 5.3-1.7 11.3-3.2 4 5.3-1 1.2-2.5 3.6-2.5 5v1.5c.8-.4 1.5-.6 2.4-.7 5.3-.7 7.9 1.4 3.9 6.8-1.7 2.2-4.2 7.2-2.9 9.3.4.5 1.9 2.6 3.7 5.2.9-3.4 2.2-6 2.2-6.1 4.3-9 6-4.1 7.8.2.9 2.2 1.4 9.8 1.7 17.5 3-1.6 6.3-3.7 7.8-6.1.8-1.3 1.3-5.7 1.3-8.9-.1-8.2 2.5-7.4 6.8-3.4 1.3 1.2 2.6 2.6 3.5 4.3.7-.9 1.4-1.7 1.9-2.4 3.7-5.4 1.4-12.4 1.4-12.4-4.8-13.3 3.6-7 6.5-4.8.2.1.3.3.5.4.4-1.6 1-4.2 1.3-6.5.7-4.1-3.1-8.3-4.1-10-2.9-5.1-3.5-9.4 6.4-6.3.7-7.1-5-14-6.1-15.3-3.1 3.5-6.5 6.8-6.5 6.8.8.9 1.6 11.5.3 15.8-3 9.5-6.7 10.9-6.7 10.9s-.4-6.7-3-11.1c0 0-.4 7.4-2.8 11.7-3.9 6.9-7.4 8-7.4 8 1.4-5.2.1-13.6.1-13.6-2.6 6.1-7.8 7.7-7.8 7.7l-1.3-9.1 3.4-2.5.7 5s1.3-.3 2.2-2.9c1.2-3.3 3-11.4 5.7-2.7.7 2.3 1 7.8 1 7.8s2.5-4.3 2.5-10.3c0-3.7 1.1-12.6 5.5-4.5 1.3 2.4 3 6.2 3 6.2s2.7-9.8-.6-17.8c0 0 8.4-7.3 12.4-14.6 0 0-9.7 4-14.7 8.9l-2.6-3.9s2.5-2.4 6.7-5c0 0-.8-1.3-3.3-1.3h-26.2c-1.8.1-2.6 2.5-3.3 4.6h16.1v3.7h-4.1c0 4.4-3.6 8-8 8s-8-3.5-8-7.9c-1.3.1-2.6-.5-3.5-1.6 0 0-1.6-1.8-3.7-1.7-1.8.1-3.9.5-5.9 3.1-.8 1.1-1.4 2.9-1.7 4.8 1.6-.6 3.3-1 5.1-1 4.7-.2 7.6 2.8 9 5.7zm7.1-26.1l1.4 4h28.4l1.3-4h-31.1z"/>
</svg>
