<svg xmlns="http://www.w3.org/2000/svg" viewBox="0 0 1565.5 1565.5" width="20" height="20">
    <path d="M594.3 547.8c7.2-189.7 70.2-373.1 181-527.3h790.2v38c-346.1 102.4-694.4 279.4-971.2 489.3zm819.5 997.2c-424.4-66-758-407.3-812.5-835.5 36.6-34.7 74.8-67.5 114.6-98.5 254.1-197.6 485.7-329.3 849.7-464.4V1545h-151.8z"/>
    <path d="M1145.5 1545c-313.4-137-546.6-423.3-610.1-768.8-142.4 155.3-211.2 309.1-207.2 424.9C335.7 1419.7 546.6 1545 847 1545h298.5zM518.2 607.7c-.2-7.1-.2-14.4-.2-21.6 0-208.3 61-402.6 166-565.5H0v1354.3h37.7c0-34.8-.4-63.3 7.4-106.2 43-222.5 222.3-455 473.1-661z"/>
</svg>
