<svg xmlns="http://www.w3.org/2000/svg" viewBox="0 0 2297.9 2297.9" width="20" height="20">
    <path d="M1547.6 1072.3h-250.9c-9.3 0-16.6 6.9-16.6 15.1v84.9c0 8.3 7.3 15.2 16.6 15.2h250.9c9.3 0 16.6-6.9 16.5-15.1l.1-85c-.1-8.2-7.3-15.1-16.6-15.1z"/>
    <path d="M1149 360C519.5 360 9.3 711.1 9.3 1144.2c0 433 510.2 784 1139.8 784 629.4 0 1139.6-351 1139.6-784 0-433.1-510.4-784.2-1139.7-784.2zm17.6 116.1c420.2 5.8 770.8 220 867.6 507.5h-773.5c-144.7-110.4-110.3-407.9-94.1-507.5zm454.6 610.5v86.5c0 25.9-22 46.8-49.1 46.8h-299.8c-27.2 0-49.3-20.9-49.3-46.8v-86.5c0-25.7 22-46.8 49.3-46.8h299.8c27.1.1 49.1 21.1 49.1 46.8zm-442.7-46.7v180.2H1121l.1-180.2h57.4zm-39.8-563.8c-67.6 70.3-217.4 250-268.5 507.5H263.7c97.3-289.1 451.3-504.1 875-507.5zm-403.2 696.3c0 8.2 7.2 15.1 16.5 15.1h324.7v32.4H727.5c-27.2 0-49.3-20.9-49.3-46.8v-86.5c0-25.7 22-46.8 49.3-46.8h349.1v32.4H751.9c-9.3 0-16.5 7.1-16.5 15.2l.1 85zm-501 15l325.8.1c9.6 0 16.3-5.8 16.2-14.1l-.1-27H234.9v-59.8c0-26.2 22.2-46.8 49.3-46.8h349.4v32.4H305.9c-10.4 0-13.9 6.2-13.9 14.4l-.4 27.4h342v59.4c0 26.4-21.8 46.5-49.1 46.5H269.3c-19.2 0-34.8-13.9-34.8-32.5zm21.6 92.7h752c188.9 121.3 136.9 430.1 113.8 531.9-428-9.2-781.9-234.3-865.8-531.9zm892.9 532.3c-1.9 0-3.7-.1-5.7-.1 72-82.2 250.7-306.2 274.5-532.1h621.5l2.6-.8c-85.2 304.2-452.6 533-892.9 533zm915.6-624.9c0 18.6-15.6 32.4-34.8 32.4h-21v-132.4c0-8.3-7.2-15.2-16.2-15.2H1723V1220h-57.2v-180.1H2017c27 0 47.8 21 47.8 46.8l-.2 100.8z"/>
</svg>
