<svg width="20" height="20" viewBox="0 0 100 100" xmlns="http://www.w3.org/2000/svg">
    <path d="M33.615 6.26c18.65-.653 37.318-.005 55.935 1.182 1.96.169 3.945.155 5.875.564 1.044.25 2.172.646 2.783 1.588.557 1.025.568 2.221.713 3.35.443 5.548.573 11.118.99 16.665-.806.097-1.612-.025-2.419-.05-14.359-.74-28.73-1.352-43.111-1.37-7.45.02-14.907-.052-22.349.307-1.804.264-3.845.863-4.887 2.46 5.63.993 11.25 2.064 16.878 3.075 18.655 3.467 37.323 6.857 55.977 10.32-.016 3.512-.01 7.025-.002 10.538-10.49-1.724-20.962-3.585-31.445-5.364C46 45.665 23.453 41.75.893 37.928c.044-3.899.212-7.796.294-11.698.142-3.089.053-6.22.757-9.254.473-2.14 1.35-4.293 2.983-5.822C7.747 8.38 11.826 7.6 15.622 7.21c5.983-.55 11.991-.731 17.993-.95zM0 43.332c32.301 5.91 64.59 11.917 96.887 17.861.706.17 1.46.185 2.139.441l.081.185c-.177 5.253-.28 10.51-.47 15.763-.124 3.241-.469 6.632-2.15 9.487-1.804 2.952-5.164 4.585-8.489 5.202-4.9.913-9.904.973-14.866 1.243-21.353.96-42.75.43-64.069-1.026-1.703-.118-3.436-.148-5.09-.616-.858-.268-1.743-.7-2.228-1.486-.52-1.03-.552-2.206-.68-3.328C.608 80.93.365 74.79.042 68.655c10.997.693 22.012 1.081 33.03 1.324 10.638.17 21.276.168 31.914.272 2.295.095 4.777-.34 6.517-1.938.254-.288.666-.556.624-.988-4.794-.714-9.561-1.601-14.347-2.382-19.254-3.264-38.517-6.498-57.768-9.78-.024-3.943.004-7.887-.012-11.83z" />
</svg>
