<svg version="1.1" id="svg2" xmlns="http://www.w3.org/2000/svg" x="0" y="0" viewBox="0 0 500 500" xml:space="preserve" width="20" height="20">
    <path class="st0" d="M120.4 269.4c-50.3 7.2-97 13.6-97 13.6-2 .2-6.6 1.1-11 .9-2.2-.1-4.3-.5-6-1.2-1.8-.8-3-1.9-3.6-3.5-.9-2.4-.3-5.4 1.8-8.8 2-3.4 5.2-7 9.4-10.6 45-40 94.4-30.6 94.4-30.6s4.6.7 12 1.8m146.4-17.2l-6.4 6.9.9 5.3 4.6-2.7zm2.9-30.6l-12 23.8 2 10.6 7.5-7.9zm6.5 36.8l-8 4.8-.8 7.4-1-.1c1.4 1.2 2.5 2.6 3.5 4l6.3-16.1zm-14.8 8.6c1.4.8 2.5 1.5 3.6 2.4l.4-4.8-4 2.4zm-5.6-18l-4.2 8.4 2.5 4.7 3.6-3.9zm-.7 15.6c1.4.4 2.8.8 4 1.2l-.9-4.6-3.1 3.4zm-10.5-15.6l-1.8 9.2 3.6 3.8 2.4-4.8zm3.5 15.4c1.5-.1 2.9-.4 4.4-.2l-2.1-4-2.3 4.2zm24.8 16.1l2.9-3.6-4.6-.2c.7 1.2 1.4 2.4 1.7 3.8zm29.8-37.6L279.8 218l-7.2 17.8 5.2.3zm-129.4 124c.1.1 3.1 2.9 3.2 3 .1-.1 3.1-5 3.1-5s2.6-4.1 3.2-5c-1.1.9-2.6 2-4.8 3.5.2 0-4.4 3.2-4.7 3.5zm50.8 27.8c.2.1 4.1 1 4.4 1 0-.2.1-5.9.1-5.9s.2-4.9.2-5.9c-.5 1.4-1.2 3.2-2.2 5.5 0 .1-2.3 5.3-2.5 5.3z"/>
    <path class="st0" d="M181.7 240.1c-21.2-3.2-46.7-7-61.4-9.2l.1 38.5c34.8-5 71.4-10.4 95.5-14.4.1 0 .5-.1.8-.1 3.1-.5 10.6-2.8 18.5-10.6.8-1.2 1.4-1.5 2-2.4-5.1 2-12.8 4.4-21.4 3.2-4.5-.6-17.8-2.6-33.5-4.9h-.7l.1-.1zm53.4 9.9c0-1.1.4-2 .6-3-4.5 4.1-8.5 6.6-12 8.1 6.6.5 10.9 1.9 14.4 3.2-1.8-2.3-3-5.2-3-8.3zm72.5-47.9l-26.7 34.1 34.4 1.2v.4c2.7-.4 5.7-.9 8.5-1.2-2.5-13-8.1-24.8-16.2-34.5z"/>
    <path class="st0" d="M249.7 166.5c41.1 0 75.4 29.8 82.4 68.9 15.3-2.3 31.5-4.8 47.3-7.1C369.1 166.2 315 118.9 250 118.9c-65.2 0-119.2 47.5-129.4 109.8 11.4 1.7 29.4 4.4 46.8 6.9 6.8-39.3 41-69.1 82.3-69.1zm96.5 9.1l9 15.1c3.6 6.1 3.9 12.9-1.9 16.2-4 2.4-7.9 1.9-11.6-1.5l-6.7 12.5-4.5-7.4 6.2-11.6-3.9-6.5-9.8 5.9-3.9-6.5 27.1-16.2zm-36.6-31.4l21.4 15.2-3.6 5-15.2-10.9-3.1 4.4 8.9 6.2-3.5 5-8.9-6.2-4.4 6.2 15.9 11.4-3.6 5-22-15.8 18.1-25.5zm-49.5-15.5l7.4 1.5-1.8 8.8c-.2 1.1-.9 3.9-1.1 4.9.6-.6 2.4-1.8 3.5-2.5l12.5-8.4 9 1.9-13 8.5 9.5 23-9-2-7-17-7.1 4.6-1.9 9.1-7.4-1.5 6.4-30.9zm-46.7 5.8l6.9 6c1.8 1.5 4.5 4.1 5.4 5.1.4-1.2 1.6-4.8 2.6-7l3.5-8.5 8.4-2-9.7 21.9 2.9 12.1-7.4 1.8-2.8-12-18.2-15.4 8.4-2zM180.6 151c5.8-4.2 12.4-5.1 16.4.2 4.4 6 1.5 11.9-4.8 16.5l-6.6 5 6.6 9-6.1 4.5-18.8-25.4 13.3-9.8zm-12.2 43.5c-1.8-1-3.1-.4-8 5.1-4.6 5.4-8.8 8.6-14.1 5.5-5-2.9-4.9-9.9-1.1-16.4 3-5.1 6.7-7.9 11.2-9.4l1 6.9c-3 1-5.4 2.8-7.1 5.8-2 3.5-1.5 5.4-.2 6.1 1.8 1 3.1-.1 7.1-4.6 4-4.6 8.9-9.5 14.8-6 5.3 3 6.5 9 1.2 17.9-3.2 5.5-7.9 9.1-12.4 9.8l-.8-6.8c3.5-1 6.1-3.4 8-6.5 2.3-3.9 2.4-6.3.4-7.4z"/>
    <path class="st0" d="M349.1 200.2c2.6-1.4 2.5-3.8.8-6.6l-5.1-8.5-7 4.1 5.1 8.5c1.7 3 3.8 4 6.2 2.5zm-107.7 27.3c1.4-.5 2.6-1 4-1.2l-3.2-3.4-.8 4.6zM190.8 156c-1.6-2.1-4.1-1.9-6.9.1l-7 5.1 4.9 6.5 7.1-5.2c2.9-2.2 3.5-4.3 1.9-6.5zm43.3 76l-1.1.1-.8-7.6-8.2-4.8 6.5 15.6c.9-1.3 2.3-2.2 3.6-3.3zm-3.8-48.8l2.8 26.4 7.6 8 1.9-10.6zm266.9 37.6c-.6-1.6-1.9-2.8-3.6-3.5-1.8-.8-3.9-1.1-6.1-1.2-4.4-.2-8.9.5-10.9.8 0 0-46.7 6.4-97 13.7-34.9 5-71.5 10.5-95.6 14.5v.1c-.5.1-1 .1-1.5.2-3.5.8-10.3 3.2-17.6 10.3-.9 1.2-1.4 1.5-2 2.2-.1.1-.1.2-.2.3 5.1-2 12.7-4.3 21.3-3.2 4.4.6 19.1 2.9 33.9 5h.1c21.5 3.2 47.1 7 61.7 9.1 7.2 1.1 11.8 1.7 11.8 1.7h.1c.1 0 3.3.6 8.6.9 16 .8 52.1-1.4 85.9-31.4 4.1-3.6 7.4-7.4 9.4-10.8 1.9-3.4 2.6-6.3 1.7-8.7zM269.7 178c-5.8-1.6-11.9-2.8-18.1-2.9l5.4 28 12.7-25.1zm2.7.6l-2.6 28.2 19.5-20.6c-5.2-3.2-10.9-5.7-16.9-7.6zm-29.5 61.2c-3.2 2.2-5.3 5.9-5.3 10.2 0 4.3 2.2 8.2 5.5 10.4l6.8-10.5-7-10.1zm25.5-18.1l9.3-5.4 9.9-24.7-18.2 19.2z"/>
    <path class="st0" d="M249.7 172.6c38 0 69.6 27.5 76.2 63.6 1.2-.2 2.5-.4 3.8-.5-6.9-38-40-66.9-80-66.9s-73.2 29-80 67.1c1.3.2 2.6.4 3.8.6 6.5-36.3 38.2-63.9 76.2-63.9zm53.7 67.2l-24.8-1-3 3.8c2.6.3 5.3.3 7.8 0v.2c5.4-.8 14.2-2 20-3z"/>
    <path class="st0" d="M252.9 228.5c-10.2-1.5-19.7 4.3-23.4 13.3 7-1.6 12.4-4.2 12.4-4.2l.3-.1.1.2c2.2-1.4 4.8-2.5 7.6-2.5s5.5 1 7.8 2.5l.1-.2s5.3 2.6 12.1 4.2c-2.8-6.9-9.1-12.1-17-13.2z"/>
    <path class="st0" d="M257 260.2c3.3-2.3 5.4-6 5.4-10.3 0-4.4-2.3-8.3-5.8-10.4l-6.7 10.4 7.1 10.3zM219.2 236l-27.1-33.9c-8.2 9.7-13.8 21.6-16.1 34.7 2 .3 4 .6 5.9.9l37.3-1.7zm86.2-36.2c-4.1-4.5-8.8-8.5-13.8-12l-10.5 26.4 24.3-14.4zm-84.8 17.9l-23.4-13.4 25.2 31.4 5.4-.2zm6.6 23.9c.5-1.4 1.2-2.6 1.9-3.9l-4.8.2 2.9 3.7zm34.7.2c1.8 2.4 3 5.1 3 8.4 0 .8-.1 1.6-.2 2.3 3.9-3.5 7.7-5.8 10.9-7.3-5.5-.5-10.3-2.1-13.7-3.4zm-26.6-11.1c1.1-.9 2.4-1.6 3.8-2.2l-4.2-2.5.4 4.7zm-.7-7.7l4.6 2.6 1-5.1-6.6-6.9zm-2.7-1.5l-1.1-10.8-18.5-19.4 10.3 24.8zm16.5-46.4c-6.2.1-12.2 1.2-18.1 2.8l13 25.2 5.1-28zm-21 3.5c-5.9 1.9-11.6 4.2-16.8 7.5l19.6 20.6-2.8-28.1zm22.8 37.6l4.9-9.6-5-26.3-4.8 26.3zM208.3 188c-5.1 3.4-9.8 7.4-13.9 12l24.5 14-10.6-26zm86.9 75.5l23.5 16.2c2.2-5.2 4-10.8 5-16.5-2.8-.4-3.4-.5-6-.9l-22.5 1.2zm-3.9.1l-10.9.4 6.9 8.6c0 .1 26.1 6.5 26.1 6.5l-22.1-15.5zm-18.5-5.4c-.5 1.4-1.2 2.6-2 3.9l4.7-.2-2.7-3.7zm-7.5 18.9l-4.7-2.6-1 5 6.7 6.8zm-.7-7.8c-1.1.9-2.4 1.6-3.8 2.2l4.2 2.4-.4-4.6zm5-4.6c-.9 1.1-2.1 2-3.3 3l5 1.1-1.7-4.1zm18.5-3.4l-5.5-4c-2.5-.2-4.9-.2-7.4.1l3.4 4.2 9.5-.3z"/>
    <path class="st0" d="M249.9 333.7c-41 0-75.1-29.5-82.4-68.4-15.1 2.3-31.2 4.6-46.9 6.9 10.5 62 64.4 109.1 129.3 109.1 65.2 0 119.3-47.5 129.5-109.9-11.6-1.7-30.1-4.5-47.2-7-6.8 39.4-40.9 69.3-82.3 69.3zm-109.3-39l10.4-9.4s3.5-3.1 4.2-3.8c-.5.1-3.8 1.4-3.8 1.4l-13.4 5-.8-2.1 22.2-8.2v.1s.8 1.9.8 2l-9.9 8.9s-3.5 3.1-4.2 3.8c1.1-.5 3.8-1.5 3.8-1.5l12.9-4.8.8 2.1-22.4 8.4-.6-1.9zm4.6 10.5c-1.8-3.1-.2-6.2 4-8.5l14.8-7.8 1.1 2-14.7 7.8c-1.8.9-2.9 2-3.2 3.1-.2.8-.1 1.5.2 2.2 1 2 3.1 2.1 6.1.5l14.7-7.8 1.1 2.1-14.7 7.8c-4.3 2.4-7.8 1.7-9.4-1.4zm5.1 8.3l19.5-13.5 1.4 1.9s-17.5 12-17.6 12.1c.1.2 3.9 5.6 3.9 5.6l-2 1.4-5.2-7.5zm7 9.8l18.2-15.4 1.5 1.8s-16.2 13.8-16.4 14c.1.1 4.4 5.1 4.4 5.1l-1.9 1.5-5.8-7zm14.6 15.7s3.1-5.2 3.3-5.4c0-.1-3.8-3.6-3.9-3.8-.1.1-5.1 3.6-5.1 3.6l-1.6-1.6 20-13.8 1.7 1.6-12.6 20.9-1.8-1.5zm13.3 9.7s11.5-17.9 11.6-18c-.1-.1-3.6-2.4-3.6-2.4l1.4-2 9.1 5.9-1.2 2s-3.5-2.2-3.6-2.4c-.1.2-11.6 18.1-11.6 18.1l-2.1-1.2zm17.9 7.3l-1.1 2.1-8.6-4.4 10.9-21.1 8.4 4.1-1.1 2.1s-6.1-3-6.2-3.1c-.1.2-3.2 6.6-3.4 6.8.1.1 3.9 2 3.9 2l-1.1 2.1s-3.8-1.9-3.9-2c-.1.1-4 8-4.1 8.1-.1.1 6.3 3.3 6.3 3.3zm10.7 6.5l-.5-14s-.1-4.6-.1-5.6c-.2.5-1.4 3.8-1.4 3.8l-4.9 13.5-2.1-.8 8.2-22.5h.1s1.9.6 2 .8l.4 13.2s.1 4.6.1 5.6c.4-1.1 1.2-3.8 1.2-3.8l4.6-12.9 2.1.8-8 22.5-1.7-.6zm16.9 4.1l-2.4-.5s.1-6.1.1-6.2c-.1 0-5.1-1.1-5.3-1.1 0 .1-2.5 5.8-2.5 5.8l-2.2-.5 10-22.2 2.4.5-.1 24.2zm15.1-17.5l-2.2.9v-.1c-.6-2.9-1.2-3.9-2.8-4-2.4-.2-4 3.2-4.6 9.5-.5 4.6-.1 7.9 1.1 9.4.5.5 1 .9 1.6.9 1.5.1 2.5-.8 3.6-3.4v-.1l1.9 1.2v.1c-1.4 3.4-3.1 4.8-5.8 4.5-3.9-.4-5.5-5-4.7-12.9.9-7.8 3.5-12 7.2-11.8 2.4.2 3.9 2 4.6 5.6v.2zm3.9 19h-2.4l.4-23.9h2.4l-.4 23.9zm12.2-.5l-2.6-23.8 2.4-.2 2.6 23.8-2.4.2zm15.5-2.6l-7.6-11.8-3-4.8c.1.5.9 3.9.9 3.9l2.9 14-2.1.5-4.9-23.4h.1s2-.4 2.1-.4l7.2 11 3 4.8c-.2-.9-.9-3.9-.9-3.9l-2.8-13.4 2.1-.4 4.7 23.4-1.7.5zm9.8-3l-12.4-20.8 2-.8 7.4 12.8c1.1 2 2.2 4 3 5.5-.4-1.8-.8-4-1-6.2l-2-14.5 2-.8 3 24.1-2 .7zm9.9-3.7l-9.8-21.8 2.1-1 9.8 21.8-2.1 1zm14-7.2s-4-4.6-4.1-4.8c-.1.1-4.6 2.5-4.7 2.6 0 .1 1.9 6 1.9 6l-2 1.1-7.2-23.2 2.2-1.2 16.1 18.4-2.2 1.1zm11-7.4l-15.3-18.4 7.1-6 1.6 1.9s-5.2 4.4-5.4 4.5c.1.1 4.6 5.6 4.8 5.8.1-.1 3.4-2.8 3.4-2.8l1.5 1.9s-3.2 2.6-3.4 2.8c.1.1 5.8 6.9 5.9 7 .1-.1 5.6-4.6 5.6-4.6l1.5 1.9-7.3 6zm12.7-11.1c-1.8 1.9-4.1 2-7.1.5h-.1l.8-2.2h.1c2.4 1 3.8 1 4.8 0 1.2-1.2 1.1-2.9-.2-4.2-1.8-1.6-3.8-2.2-7-1.8-4 .5-6 0-8.1-2.1-1.1-1.1-1.9-2.6-1.9-4 0-1.2.5-2.4 1.4-3.2 2-2.1 4.2-1.6 6.2-.8h.1l-.5 2.2h-.1c-1.9-.6-3.3-.9-4.2.2-1.2 1.2-.6 2.8.4 3.8 1.4 1.2 2.6 1.9 6.1 1.4 4-.6 6.6.1 9 2.4 2.3 2.4 2.4 5.5.3 7.8zm7.4-8.9s-16.8-13.1-16.9-13.2c-.1.1-2.6 3.4-2.6 3.4l-1.9-1.5 6.6-8.5 1.9 1.5s-2.5 3.2-2.6 3.4c.1.1 16.9 13.2 16.9 13.2l-1.4 1.7zm-1.9-46.6l24.2 2.2-.8 2.2s-6.1-.6-6.3-.6c-.1.1-1.6 5-1.6 5.1.1 0 5.5 3 5.5 3l-.6 2.2-21.2-12 .8-2.1zm-2.9 8l22 9.1-.9 2.1-22-9.1.9-2.1zm-1 3.2l18.8 15.5-1 2-23.5-6.6 1.1-2.1 14.1 4.2s4.4 1.5 5.4 1.8c-1.2-1-4.5-3.5-4.5-3.5l-11.5-9.2 1.1-2.1zm-31.2-27.7c-6.5-1-14.8-2.2-17.9-2.6l4.6 3.1 13.3-.5z"/>
    <path class="st0" d="M287.6 308.7L277.4 284l-9.5-5.4 1.2 10.6zm-1.7-33.7l-10.6-2.7 4.1 10 23.2 13.3zm-2.3-3.2l-6.2-7.6-5.3.3 2 5zm-16 3.8l8.3 4.6-3.6-8.6-5.2-1.3zm-45.3 8.1l-10 25 18.3-19.5 1.1-11zm11 2.5l6.3-6.9-1-5.3-4.5 2.6zm25.3-13.7c-1.4.5-2.6 1.1-4 1.4l3.1 3.4.9-4.8zm-34.9 7.5l8.1-4.8.8-7.4.9.1c-1.2-1.1-2.4-2.5-3.2-3.9l-6.6 16zm3.2-21.9l-2.8 3.5 4.5.2c-.5-1.2-1.3-2.3-1.7-3.7zm11.5 13.2c-1.2-.6-2.4-1.4-3.5-2.2l-.5 4.6 4-2.4zm17 18.2l1.8-9.3-3.8-3.9-2.3 4.7zm-25.1 27.3l12-23.7-2-10.6-7.4 7.7zm21.6-42.8c-1.5.1-2.9.4-4.4.2l2.1 4.1 2.3-4.3zm-7.7 15.3l4.1-8.3-2.5-4.8-3.5 3.9zm.7-15.6c-1.4-.2-2.9-.6-4.1-1.1.1 0 .9 4.5.9 4.5l3.2-3.4zm-50.5 26.5c4.1 4.5 8.8 8.5 13.9 11.9l10.5-26.4-24.4 14.5zm55.3-16.5l-4.8 9.6 5 26.3 4.8-26.1zm-22.3 37.6l2.6-28.2-19.3 20.9c5.2 3.1 10.9 5.5 16.7 7.3zm2.9.8c5.9 1.6 11.9 2.8 18.1 2.9l-5.4-28-12.7 25.1zm11.9-59.6l-.1.2s-5.4-2.6-12.4-4.1c2.9 7 9.3 12.4 17.2 13.5 10.1 1.5 19.2-4.4 23-13.4-6.4 1.5-11.2 3.8-11.5 3.9-.1.1-.2.1-.4.1-2.3 1.5-5.1 2.4-8 2.4-2.9 0-5.4-1.1-7.8-2.6zm17 20l-1.9 10.6 12.3 23.7-2.8-26.5zm-64.3-42.9c10.1 1.5 18 2.6 21.2 3.1 2.7.4 5.6.3 8.4 0l-3.4-4.2-26.2 1.1zM307.6 298c3.9-4.8 7-10 9.8-15.6l-27.5-6.8 17.7 22.4zm-15.9 14.1c5.1-3.4 9.6-7.4 13.8-12L280.9 286l10.8 26.1zm-75.3-54.4h-.1c-5.7.9-12 2-18.9 3l23.8 1 3.2-4c-2.7-.3-5.4-.3-8 0zm85.2 89c.2-.1 3.6-2 3.9-2.1-.2-.2-3.9-4.5-3.9-4.5-1.5-1.6-2.8-3.2-3.8-4.5.5 1.4 1.1 3.2 1.9 5.6 0 0 1.6 5.3 1.9 5.5zm-29.2-25.4c5.9-1.9 11.6-4.2 16.9-7.5L269.6 293l2.8 28.3zm-20.8 3.7c6.2-.1 12.2-1.2 18-2.9l-13-25.1-5 28zm-59.3-26.8l26.9-34.2-34.6-1.2c-2.7.4-5.5.8-8.3 1.3 2.3 12.7 8 24.5 16 34.1zm35.1-34l-5.2-.2-25 31.7 23.1-13.6z"/>
    <path class="st0" d="M249.9 331.3c40.1 0 73.2-29 80-67.1-1.8-.2-2-.2-3.8-.5-6.5 36.4-38.1 64-76.2 64-38 0-69.6-27.4-76.2-63.4-1.2.2-2.4.4-3.7.5 7 37.9 40.2 66.5 79.9 66.5zm93.5-52.1c1.2.6 3 1.5 5.2 2.8 0 0 5 2.8 5.1 2.9.1-.2 1.2-4 1.4-4.2-.3 0-5.9-.6-5.9-.6s-4.8-.8-5.8-.9z"/>
</svg>
