<svg xmlns="http://www.w3.org/2000/svg" viewBox="0 0 612 612" width="20" height="20">
    <path d="M305.3 118.9c-79.2 0-152.6 21.2-206.4 53-55.1 32.5-89.7 76.3-89.7 120.8 0 43.8 34.6 86.9 89 119.4 54.4 31.8 127.2 52.3 207.1 52.3 79.9 0 153.4-20.5 207.8-52.3 55.1-32.5 89.8-75.6 89.8-119.4 0-44.5-34.6-88.3-90.5-120.8-53.8-31.8-127.3-53-207.1-53zM94 164.1c55.8-32.5 130-54.4 211.3-54.4 81.3 0 156.2 21.9 212 54.4 58 33.9 94.7 80.6 94.7 128.6 0 46.6-36.7 93.3-94.7 127.2-55.1 32.5-130.7 53.7-212 53.7S149.1 452.4 94 419.9C36 386 0 339.4 0 292.7c0-47.3 36.7-94.7 94-128.6z"/>
    <path d="M222.6 226.3l137.8 30.4L224 284.9l-29.7 75-29.6-76.4-125.8-26.8 125.8-26.9 28.2-72.1zM373.8 297l58.7 12-58.7 13.4-12 31.1-13.4-32.5-53.7-12 53.7-12 12-29.7zm142.1 0l58.6 12-58.6 13.4-12 31.1-13.5-32.5-52.2-12 52.2-12 13.5-29.7zm-37.5-88.4l58.7 12-58.7 12.1-12 32.5-13.4-32.5-53.7-12.1 53.7-12 12-29.7zm-55.1 158.3l60.1 13.5-58.7 12-13.4 31.8-13.4-31.8-52.3-12 52.3-12.1 13.4-29.6zm-154 10.6l57.9 13.5-57.9 12-12.1 31.8-13.4-33.2-53.7-10.6 53.7-12.1 12-31.1z"/>
</svg>
