<svg xmlns="http://www.w3.org/2000/svg" viewBox="0 0 100 100" width="20" height="20">
    <path d="M90.1 20l2.4-2.4c1.7 2.2 3.1 4.6 4.6 7.1H99V1.1H75.3V3c2.5 1.3 4.7 2.8 6.9 4.6L79.8 10C71.5 3.6 61.2 0 50 0 22.3 0 0 22.3 0 50s22.3 50 50 50 50-22.3 50-50c0-11.3-3.8-21.7-9.9-30zm-3.6 39C82.4 75.3 67.6 87.6 50 87.6S17.5 75.5 13.5 59h73zM13.4 40.9c4.1-16.4 18.9-28.6 36.5-28.6s32.5 12.1 36.5 28.6h-73zm63.3 8.9c0-1.7.9-3.3 2.4-3.3 1.4 0 2.2 1.6 2.2 3.5 0 1.7-.8 3.5-2.4 3.5-1.6-.2-2.2-1.9-2.2-3.7zm-41.5 0c0-1.7.9-3.3 2.4-3.3 1.4 0 2.2 1.6 2.2 3.5 0 1.7-.8 3.5-2.4 3.5-1.6-.2-2.2-1.9-2.2-3.7zm2.4-4.8c4.4 0 6.6 2.2 6.6 4.9s-2.2 4.9-6.6 4.9-6.6-2.3-6.6-5 2.2-4.8 6.6-4.8zm-13.5 7.4l3.1-5.8h-1.9v-1.4h6.4v1.4h-2.2l-4.2 7.9h-5l-4.4-7.9h-2.2v-1.4h9.4v1.4h-2.2l3.2 5.8zm55-7.4c4.4 0 6.6 2.2 6.6 4.9s-2.2 4.9-6.6 4.9c-4.4 0-6.6-2.2-6.6-4.9s2.2-4.9 6.6-4.9zm-21.6 1.7h-2.2v-1.4h9.4v1.4h-2.2l3.1 5.8 3.1-5.8H67v-1.4h6.4v1.4h-2.2L67 54.6h-5c-.1 0-4.5-7.9-4.5-7.9zm-10.7 0h-2.2v-1.4h8.6v1.4H51v6.4h2c1.9 0 3-1.3 3-2.8h1.4v4.4H44.6v-1.4h2.2v-6.6z"/>
</svg>
