<svg xmlns="http://www.w3.org/2000/svg" viewBox="0 0 612 612" width="20" height="20">
    <path d="M263.5 332.1V344h109.2v-35.9h-12.4c-.6 11.3-6.8 23-22.8 24h-19.3v-54.5h18.6v-12h-73v12h18v54.5h-18.3zm-60.4 13.6c-29.9 0-55.1-15.3-55.1-39.8 0-27.3 25.1-40.8 55.1-40.8 33.5 0 54.9 15.3 54.9 40.8 0 24.3-24.1 39.8-54.9 39.8zm0-13.3c10.4 0 18.1-12.1 18.1-26.6 0-16.1-7-28.1-18.1-28.1-11.1 0-17.9 12-17.9 28.1 0 16.3 6.8 26.6 17.9 26.6zM2.4 265.7v12h18.3l36.1 66.2h43.1l36.9-66.2H155v-12H99.8v12h15.8l-26.6 48-26.3-48H82v-12H2.4zm352.2 0h79.7v12h-19.4l26.3 48 26.8-48h-16v-12h55.1v12H489l-37 66.2h-43.1l-36.1-66.2h-18.2v-12zm200.4 80c30.8 0 54.9-15.5 54.9-39.8 0-25.5-21.5-40.8-54.9-40.8-29.9 0-55.1 13.5-55.1 40.8 0 24.5 25.2 39.8 55.1 39.8zm0-13.3c-11.1 0-17.8-10.3-17.8-26.6 0-16.1 6.8-28.1 17.8-28.1s18.1 12 18.1 28.1c0 14.5-7.6 26.6-18.1 26.6z"/>
</svg>
